<svg width="30" height="30" viewBox="0 0 30 30" fill="none" xmlns="http://www.w3.org/2000/svg">
<path fill-rule="evenodd" clip-rule="evenodd" d="M15 2.50002C16.6415 2.50001 18.267 2.82332 19.7835 3.4515C21.3001 4.07968 22.6781 5.00042 23.8388 6.16115C24.9996 7.32189 25.9203 8.69988 26.5485 10.2164C27.1767 11.733 27.5 13.3585 27.5 15C27.5 21.9036 21.9036 27.5 15 27.5C8.09647 27.5 2.5 21.9036 2.5 15C2.5 8.09648 8.09647 2.50002 15 2.50002ZM16.25 16.25H13.75C10.6554 16.25 7.99855 18.1243 6.85264 20.7997C8.66576 23.3422 11.6393 25 15 25C18.3607 25 21.3342 23.3422 23.1474 20.7995C22.0015 18.1243 19.3447 16.25 16.25 16.25ZM15 6.25002C12.9289 6.25002 11.25 7.92896 11.25 10C11.25 12.0711 12.9289 13.75 15 13.75C17.071 13.75 18.75 12.0711 18.75 10C18.75 7.92896 17.0711 6.25002 15 6.25002Z" fill="#4B5563"/>
</svg>
