<svg width="10" height="6" viewBox="0 0 10 6" fill="none" xmlns="http://www.w3.org/2000/svg">
<path d="M7.85687 0.661253C7.45062 0.842503 6.81938 1.1925 6.10688 1.59875L2.69438 1.12375C2.50287 1.09613 2.30768 1.10977 2.12188 1.16375L1.38125 1.37375C1.31875 1.37375 1.31875 1.43625 1.38125 1.46125L4.23125 2.71125C3.26875 3.28625 2.4125 3.81125 2.0375 4.04875C1.97059 4.09078 1.89522 4.11751 1.81678 4.12702C1.73834 4.13653 1.65876 4.12858 1.58375 4.10375L0.8375 3.8675C0.718999 3.82524 0.58946 3.82568 0.47125 3.86875L0 4.06125L1.575 5.37375C1.65418 5.44018 1.75048 5.48292 1.85286 5.49707C1.95523 5.51122 2.05952 5.49621 2.15375 5.45375C2.90625 5.1175 4.8875 4.205 6.3625 3.43625C9.6375 1.69875 10 1.39875 10 1.12375C10 0.692503 8.75062 0.248753 7.85687 0.661253Z" fill="#B4B4CD"/>
</svg>
