<svg width="26" height="36" viewBox="0 0 26 36" fill="none" xmlns="http://www.w3.org/2000/svg">
<rect x="1.04688" y="14.0869" width="23.4783" height="12.5217" fill="#C3A0CD" fill-opacity="0.5"/>
<path fill-rule="evenodd" clip-rule="evenodd" d="M3.68312 6.14634C2.84554 6.14634 2.16654 6.83429 2.16654 7.68293V30.9512C2.16654 31.7999 2.84554 32.4878 3.68312 32.4878H21.8821C22.7197 32.4878 23.3987 31.7999 23.3987 30.9512V7.68293C23.3987 6.83429 22.7197 6.14634 21.8821 6.14634H3.68312ZM0 7.68293C0 5.62196 1.64899 3.95122 3.68312 3.95122H21.8821C23.9162 3.95122 25.5652 5.62196 25.5652 7.68293V30.9512C25.5652 33.0122 23.9162 34.6829 21.8821 34.6829H3.68312C1.64899 34.6829 0 33.0122 0 30.9512V7.68293Z" fill="#A56EB4"/>
<path fill-rule="evenodd" clip-rule="evenodd" d="M7.79956 3.73171C7.79956 1.67075 9.44855 0 11.4827 0H14.0825C16.1167 0 17.7657 1.67075 17.7657 3.73171V8.12195C17.7657 8.72812 17.2807 9.21951 16.6824 9.21951C16.0841 9.21951 15.5991 8.72812 15.5991 8.12195V3.73171C15.5991 2.88308 14.9201 2.19512 14.0825 2.19512H11.4827C10.6451 2.19512 9.9661 2.88308 9.9661 3.73171V8.12195C9.9661 8.72812 9.4811 9.21951 8.88283 9.21951C8.28455 9.21951 7.79956 8.72812 7.79956 8.12195V3.73171ZM6.71629 11.8537C7.31456 11.8537 7.79956 12.3451 7.79956 12.9512V28.3171C7.79956 28.9232 7.31456 29.4146 6.71629 29.4146C6.11801 29.4146 5.63301 28.9232 5.63301 28.3171V12.9512C5.63301 12.3451 6.11801 11.8537 6.71629 11.8537ZM12.7826 11.8537C13.3809 11.8537 13.8659 12.3451 13.8659 12.9512V28.3171C13.8659 28.9232 13.3809 29.4146 12.7826 29.4146C12.1843 29.4146 11.6993 28.9232 11.6993 28.3171V12.9512C11.6993 12.3451 12.1843 11.8537 12.7826 11.8537ZM18.8489 11.8537C19.4472 11.8537 19.9322 12.3451 19.9322 12.9512V28.3171C19.9322 28.9232 19.4472 29.4146 18.8489 29.4146C18.2507 29.4146 17.7657 28.9232 17.7657 28.3171V12.9512C17.7657 12.3451 18.2507 11.8537 18.8489 11.8537ZM4.54974 32.4878C5.14802 32.4878 5.63301 32.9792 5.63301 33.5854V34.9024C5.63301 35.5086 5.14802 36 4.54974 36C3.95147 36 3.46647 35.5086 3.46647 34.9024V33.5854C3.46647 32.9792 3.95147 32.4878 4.54974 32.4878ZM20.5822 32.4878C21.1804 32.4878 21.6654 32.9792 21.6654 33.5854V34.9024C21.6654 35.5086 21.1804 36 20.5822 36C19.9839 36 19.4989 35.5086 19.4989 34.9024V33.5854C19.4989 32.9792 19.9839 32.4878 20.5822 32.4878Z" fill="#A56EB4"/>
</svg>
