<svg width="1238" height="315" viewBox="0 0 1238 315" fill="none" xmlns="http://www.w3.org/2000/svg">
<g clip-path="url(#clip0_112_3591)">
<rect width="1237.73" height="315" rx="24" fill="white"/>
<g style="mix-blend-mode:overlay" opacity="0.56">
<path d="M1487.13 14.8674C1476.22 24.2405 1468.49 37.2389 1465.14 51.8391C1457.62 45.383 1448.33 41.7886 1438.72 41.6158C1429.11 41.443 1419.71 44.7016 1412 50.8838C1404.28 57.0661 1398.68 65.8249 1396.07 75.7958C1393.45 85.7667 1393.97 96.3898 1397.54 106.01C1390 107.21 1382.96 110.834 1377.36 116.409C1371.75 121.984 1367.84 129.25 1366.13 137.26C1358.31 134.672 1350.03 134.177 1342 135.817C1333.97 137.457 1326.43 141.183 1320.04 146.672C1317.07 149.254 1314.37 152.184 1312 155.407C1303.81 146.258 1293.34 139.847 1281.85 136.941C1270.36 134.035 1258.34 134.757 1247.23 139.021C1245.77 136.248 1244.12 133.599 1242.29 131.098C1234.48 120.468 1223.75 112.78 1211.63 109.137C1199.51 105.495 1186.64 106.086 1174.85 110.826C1163.06 115.566 1152.97 124.21 1146.03 135.517C1139.09 146.824 1135.65 160.212 1136.21 173.758C1125.52 176.527 1115.67 182.177 1107.56 190.178C1099.46 198.179 1093.37 208.268 1089.87 219.498C1089.34 218.753 1088.9 217.975 1088.33 217.23C1081.74 208.247 1073.03 201.335 1063.11 197.213C1053.2 193.092 1042.43 191.912 1031.95 193.796C1021.47 195.68 1011.64 200.56 1003.51 207.927C995.366 215.294 989.209 224.878 985.675 235.682C978.813 230.413 970.496 227.811 962.083 228.301C960.826 226.27 959.538 224.238 958.093 222.308C949.502 210.626 938.157 201.644 925.244 196.301C912.332 190.958 898.325 189.45 884.687 191.933C871.049 194.417 858.279 200.802 847.713 210.421C837.146 220.041 829.17 232.541 824.616 246.618C819.199 239.944 812.16 235.035 804.293 232.441C796.425 229.848 788.042 229.675 780.089 231.941C772.135 234.207 764.926 238.822 759.275 245.266C753.624 251.711 749.756 259.728 748.106 268.415C746.455 277.101 747.089 286.112 749.935 294.432C752.782 302.751 757.727 310.048 764.215 315.501C770.702 320.954 778.474 324.345 786.654 325.293C794.834 326.241 803.097 324.708 810.512 320.866L984.512 556.95L1404.17 345.615C1415.19 345.615 1441.49 313.925 1450.82 305.935C1460.15 297.945 1463.07 275.193 1465.52 263.614L1489.87 124.361C1499.5 131.699 1510.84 136.002 1522.61 136.787C1534.38 137.572 1546.13 134.807 1556.52 128.804C1566.92 122.801 1575.56 113.795 1581.48 102.797C1587.4 91.7983 1590.36 79.2414 1590.02 66.5331C1589.69 53.8247 1586.08 41.467 1579.6 30.8446C1573.12 20.2222 1564.02 11.7547 1553.33 6.39098C1542.63 1.02728 1530.76 -1.02076 1519.05 0.476357C1507.34 1.97348 1496.24 6.95663 1487.01 14.8674H1487.13Z" fill="#FFFAD7"/>
</g>
<g style="mix-blend-mode:overlay" opacity="0.56">
<path d="M581.289 347.205C567.317 347.197 553.739 352.187 542.681 361.391C540.52 351.316 535.331 342.293 527.922 335.724C520.512 329.155 511.297 325.407 501.708 325.064C492.119 324.72 482.693 327.8 474.896 333.824C467.098 339.848 461.365 348.48 458.587 358.378C451.984 354.237 444.374 352.345 436.755 352.949C429.136 353.553 421.865 356.626 415.895 361.763C410.204 352.772 402.115 345.855 392.697 341.925C383.279 337.996 372.977 337.239 363.152 339.756C362.018 327.097 357.521 315.058 350.2 305.084C342.879 295.11 333.044 287.622 321.874 283.52C322.316 280.371 322.536 277.191 322.534 274.006C322.548 260.45 318.575 247.237 311.187 236.266C303.798 225.295 293.373 217.13 281.41 212.944C269.446 208.758 256.56 208.765 244.601 212.966C232.641 217.166 222.225 225.344 214.848 236.323C204.846 231.332 193.828 229.169 182.836 230.04C171.843 230.911 161.238 234.786 152.02 241.3C152.02 240.352 152.02 239.438 152.02 238.49C152.037 227.028 149.202 215.771 143.81 205.892C138.418 196.012 130.667 187.872 121.363 182.319C112.06 176.766 101.545 174.004 90.914 174.32C80.2832 174.636 69.9256 178.019 60.9203 184.116C58.5784 175.389 53.5623 167.775 46.6899 162.515C46.8784 160.078 47.0355 157.64 47.0355 155.135C47.0476 140.227 43.3457 125.59 36.3164 112.751C29.2871 99.9128 19.1883 89.3438 7.07475 82.1483C-5.0388 74.9528 -18.7227 71.3947 -32.5479 71.8457C-46.3731 72.2968 -59.8324 76.7403 -71.5199 84.7123C-71.9236 75.8667 -74.6103 67.3182 -79.2777 60.0293C-83.9451 52.7404 -90.4078 47.0006 -97.9381 43.456C-105.468 39.9114 -113.767 38.7029 -121.9 39.9665C-130.033 41.2301 -137.678 44.9157 -143.973 50.6083C-150.267 56.3008 -154.963 63.7743 -157.53 72.1872C-160.097 80.6001 -160.434 89.6184 -158.503 98.2267C-156.573 106.835 -152.45 114.691 -146.601 120.911C-140.751 127.131 -133.407 131.468 -125.394 133.432V434.759H342.67C351.585 442.451 362.664 446.642 374.084 446.642C385.504 446.642 396.583 442.451 405.498 434.759H520.44C523.743 446.966 530.135 457.941 538.899 466.453C547.664 474.965 558.454 480.677 570.062 482.951C581.67 485.225 593.636 483.969 604.619 479.325C615.602 474.681 625.167 466.832 632.244 456.657C639.32 446.483 643.628 434.386 644.683 421.721C645.739 409.057 643.501 396.326 638.221 384.955C632.94 373.584 624.826 364.023 614.787 357.343C604.748 350.664 593.181 347.13 581.383 347.137L581.289 347.205Z" fill="#FFFAD7"/>
</g>
<path d="M1237.73 0H0V315H1237.73V0Z" fill="url(#paint0_radial_112_3591)"/>
<g filter="url(#filter0_f_112_3591)">
<path d="M889.271 383.423C889.742 376.932 889.993 370.363 889.993 363.514C889.993 216.192 768.62 96.9802 618.881 96.9802C469.142 96.9802 347.737 216.431 347.737 363.514C347.737 370.177 347.988 376.813 348.49 383.423H889.271Z" fill="white" fill-opacity="0.980392"/>
</g>
<path d="M942.55 206.724L955.86 188.3L942.55 200.332L659.196 231.27C659.027 220.368 655.1 209.924 648.179 201.97L700.772 185.4C700.869 185.364 700.951 185.29 701.002 185.193C701.052 185.096 701.069 184.983 701.047 184.874C701.026 184.765 700.968 184.669 700.885 184.602C700.803 184.536 700.7 184.504 700.597 184.514L641.972 196.116C637.053 192.374 631.427 189.852 625.496 188.73L619.165 106.336C619.134 106.151 619.043 105.984 618.908 105.863C618.774 105.743 618.605 105.677 618.43 105.677C618.255 105.677 618.086 105.743 617.952 105.863C617.817 105.984 617.727 106.151 617.695 106.336L611.413 188.65C605.482 189.767 599.855 192.29 594.938 196.035L536.263 184.514C536.16 184.504 536.057 184.536 535.975 184.602C535.892 184.669 535.834 184.765 535.813 184.874C535.791 184.983 535.808 185.096 535.858 185.193C535.909 185.29 535.991 185.364 536.088 185.4L588.607 201.97C581.668 209.915 577.731 220.363 577.565 231.27L294.31 200.332L281 188.354L294.31 206.777C294.31 206.777 412.707 221.736 488.256 233.231V239.354C482.821 240.01 477.82 242.868 474.267 247.348C470.714 251.829 468.874 257.596 469.119 263.483C469.365 269.371 471.678 274.937 475.59 279.056C479.503 283.174 484.721 285.536 490.19 285.665C495.658 285.793 500.967 283.677 505.041 279.745C509.116 275.814 511.652 270.361 512.135 264.491C512.618 258.621 511.012 252.772 507.643 248.13C504.274 243.488 499.393 240.398 493.989 239.488V234.117C516.547 237.581 534.643 240.697 543.591 242.872C543.591 242.872 563.781 252.271 571.134 253.265C577.066 254.071 585.267 259.523 588.183 261.59C592.006 266.142 596.671 269.779 601.879 272.269C607.086 274.759 612.72 276.045 618.418 276.045C624.115 276.045 629.749 274.759 634.956 272.269C640.164 269.779 644.829 266.142 648.652 261.59C651.593 259.523 659.794 254.071 665.726 253.265C673.054 252.271 693.269 242.872 693.269 242.872C702.192 240.697 720.288 237.501 742.846 234.117V239.488C737.462 240.398 732.6 243.478 729.245 248.105C725.89 252.732 724.291 258.559 724.774 264.408C725.256 270.257 727.784 275.689 731.844 279.606C735.904 283.522 741.194 285.63 746.642 285.503C752.091 285.375 757.29 283.022 761.189 278.919C765.087 274.816 767.393 269.27 767.639 263.404C767.885 257.538 766.054 251.791 762.515 247.326C758.976 242.86 753.994 240.011 748.579 239.354V233.231C824.128 221.817 942.55 206.724 942.55 206.724ZM599.474 221.817L595.037 219.991L601.094 211.289L602.864 211.665L598.627 221.414L599.474 221.817ZM600.671 221.441L604.733 212.095L605.855 212.337L603.612 220.393L600.671 221.441ZM617.495 221.172L605.631 220.232L607.725 212.578L617.495 213.142V221.172ZM619.365 221.172V213.115L629.111 212.551L631.229 220.205L619.365 221.172ZM633.248 220.501L631.005 212.444L631.703 212.283L636.14 221.548L633.248 220.501ZM638.233 221.468L633.572 211.746L635.716 211.289L641.773 219.991L638.233 221.468Z" fill="#211E61"/>
<path d="M942.55 206.724L955.86 188.3L942.55 200.332L659.196 231.27C659.027 220.368 655.1 209.924 648.179 201.97L700.772 185.4C700.869 185.364 700.951 185.29 701.002 185.193C701.052 185.096 701.069 184.983 701.047 184.874C701.026 184.765 700.968 184.669 700.885 184.602C700.803 184.536 700.7 184.504 700.597 184.514L641.972 196.116C637.053 192.374 631.427 189.852 625.496 188.73L619.165 106.336C619.134 106.151 619.043 105.984 618.908 105.863C618.774 105.743 618.605 105.677 618.43 105.677C618.255 105.677 618.086 105.743 617.952 105.863C617.817 105.984 617.727 106.151 617.695 106.336L611.413 188.65C605.482 189.767 599.855 192.29 594.938 196.035L536.263 184.514C536.16 184.504 536.057 184.536 535.975 184.602C535.892 184.669 535.834 184.765 535.813 184.874C535.791 184.983 535.808 185.096 535.858 185.193C535.909 185.29 535.991 185.364 536.088 185.4L588.607 201.97C581.668 209.915 577.731 220.363 577.565 231.27L294.31 200.332L281 188.354L294.31 206.777C294.31 206.777 412.707 221.736 488.256 233.231V239.354C482.821 240.01 477.82 242.868 474.267 247.348C470.714 251.829 468.874 257.596 469.119 263.483C469.365 269.371 471.678 274.937 475.59 279.056C479.503 283.174 484.721 285.536 490.19 285.665C495.658 285.793 500.967 283.677 505.041 279.745C509.116 275.814 511.652 270.361 512.135 264.491C512.618 258.621 511.012 252.772 507.643 248.13C504.274 243.488 499.393 240.398 493.989 239.488V234.117C516.547 237.581 534.643 240.697 543.591 242.872C543.591 242.872 563.781 252.271 571.134 253.265C577.066 254.071 585.267 259.523 588.183 261.59C592.006 266.142 596.671 269.779 601.879 272.269C607.086 274.759 612.72 276.045 618.418 276.045C624.115 276.045 629.749 274.759 634.956 272.269C640.164 269.779 644.829 266.142 648.652 261.59C651.593 259.523 659.794 254.071 665.726 253.265C673.054 252.271 693.269 242.872 693.269 242.872C702.192 240.697 720.288 237.501 742.846 234.117V239.488C737.462 240.398 732.6 243.478 729.245 248.105C725.89 252.732 724.291 258.559 724.774 264.408C725.256 270.257 727.784 275.689 731.844 279.606C735.904 283.522 741.194 285.63 746.642 285.503C752.091 285.375 757.29 283.022 761.189 278.919C765.087 274.816 767.393 269.27 767.639 263.404C767.885 257.538 766.054 251.791 762.515 247.326C758.976 242.86 753.994 240.011 748.579 239.354V233.231C824.128 221.817 942.55 206.724 942.55 206.724ZM599.474 221.817L595.037 219.991L601.094 211.289L602.864 211.665L598.627 221.414L599.474 221.817ZM600.671 221.441L604.733 212.095L605.855 212.337L603.612 220.393L600.671 221.441ZM617.495 221.172L605.631 220.232L607.725 212.578L617.495 213.142V221.172ZM619.365 221.172V213.115L629.111 212.551L631.229 220.205L619.365 221.172ZM633.248 220.501L631.005 212.444L631.703 212.283L636.14 221.548L633.248 220.501ZM638.233 221.468L633.572 211.746L635.716 211.289L641.773 219.991L638.233 221.468Z" fill="black" fill-opacity="0.2"/>
<path d="M942.55 206.724L955.86 188.3L942.55 200.332L659.196 231.27C659.027 220.368 655.1 209.924 648.179 201.97L700.772 185.4C700.869 185.364 700.951 185.29 701.002 185.193C701.052 185.096 701.069 184.983 701.047 184.874C701.026 184.765 700.968 184.669 700.885 184.602C700.803 184.536 700.7 184.504 700.597 184.514L641.972 196.116C637.053 192.374 631.427 189.852 625.496 188.73L619.165 106.336C619.134 106.151 619.043 105.984 618.908 105.863C618.774 105.743 618.605 105.677 618.43 105.677C618.255 105.677 618.086 105.743 617.952 105.863C617.817 105.984 617.727 106.151 617.695 106.336L611.413 188.65C605.482 189.767 599.855 192.29 594.938 196.035L536.263 184.514C536.16 184.504 536.057 184.536 535.975 184.602C535.892 184.669 535.834 184.765 535.813 184.874C535.791 184.983 535.808 185.096 535.858 185.193C535.909 185.29 535.991 185.364 536.088 185.4L588.607 201.97C581.668 209.915 577.731 220.363 577.565 231.27L294.31 200.332L281 188.354L294.31 206.777C294.31 206.777 412.707 221.736 488.256 233.231V239.354C482.821 240.01 477.82 242.868 474.267 247.348C470.714 251.829 468.874 257.596 469.119 263.483C469.365 269.371 471.678 274.937 475.59 279.056C479.503 283.174 484.721 285.536 490.19 285.665C495.658 285.793 500.967 283.677 505.041 279.745C509.116 275.814 511.652 270.361 512.135 264.491C512.618 258.621 511.012 252.772 507.643 248.13C504.274 243.488 499.393 240.398 493.989 239.488V234.117C516.547 237.581 534.643 240.697 543.591 242.872C543.591 242.872 563.781 252.271 571.134 253.265C577.066 254.071 585.267 259.523 588.183 261.59C592.006 266.142 596.671 269.779 601.879 272.269C607.086 274.759 612.72 276.045 618.418 276.045C624.115 276.045 629.749 274.759 634.956 272.269C640.164 269.779 644.829 266.142 648.652 261.59C651.593 259.523 659.794 254.071 665.726 253.265C673.054 252.271 693.269 242.872 693.269 242.872C702.192 240.697 720.288 237.501 742.846 234.117V239.488C737.462 240.398 732.6 243.478 729.245 248.105C725.89 252.732 724.291 258.559 724.774 264.408C725.256 270.257 727.784 275.689 731.844 279.606C735.904 283.522 741.194 285.63 746.642 285.503C752.091 285.375 757.29 283.022 761.189 278.919C765.087 274.816 767.393 269.27 767.639 263.404C767.885 257.538 766.054 251.791 762.515 247.326C758.976 242.86 753.994 240.011 748.579 239.354V233.231C824.128 221.817 942.55 206.724 942.55 206.724ZM599.474 221.817L595.037 219.991L601.094 211.289L602.864 211.665L598.627 221.414L599.474 221.817ZM600.671 221.441L604.733 212.095L605.855 212.337L603.612 220.393L600.671 221.441ZM617.495 221.172L605.631 220.232L607.725 212.578L617.495 213.142V221.172ZM619.365 221.172V213.115L629.111 212.551L631.229 220.205L619.365 221.172ZM633.248 220.501L631.005 212.444L631.703 212.283L636.14 221.548L633.248 220.501ZM638.233 221.468L633.572 211.746L635.716 211.289L641.773 219.991L638.233 221.468Z" fill="black" fill-opacity="0.2"/>
<path d="M942.55 206.724L955.86 188.3L942.55 200.332L659.196 231.27C659.027 220.368 655.1 209.924 648.179 201.97L700.772 185.4C700.869 185.364 700.951 185.29 701.002 185.193C701.052 185.096 701.069 184.983 701.047 184.874C701.026 184.765 700.968 184.669 700.885 184.602C700.803 184.536 700.7 184.504 700.597 184.514L641.972 196.116C637.053 192.374 631.427 189.852 625.496 188.73L619.165 106.336C619.134 106.151 619.043 105.984 618.908 105.863C618.774 105.743 618.605 105.677 618.43 105.677C618.255 105.677 618.086 105.743 617.952 105.863C617.817 105.984 617.727 106.151 617.695 106.336L611.413 188.65C605.482 189.767 599.855 192.29 594.938 196.035L536.263 184.514C536.16 184.504 536.057 184.536 535.975 184.602C535.892 184.669 535.834 184.765 535.813 184.874C535.791 184.983 535.808 185.096 535.858 185.193C535.909 185.29 535.991 185.364 536.088 185.4L588.607 201.97C581.668 209.915 577.731 220.363 577.565 231.27L294.31 200.332L281 188.354L294.31 206.777C294.31 206.777 412.707 221.736 488.256 233.231V239.354C482.821 240.01 477.82 242.868 474.267 247.348C470.714 251.829 468.874 257.596 469.119 263.483C469.365 269.371 471.678 274.937 475.59 279.056C479.503 283.174 484.721 285.536 490.19 285.665C495.658 285.793 500.967 283.677 505.041 279.745C509.116 275.814 511.652 270.361 512.135 264.491C512.618 258.621 511.012 252.772 507.643 248.13C504.274 243.488 499.393 240.398 493.989 239.488V234.117C516.547 237.581 534.643 240.697 543.591 242.872C543.591 242.872 563.781 252.271 571.134 253.265C577.066 254.071 585.267 259.523 588.183 261.59C592.006 266.142 596.671 269.779 601.879 272.269C607.086 274.759 612.72 276.045 618.418 276.045C624.115 276.045 629.749 274.759 634.956 272.269C640.164 269.779 644.829 266.142 648.652 261.59C651.593 259.523 659.794 254.071 665.726 253.265C673.054 252.271 693.269 242.872 693.269 242.872C702.192 240.697 720.288 237.501 742.846 234.117V239.488C737.462 240.398 732.6 243.478 729.245 248.105C725.89 252.732 724.291 258.559 724.774 264.408C725.256 270.257 727.784 275.689 731.844 279.606C735.904 283.522 741.194 285.63 746.642 285.503C752.091 285.375 757.29 283.022 761.189 278.919C765.087 274.816 767.393 269.27 767.639 263.404C767.885 257.538 766.054 251.791 762.515 247.326C758.976 242.86 753.994 240.011 748.579 239.354V233.231C824.128 221.817 942.55 206.724 942.55 206.724ZM599.474 221.817L595.037 219.991L601.094 211.289L602.864 211.665L598.627 221.414L599.474 221.817ZM600.671 221.441L604.733 212.095L605.855 212.337L603.612 220.393L600.671 221.441ZM617.495 221.172L605.631 220.232L607.725 212.578L617.495 213.142V221.172ZM619.365 221.172V213.115L629.111 212.551L631.229 220.205L619.365 221.172ZM633.248 220.501L631.005 212.444L631.703 212.283L636.14 221.548L633.248 220.501ZM638.233 221.468L633.572 211.746L635.716 211.289L641.773 219.991L638.233 221.468Z" fill="black" fill-opacity="0.2"/>
<g filter="url(#filter1_f_112_3591)">
<path d="M634.601 211.719L639.262 221.414L642.801 219.937L636.744 211.236L634.601 211.719Z" fill="white" fill-opacity="0.980392"/>
</g>
<g filter="url(#filter2_f_112_3591)">
<path d="M606.632 220.178L618.496 221.118V213.088L608.726 212.524L606.632 220.178Z" fill="white" fill-opacity="0.980392"/>
</g>
<g filter="url(#filter3_f_112_3591)">
<path d="M605.733 212.041L601.671 221.387L604.612 220.447L606.855 212.283L605.733 212.041Z" fill="white" fill-opacity="0.980392"/>
</g>
<g filter="url(#filter4_f_112_3591)">
<path d="M603.865 211.612L602.095 211.236L596.038 219.937L600.475 221.763L599.627 221.36L603.865 211.612Z" fill="white" fill-opacity="0.980392"/>
</g>
<g filter="url(#filter5_f_112_3591)">
<path d="M632.007 212.283L634.25 220.447L637.141 221.387L632.705 212.122L632.007 212.283Z" fill="white" fill-opacity="0.980392"/>
</g>
<g filter="url(#filter6_f_112_3591)">
<path d="M620.367 213.089V221.119L632.232 220.179L630.113 212.525L620.367 213.089Z" fill="white" fill-opacity="0.980392"/>
</g>
<g style="mix-blend-mode:overlay" opacity="0.56">
<path d="M-126.282 -19.4105C-119.634 -9.30039 -116.507 2.74593 -117.387 14.8534C-109.592 11.8996 -101.052 11.6161 -93.0978 14.0469C-85.1438 16.4777 -78.2223 21.4865 -73.4117 28.2929C-68.6011 35.0993 -66.1714 43.3211 -66.5013 51.6775C-66.8311 60.0339 -69.9018 68.0557 -75.2351 74.4932C-69.3245 77.4269 -64.4378 82.0864 -61.2132 87.8633C-57.9888 93.6402 -56.5763 100.266 -57.1604 106.875C-50.0866 106.971 -43.1487 108.799 -36.9481 112.2C-30.7475 115.602 -25.4712 120.474 -21.5765 126.395C-19.773 129.171 -18.2825 132.141 -17.1324 135.25C-8.11018 130.407 2.10022 128.274 12.2776 129.106C22.455 129.937 32.1685 133.697 40.256 139.937C42.1425 138.195 44.1588 136.6 46.287 135.167C55.3602 129.085 66.1087 126.042 76.9882 126.476C87.8679 126.909 98.3186 130.798 106.839 137.582C115.36 144.366 121.511 153.697 124.411 164.234C127.31 174.771 126.807 185.972 122.975 196.227C131.08 201.204 137.787 208.174 142.466 216.481C147.144 224.788 149.641 234.161 149.723 243.72C150.348 243.29 150.904 242.809 151.554 242.388C159.218 237.247 168.107 234.26 177.295 233.739C186.482 233.217 195.632 235.181 203.791 239.424C211.95 243.668 218.819 250.036 223.684 257.865C228.549 265.695 231.231 274.699 231.45 283.94C238.408 281.722 245.901 281.942 252.703 284.562C254.243 283.337 255.808 282.12 257.478 281.023C267.457 274.341 279.029 270.467 290.986 269.806C302.943 269.146 314.846 271.722 325.452 277.267C336.058 282.813 344.977 291.123 351.279 301.329C357.581 311.536 361.034 323.266 361.278 335.293C367.397 331.612 374.412 329.717 381.532 329.824C388.653 329.93 395.595 332.032 401.577 335.894C407.559 339.756 412.343 345.223 415.389 351.681C418.436 358.138 419.624 365.328 418.82 372.441C418.016 379.553 415.251 386.306 410.838 391.937C406.425 397.569 400.538 401.855 393.842 404.313C387.145 406.772 379.905 407.304 372.937 405.851C365.969 404.397 359.55 401.016 354.404 396.087L152.438 531.029L-140.332 256.776C-149.406 253.835 -163.157 222.481 -168.847 213.855C-174.536 205.229 -171.277 186.973 -170.412 177.426L-155.786 63.9667C-165.54 67.0349 -175.942 67.3163 -185.827 64.7793C-195.712 62.2423 -204.688 56.9871 -211.752 49.6026C-218.815 42.2181 -223.685 32.9961 -225.817 22.9699C-227.948 12.9436 -227.258 2.50915 -223.821 -7.16416C-220.385 -16.8375 -214.339 -25.3675 -206.361 -31.7985C-198.383 -38.2296 -188.788 -42.3075 -178.651 -43.5754C-168.514 -44.8433 -158.236 -43.251 -148.968 -38.977C-139.7 -34.703 -131.809 -27.9162 -126.178 -19.3769L-126.282 -19.4105Z" fill="#FFFAD7"/>
</g>
<g style="mix-blend-mode:overlay" opacity="0.56">
<path d="M1373.52 -19.4105C1366.87 -9.30039 1363.74 2.74593 1364.62 14.8534C1356.83 11.8996 1348.29 11.6161 1340.33 14.0469C1332.38 16.4777 1325.46 21.4865 1320.65 28.2929C1315.84 35.0993 1313.41 43.3211 1313.74 51.6775C1314.07 60.0339 1317.14 68.0557 1322.47 74.4932C1316.56 77.4269 1311.67 82.0864 1308.45 87.8633C1305.23 93.6402 1303.81 100.266 1304.4 106.875C1297.32 106.971 1290.39 108.799 1284.18 112.2C1277.98 115.602 1272.71 120.474 1268.81 126.395C1267.01 129.171 1265.52 132.141 1264.37 135.25C1255.35 130.407 1245.14 128.274 1234.96 129.106C1224.78 129.937 1215.07 133.697 1206.98 139.937C1205.09 138.195 1203.08 136.6 1200.95 135.167C1191.88 129.085 1181.13 126.042 1170.25 126.476C1159.37 126.909 1148.92 130.798 1140.4 137.582C1131.88 144.366 1125.72 153.697 1122.83 164.234C1119.93 174.771 1120.43 185.972 1124.26 196.227C1116.16 201.204 1109.45 208.174 1104.77 216.481C1100.09 224.788 1097.59 234.161 1097.51 243.72C1096.89 243.29 1096.33 242.809 1095.68 242.388C1088.02 237.247 1079.13 234.26 1069.94 233.739C1060.75 233.217 1051.6 235.181 1043.45 239.424C1035.29 243.668 1028.42 250.036 1023.55 257.865C1018.69 265.695 1016.01 274.699 1015.79 283.94C1008.83 281.722 1001.33 281.942 994.533 284.562C992.994 283.337 991.428 282.12 989.758 281.023C979.779 274.341 968.207 270.467 956.25 269.806C944.293 269.146 932.39 271.722 921.785 277.267C911.179 282.813 902.259 291.123 895.957 301.329C889.655 311.536 886.202 323.266 885.959 335.293C879.839 331.612 872.824 329.717 865.704 329.824C858.584 329.93 851.641 332.032 845.659 335.894C839.677 339.756 834.894 345.223 831.847 351.681C828.8 358.138 827.612 365.328 828.417 372.441C829.221 379.553 831.985 386.306 836.398 391.937C840.812 397.569 846.698 401.855 853.395 404.313C860.091 406.772 867.331 407.304 874.299 405.851C881.267 404.397 887.686 401.016 892.832 396.087L1094.8 531.029L1387.57 256.776C1396.64 253.835 1410.39 222.481 1416.08 213.855C1421.77 205.229 1418.51 186.973 1417.65 177.426L1403.02 63.9667C1412.78 67.0349 1423.18 67.3163 1433.06 64.7793C1442.95 62.2423 1451.92 56.9871 1458.99 49.6026C1466.05 42.2181 1470.92 32.9961 1473.05 22.9699C1475.18 12.9436 1474.49 2.50915 1471.06 -7.16416C1467.62 -16.8375 1461.58 -25.3675 1453.6 -31.7985C1445.62 -38.2296 1436.02 -42.3075 1425.89 -43.5754C1415.75 -44.8433 1405.47 -43.251 1396.2 -38.977C1386.94 -34.703 1379.05 -27.9162 1373.41 -19.3769L1373.52 -19.4105Z" fill="#FFFAD7"/>
</g>
<g filter="url(#filter7_f_112_3591)">
<path d="M129.839 48.4271C130.138 47.5057 131.441 47.5057 131.741 48.4271L132.906 52.0122C133.04 52.4242 133.424 52.7032 133.857 52.7032H137.626C138.595 52.7032 138.998 53.9428 138.214 54.5122L135.165 56.728C134.814 56.9826 134.667 57.434 134.801 57.846L135.966 61.4312C136.265 62.3525 135.211 63.1186 134.427 62.5492L131.378 60.3334C131.027 60.0788 130.552 60.0788 130.202 60.3334L127.152 62.5492C126.369 63.1186 125.314 62.3525 125.613 61.4312L126.778 57.846C126.912 57.434 126.766 56.9826 126.415 56.728L123.365 54.5122C122.582 53.9428 122.984 52.7032 123.953 52.7032H127.723C128.156 52.7032 128.54 52.4242 128.674 52.0122L129.839 48.4271Z" fill="white" fill-opacity="0.980392"/>
</g>
<g filter="url(#filter8_f_112_3591)">
<path d="M158.225 118.646C158.525 117.725 159.828 117.725 160.128 118.646L161.292 122.232C161.426 122.644 161.81 122.922 162.244 122.922H166.013C166.982 122.922 167.385 124.162 166.601 124.732L163.551 126.947C163.201 127.202 163.054 127.653 163.188 128.065L164.353 131.65C164.652 132.572 163.598 133.338 162.814 132.768L159.764 130.553C159.414 130.298 158.939 130.298 158.589 130.553L155.539 132.768C154.755 133.338 153.701 132.572 154 131.65L155.165 128.065C155.299 127.653 155.152 127.202 154.802 126.947L151.752 124.732C150.968 124.162 151.371 122.922 152.34 122.922H156.11C156.543 122.922 156.927 122.644 157.061 122.232L158.225 118.646Z" fill="white" fill-opacity="0.980392"/>
</g>
<g filter="url(#filter9_f_112_3591)">
<path d="M245.912 51.4152C246.211 50.4938 247.515 50.4938 247.814 51.4151L248.979 55.0003C249.113 55.4123 249.497 55.6913 249.93 55.6913H253.7C254.668 55.6913 255.071 56.9309 254.287 57.5003L251.238 59.7161C250.887 59.9707 250.741 60.4221 250.874 60.8341L252.039 64.4193C252.339 65.3406 251.284 66.1067 250.501 65.5373L247.451 63.3215C247.1 63.0669 246.626 63.0669 246.275 63.3215L243.226 65.5373C242.442 66.1067 241.387 65.3406 241.687 64.4193L242.852 60.8341C242.985 60.4221 242.839 59.9707 242.488 59.7161L239.439 57.5003C238.655 56.9309 239.058 55.6913 240.026 55.6913H243.796C244.229 55.6913 244.613 55.4123 244.747 55.0003L245.912 51.4152Z" fill="white" fill-opacity="0.980392"/>
</g>
<g filter="url(#filter10_f_112_3591)">
<path d="M273.893 139.495C274.193 138.574 275.496 138.574 275.796 139.495L276.96 143.081C277.094 143.493 277.478 143.772 277.911 143.772H281.681C282.65 143.772 283.053 145.011 282.269 145.581L279.219 147.796C278.869 148.051 278.722 148.502 278.856 148.914L280.021 152.5C280.32 153.421 279.266 154.187 278.482 153.618L275.432 151.402C275.082 151.147 274.607 151.147 274.257 151.402L271.207 153.618C270.423 154.187 269.369 153.421 269.668 152.5L270.833 148.914C270.967 148.502 270.82 148.051 270.47 147.796L267.42 145.581C266.636 145.011 267.039 143.772 268.008 143.772H271.777C272.211 143.772 272.595 143.493 272.729 143.081L273.893 139.495Z" fill="white" fill-opacity="0.980392"/>
</g>
<g filter="url(#filter11_f_112_3591)">
<path d="M1107.89 48.4271C1107.59 47.5057 1106.29 47.5057 1105.99 48.4271L1104.82 52.0122C1104.69 52.4242 1104.31 52.7032 1103.87 52.7032H1100.1C1099.14 52.7032 1098.73 53.9428 1099.52 54.5122L1102.57 56.728C1102.92 56.9826 1103.06 57.434 1102.93 57.846L1101.76 61.4312C1101.46 62.3525 1102.52 63.1186 1103.3 62.5492L1106.35 60.3334C1106.7 60.0788 1107.18 60.0788 1107.53 60.3334L1110.58 62.5492C1111.36 63.1186 1112.42 62.3525 1112.12 61.4312L1110.95 57.846C1110.82 57.434 1110.96 56.9826 1111.32 56.728L1114.37 54.5122C1115.15 53.9428 1114.75 52.7032 1113.78 52.7032H1110.01C1109.57 52.7032 1109.19 52.4242 1109.06 52.0122L1107.89 48.4271Z" fill="white" fill-opacity="0.980392"/>
</g>
<g filter="url(#filter12_f_112_3591)">
<path d="M1079.51 118.646C1079.21 117.725 1077.9 117.725 1077.6 118.646L1076.44 122.232C1076.3 122.644 1075.92 122.922 1075.49 122.922H1071.72C1070.75 122.922 1070.35 124.162 1071.13 124.732L1074.18 126.947C1074.53 127.202 1074.68 127.653 1074.54 128.065L1073.38 131.65C1073.08 132.572 1074.13 133.338 1074.92 132.768L1077.97 130.553C1078.32 130.298 1078.79 130.298 1079.14 130.553L1082.19 132.768C1082.98 133.338 1084.03 132.572 1083.73 131.65L1082.57 128.065C1082.43 127.653 1082.58 127.202 1082.93 126.947L1085.98 124.732C1086.76 124.162 1086.36 122.922 1085.39 122.922H1081.62C1081.19 122.922 1080.8 122.644 1080.67 122.232L1079.51 118.646Z" fill="white" fill-opacity="0.980392"/>
</g>
<g filter="url(#filter13_f_112_3591)">
<path d="M991.818 51.4152C991.519 50.4938 990.216 50.4938 989.916 51.4151L988.751 55.0003C988.618 55.4123 988.234 55.6913 987.8 55.6913H984.031C983.062 55.6913 982.659 56.9309 983.443 57.5003L986.493 59.7161C986.843 59.9707 986.99 60.4221 986.856 60.8341L985.691 64.4193C985.392 65.3406 986.446 66.1067 987.23 65.5373L990.28 63.3215C990.63 63.0669 991.105 63.0669 991.455 63.3215L994.505 65.5373C995.289 66.1067 996.343 65.3406 996.044 64.4193L994.879 60.8341C994.745 60.4221 994.892 59.9707 995.242 59.7161L998.292 57.5003C999.076 56.9309 998.673 55.6913 997.704 55.6913H993.934C993.501 55.6913 993.117 55.4123 992.983 55.0003L991.818 51.4152Z" fill="white" fill-opacity="0.980392"/>
</g>
<g filter="url(#filter14_f_112_3591)">
<path d="M963.837 139.495C963.538 138.574 962.234 138.574 961.935 139.495L960.77 143.081C960.636 143.493 960.252 143.772 959.819 143.772H956.049C955.081 143.772 954.678 145.011 955.462 145.581L958.511 147.796C958.862 148.051 959.008 148.502 958.875 148.914L957.71 152.5C957.41 153.421 958.465 154.187 959.248 153.618L962.298 151.402C962.649 151.147 963.123 151.147 963.474 151.402L966.523 153.618C967.307 154.187 968.362 153.421 968.062 152.5L966.897 148.914C966.764 148.502 966.91 148.051 967.261 147.796L970.31 145.581C971.094 145.011 970.691 143.772 969.723 143.772H965.953C965.52 143.772 965.136 143.493 965.002 143.081L963.837 139.495Z" fill="white" fill-opacity="0.980392"/>
</g>
</g>
<defs>
<filter id="filter0_f_112_3591" x="343.737" y="92.9802" width="550.256" height="294.442" filterUnits="userSpaceOnUse" color-interpolation-filters="sRGB">
<feFlood flood-opacity="0" result="BackgroundImageFix"/>
<feBlend mode="normal" in="SourceGraphic" in2="BackgroundImageFix" result="shape"/>
<feGaussianBlur stdDeviation="2" result="effect1_foregroundBlur_112_3591"/>
</filter>
<filter id="filter1_f_112_3591" x="630.601" y="207.236" width="16.2002" height="18.1785" filterUnits="userSpaceOnUse" color-interpolation-filters="sRGB">
<feFlood flood-opacity="0" result="BackgroundImageFix"/>
<feBlend mode="normal" in="SourceGraphic" in2="BackgroundImageFix" result="shape"/>
<feGaussianBlur stdDeviation="2" result="effect1_foregroundBlur_112_3591"/>
</filter>
<filter id="filter2_f_112_3591" x="602.632" y="208.524" width="19.8643" height="16.594" filterUnits="userSpaceOnUse" color-interpolation-filters="sRGB">
<feFlood flood-opacity="0" result="BackgroundImageFix"/>
<feBlend mode="normal" in="SourceGraphic" in2="BackgroundImageFix" result="shape"/>
<feGaussianBlur stdDeviation="2" result="effect1_foregroundBlur_112_3591"/>
</filter>
<filter id="filter3_f_112_3591" x="597.671" y="208.041" width="13.1836" height="17.3459" filterUnits="userSpaceOnUse" color-interpolation-filters="sRGB">
<feFlood flood-opacity="0" result="BackgroundImageFix"/>
<feBlend mode="normal" in="SourceGraphic" in2="BackgroundImageFix" result="shape"/>
<feGaussianBlur stdDeviation="2" result="effect1_foregroundBlur_112_3591"/>
</filter>
<filter id="filter4_f_112_3591" x="592.038" y="207.236" width="15.8271" height="18.5276" filterUnits="userSpaceOnUse" color-interpolation-filters="sRGB">
<feFlood flood-opacity="0" result="BackgroundImageFix"/>
<feBlend mode="normal" in="SourceGraphic" in2="BackgroundImageFix" result="shape"/>
<feGaussianBlur stdDeviation="2" result="effect1_foregroundBlur_112_3591"/>
</filter>
<filter id="filter5_f_112_3591" x="628.007" y="208.122" width="13.1338" height="17.2653" filterUnits="userSpaceOnUse" color-interpolation-filters="sRGB">
<feFlood flood-opacity="0" result="BackgroundImageFix"/>
<feBlend mode="normal" in="SourceGraphic" in2="BackgroundImageFix" result="shape"/>
<feGaussianBlur stdDeviation="2" result="effect1_foregroundBlur_112_3591"/>
</filter>
<filter id="filter6_f_112_3591" x="616.367" y="208.525" width="19.8643" height="16.594" filterUnits="userSpaceOnUse" color-interpolation-filters="sRGB">
<feFlood flood-opacity="0" result="BackgroundImageFix"/>
<feBlend mode="normal" in="SourceGraphic" in2="BackgroundImageFix" result="shape"/>
<feGaussianBlur stdDeviation="2" result="effect1_foregroundBlur_112_3591"/>
</filter>
<filter id="filter7_f_112_3591" x="118.951" y="43.7361" width="23.6768" height="23.0086" filterUnits="userSpaceOnUse" color-interpolation-filters="sRGB">
<feFlood flood-opacity="0" result="BackgroundImageFix"/>
<feBlend mode="normal" in="SourceGraphic" in2="BackgroundImageFix" result="shape"/>
<feGaussianBlur stdDeviation="2" result="effect1_foregroundBlur_112_3591"/>
</filter>
<filter id="filter8_f_112_3591" x="147.338" y="113.955" width="23.6768" height="23.0086" filterUnits="userSpaceOnUse" color-interpolation-filters="sRGB">
<feFlood flood-opacity="0" result="BackgroundImageFix"/>
<feBlend mode="normal" in="SourceGraphic" in2="BackgroundImageFix" result="shape"/>
<feGaussianBlur stdDeviation="2" result="effect1_foregroundBlur_112_3591"/>
</filter>
<filter id="filter9_f_112_3591" x="235.024" y="46.7242" width="23.6768" height="23.0086" filterUnits="userSpaceOnUse" color-interpolation-filters="sRGB">
<feFlood flood-opacity="0" result="BackgroundImageFix"/>
<feBlend mode="normal" in="SourceGraphic" in2="BackgroundImageFix" result="shape"/>
<feGaussianBlur stdDeviation="2" result="effect1_foregroundBlur_112_3591"/>
</filter>
<filter id="filter10_f_112_3591" x="263.006" y="134.805" width="23.6768" height="23.0086" filterUnits="userSpaceOnUse" color-interpolation-filters="sRGB">
<feFlood flood-opacity="0" result="BackgroundImageFix"/>
<feBlend mode="normal" in="SourceGraphic" in2="BackgroundImageFix" result="shape"/>
<feGaussianBlur stdDeviation="2" result="effect1_foregroundBlur_112_3591"/>
</filter>
<filter id="filter11_f_112_3591" x="1095.1" y="43.7361" width="23.6768" height="23.0086" filterUnits="userSpaceOnUse" color-interpolation-filters="sRGB">
<feFlood flood-opacity="0" result="BackgroundImageFix"/>
<feBlend mode="normal" in="SourceGraphic" in2="BackgroundImageFix" result="shape"/>
<feGaussianBlur stdDeviation="2" result="effect1_foregroundBlur_112_3591"/>
</filter>
<filter id="filter12_f_112_3591" x="1066.72" y="113.955" width="23.6768" height="23.0086" filterUnits="userSpaceOnUse" color-interpolation-filters="sRGB">
<feFlood flood-opacity="0" result="BackgroundImageFix"/>
<feBlend mode="normal" in="SourceGraphic" in2="BackgroundImageFix" result="shape"/>
<feGaussianBlur stdDeviation="2" result="effect1_foregroundBlur_112_3591"/>
</filter>
<filter id="filter13_f_112_3591" x="979.029" y="46.7242" width="23.6768" height="23.0086" filterUnits="userSpaceOnUse" color-interpolation-filters="sRGB">
<feFlood flood-opacity="0" result="BackgroundImageFix"/>
<feBlend mode="normal" in="SourceGraphic" in2="BackgroundImageFix" result="shape"/>
<feGaussianBlur stdDeviation="2" result="effect1_foregroundBlur_112_3591"/>
</filter>
<filter id="filter14_f_112_3591" x="951.048" y="134.805" width="23.6768" height="23.0086" filterUnits="userSpaceOnUse" color-interpolation-filters="sRGB">
<feFlood flood-opacity="0" result="BackgroundImageFix"/>
<feBlend mode="normal" in="SourceGraphic" in2="BackgroundImageFix" result="shape"/>
<feGaussianBlur stdDeviation="2" result="effect1_foregroundBlur_112_3591"/>
</filter>
<radialGradient id="paint0_radial_112_3591" cx="0" cy="0" r="1" gradientUnits="userSpaceOnUse" gradientTransform="translate(620.856 443.14) scale(938.786 780.769)">
<stop offset="0.00965367" stop-color="#EAE9FB"/>
<stop offset="0.269289" stop-color="#A39EFE"/>
<stop offset="0.596236" stop-color="#5045FB"/>
<stop offset="0.644317" stop-color="#4A3FF8"/>
<stop offset="0.95" stop-color="#2D20FA"/>
</radialGradient>
<clipPath id="clip0_112_3591">
<rect width="1237.73" height="315" rx="24" fill="white"/>
</clipPath>
</defs>
</svg>
