<svg width="23" height="27" viewBox="0 0 23 27" fill="none" xmlns="http://www.w3.org/2000/svg">
<rect x="1.09375" y="14.7275" width="20.1818" height="6.54545" fill="#C3A0CD" fill-opacity="0.5"/>
<path fill-rule="evenodd" clip-rule="evenodd" d="M4.79221 12.9667C3.32184 12.9667 2.12987 14.1515 2.12987 15.613V20.6409C2.12987 22.1024 3.32184 23.2871 4.79221 23.2871H17.5714C19.0418 23.2871 20.2338 22.1024 20.2338 20.6409V15.613C20.2338 14.1515 19.0418 12.9667 17.5714 12.9667H4.79221ZM0 15.613C0 12.9823 2.14554 10.8497 4.79221 10.8497H17.5714C20.2181 10.8497 22.3636 12.9823 22.3636 15.613V20.6409C22.3636 23.2716 20.2181 25.4041 17.5714 25.4041H4.79221C2.14554 25.4041 0 23.2716 0 20.6409V15.613Z" fill="#A56EB4"/>
<path fill-rule="evenodd" clip-rule="evenodd" d="M6.12338 3.6836C6.12338 1.87319 7.35124 0 9.31818 0H13.3117C15.2786 0 16.5065 1.87319 16.5065 3.6836V25.6688C16.5065 26.2534 16.0297 26.7273 15.4416 26.7273C14.8534 26.7273 14.3766 26.2534 14.3766 25.6688V3.6836C14.3766 2.5944 13.6973 2.11701 13.3117 2.11701H9.31818C8.93253 2.11701 8.25325 2.5944 8.25325 3.6836V25.6688C8.25325 26.2534 7.77646 26.7273 7.18831 26.7273C6.60016 26.7273 6.12338 26.2534 6.12338 25.6688V3.6836Z" fill="#A56EB4"/>
</svg>
