<svg width="16" height="12" viewBox="0 0 16 12" fill="none" xmlns="http://www.w3.org/2000/svg">
<path d="M8 2.7122C5.95122 2.7122 4.29268 4.37073 4.29268 6.41951C4.29268 8.46829 5.95122 10.1268 8 10.1268C10.0488 10.1268 11.7073 8.46829 11.7073 6.41951C11.7073 4.39024 10.0488 2.7122 8 2.7122ZM8 9.34634C6.38049 9.34634 5.07317 8.03903 5.07317 6.41951C5.07317 4.8 6.38049 3.49268 8 3.49268C9.61951 3.49268 10.9268 4.8 10.9268 6.41951C10.9268 8.03903 9.61951 9.34634 8 9.34634ZM14.439 1.93171L11.5122 1.95122L10.2829 0.156097C10.2049 0.0585364 10.0878 0 9.97073 0H6.02927C5.9122 0 5.79512 0.0585364 5.71707 0.156097L4.4878 1.95122H1.56098C0.702439 1.95122 0 2.63415 0 3.49268V10.1463C0 11.0049 0.702439 11.7073 1.56098 11.7073H14.439C15.2976 11.7073 16 11.0049 16 10.1463V3.31707C16 2.45854 15.2976 1.93171 14.439 1.93171ZM15.2195 10.1463C15.2195 10.5756 14.8683 10.9268 14.439 10.9268H1.56098C1.13171 10.9268 0.780488 10.5756 0.780488 10.1463V3.49268C0.780488 3.06342 1.13171 2.73171 1.56098 2.73171H4.68293C4.8 2.73171 4.91707 2.67317 4.99512 2.57561L6.22439 0.780488H9.77561L11.0049 2.57561C11.0829 2.67317 11.2 2.73171 11.3171 2.73171L14.439 2.7122C14.8683 2.7122 15.2195 2.8878 15.2195 3.31707V10.1463Z" fill="#9493BD"/>
</svg>
