<svg width="16" height="16" viewBox="0 0 16 16" fill="none" xmlns="http://www.w3.org/2000/svg">
<path d="M8 0C3.58878 0 0 3.58878 0 8C0 12.4112 3.58878 16 8 16C12.4112 16 16 12.4112 16 8C16 3.58878 12.4112 0 8 0ZM8 15.25C4.00234 15.25 0.75 11.9977 0.75 8C0.75 4.00234 4.00234 0.75 8 0.75C11.9977 0.75 15.25 4.00234 15.25 8C15.25 11.9977 11.9977 15.25 8 15.25ZM11.7598 6.25819H7.17028C6.66734 6.25819 6.25816 6.66738 6.25816 7.17031V11.7598C6.25816 12.2627 6.66734 12.6719 7.17028 12.6719H11.7598C12.2627 12.6719 12.6719 12.2627 12.6719 11.7598V7.17028C12.6719 6.66734 12.2627 6.25819 11.7598 6.25819ZM11.9219 11.7598C11.9219 11.8492 11.8492 11.9219 11.7598 11.9219H7.17028C7.08091 11.9219 7.00816 11.8492 7.00816 11.7598V7.17028C7.00816 7.08091 7.08088 7.00816 7.17028 7.00816H11.7598C11.8491 7.00816 11.9219 7.08088 11.9219 7.17028V11.7598ZM5.891 9.36681C5.891 9.57394 5.72312 9.74181 5.516 9.74181H4.24025C3.73731 9.74181 3.32813 9.33263 3.32813 8.82969V4.24025C3.32813 3.73731 3.73731 3.32813 4.24025 3.32813H8.82972C9.33266 3.32813 9.74184 3.73731 9.74184 4.24025V5.516C9.74184 5.72312 9.57397 5.891 9.36684 5.891C9.15972 5.891 8.99184 5.72312 8.99184 5.516V4.24025C8.99184 4.15088 8.91913 4.07812 8.82972 4.07812H4.24025C4.15088 4.07812 4.07812 4.15084 4.07812 4.24025V8.82972C4.07812 8.91909 4.15084 8.99184 4.24025 8.99184H5.516C5.72312 8.99181 5.891 9.15969 5.891 9.36681Z" fill="#9493BD"/>
</svg>
