<svg width="12" height="12" viewBox="0 0 12 12" fill="none" xmlns="http://www.w3.org/2000/svg">
<path d="M6 0C2.69159 0 0 2.69159 0 6C0 9.30841 2.69159 12 6 12C9.30841 12 12 9.30841 12 6C12 2.69159 9.30841 0 6 0ZM6 11.4375C3.00176 11.4375 0.5625 8.99824 0.5625 6C0.5625 3.00176 3.00176 0.5625 6 0.5625C8.99824 0.5625 11.4375 3.00176 11.4375 6C11.4375 8.99824 8.99824 11.4375 6 11.4375ZM8.81984 4.69364H5.37771C5.00051 4.69364 4.69362 5.00053 4.69362 5.37773V8.81984C4.69362 9.19704 5.00051 9.50393 5.37771 9.50393H8.81981C9.19702 9.50393 9.50391 9.19704 9.50391 8.81984V5.37771C9.50391 5.00051 9.19702 4.69364 8.81984 4.69364ZM8.94141 8.81984C8.94141 8.88687 8.88687 8.94143 8.81981 8.94143H5.37771C5.31068 8.94143 5.25612 8.88689 5.25612 8.81984V5.37771C5.25612 5.31068 5.31066 5.25612 5.37771 5.25612H8.81981C8.88684 5.25612 8.94141 5.31066 8.94141 5.37771V8.81984ZM4.41825 7.02511C4.41825 7.18045 4.29234 7.30636 4.137 7.30636H3.18019C2.80298 7.30636 2.49609 6.99947 2.49609 6.62227V3.18019C2.49609 2.80298 2.80298 2.49609 3.18019 2.49609H6.62229C6.99949 2.49609 7.30638 2.80298 7.30638 3.18019V4.137C7.30638 4.29234 7.18048 4.41825 7.02513 4.41825C6.86979 4.41825 6.74388 4.29234 6.74388 4.137V3.18019C6.74388 3.11316 6.68934 3.05859 6.62229 3.05859H3.18019C3.11316 3.05859 3.05859 3.11313 3.05859 3.18019V6.62229C3.05859 6.68932 3.11313 6.74388 3.18019 6.74388H4.137C4.29234 6.74386 4.41825 6.86977 4.41825 7.02511Z" fill="white"/>
</svg>
