<svg width="30" height="30" viewBox="0 0 30 30" fill="none" xmlns="http://www.w3.org/2000/svg">
<circle cx="15.0037" cy="14.9998" r="7.10526" fill="#FF9FAE"/>
<path d="M30 14.0661C29.9258 13.5266 29.8693 12.9843 29.7746 12.4484C28.7224 6.49999 24.3863 1.78149 18.4865 0.442826C12.6853 -0.87308 7.69849 0.755856 3.71317 5.16834C1.07372 8.09099 -0.100395 11.6116 0.00670066 15.5441C0.17142 21.5923 4.21801 27.1114 9.92979 29.1174C11.2062 29.5656 12.5144 29.8592 13.8659 29.9522C13.9317 29.9567 13.9958 29.9837 14.0607 30C14.6859 30 15.3107 30 15.9359 30C16.0002 29.9834 16.064 29.9564 16.1295 29.952C17.4009 29.8617 18.6459 29.6274 19.8408 29.1854C25.2903 27.1681 28.5951 23.3024 29.7625 17.6148C29.8758 17.0638 29.9224 16.499 30 15.9406C30 15.316 30 14.691 30 14.0661ZM0.934865 14.9855C0.953698 7.18843 7.25942 0.929231 15.0808 0.944405C22.7619 0.959017 29.0758 7.29436 29.062 14.9737C29.0482 22.7919 22.7537 29.082 14.9633 29.0623C7.22372 29.0432 0.916032 22.7135 0.934865 14.9855Z" fill="#6E6996"/>
<path d="M15.0379 2.81888C8.28943 2.80849 2.81405 8.27134 2.81012 15.0183C2.80647 21.7645 8.2706 27.1779 15.0938 27.1875C21.6905 27.1967 27.1838 21.6889 27.1875 15.0622C27.1909 8.29663 21.7655 2.82928 15.0379 2.81888ZM26.2495 14.9869C26.2495 21.1938 21.2253 26.2416 15.0382 26.2506C8.81142 26.2596 3.76077 21.2284 3.74756 15.0023C3.73435 8.82069 8.78922 3.75797 14.976 3.75601C21.1994 3.75404 26.2495 8.78528 26.2495 14.9869Z" fill="#6E6996"/>
<path d="M15.0027 17.5892C16.0655 18.655 17.0985 19.6919 18.1327 20.7276C18.6133 21.209 19.1837 21.4304 19.8628 21.2859C21.266 20.9872 21.8057 19.3291 20.8401 18.2641C20.4668 17.8522 20.0587 17.4717 19.6655 17.078C18.983 16.3952 18.2999 15.7132 17.5952 15.0093C17.6798 14.9208 17.7501 14.8444 17.8235 14.7708C18.7966 13.7971 19.7748 12.828 20.7426 11.8492C21.4734 11.1102 21.5243 10.0472 20.8798 9.31185C20.1638 8.49471 18.9768 8.45481 18.1765 9.24019C17.1941 10.2046 16.2257 11.1833 15.2537 12.1581C15.1784 12.2334 15.1213 12.3269 15.0373 12.436C14.9187 12.3238 14.8416 12.2544 14.7683 12.1814C13.7802 11.1948 12.8015 10.1987 11.8028 9.22333C10.8049 8.24884 9.18581 8.63521 8.76586 9.94043C8.53114 10.6696 8.71807 11.3094 9.25046 11.8462C10.1854 12.7892 11.1267 13.7257 12.0678 14.6626C12.1713 14.7654 12.2896 14.8531 12.4768 15.0933C12.3635 15.1535 12.2278 15.1906 12.1404 15.2768C11.1748 16.2305 10.2129 17.1882 9.25833 18.1528C8.62334 18.7946 8.49432 19.6418 8.89937 20.3789C9.46549 21.4087 10.8392 21.6378 11.7376 20.842C12.0293 20.5835 12.2958 20.296 12.5721 20.0201C13.3721 19.2206 14.1715 18.4203 15.0027 17.5892ZM19.4642 9.55238C19.478 9.57458 19.4917 9.59678 19.5058 9.61926C19.5541 9.62544 19.6033 9.62797 19.6506 9.63836C19.989 9.71367 20.2341 9.89519 20.3415 10.2389C20.4556 10.6047 20.3527 10.9121 20.0913 11.1737C18.9807 12.2865 17.8679 13.397 16.7562 14.5089C16.3466 14.9186 16.3477 15.0897 16.7623 15.5044C17.8603 16.6023 18.9565 17.7016 20.0579 18.796C20.3114 19.0481 20.446 19.335 20.364 19.6919C20.2881 20.0206 20.0848 20.2426 19.7551 20.3407C19.3897 20.4494 19.0802 20.3452 18.8191 20.0847C17.6987 18.968 16.581 17.8485 15.462 16.7307C15.0938 16.3629 14.9012 16.3637 14.5285 16.7358C13.4233 17.8401 12.3174 18.9436 11.215 20.0507C10.9803 20.2864 10.7104 20.4255 10.3759 20.3719C10.0226 20.3151 9.76795 20.1226 9.65635 19.7674C9.54167 19.4024 9.64314 19.0953 9.9054 18.8326C11.0163 17.7201 12.1286 16.609 13.24 15.4974C13.6509 15.0863 13.6498 14.9197 13.2335 14.5033C12.1356 13.4054 11.0388 12.3067 9.93885 11.2108C9.68671 10.9596 9.55151 10.6721 9.63358 10.3142C9.7092 9.98343 9.91411 9.76425 10.2427 9.66646C10.6078 9.55772 10.9168 9.66197 11.1785 9.92301C12.2983 11.0403 13.4159 12.1597 14.535 13.2775C14.9029 13.6448 15.0955 13.6428 15.4682 13.2702C16.5735 12.1659 17.6722 11.0551 18.7893 9.9632C18.9731 9.78364 19.2374 9.68698 19.4642 9.55238Z" fill="#6E6996"/>
<path d="M5.57879 14.9939C5.64991 15.6242 5.70416 16.2255 5.79102 16.8218C5.82981 17.0887 6.05159 17.2194 6.30373 17.1862C6.55137 17.1536 6.70485 16.9626 6.69726 16.6914C6.69501 16.6136 6.68545 16.5357 6.67336 16.4587C6.52242 15.4882 6.48588 14.5109 6.68348 13.5499C6.83752 12.801 7.0891 12.0721 7.30188 11.3356C7.33421 11.2243 7.39577 11.1221 7.43849 11.0133C7.55374 10.7188 7.46154 10.4637 7.2035 10.3552C6.96036 10.2529 6.68967 10.3493 6.5896 10.6362C6.31188 11.4337 6.01561 12.2295 5.81913 13.0483C5.66621 13.6867 5.65244 14.3583 5.57879 14.9939Z" fill="#6E6996"/>
<path d="M14.9807 5.63304C13.4789 5.63445 12.043 5.94214 10.6772 6.5696C10.3821 6.70504 10.259 6.92029 10.3298 7.1611C10.4169 7.45783 10.7034 7.55646 11.0412 7.43732C11.6914 7.20831 12.3365 6.95091 13.0038 6.78681C14.1119 6.51453 15.2416 6.49992 16.3716 6.66964C16.4581 6.68256 16.5456 6.69324 16.633 6.69942C16.9444 6.72162 17.1493 6.57354 17.1811 6.30575C17.2134 6.03346 17.0659 5.82412 16.7547 5.78225C16.2532 5.71509 15.7475 5.67997 15.2435 5.63417C15.1567 5.6263 15.0684 5.63304 14.9807 5.63304Z" fill="#6E6996"/>
<path d="M24.3707 14.9835C24.3687 13.4922 24.0688 12.0647 23.4448 10.7075C23.2888 10.3678 23.0521 10.2419 22.7867 10.3583C22.5138 10.4777 22.4323 10.739 22.5844 11.0737C23.3678 12.7981 23.6047 14.5962 23.3234 16.466C23.3146 16.5239 23.3087 16.582 23.3048 16.6405C23.2843 16.9403 23.4186 17.1376 23.6725 17.1823C23.9446 17.2303 24.1714 17.0873 24.2155 16.7858C24.2858 16.3047 24.3229 15.8186 24.369 15.3341C24.3803 15.2184 24.3707 15.1006 24.3707 14.9835Z" fill="#6E6996"/>
<path d="M14.8753 24.4202C15.56 24.3539 16.1225 24.3036 16.6836 24.2429C16.9191 24.2173 17.1201 24.1268 17.1749 23.861C17.2452 23.5196 17.002 23.279 16.6195 23.3083C16.0469 23.3518 15.4743 23.4274 14.9014 23.4311C13.609 23.4395 12.3694 23.165 11.1874 22.6381C11.134 22.6142 11.0814 22.5889 11.0272 22.567C10.725 22.4453 10.4771 22.5237 10.3584 22.7775C10.2412 23.0287 10.3371 23.3032 10.6381 23.4145C11.3302 23.6705 12.0205 23.9526 12.7362 24.1187C13.4712 24.2892 14.2355 24.3348 14.8753 24.4202Z" fill="#6E6996"/>
<path d="M18.0675 6.85063C18.1271 6.91807 18.2153 7.07571 18.35 7.1572C18.5633 7.28646 18.8048 7.37216 19.0395 7.46208C19.2987 7.56127 19.5379 7.45871 19.6436 7.2193C19.7434 6.99338 19.6677 6.74891 19.4311 6.62724C19.1904 6.50332 18.9411 6.39121 18.6856 6.30297C18.3691 6.19367 18.0534 6.43364 18.0675 6.85063Z" fill="#6E6996"/>
<path d="M23.1651 18.0655C23.0954 18.1267 22.9312 18.2194 22.8444 18.3599C22.7136 18.5718 22.6285 18.814 22.5391 19.049C22.4421 19.3044 22.5512 19.5472 22.7912 19.6494C23.0161 19.7453 23.259 19.6652 23.3804 19.4275C23.5035 19.1866 23.6162 18.9377 23.7039 18.682C23.8082 18.3785 23.5822 18.0739 23.1651 18.0655Z" fill="#6E6996"/>
<path d="M6.84279 18.0699C6.43465 18.0584 6.18925 18.3625 6.2896 18.6671C6.37758 18.934 6.49508 19.1942 6.62635 19.4435C6.74975 19.6772 7.0061 19.7452 7.22929 19.6382C7.45473 19.5297 7.55227 19.2965 7.45726 19.0481C7.36703 18.8118 7.27989 18.5696 7.15002 18.3549C7.06823 18.2191 6.91025 18.1298 6.84279 18.0699Z" fill="#6E6996"/>
<path d="M18.0591 23.1903C18.0779 23.5803 18.3748 23.8054 18.6629 23.709C18.9372 23.6171 19.2085 23.5022 19.4604 23.3606C19.6782 23.238 19.7457 23.0239 19.6414 22.7823C19.5422 22.5521 19.3043 22.4442 19.0626 22.535C18.8091 22.6302 18.5493 22.7241 18.3205 22.8646C18.1895 22.9452 18.1148 23.1175 18.0591 23.1903Z" fill="#6E6996"/>
</svg>
