<svg width="30" height="30" viewBox="0 0 30 30" fill="none" xmlns="http://www.w3.org/2000/svg">
<ellipse cx="20.1324" cy="9.86873" rx="6.71053" ry="6.71053" fill="#87D4FF"/>
<path d="M3.29145 26.2011C3.14607 26.3675 3.00375 26.5296 2.84981 26.7052C2.78262 26.7819 2.66289 26.7813 2.59631 26.7033C0.281832 23.9907 -0.506766 20.9422 0.31726 17.4799C1.11685 14.1212 4.48321 10.1299 9.79875 9.98787C9.88427 9.98543 9.95452 9.91961 9.96063 9.83429C10.2893 5.42246 12.4052 2.22832 16.6194 0.65167C19.9351 -0.589175 23.0815 -0.0175084 25.9897 2.02172C26.0679 2.07657 26.0844 2.18566 26.0258 2.26062C25.8841 2.44224 25.7491 2.61533 25.611 2.79268C25.5567 2.86276 25.4565 2.878 25.3832 2.82742C25.2677 2.74697 25.1566 2.67018 25.0454 2.59339C19.6602 -1.09685 12.1462 2.12472 11.1176 8.56236C10.8842 10.022 10.9923 11.4481 11.4602 12.8468C11.5305 13.0565 11.6979 13.2198 11.9092 13.2862C14.7344 14.1736 16.3971 16.0928 16.9242 19.0096C16.9407 19.101 16.9426 19.1955 16.9474 19.2887C16.9523 19.3777 16.8851 19.4539 16.796 19.4606C16.5638 19.4783 16.3342 19.4978 16.1051 19.5008C16.0544 19.5014 15.9786 19.4131 15.9573 19.3509C15.9353 19.2863 15.9267 19.2174 15.9194 19.1418C15.9108 19.0565 15.8388 18.9919 15.7532 18.9919H14.6776C14.5853 18.9919 14.5108 18.9176 14.5108 18.8255V18.1765C14.5108 18.0844 14.5853 18.0101 14.6776 18.0101H15.3971C15.5022 18.0101 15.5816 17.9144 15.5614 17.8114C15.1687 15.8313 12.3283 13.9469 9.77921 14.0078C6.77509 14.0791 4.20894 16.5486 4.01163 19.5569C3.80822 22.6651 5.98466 25.4192 9.04253 25.8976C12.1426 26.3828 14.7154 24.4739 15.5352 22.2257C15.5749 22.1166 15.4949 22.0008 15.3788 22.0008H9.16531C9.07307 22.0008 8.99855 22.0751 8.99855 22.1666C8.99794 22.2354 8.99794 22.3031 9.00038 22.3701C9.00771 22.6169 8.93991 22.8229 8.6968 22.9333C8.46406 23.0387 8.27715 22.9491 8.09756 22.7992C7.24299 22.0861 6.38476 21.3773 5.5308 20.6643C4.79962 20.0542 4.79901 19.9232 5.52469 19.3174C6.36338 18.6177 7.20573 17.9229 8.04319 17.2215C8.23439 17.0618 8.42375 16.9216 8.68824 17.038C8.9619 17.1587 9.01321 17.3921 9.00038 17.6584C8.99794 17.7115 8.99794 17.7639 8.99855 17.8206C8.99916 17.912 9.07368 17.9857 9.16531 17.9857H13.308C13.4003 17.9857 13.4748 18.0601 13.4748 18.1521V18.8188C13.4748 18.9066 13.407 18.9797 13.319 18.9852C13.2799 18.9877 13.2409 18.9895 13.2018 18.9895C11.6918 18.9907 10.1818 18.9852 8.67236 18.9944C8.41886 18.9956 8.21179 18.9456 8.07068 18.7396C8.01509 18.6579 7.90148 18.6409 7.82512 18.7043C7.36088 19.09 6.90581 19.4679 6.43424 19.8592C6.35422 19.9256 6.35422 20.0487 6.43424 20.1151C6.89909 20.5021 7.35111 20.8776 7.81902 21.267C7.89598 21.331 8.0096 21.3127 8.06579 21.2304C8.22095 21.0031 8.47445 20.9793 8.7591 20.9806C11.0186 20.9891 13.2781 20.9848 15.5376 20.9848H15.7569C15.8369 20.9848 15.906 20.9282 15.9212 20.8495C15.9365 20.7691 15.9518 20.6892 15.9683 20.6058C15.9841 20.5241 16.0581 20.4668 16.1411 20.4717C16.3549 20.4845 16.5675 20.4973 16.7947 20.5107C16.8888 20.5162 16.9603 20.5984 16.9511 20.6923C16.821 22.0569 16.3384 23.2563 15.5022 24.3118C14.3398 25.78 12.8175 26.6479 10.96 26.9057C6.9785 27.4578 3.33604 24.5532 3.02451 20.5186C2.70443 16.3737 6.06956 12.8864 10.2092 12.99C10.3161 12.9925 10.3974 12.8956 10.3766 12.7907C10.2697 12.255 10.1634 11.7212 10.0565 11.1842C10.0419 11.1099 9.97834 11.0538 9.90199 11.0501C7.70662 10.935 4.30545 12.1344 2.3532 15.2688C0.385675 18.4282 0.472414 22.7937 3.29145 25.9811C3.34643 26.0439 3.34643 26.1384 3.29145 26.2011Z" fill="#6E6996"/>
<path d="M14.6159 8.01328H20.8257C20.9222 8.01328 20.9992 7.93161 20.9925 7.83532C20.9857 7.73597 20.9815 7.63968 21.0108 7.55497C21.07 7.3831 21.1641 7.16248 21.3058 7.09727C21.4463 7.03267 21.7139 7.07167 21.8397 7.17284C22.8378 7.97305 23.8182 8.7952 24.7962 9.61918C25.0833 9.86114 25.082 10.1799 24.7925 10.4231C23.8139 11.247 22.8329 12.0686 21.8348 12.8682C21.7096 12.9681 21.4396 13.0041 21.2997 12.9377C21.1592 12.8712 21.0706 12.6488 21.0102 12.4769C20.9815 12.3952 20.9857 12.302 20.9925 12.2014C20.9992 12.1051 20.9222 12.0241 20.8257 12.0241H16.6952C16.6029 12.0241 16.5284 11.9497 16.5284 11.8577V11.1806C16.5284 11.0886 16.6029 11.0142 16.6952 11.0142C16.7483 11.0142 16.8015 11.0142 16.8552 11.0142C18.3237 11.0142 19.7915 11.0203 21.2594 11.01C21.5404 11.0081 21.7829 11.0423 21.9338 11.2659C21.9887 11.347 22.1005 11.3659 22.1757 11.3031C22.6399 10.9173 23.0938 10.5407 23.5665 10.1482C23.6466 10.0818 23.6466 9.95865 23.5665 9.89222C23.1078 9.5107 22.6576 9.1365 22.1812 8.74096C22.1024 8.67575 21.9851 8.69586 21.9313 8.7824C21.7682 9.04508 21.4738 9.02253 21.1806 9.02192C18.9419 9.01765 16.7031 9.02009 14.4644 9.02009H14.2475C14.1663 9.02009 14.0973 9.07799 14.0832 9.15783C14.0692 9.23827 14.0551 9.31629 14.0405 9.39734C14.0258 9.47962 13.9519 9.53874 13.8682 9.53447C13.6526 9.52472 13.4394 9.51436 13.2115 9.504C13.1169 9.49973 13.0442 9.41806 13.0527 9.3236C13.1682 7.99987 13.63 6.83581 14.418 5.79852C15.5663 4.28769 17.0953 3.37961 18.9718 3.10962C22.828 2.55502 26.4289 5.24331 26.9286 9.01461C27.0673 10.0604 26.994 11.0874 26.6788 12.0936C26.3673 13.0894 25.8529 13.9725 25.1437 14.7398C24.4272 15.515 23.5775 16.1007 22.5965 16.495C21.6925 16.8589 20.7518 17.0143 19.7842 16.9966C19.6779 16.9948 19.5973 17.0917 19.6181 17.1959C19.7298 17.7517 19.838 18.2917 19.9461 18.8317C19.9614 18.9078 20.0273 18.9633 20.1049 18.9657C22.5819 19.0352 25.9348 17.7005 27.8027 14.4771C29.5833 11.4043 29.4783 7.1704 26.6996 4.00003C26.6427 3.93543 26.6452 3.83792 26.7044 3.77575C26.8486 3.62461 26.9928 3.47407 27.1375 3.32293C27.2029 3.25467 27.3116 3.25345 27.3776 3.3211C29.4245 5.41396 30.7024 9.13772 29.5907 12.8627C28.4533 16.6736 24.8878 19.8726 20.2112 20C20.1263 20.0024 20.0566 20.0676 20.0493 20.1523C19.6602 24.8342 17.3598 28.1167 12.7778 29.5452C9.64056 30.5234 6.69874 29.889 4.01287 27.9753C3.93529 27.9198 3.91941 27.8113 3.97805 27.7364C4.12038 27.5548 4.25537 27.3829 4.39403 27.2074C4.44962 27.1367 4.55163 27.1227 4.62432 27.1757C5.34573 27.7041 6.105 28.124 6.93025 28.4263C12.1994 30.3564 17.9987 26.9593 18.885 21.4255C19.1233 19.9396 19.0017 18.4892 18.5106 17.0655C18.4452 16.8753 18.3444 16.7894 18.1533 16.7376C15.457 16.0099 13.4485 13.7269 13.0772 10.9783C13.0656 10.8929 13.0613 10.807 13.057 10.7107C13.0527 10.6187 13.1236 10.5407 13.2158 10.5364C13.4394 10.5254 13.6532 10.5145 13.8719 10.5035C13.9555 10.4992 14.0295 10.5577 14.0447 10.64C14.0594 10.7192 14.0734 10.7966 14.0881 10.8759C14.1028 10.9551 14.1718 11.0124 14.2524 11.0124C14.5065 11.0124 15.0453 11.0124 15.3189 11.0124C15.4112 11.0124 15.4857 11.0867 15.4857 11.1788V11.8406C15.4857 11.9327 15.4112 12.007 15.3189 12.007H14.622C14.5071 12.007 14.4265 12.1198 14.4638 12.2276C15.1149 14.1011 17.3286 16.2305 20.4897 15.9825C23.4804 15.7478 25.8859 13.2649 25.9953 10.3389C26.1113 7.22647 23.9789 4.57901 20.9418 4.1079C17.9016 3.63619 15.3324 5.46881 14.4607 7.78839C14.4186 7.89748 14.4998 8.01328 14.6159 8.01328Z" fill="#6E6996"/>
</svg>
