<svg width="21" height="21" viewBox="0 0 21 21" fill="none" xmlns="http://www.w3.org/2000/svg">
<path fill-rule="evenodd" clip-rule="evenodd" d="M13 1H2C1.44772 1 1 1.44772 1 2V19C1 19.5523 1.44772 20 2 20H13C13.5523 20 14 19.5523 14 19V2C14 1.44772 13.5523 1 13 1ZM2 0C0.895431 0 0 0.89543 0 2V19C0 20.1046 0.89543 21 2 21H13C14.1046 21 15 20.1046 15 19V2C15 0.895431 14.1046 0 13 0H2Z" fill="#6E6996"/>
<path d="M19.169 11.7163C19.9986 11.1176 19.9986 9.88238 19.169 9.28367L12.8778 4.74339C11.8858 4.02744 10.5 4.7363 10.5 5.95972L10.5 15.0403C10.5 16.2637 11.8858 16.9726 12.8778 16.2566L19.169 11.7163Z" fill="#6E6996" stroke="white"/>
</svg>
