<svg width="53" height="53" viewBox="0 0 53 53" fill="none" xmlns="http://www.w3.org/2000/svg">
<path fill-rule="evenodd" clip-rule="evenodd" d="M30.3519 12.2779C30.1631 12.4802 29.4753 13.5052 29.4753 14.7865C29.4753 15.0967 29.4753 22.4199 29.4753 22.6762C29.4618 23.2291 29.1246 24.0248 28.8414 24.3081C28.6391 24.5104 27.4253 25.6163 27.3174 25.7242L28.0052 25.7376C28.2345 25.5219 30.5677 23.4449 30.8104 23.1752C31.1341 22.811 31.8894 21.8939 31.8894 20.4509C31.8894 20.1137 31.8894 13.1681 31.8894 12.8714C31.8894 11.7385 32.4153 11.1046 32.6986 10.7944C32.9818 10.4842 33.8989 9.71548 34.0607 9.54015L33.3324 9.51317C33.1706 9.70198 30.5812 12.0352 30.3519 12.2779Z" fill="#E03A3E"/>
<path fill-rule="evenodd" clip-rule="evenodd" d="M24.5522 40.9915L27.4114 43.5H29.3265C31.2821 43.5 33.0623 42.6638 34.2357 41.4905C35.409 40.3171 35.8406 38.7257 35.8406 37.2557C35.8406 36.1767 35.8406 33.3445 35.8406 33.1557C35.8406 31.7801 34.9774 30.9709 34.7347 30.7281C34.5998 30.5932 33.7636 29.811 33.7636 29.811V32.9534C33.7636 32.9534 34.6807 33.8975 34.8695 34.0998C35.7192 35.0034 35.7057 36.6488 33.0219 39.2652C32.5498 39.7237 31.2012 40.9915 29.3535 40.9915C29.1107 40.9915 24.5522 40.9915 24.5522 40.9915Z" fill="#E03A3E"/>
<path fill-rule="evenodd" clip-rule="evenodd" d="M32.5228 24.1463C32.1991 24.4835 31.9024 25.3062 31.9024 26.0345C31.9024 26.4391 31.9024 27.5855 31.9024 27.5855C31.9024 27.5855 33.1702 27.5855 33.4804 27.5855C34.0873 27.5855 34.8965 27.0325 35.0718 26.7358C35.0853 26.7088 35.0718 25.1983 35.0718 25.1983C35.0718 25.1983 35.4764 25.7782 35.908 26.0884C36.0698 25.8861 37.5129 24.1464 38.7132 24.1329C40.7227 24.1194 40.2642 26.6414 39.4415 27.4506C39.1717 27.7068 37.9984 28.7993 37.6208 29.1499C36.6767 30.0535 35.0583 29.6219 35.0583 27.2887C35.0583 27.2887 33.3185 28.9341 33.0623 29.1634C32.806 29.3792 31.9024 30.3367 31.9024 30.3367C31.9024 30.3367 31.9024 34.0321 31.9024 34.4367C31.9024 36.4057 31.255 37.0531 30.7156 37.6465C30.5133 37.8758 28.3015 39.8988 28.0048 40.1146L27.2765 40.1281C27.2765 40.1281 28.5712 38.9547 28.8274 38.685C29.1242 38.3748 29.4613 37.7544 29.4613 36.7159C29.4613 36.4597 29.4343 30.2828 29.4343 30.2828C29.4343 30.2828 19.8183 30.2828 19.3733 30.2828C15.8802 30.2828 15.125 26.3986 15.1115 25.3602C15.1115 25.05 15.1115 21.948 15.1115 21.476C15.1115 20.8421 14.7069 19.7632 14.046 19.426H15.0306C15.1385 19.48 15.7589 19.7227 15.7589 22.1099C15.7589 22.1099 15.7184 24.8746 15.7184 25.023C15.7184 26.2233 16.6759 27.6124 18.0651 27.6124C18.3483 27.6124 29.4478 27.5989 29.4478 27.5989C29.4613 27.2888 29.758 26.1289 30.311 25.522C30.6212 25.1713 33.0623 22.946 33.3455 22.7303L34.0738 22.7168C33.9659 22.8112 32.7925 23.8631 32.5228 24.1463ZM36.2586 26.4795C36.2586 26.4795 36.9195 27.3562 37.2296 27.5989C38.4569 28.5835 39.0369 27.5315 38.2142 26.3986C37.8905 25.9536 36.6362 26.0884 36.2586 26.4795Z" fill="#E03A3E"/>
<path fill-rule="evenodd" clip-rule="evenodd" d="M24.053 33.8165C24.053 34.3695 22.2998 35.8261 22.1919 35.934C22.0705 35.3405 21.6254 34.6932 20.3172 33.385L22.2323 31.4699C23.527 32.7376 24.053 33.0073 24.053 33.8165Z" fill="#E03A3E"/>
<path fill-rule="evenodd" clip-rule="evenodd" d="M27.3847 11.7927C27.7759 12.1839 28.5985 13.2223 28.0995 13.7213C27.6545 14.1664 26.9801 14.8542 26.9801 14.8542C26.9397 14.598 26.3058 13.9911 26.3058 13.9911C26.3058 13.9911 26.3058 15.8522 26.3058 16.0815C26.2788 16.9177 25.9686 17.1604 25.9686 17.1604C25.9686 17.1604 27.5196 18.6979 27.5196 20.667C27.5196 21.6245 27.5196 22.5012 27.5196 22.69C27.5196 23.0946 27.4117 23.4048 27.142 23.715C27.0071 23.8633 25.564 25.3064 25.3483 25.5087C24.9302 25.8863 24.4986 25.9403 24.1614 25.9403C23.9321 25.9403 18.9825 25.9403 18.8207 25.9403C17.9845 25.9403 17.1214 25.2794 17.1214 24.6321C17.1214 24.4702 17.1349 22.6495 17.1349 22.6495C17.4046 22.9732 17.6878 23.3373 18.3622 23.3238C18.8881 23.3104 19.4411 22.9058 19.5894 22.7574C19.7378 22.6091 23.622 18.5496 23.622 18.5496C23.622 18.5496 21.8013 16.8637 20.6009 16.068C20.021 15.6769 19.2388 16.1759 19.1309 16.6884C18.7668 18.3068 19.1309 20.7209 19.1309 20.7209C19.1309 20.7209 17.9441 19.5341 17.6608 19.2509C17.0674 18.6575 17.0944 17.3088 17.7957 16.6075C17.9036 16.4996 18.9825 15.2723 20.3582 15.2723C20.574 15.2723 22.2463 15.2723 22.4891 15.2723C23.9187 15.2723 25.4831 16.7019 25.4831 16.7019C25.4831 16.7019 25.7124 16.4456 25.7124 16.2029C25.7124 15.4746 25.6854 13.4921 25.6854 13.4921C24.6065 12.4131 24.4581 11.3072 24.9841 10.7947C25.9417 9.83718 26.2923 9.5 26.2923 9.5C26.2923 9.5 26.2653 10.6733 27.3847 11.7927ZM20.6953 22.5146C20.1694 23.0676 20.075 23.2025 19.5894 23.4992C19.6299 23.4992 25.4157 23.4992 25.6045 23.4992C27.2364 23.4992 26.9127 22.4877 26.616 21.9752C26.0226 20.9232 24.121 18.9811 24.121 18.9811C24.121 18.9811 20.8032 22.3933 20.6953 22.5146Z" fill="#E03A3E"/>
<path fill-rule="evenodd" clip-rule="evenodd" d="M13.8439 27.977H12.8594C12.8594 27.977 13.9248 28.5569 13.9248 30.054C13.9248 30.4451 13.9248 34.5181 13.9248 34.8552C13.9248 37.9706 16.5008 40.8568 19.6297 40.8568C20.1557 40.8568 21.8954 40.8568 22.2461 40.8568C23.8106 40.8568 24.3635 40.4792 25.3076 39.6295C25.6582 39.3193 26.1033 38.8068 26.2786 38.6315C26.8316 38.0246 27.4115 37.5256 27.4115 35.9207C27.4115 35.5296 27.4115 34.572 27.4115 34.3562C27.4115 32.9941 26.6293 32.4411 26.2516 32.05C26.0089 31.8072 25.3346 31.1734 25.3346 31.1734V34.3832C25.3346 34.3832 25.9954 35.0845 26.2786 35.3138C27.6408 36.3792 26.5618 38.2404 25.2941 38.2404C25.0378 38.2404 19.9129 38.2404 19.5623 38.2539C17.4448 38.3078 14.5992 36.4197 14.5992 33.2503C14.5992 32.8187 14.5992 30.9171 14.5992 30.6474C14.5722 27.977 13.8439 27.977 13.8439 27.977Z" fill="#E03A3E"/>
<path fill-rule="evenodd" clip-rule="evenodd" d="M20.1289 33.8165C20.1289 34.3695 18.3756 35.8261 18.2677 35.934C18.1463 35.3405 17.7013 34.6932 16.393 33.385L18.3082 31.4699C19.6029 32.7376 20.1289 33.0208 20.1289 33.8165Z" fill="#E03A3E"/>
</svg>
