<svg version="1.1" id="Layer_1" xmlns="http://www.w3.org/2000/svg" x="0" y="0" viewBox="0 0 360 164" xml:space="preserve"><style>.st10{fill:#ffc1b2}.st16,.st17{opacity:.5;fill:#fff;enable-background:new}.st17{fill:#eef4ff}</style><path id="bg" d="M0 16C0 7.2 7.2 0 16 0h328c8.8 0 16 7.2 16 16v128s-102 20-187 20S0 144 0 144V16z" fill="#dce9ff"/><g id="Compucter"><path d="M246.3 149.7H90.5V59.6c0-4.1 3.4-7.5 7.5-7.5h140.8c4.1 0 7.5 3.4 7.5 7.5v90.1z" fill="#212f3d"/><path d="M238.6 60H98.1v83.9h140.5V60z" fill="#70a4ed"/><path d="M238.6 75.1c-19.3 20.5-61.7 51.3-140.5 48.6V144h140.5V75.1z" fill="#5f85f0"/><path d="M246 160.2c.1-.6.2-1.2.2-1.8v-8.6H90.5v9.1c25.6 3 54.2 5.2 82.5 5.2 23.9-.1 49.1-1.7 73-3.9z" fill="#c4d1e9"/><path d="M171.1 158.5c.4-1.5-.6-3.1-2.1-3.4-1.5-.4-3.1.6-3.4 2.1-.4 1.5.6 3.1 2.1 3.4 1.5.3 3.1-.6 3.4-2.1z" opacity=".5" fill="#212f3d"/><path d="M200.9 125.1h-67.6c-.6 0-1.1-.5-1.1-1.1v-7.6c0-.6.5-1.1 1.1-1.1h67.6c.6 0 1.1.5 1.1 1.1v7.6c0 .7-.5 1.1-1.1 1.1zm-28.3-22.4 1.6-1.6-2.4-10.7 4.5-4.5c.7-.7.7-1.8 0-2.5s-1.8-.7-2.5 0l-4.5 4.5-10.7-2.4-1.6 1.6 8.6 4.5-4.5 4.5-2.9-.4L157 97l3.7 2 2 3.7 1.2-1.2-.4-2.9 4.5-4.5 4.6 8.6z" fill="#fff"/><path d="M173.7 122.9h-38.2c-.5 0-.9-.4-.9-.9v-3.3c0-.5.4-.9.9-.9h38.2c.5 0 .9.4.9.9v3.3c0 .5-.4.9-.9.9z" fill="#ef3f82"/></g><g id="boy"><path d="M254.9 86.6s-5.1-4-4.9-11.4c.2-7 3.7-7 3.7-7s3.7-5.5 11.6-2.8c9.9 3.4 4.3 19.5-.1 21.9-4.3 2.4-10.3-.7-10.3-.7z" fill="#b95e5e"/><path d="M294.9 147.5c-2.2-6-8.5-5.5-13.4-3.6-.5.2-1.9.8-4 1.6l-.8-2.8-17.3 1.6-17.3-1.6-.8 2.8c-2-.8-3.4-1.4-3.9-1.5-4.9-1.8-11.1-2.4-13.4 3.6-1.8 4.8-.4 10.2 8.2 13.8 22.1-1.8 43.6-4.3 62.4-6.9 1.3-2.3 1.1-4.7.3-7z" fill="#0c336b"/><path class="st10" d="M283.4 113.7s-5-19-14.2-20.5c-.3-.1-.5 0-.7 0 .5.2.9.4 1.2.7 7 3.8 4.7 24.7 4.4 27.5 1.3 3.2 2.6 6.1 3.4 8-6.3 1-17.9 14.8-17.9 14.8s24.4-1.1 28.7-5.1c.3-.3.9-1.2.9-1.2 2.5-4.8-1.4-15.9-5.8-24.2zm-46.9 0s5-19 14.2-20.5c.3-.1.5 0 .7 0-.5.2-.9.4-1.2.7-7 3.8-4.7 24.7-4.4 27.5-1.3 3.2-2.6 6.1-3.4 8 6.3 1 17.9 14.8 17.9 14.8s-24.4-1.1-28.7-5.1c-.3-.3-.9-1.2-.9-1.2-2.5-4.8 1.3-15.9 5.8-24.2z"/><path d="M274.6 114c0 1.6-.1 2.6-.1 2.5 2.1-.3 9.3-3.3 9.3-3.3s-3.1-9.3-7-15.1c-3.9-5.8-10.5-5.4-10.5-5.4-3.5-.7-8.7-.8-12.7-.1-.6 0-6.7-.1-10.4 5.4-3.9 5.8-7 15.1-7 15.1s5.4 2.4 8.2 3.2c.2 3.3.6 5.6.6 5.6-2.7 12-3.9 22.6-3.9 22.6s8.6 3.9 17.6 3.7h1.6c9 .2 17.6-3.7 17.6-3.7s-1.2-10.6-3.9-22.6c0 0 .5-3.4.6-7.9z" fill="#ff5c73"/><path class="st10" d="m262.5 85.4-2.4.1-2.4-.1s-2.9 7.5-2.7 7.6c0 0 1.7 1.7 4.6 1.9h.8c2.9-.3 4.6-1.9 4.6-1.9.4-.2-2.5-7.6-2.5-7.6z"/><path d="M260.3 91.2c1.5.1 2.8-.5 3.8-1.4-.8-2.1-1.7-4.4-1.7-4.4l-2.4.1-2.4-.1s-.8 2.1-1.5 4.1c1.1 1 2.5 1.8 4.2 1.7z" fill="#f4a28e"/><path d="M270.7 79.3c-.3-.8-1.4-1.5-2.6-.7s-.4 1.9-1.2 2.8c-.6.6.1-6.1-2-6.3 0 0-2.5 2.4-7.6 2.6-2.3.1-2.7 2.6-2.7 3.1s-.3.8-.7.1c-.5-.8-.1-1.4-1.3-2.3-1.2-.8-2.3-.1-2.6.7-.3.8-.3 3.2 1.2 4.2 1.5.9 2.2.2 2.2.2s2.4 6.5 7 6.1c4.6.3 7-6.1 7-6.1s.6.7 2.2-.2c1.4-1 1.4-3.4 1.1-4.2z" fill="#ffc1b3"/><linearGradient id="SVGID_1_" gradientUnits="userSpaceOnUse" x1="257.346" y1="19.259" x2="262.161" y2="45.783" gradientTransform="matrix(1 0 0 -1 0 163.89)"><stop offset="0" stop-color="#d2d2d2"/><stop offset="1" stop-color="#fff"/></linearGradient><path d="M280.6 142.6c0 1.8-1.6 3.3-3.5 3.3h-34.7c-2 0-3.5-1.5-3.5-3.3v-21.7c0-1.8 1.6-3.3 3.5-3.3h34.7c2 0 3.5 1.5 3.5 3.3v21.7z" fill="url(#SVGID_1_)"/><path d="M259.5 134c1.3 0 2.4-1.2 2.4-2.7 0-1.5-1.1-2.7-2.4-2.7-1.3 0-2.4 1.2-2.4 2.7.1 1.5 1.1 2.7 2.4 2.7z" opacity=".3" fill="#212f3d"/></g><g id="Bubbles"><circle class="st16" cx="293" cy="123" r="5"/><path class="st16" d="M59 82.4c5 0 9 4 9 8.9s-4 8.9-9 8.9-9-4-9-8.9 4-8.9 9-8.9zm125-63.5c2.8 0 5 2.2 5 5s-2.2 5-5 5-5-2.2-5-5 2.2-5 5-5z"/><circle class="st17" cx="322.5" cy="67" r="2.5"/><path class="st17" d="M74.5 74.4c1.4 0 2.5 1.1 2.5 2.5s-1.1 2.5-2.5 2.5-2.5-1.1-2.5-2.5 1.1-2.5 2.5-2.5zm-61-13.9c1.4 0 2.5 1.1 2.5 2.5s-1.1 2.5-2.5 2.5S11 64.4 11 63s1.1-2.5 2.5-2.5z"/><path d="M304.5 138.9c-6.9 0-12.5 5.6-12.5 12.4 0 1.2.2 2.4.5 3.5 8.8-1.2 17-2.4 24.5-3.5 0-6.8-5.6-12.4-12.5-12.4z" opacity=".3" fill="#eef4ff"/><path d="M17 39.2c0 6.8-5.6 12.4-12.5 12.4-1.6 0-3.1-.3-4.5-.8V27.6c1.4-.5 2.9-.8 4.5-.8 6.9 0 12.5 5.5 12.5 12.4zM345.8.1c-3.5 3.3-5.8 8.1-5.8 13.3 0 10.1 8.3 18.4 18.5 18.4.5 0 1 0 1.5-.1V16c0-8.2-6.2-15-14.2-15.9z" opacity=".3" fill="#edf4ff"/></g></svg>