<svg width="18" height="22" viewBox="0 0 18 22" fill="none" xmlns="http://www.w3.org/2000/svg">
<path d="M18 14.0415L18 15.2032C18 15.4411 17.8823 15.6651 17.6815 15.7911C17.4808 15.917 17.2315 15.938 17.0238 15.84L10.8692 13.0198L10.7792 17.2537L12.6277 18.8003C12.9877 19.0942 13.1538 19.3251 13.1538 19.927L13.1538 20.7108C13.1608 20.9627 13.05 21.2007 12.8492 21.3546C12.7108 21.4596 12.4754 21.5576 12.1362 21.4596L9.06923 20.5918C9.04846 20.5848 9.02077 20.5778 9 20.5708L8.99308 20.5708C8.97231 20.5778 8.94462 20.5848 8.92385 20.5918L5.82923 21.4596C5.49692 21.5506 5.26846 21.4526 5.13692 21.3476C4.95 21.2077 4.84615 20.9907 4.84615 20.7528L4.84615 19.927C4.84615 19.4791 5.04692 19.0452 5.36538 18.7863L7.18615 17.2747L7.12385 13.0198L0.976154 15.84C0.761538 15.938 0.512307 15.917 0.318461 15.7911C0.117692 15.6651 -2.64841e-07 15.4411 -2.75242e-07 15.2032L-3.26633e-07 14.0275C0.00692274 13.6916 0.166153 13.3837 0.422307 13.1807L6.99923 7.70814L6.93 5.18179C6.92308 4.99984 6.91615 4.48197 6.91615 4.363C6.91615 1.94863 7.69154 0.5 8.99308 0.5C9.40154 0.5 10.1631 0.667957 10.6477 1.77367C10.9315 2.4245 11.0769 3.29928 11.0769 4.363C11.0769 4.48197 11.0769 4.99284 11.0631 5.18179L10.9938 7.70814L17.5708 13.1947C17.8408 13.3977 17.9931 13.7056 18 14.0415Z" fill="white"/>
</svg>
