<svg width="13" height="14" viewBox="0 0 13 14" fill="none" xmlns="http://www.w3.org/2000/svg">
<path d="M3.75698 2.93024C3.4892 2.93024 3.26714 2.70884 3.26714 2.44186V0.488373C3.26714 0.221396 3.4892 0 3.75698 0C4.02476 0 4.24681 0.221396 4.24681 0.488373V2.44186C4.24681 2.70884 4.02476 2.93024 3.75698 2.93024ZM8.98193 2.93024C8.71409 2.93024 8.49209 2.70884 8.49209 2.44186V0.488373C8.49209 0.221396 8.71409 0 8.98193 0C9.2497 0 9.4717 0.221396 9.4717 0.488373V2.44186C9.4717 2.70884 9.2497 2.93024 8.98193 2.93024ZM4.08354 8.62791C3.99863 8.62791 3.91372 8.6084 3.83535 8.57585C3.75044 8.54329 3.68513 8.49768 3.61982 8.4391C3.50226 8.31532 3.43042 8.15254 3.43042 7.97679C3.43042 7.89211 3.45002 7.80745 3.48267 7.72931C3.51533 7.65117 3.56104 7.57955 3.61982 7.51443C3.68513 7.45583 3.75044 7.41024 3.83535 7.37769C4.07047 7.28001 4.36438 7.33211 4.54725 7.51443C4.66481 7.63815 4.73665 7.80745 4.73665 7.97679C4.73665 8.01579 4.73012 8.0614 4.72359 8.10701C4.71705 8.1461 4.70399 8.1851 4.6844 8.22418C4.67134 8.26327 4.65174 8.30235 4.62562 8.34143C4.60603 8.37399 4.57337 8.40654 4.54725 8.4391C4.42315 8.55627 4.25335 8.62791 4.08354 8.62791ZM6.36944 8.62791C6.28453 8.62791 6.19963 8.6084 6.12126 8.57585C6.03635 8.54329 5.97104 8.49768 5.90573 8.4391C5.78816 8.31532 5.71632 8.15254 5.71632 7.97679C5.71632 7.89211 5.73591 7.80745 5.76857 7.72931C5.80122 7.65117 5.84695 7.57955 5.90573 7.51443C5.97104 7.45583 6.03635 7.41024 6.12126 7.37769C6.35638 7.2735 6.65028 7.33211 6.83315 7.51443C6.95071 7.63815 7.02255 7.80745 7.02255 7.97679C7.02255 8.01579 7.01602 8.0614 7.00949 8.10701C7.00296 8.1461 6.9899 8.1851 6.9703 8.22418C6.95724 8.26327 6.93765 8.30235 6.91153 8.34143C6.89193 8.37399 6.85927 8.40654 6.83315 8.4391C6.70906 8.55627 6.53924 8.62791 6.36944 8.62791ZM8.65534 8.62791C8.57041 8.62791 8.48556 8.6084 8.40716 8.57585C8.32222 8.54329 8.25695 8.49768 8.1916 8.4391L8.11328 8.34143C8.08852 8.30513 8.06878 8.26573 8.05446 8.22418C8.03559 8.18733 8.02238 8.14777 8.01529 8.10701C8.00877 8.0614 8.00224 8.01579 8.00224 7.97679C8.00224 7.80745 8.07404 7.63815 8.1916 7.51443C8.25695 7.45583 8.32222 7.41024 8.40716 7.37769C8.64882 7.2735 8.93617 7.33211 9.11908 7.51443C9.23665 7.63815 9.30845 7.80745 9.30845 7.97679C9.30845 8.01579 9.30192 8.0614 9.29539 8.10701C9.28887 8.1461 9.27581 8.1851 9.25623 8.22418C9.24318 8.26327 9.22352 8.30235 9.19741 8.34143C9.17783 8.37399 9.14519 8.40654 9.11908 8.4391C8.99499 8.55627 8.82513 8.62791 8.65534 8.62791ZM4.08354 10.907C3.99863 10.907 3.91372 10.8875 3.83535 10.8549C3.75698 10.8224 3.68513 10.7767 3.61982 10.7182C3.50226 10.5945 3.43042 10.4252 3.43042 10.2559C3.43042 10.1712 3.45002 10.0865 3.48267 10.0084C3.51533 9.92377 3.56104 9.85213 3.61982 9.79346C3.86148 9.5526 4.3056 9.5526 4.54725 9.79346C4.66481 9.91724 4.73665 10.0865 4.73665 10.2559C4.73665 10.4252 4.66481 10.5945 4.54725 10.7182C4.42315 10.8353 4.25335 10.907 4.08354 10.907ZM6.36944 10.907C6.19963 10.907 6.02982 10.8353 5.90573 10.7182C5.78816 10.5945 5.71632 10.4252 5.71632 10.2559C5.71632 10.1712 5.73591 10.0865 5.76857 10.0084C5.80122 9.92377 5.84695 9.85213 5.90573 9.79346C6.14738 9.5526 6.59149 9.5526 6.83315 9.79346C6.89193 9.85213 6.93765 9.92377 6.9703 10.0084C7.00296 10.0865 7.02255 10.1712 7.02255 10.2559C7.02255 10.4252 6.95071 10.5945 6.83315 10.7182C6.70906 10.8353 6.53924 10.907 6.36944 10.907ZM8.65534 10.907C8.48556 10.907 8.3157 10.8353 8.1916 10.7182C8.13119 10.657 8.08446 10.5837 8.05446 10.5032C8.02182 10.4252 8.00224 10.3405 8.00224 10.2559C8.00224 10.1712 8.02182 10.0865 8.05446 10.0084C8.08709 9.92377 8.13286 9.85213 8.1916 9.79346C8.3418 9.64374 8.57041 9.5721 8.77944 9.61771C8.82513 9.62424 8.86437 9.63721 8.90353 9.65679C8.94269 9.66977 8.98193 9.68935 9.0211 9.71538C9.05373 9.73488 9.08637 9.76744 9.11908 9.79346C9.23665 9.91724 9.30845 10.0865 9.30845 10.2559C9.30845 10.4252 9.23665 10.5945 9.11908 10.7182C8.99499 10.8353 8.82513 10.907 8.65534 10.907ZM11.9209 5.5935H0.817961C0.550185 5.5935 0.328125 5.3721 0.328125 5.10512C0.328125 4.83815 0.550185 4.61675 0.817961 4.61675H11.9209C12.1887 4.61675 12.4107 4.83815 12.4107 5.10512C12.4107 5.3721 12.1887 5.5935 11.9209 5.5935Z" fill="#9493BD"/>
<path d="M8.98037 13.9999H3.75541C1.37154 13.9999 0 12.6324 0 10.2556V4.72076C0 2.34401 1.37154 0.976562 3.75541 0.976562H8.98037C11.3642 0.976562 12.7357 2.34401 12.7357 4.72076V10.2556C12.7357 12.6324 11.3642 13.9999 8.98037 13.9999ZM3.75541 1.95331C1.8875 1.95331 0.979673 2.85843 0.979673 4.72076V10.2556C0.979673 12.118 1.8875 13.0231 3.75541 13.0231H8.98037C10.8482 13.0231 11.756 12.118 11.756 10.2556V4.72076C11.756 2.85843 10.8482 1.95331 8.98037 1.95331H3.75541Z" fill="#9493BD"/>
</svg>
