<svg width="22" height="18" viewBox="0 0 22 18" fill="none" xmlns="http://www.w3.org/2000/svg">
<path fill-rule="evenodd" clip-rule="evenodd" d="M3.63415 11.9348C3.71138 12.3454 3.93011 12.716 4.25248 12.9827C4.57486 13.2495 4.98061 13.3954 5.39953 13.3954H10.194C10.4972 13.3954 10.7879 13.2753 11.0023 13.0617C11.2166 12.8479 11.337 12.5581 11.337 12.2559V10.9535C11.3367 10.4787 11.1474 10.0234 10.8106 9.68774C10.4739 9.35198 10.0172 9.16316 9.54094 9.16286H6.82006C6.78184 9.16286 6.74483 9.14948 6.71547 9.12509C6.68612 9.10071 6.66627 9.06686 6.65938 9.02931L5.64575 3.47034C5.57049 3.05771 5.35235 2.6845 5.02937 2.4158C4.7064 2.1471 4.29907 1.99994 3.87841 2H3.143C2.97503 1.99999 2.80912 2.0369 2.65708 2.10809C2.50504 2.17929 2.37061 2.28301 2.26335 2.4119C2.15609 2.54078 2.07865 2.69165 2.03652 2.85377C1.9944 3.01589 1.98863 3.18528 2.01964 3.34987L3.63415 11.9348ZM4.5975 11.7545L2.98299 3.1695C2.9786 3.14597 2.97942 3.12178 2.9854 3.09861C2.99138 3.07544 3.00237 3.05385 3.0176 3.03536C3.03295 3.01705 3.05213 3.00232 3.07379 2.99221C3.09545 2.98208 3.11908 2.9768 3.143 2.97675H3.87841C4.06958 2.97671 4.25471 3.04357 4.40151 3.16566C4.54831 3.28775 4.64749 3.45733 4.68175 3.64485L5.69538 9.20388C5.74327 9.46646 5.88208 9.704 6.08761 9.87494C6.29314 10.046 6.55235 10.1396 6.82006 10.1396H9.54094C9.75749 10.1396 9.96509 10.2253 10.1182 10.378C10.2714 10.5306 10.3574 10.7376 10.3574 10.9535V12.2559C10.3574 12.299 10.3402 12.3404 10.3095 12.371C10.2789 12.4015 10.2374 12.4187 10.194 12.4187H5.39953C5.20914 12.4185 5.02477 12.3521 4.87831 12.2308C4.73186 12.1095 4.63253 11.941 4.5975 11.7545Z" fill="#9493BD"/>
<path fill-rule="evenodd" clip-rule="evenodd" d="M6.1852 12.648L5.17679 14.2557C5.06902 14.4283 5.00946 14.6264 5.00428 14.8297C4.99909 15.0329 5.04847 15.2339 5.14731 15.4117C5.24614 15.5895 5.39083 15.7377 5.56642 15.8411C5.74202 15.9445 5.94212 15.9991 6.14602 15.9995H10.5193C10.6492 15.9995 10.7738 15.9481 10.8656 15.8565C10.9575 15.7649 11.0092 15.6407 11.0092 15.5111C11.0092 15.3817 10.9575 15.2574 10.8656 15.1659C10.7738 15.0742 10.6492 15.0228 10.5193 15.0228H6.14602C6.11683 15.0229 6.08815 15.015 6.06299 15.0003C6.03783 14.9855 6.0171 14.9643 6.00296 14.9388C5.98882 14.9134 5.98179 14.8846 5.9826 14.8555C5.98341 14.8264 5.99202 14.798 6.00756 14.7734L7.01598 13.165C7.08068 13.0553 7.09987 12.9247 7.06945 12.8011C7.03902 12.6775 6.9614 12.5706 6.8531 12.5032C6.74479 12.4358 6.61439 12.4132 6.48964 12.4402C6.36488 12.4673 6.25565 12.5418 6.1852 12.648ZM5.94747 7.53437H9.86621C9.99607 7.53437 10.1207 7.48291 10.2125 7.39132C10.3044 7.29974 10.356 7.17552 10.356 7.04599C10.356 6.91647 10.3044 6.79224 10.2125 6.70065C10.1207 6.60907 9.99607 6.55762 9.86621 6.55762H5.94747C5.81756 6.55762 5.69297 6.60907 5.60111 6.70065C5.50924 6.79224 5.45763 6.91647 5.45763 7.04599C5.45763 7.17552 5.50924 7.29974 5.60111 7.39132C5.69297 7.48291 5.81756 7.53437 5.94747 7.53437Z" fill="#9493BD"/>
</svg>
