<svg width="18" height="19" viewBox="0 0 18 19" fill="none" xmlns="http://www.w3.org/2000/svg">
<path d="M14.0537 14.0059H4.85645L9.45508 6.04108L14.0537 14.0059Z" stroke="#4F47E6" stroke-width="1.8"/>
<path d="M9.12109 1.78015C10.2961 1.78015 11.2488 2.73216 11.249 3.9071C11.249 5.08226 10.2962 6.03503 9.12109 6.03503C7.94615 6.03478 6.99414 5.0821 6.99414 3.9071C6.99439 2.73232 7.94631 1.7804 9.12109 1.78015Z" fill="white" fill-opacity="0.980392" stroke="#4F47E6" stroke-width="1.8"/>
<path d="M3.02734 12.2512C4.20234 12.2512 5.15502 13.2032 5.15527 14.3781C5.15527 15.5533 4.2025 16.506 3.02734 16.506C1.8524 16.5058 0.900391 15.5531 0.900391 14.3781C0.90064 13.2033 1.85256 12.2514 3.02734 12.2512Z" fill="white" fill-opacity="0.980392" stroke="#4F47E6" stroke-width="1.8"/>
<path d="M14.9717 12.2512C16.1467 12.2512 17.0994 13.2032 17.0996 14.3781C17.0996 15.5533 16.1468 16.506 14.9717 16.506C13.7967 16.5058 12.8447 15.5531 12.8447 14.3781C12.845 13.2033 13.7969 12.2514 14.9717 12.2512Z" fill="white" fill-opacity="0.980392" stroke="#4F47E6" stroke-width="1.8"/>
</svg>
