<svg width="18" height="18" viewBox="0 0 18 18" fill="none" xmlns="http://www.w3.org/2000/svg">
<path d="M14.0537 13.1262H4.85645L9.45508 5.16132L14.0537 13.1262Z" stroke="#4B5563" stroke-width="1.8"/>
<path d="M9.12109 0.900391C10.2961 0.900391 11.2488 1.8524 11.249 3.02734C11.249 4.2025 10.2962 5.15527 9.12109 5.15527C7.94615 5.15502 6.99414 4.20234 6.99414 3.02734C6.99439 1.85256 7.94631 0.90064 9.12109 0.900391Z" fill="white" fill-opacity="0.980392" stroke="#4B5563" stroke-width="1.8"/>
<path d="M3.02734 11.3714C4.20234 11.3714 5.15502 12.3234 5.15527 13.4984C5.15527 14.6735 4.2025 15.6263 3.02734 15.6263C1.8524 15.626 0.900391 14.6734 0.900391 13.4984C0.90064 12.3236 1.85256 11.3716 3.02734 11.3714Z" fill="white" fill-opacity="0.980392" stroke="#4B5563" stroke-width="1.8"/>
<path d="M14.9717 11.3714C16.1467 11.3714 17.0994 12.3234 17.0996 13.4984C17.0996 14.6735 16.1468 15.6263 14.9717 15.6263C13.7967 15.626 12.8447 14.6734 12.8447 13.4984C12.845 12.3236 13.7969 11.3716 14.9717 11.3714Z" fill="white" fill-opacity="0.980392" stroke="#4B5563" stroke-width="1.8"/>
</svg>
