<svg width="16" height="15" viewBox="0 0 16 15" fill="none" xmlns="http://www.w3.org/2000/svg">
<path d="M1.21065 5.71559L2.48502 4.87429C2.57094 4.81862 2.67223 4.79128 2.7746 4.79614C2.87695 4.80101 2.97518 4.83784 3.0554 4.90141L4.44499 6.15099L8.98234 2.05174C9.32984 1.69186 9.75189 1.41195 10.219 1.23157C10.6863 1.05116 11.1873 0.974667 11.6873 1.00736C12.1872 1.04007 12.674 1.18119 13.1134 1.42094C13.553 1.66064 13.9347 1.99314 14.2321 2.39519C14.3664 2.6026 14.4128 2.85471 14.3609 3.09613C14.3089 3.33758 14.1631 3.54859 13.9553 3.68289L10.8051 5.7761L10.4891 5.98571L10.4643 8.40187C10.4661 8.48459 10.4464 8.56633 10.407 8.6391C10.3675 8.71188 10.3098 8.77319 10.2393 8.81696L8.80836 9.76816C8.73579 9.82691 8.64839 9.86468 8.55573 9.87725C8.46307 9.88981 8.36869 9.87669 8.28301 9.83941C8.19733 9.80206 8.12352 9.74199 8.06981 9.6657C8.01602 9.58941 7.98433 9.49986 7.97826 9.40679L7.85695 7.7247L7.6521 7.85913L4.57512 9.89879C4.47715 9.9699 4.36599 10.0209 4.24808 10.0487C4.13016 10.0766 4.00788 10.0808 3.88834 10.061C3.76879 10.0413 3.65437 9.99807 3.55175 9.93386C3.44913 9.86958 3.36035 9.78563 3.29059 9.6869L1.06937 6.34924C1.00565 6.24606 0.984761 6.12216 1.01114 6.00386C1.03751 5.88557 1.10908 5.78216 1.21065 5.71559Z" stroke="#9493BD" stroke-linecap="round" stroke-linejoin="round"/>
<path d="M14.9999 14.1582H1.19141" stroke="#9493BD" stroke-linecap="round" stroke-linejoin="round"/>
</svg>
