<svg width="32" height="32" viewBox="0 0 32 32" fill="none" xmlns="http://www.w3.org/2000/svg">
<circle cx="16" cy="16" r="16" fill="#4B5563"/>
<path d="M10.9852 12.2737L12.4021 11.84C12.5137 11.8058 12.631 11.794 12.7473 11.8052C12.8635 11.8164 12.9764 11.8503 13.0794 11.9051C13.1825 11.9599 13.2738 12.0345 13.3481 12.1246C13.4224 12.2147 13.4782 12.3185 13.5123 12.4302C13.5465 12.5418 13.5583 12.6591 13.5471 12.7753C13.5359 12.8916 13.5019 13.0044 13.4471 13.1075C13.3923 13.2106 13.3178 13.3019 13.2277 13.3762C13.1376 13.4505 13.0337 13.5063 12.9221 13.5404L9.5221 14.5804C9.41039 14.6145 9.29304 14.6263 9.17677 14.6151C9.06049 14.6039 8.94758 14.5699 8.84447 14.515C8.74136 14.4601 8.65008 14.3854 8.57585 14.2952C8.50162 14.205 8.4459 14.101 8.41187 13.9893L7.37187 10.5893C7.33773 10.4776 7.32591 10.3603 7.3371 10.2441C7.34828 10.1279 7.38224 10.015 7.43705 9.91193C7.49186 9.80884 7.56643 9.71755 7.65652 9.64328C7.74661 9.56901 7.85044 9.51321 7.9621 9.47906C8.18759 9.41011 8.43124 9.43355 8.63945 9.54424C8.84765 9.65493 9.00336 9.84379 9.07232 10.0693L9.46343 11.3502C11.6039 8.05328 15.8501 6.63551 19.6199 8.1804C20.7473 8.64244 21.7597 9.34597 22.586 10.2415C23.4122 11.1369 24.0321 12.2026 24.4021 13.3635C24.44 13.4753 24.4553 13.5936 24.447 13.7114C24.4387 13.8292 24.4071 13.9441 24.3539 14.0496C24.3007 14.155 24.227 14.2487 24.1371 14.3254C24.0473 14.402 23.9431 14.46 23.8306 14.4959C23.7181 14.5318 23.5996 14.5449 23.4819 14.5345C23.3643 14.5241 23.25 14.4903 23.1455 14.4352C23.0411 14.3801 22.9487 14.3048 22.8737 14.2135C22.7987 14.1223 22.7426 14.0171 22.7088 13.904C22.3332 12.7247 21.6318 11.6758 20.6856 10.8782C19.7393 10.0806 18.5867 9.5669 17.3609 9.39644C16.1351 9.22597 14.8861 9.40568 13.7581 9.91481C12.6301 10.4239 11.6682 11.2417 10.9852 12.2737ZM21.9425 19.5582L20.3648 19.952C20.2505 19.9833 20.1312 19.9915 20.0137 19.976C19.8963 19.9605 19.7831 19.9218 19.6808 19.862C19.5786 19.8021 19.4893 19.7225 19.4183 19.6277C19.3473 19.5329 19.2959 19.4248 19.2672 19.3099C19.2386 19.1949 19.2331 19.0754 19.2513 18.9584C19.2695 18.8413 19.3109 18.7291 19.373 18.6282C19.4352 18.5274 19.5169 18.44 19.6133 18.3712C19.7098 18.3024 19.819 18.2535 19.9345 18.2275L23.1728 17.4195C23.3415 17.3394 23.5313 17.3145 23.715 17.3484C23.892 17.3717 24.0579 17.4477 24.1911 17.5666C24.3243 17.6855 24.4185 17.8418 24.4617 18.0151L25.3221 21.464C25.3731 21.6905 25.3334 21.9279 25.2115 22.1256C25.0897 22.3232 24.8953 22.4653 24.6701 22.5215C24.4448 22.5778 24.2065 22.5436 24.006 22.4263C23.8056 22.3091 23.6591 22.1181 23.5977 21.8942L23.3043 20.7191C22.4485 21.9507 21.2763 22.9287 19.9113 23.55C18.5462 24.1714 17.0389 24.413 15.548 24.2496C14.0572 24.0862 12.638 23.5237 11.44 22.6214C10.242 21.7191 9.30948 20.5104 8.74076 19.1226L8.50965 18.5591C8.46541 18.451 8.44288 18.3353 8.44335 18.2186C8.44382 18.1019 8.46728 17.9864 8.51239 17.8787C8.5575 17.771 8.62337 17.6733 8.70625 17.5911C8.78913 17.5088 8.8874 17.4437 8.99543 17.3995C9.21361 17.3102 9.45836 17.3111 9.67581 17.4022C9.78349 17.4474 9.88123 17.5132 9.96344 17.5961C10.0457 17.679 10.1107 17.7773 10.155 17.8853L10.3861 18.448C10.8392 19.5536 11.5856 20.5145 12.5449 21.2269C13.5041 21.9394 14.6397 22.3764 15.829 22.4907C17.0184 22.6051 18.2164 22.3925 19.2938 21.8758C20.3712 21.3592 21.2871 20.5572 21.9425 19.5582Z" fill="white"/>
</svg>
