<svg width="16" height="17" viewBox="0 0 16 17" fill="none" xmlns="http://www.w3.org/2000/svg">
<path d="M4.66873 1.04988L6.05703 1.73625C6.14971 1.78306 6.22529 1.85772 6.27308 1.9497C6.32086 2.04168 6.33843 2.14631 6.32331 2.24878L5.93098 4.09948L11.845 5.98179C12.3383 6.10252 12.7992 6.32919 13.1955 6.64591C13.5919 6.96273 13.914 7.36187 14.1396 7.81575C14.3651 8.26949 14.4886 8.76691 14.5013 9.27315C14.5139 9.77939 14.4157 10.2823 14.2133 10.7469C14.0992 10.9699 13.9009 11.1386 13.6622 11.2161C13.4234 11.2934 13.1636 11.2733 12.9397 11.1599L9.49597 9.47013L9.15087 9.30038L7.0129 10.5077C6.9411 10.5515 6.85911 10.5758 6.77502 10.5783C6.69093 10.5808 6.60763 10.5615 6.53332 10.5222L4.9687 9.75482C4.88007 9.72122 4.80241 9.66403 4.74423 9.58934C4.68604 9.51472 4.64956 9.42561 4.63877 9.33167C4.628 9.23773 4.64332 9.14267 4.6831 9.05692C4.72286 8.9711 4.78554 8.89781 4.86426 8.84517L6.28224 7.88337L6.05979 7.7727L2.70038 6.11971C2.58801 6.07022 2.48663 5.99894 2.40214 5.91C2.31767 5.82107 2.25178 5.71627 2.20832 5.60172C2.16487 5.48715 2.1447 5.3651 2.14901 5.24269C2.15331 5.12028 2.182 4.99995 2.23341 4.8887L4.03947 1.24867C4.09783 1.14047 4.19619 1.05918 4.31366 1.02207C4.43114 0.984956 4.5585 0.994931 4.66873 1.04988Z" stroke="#9493BD" stroke-linecap="round" stroke-linejoin="round"/>
<path d="M15 15.5322H1" stroke="#9493BD" stroke-linecap="round" stroke-linejoin="round"/>
</svg>
