<svg width="10" height="14" viewBox="0 0 10 14" fill="none" xmlns="http://www.w3.org/2000/svg">
<path d="M4.7338 6.1853C4.04532 6.18509 3.37648 5.95653 2.83264 5.53562C2.2888 5.11471 1.90086 4.52538 1.72993 3.86046C1.55901 3.19554 1.6148 2.49281 1.88855 1.86299C2.16229 1.23317 2.63841 0.712037 3.24191 0.381698C3.84541 0.0513571 4.54199 -0.0694216 5.22191 0.0383883C5.90184 0.146198 6.52647 0.476465 6.99741 0.977177C7.46839 1.47788 7.75883 2.12056 7.82313 2.80397C7.88735 3.48739 7.72173 4.17271 7.35236 4.75196C7.28246 4.86129 7.17187 4.93845 7.0449 4.96648C6.91794 4.99451 6.785 4.9711 6.67534 4.90141C6.56569 4.83173 6.48829 4.72145 6.46019 4.59487C6.43207 4.46829 6.45554 4.33575 6.52544 4.22642C6.77798 3.82986 6.89102 3.3608 6.84675 2.89314C6.80248 2.42548 6.60343 1.98579 6.28094 1.64333C5.95845 1.30087 5.53086 1.07511 5.06551 1.0016C4.60017 0.928097 4.12352 1.01103 3.71065 1.23733C3.29778 1.46363 2.97216 1.82044 2.78507 2.25157C2.59798 2.68268 2.56006 3.1636 2.67728 3.61857C2.7945 4.07354 3.0602 4.4767 3.43253 4.76455C3.80485 5.05239 4.26265 5.20857 4.7338 5.20846C4.86372 5.20846 4.98832 5.25992 5.08019 5.35152C5.17207 5.44311 5.22367 5.56734 5.22367 5.69688C5.22367 5.82642 5.17207 5.95064 5.08019 6.04224C4.98832 6.13384 4.86372 6.1853 4.7338 6.1853Z" fill="#9493BD"/>
<path d="M6.36842 14.0005H3.10256C2.79952 14.0001 2.50897 13.8799 2.29469 13.6663C2.0804 13.4526 1.95986 13.163 1.95952 12.8608V10.2559C1.95952 10.2128 1.94231 10.1713 1.91168 10.1408C1.88107 10.1103 1.83953 10.0931 1.79622 10.0931H1.14305C0.84 10.0928 0.549462 9.9726 0.335174 9.75894C0.120885 9.54536 0.00034575 9.25565 0 8.95353V7.65103C0.000691595 7.00363 0.258974 6.38284 0.718174 5.92502C1.17737 5.46719 1.79998 5.20968 2.44939 5.20898H7.02159C7.67101 5.20968 8.29358 5.46719 8.75282 5.92502C9.21199 6.38284 9.47029 7.00363 9.47095 7.65103V8.95353C9.47066 9.25565 9.35012 9.54536 9.1358 9.75894C8.92155 9.9726 8.63095 10.0928 8.32795 10.0931H7.67478C7.63147 10.0931 7.58993 10.1103 7.55926 10.1408C7.52867 10.1713 7.51145 10.2128 7.51145 10.2559V12.8608C7.51115 13.163 7.39061 13.4526 7.1763 13.6663C6.96201 13.8799 6.67147 14.0001 6.36842 14.0005ZM2.44939 6.18582C2.05973 6.18617 1.68612 6.34065 1.41059 6.61536C1.13505 6.89007 0.980101 7.26259 0.979754 7.65103V8.95353C0.979754 8.99669 0.996959 9.03807 1.02759 9.0686C1.05821 9.09919 1.09975 9.11634 1.14305 9.11634H1.79622C2.09927 9.11663 2.38981 9.2368 2.6041 9.45046C2.81838 9.66412 2.93893 9.95383 2.93927 10.2559V12.8608C2.93927 12.904 2.95647 12.9454 2.9871 12.9759C3.01772 13.0065 3.05925 13.0236 3.10256 13.0236H6.36842C6.41173 13.0236 6.45327 13.0065 6.48388 12.9759C6.51451 12.9454 6.53172 12.904 6.53172 12.8608V10.2559C6.53206 9.95383 6.6526 9.66412 6.86689 9.45046C7.08117 9.2368 7.37172 9.11663 7.67478 9.11634H8.32795C8.37125 9.11634 8.41279 9.09919 8.44338 9.0686C8.47406 9.03807 8.4912 8.99669 8.4912 8.95353V7.65103C8.49068 7.26259 8.33571 6.89023 8.06019 6.61555C7.78475 6.34087 7.41123 6.18634 7.02159 6.18582H2.44939Z" fill="#9493BD"/>
</svg>
