<svg width="200" height="307" viewBox="0 0 200 307" fill="none" xmlns="http://www.w3.org/2000/svg">
<path d="M195.455 9.09793C192.944 9.09793 190.909 7.06134 190.909 4.54907C190.909 2.03683 192.944 0.000243524 195.455 0.000243743C197.965 0.000243963 200 2.03683 200 4.54907C200 7.06134 197.965 9.09793 195.455 9.09793Z" fill="#EAE8F4"/>
<path d="M174.242 9.09793C171.732 9.09793 169.697 7.06134 169.697 4.54907C169.697 2.03683 171.732 0.000241669 174.242 0.000241889C176.753 0.000242108 178.788 2.03683 178.788 4.54907C178.788 7.06134 176.753 9.09793 174.242 9.09793Z" fill="#EAE8F4"/>
<path d="M153.03 9.09793C150.52 9.09793 148.485 7.06134 148.485 4.54907C148.485 2.03683 150.52 0.000239815 153.03 0.000240034C155.541 0.000240254 157.576 2.03683 157.576 4.54907C157.576 7.06134 155.541 9.09793 153.03 9.09793Z" fill="#EAE8F4"/>
<path d="M131.818 9.09792C129.308 9.09792 127.273 7.06133 127.273 4.54907C127.273 2.03683 129.308 0.000237961 131.818 0.00023818C134.329 0.000238399 136.364 2.03683 136.364 4.54907C136.364 7.06133 134.329 9.09793 131.818 9.09792Z" fill="#EAE8F4"/>
<path d="M110.606 9.09792C108.096 9.09792 106.061 7.06133 106.061 4.54906C106.061 2.03683 108.096 0.000236106 110.606 0.000236326C113.116 0.000236545 115.152 2.03683 115.152 4.54906C115.152 7.06133 113.116 9.09792 110.606 9.09792Z" fill="#EAE8F4"/>
<path d="M89.394 9.09792C86.8836 9.09792 84.8485 7.06133 84.8485 4.54906C84.8485 2.03682 86.8836 0.000234252 89.394 0.000234471C91.9043 0.000234691 93.9394 2.03683 93.9394 4.54906C93.9394 7.06133 91.9043 9.09792 89.394 9.09792Z" fill="#EAE8F4"/>
<path d="M68.1818 9.09792C65.6715 9.09792 63.6364 7.06133 63.6364 4.54906C63.6364 2.03682 65.6715 0.000232397 68.1818 0.000232617C70.6922 0.000232836 72.7273 2.03682 72.7273 4.54906C72.7273 7.06133 70.6922 9.09792 68.1818 9.09792Z" fill="#EAE8F4"/>
<path d="M46.9697 9.09792C44.4593 9.09792 42.4243 7.06133 42.4243 4.54906C42.4243 2.03682 44.4593 0.000230543 46.9697 0.000230762C49.4801 0.000230982 51.5152 2.03682 51.5152 4.54906C51.5152 7.06133 49.4801 9.09792 46.9697 9.09792Z" fill="#EAE8F4"/>
<path d="M25.7576 9.09792C23.2472 9.09792 21.2121 7.06132 21.2121 4.54906C21.2121 2.03682 23.2472 0.000228688 25.7576 0.000228908C28.268 0.000229127 30.3031 2.03682 30.3031 4.54906C30.3031 7.06133 28.268 9.09792 25.7576 9.09792Z" fill="#EAE8F4"/>
<path d="M4.54548 9.09791C2.03509 9.09791 2.61594e-05 7.06132 2.6379e-05 4.54905C2.65986e-05 2.03682 2.03509 0.000226834 4.54548 0.000227053C7.05586 0.000227273 9.09092 2.03682 9.09092 4.54906C9.09092 7.06132 7.05586 9.09791 4.54548 9.09791Z" fill="#EAE8F4"/>
<path d="M195.455 30.3259C192.944 30.3259 190.909 28.2893 190.909 25.7771C190.909 23.2648 192.944 21.2282 195.455 21.2282C197.965 21.2282 200 23.2648 200 25.7771C200 28.2893 197.965 30.3259 195.455 30.3259Z" fill="#EAE8F4"/>
<path d="M174.242 30.3259C171.732 30.3259 169.697 28.2893 169.697 25.7771C169.697 23.2648 171.732 21.2282 174.242 21.2282C176.753 21.2282 178.788 23.2648 178.788 25.7771C178.788 28.2893 176.753 30.3259 174.242 30.3259Z" fill="#EAE8F4"/>
<path d="M153.03 30.3259C150.52 30.3259 148.485 28.2893 148.485 25.7771C148.485 23.2648 150.52 21.2282 153.03 21.2282C155.541 21.2282 157.576 23.2648 157.576 25.7771C157.576 28.2893 155.541 30.3259 153.03 30.3259Z" fill="#EAE8F4"/>
<path d="M131.818 30.3259C129.308 30.3259 127.273 28.2893 127.273 25.7771C127.273 23.2648 129.308 21.2282 131.818 21.2282C134.329 21.2282 136.364 23.2648 136.364 25.7771C136.364 28.2893 134.329 30.3259 131.818 30.3259Z" fill="#EAE8F4"/>
<path d="M110.606 30.3259C108.096 30.3259 106.061 28.2893 106.061 25.7771C106.061 23.2648 108.096 21.2282 110.606 21.2282C113.116 21.2282 115.152 23.2648 115.152 25.7771C115.152 28.2893 113.116 30.3259 110.606 30.3259Z" fill="#EAE8F4"/>
<path d="M89.394 30.3259C86.8836 30.3259 84.8485 28.2893 84.8485 25.7771C84.8485 23.2648 86.8836 21.2282 89.394 21.2282C91.9043 21.2282 93.9394 23.2648 93.9394 25.7771C93.9394 28.2893 91.9043 30.3259 89.394 30.3259Z" fill="#EAE8F4"/>
<path d="M68.1818 30.3259C65.6715 30.3259 63.6364 28.2893 63.6364 25.7771C63.6364 23.2648 65.6715 21.2282 68.1818 21.2282C70.6922 21.2282 72.7273 23.2648 72.7273 25.7771C72.7273 28.2893 70.6922 30.3259 68.1818 30.3259Z" fill="#EAE8F4"/>
<path d="M46.9697 30.3259C44.4593 30.3259 42.4243 28.2893 42.4243 25.7771C42.4243 23.2648 44.4593 21.2282 46.9697 21.2282C49.4801 21.2282 51.5152 23.2648 51.5152 25.7771C51.5152 28.2893 49.4801 30.3259 46.9697 30.3259Z" fill="#EAE8F4"/>
<path d="M25.7576 30.3259C23.2472 30.3259 21.2121 28.2893 21.2121 25.7771C21.2121 23.2648 23.2472 21.2282 25.7576 21.2282C28.268 21.2282 30.303 23.2648 30.303 25.7771C30.303 28.2893 28.268 30.3259 25.7576 30.3259Z" fill="#EAE8F4"/>
<path d="M4.54548 30.3259C2.03509 30.3259 2.43036e-05 28.2893 2.45232e-05 25.7771C2.47428e-05 23.2648 2.03509 21.2282 4.54548 21.2282C7.05586 21.2282 9.09092 23.2648 9.09092 25.7771C9.09092 28.2893 7.05586 30.3259 4.54548 30.3259Z" fill="#EAE8F4"/>
<path d="M195.455 51.5539C192.944 51.5539 190.909 49.5173 190.909 47.005C190.909 44.4928 192.944 42.4562 195.455 42.4562C197.965 42.4562 200 44.4928 200 47.005C200 49.5173 197.965 51.5539 195.455 51.5539Z" fill="#EAE8F4"/>
<path d="M174.242 51.5539C171.732 51.5539 169.697 49.5173 169.697 47.005C169.697 44.4928 171.732 42.4562 174.242 42.4562C176.753 42.4562 178.788 44.4928 178.788 47.005C178.788 49.5173 176.753 51.5539 174.242 51.5539Z" fill="#EAE8F4"/>
<path d="M153.03 51.5539C150.52 51.5539 148.485 49.5173 148.485 47.005C148.485 44.4928 150.52 42.4562 153.03 42.4562C155.541 42.4562 157.576 44.4928 157.576 47.005C157.576 49.5173 155.541 51.5539 153.03 51.5539Z" fill="#EAE8F4"/>
<path d="M131.818 51.5539C129.308 51.5539 127.273 49.5173 127.273 47.005C127.273 44.4928 129.308 42.4562 131.818 42.4562C134.329 42.4562 136.364 44.4928 136.364 47.005C136.364 49.5173 134.329 51.5539 131.818 51.5539Z" fill="#EAE8F4"/>
<path d="M110.606 51.5539C108.096 51.5539 106.061 49.5173 106.061 47.005C106.061 44.4928 108.096 42.4562 110.606 42.4562C113.116 42.4562 115.152 44.4928 115.152 47.005C115.152 49.5173 113.116 51.5539 110.606 51.5539Z" fill="#EAE8F4"/>
<path d="M89.394 51.5539C86.8836 51.5539 84.8485 49.5173 84.8485 47.005C84.8485 44.4928 86.8836 42.4562 89.394 42.4562C91.9043 42.4562 93.9394 44.4928 93.9394 47.005C93.9394 49.5173 91.9043 51.5539 89.394 51.5539Z" fill="#EAE8F4"/>
<path d="M68.1818 51.5539C65.6715 51.5539 63.6364 49.5173 63.6364 47.005C63.6364 44.4928 65.6715 42.4562 68.1818 42.4562C70.6922 42.4562 72.7273 44.4928 72.7273 47.005C72.7273 49.5173 70.6922 51.5539 68.1818 51.5539Z" fill="#EAE8F4"/>
<path d="M46.9697 51.5539C44.4593 51.5539 42.4243 49.5173 42.4243 47.005C42.4243 44.4928 44.4593 42.4562 46.9697 42.4562C49.4801 42.4562 51.5152 44.4928 51.5152 47.005C51.5152 49.5173 49.4801 51.5539 46.9697 51.5539Z" fill="#EAE8F4"/>
<path d="M25.7576 51.5539C23.2472 51.5539 21.2121 49.5173 21.2121 47.005C21.2121 44.4928 23.2472 42.4562 25.7576 42.4562C28.268 42.4562 30.303 44.4928 30.303 47.005C30.303 49.5173 28.268 51.5539 25.7576 51.5539Z" fill="#EAE8F4"/>
<path d="M4.54548 51.5539C2.03509 51.5539 2.24477e-05 49.5173 2.26674e-05 47.005C2.2887e-05 44.4927 2.03509 42.4562 4.54548 42.4562C7.05585 42.4562 9.09092 44.4928 9.09092 47.005C9.09092 49.5173 7.05585 51.5539 4.54548 51.5539Z" fill="#EAE8F4"/>
<path d="M195.455 72.7819C192.944 72.7819 190.909 70.7453 190.909 68.233C190.909 65.7207 192.944 63.6841 195.455 63.6841C197.965 63.6841 200 65.7207 200 68.233C200 70.7453 197.965 72.7819 195.455 72.7819Z" fill="#EAE8F4"/>
<path d="M174.242 72.7819C171.732 72.7819 169.697 70.7453 169.697 68.233C169.697 65.7207 171.732 63.6841 174.242 63.6841C176.753 63.6841 178.788 65.7207 178.788 68.233C178.788 70.7453 176.753 72.7819 174.242 72.7819Z" fill="#EAE8F4"/>
<path d="M153.03 72.7819C150.52 72.7819 148.485 70.7453 148.485 68.233C148.485 65.7207 150.52 63.6841 153.03 63.6841C155.541 63.6841 157.576 65.7207 157.576 68.233C157.576 70.7453 155.541 72.7819 153.03 72.7819Z" fill="#EAE8F4"/>
<path d="M131.818 72.7819C129.308 72.7819 127.273 70.7453 127.273 68.233C127.273 65.7207 129.308 63.6841 131.818 63.6841C134.329 63.6841 136.364 65.7207 136.364 68.233C136.364 70.7453 134.329 72.7819 131.818 72.7819Z" fill="#EAE8F4"/>
<path d="M110.606 72.7819C108.096 72.7819 106.061 70.7453 106.061 68.233C106.061 65.7207 108.096 63.6841 110.606 63.6841C113.116 63.6841 115.152 65.7207 115.152 68.233C115.152 70.7453 113.116 72.7819 110.606 72.7819Z" fill="#EAE8F4"/>
<path d="M89.394 72.7819C86.8836 72.7819 84.8485 70.7453 84.8485 68.233C84.8485 65.7207 86.8836 63.6841 89.394 63.6841C91.9043 63.6841 93.9394 65.7207 93.9394 68.233C93.9394 70.7453 91.9043 72.7819 89.394 72.7819Z" fill="#EAE8F4"/>
<path d="M68.1818 72.7818C65.6715 72.7818 63.6364 70.7453 63.6364 68.233C63.6364 65.7207 65.6715 63.6841 68.1818 63.6841C70.6922 63.6841 72.7273 65.7207 72.7273 68.233C72.7273 70.7453 70.6922 72.7818 68.1818 72.7818Z" fill="#EAE8F4"/>
<path d="M46.9697 72.7818C44.4593 72.7818 42.4243 70.7453 42.4243 68.233C42.4243 65.7207 44.4593 63.6841 46.9697 63.6841C49.4801 63.6841 51.5152 65.7207 51.5152 68.233C51.5152 70.7453 49.4801 72.7818 46.9697 72.7818Z" fill="#EAE8F4"/>
<path d="M25.7576 72.7818C23.2472 72.7818 21.2121 70.7453 21.2121 68.233C21.2121 65.7207 23.2472 63.6841 25.7576 63.6841C28.268 63.6841 30.303 65.7207 30.303 68.233C30.303 70.7453 28.268 72.7818 25.7576 72.7818Z" fill="#EAE8F4"/>
<path d="M4.54548 72.7818C2.03509 72.7818 2.05919e-05 70.7453 2.08116e-05 68.233C2.10312e-05 65.7207 2.03509 63.6841 4.54548 63.6841C7.05585 63.6841 9.09092 65.7207 9.09092 68.233C9.09092 70.7453 7.05585 72.7818 4.54548 72.7818Z" fill="#EAE8F4"/>
<path d="M195.455 94.0098C192.944 94.0098 190.909 91.9732 190.909 89.461C190.909 86.9487 192.944 84.9121 195.455 84.9121C197.965 84.9121 200 86.9487 200 89.461C200 91.9732 197.965 94.0098 195.455 94.0098Z" fill="#EAE8F4"/>
<path d="M174.242 94.0098C171.732 94.0098 169.697 91.9732 169.697 89.461C169.697 86.9487 171.732 84.9121 174.242 84.9121C176.753 84.9121 178.788 86.9487 178.788 89.461C178.788 91.9732 176.753 94.0098 174.242 94.0098Z" fill="#EAE8F4"/>
<path d="M153.03 94.0098C150.52 94.0098 148.485 91.9732 148.485 89.461C148.485 86.9487 150.52 84.9121 153.03 84.9121C155.541 84.9121 157.576 86.9487 157.576 89.461C157.576 91.9732 155.541 94.0098 153.03 94.0098Z" fill="#EAE8F4"/>
<path d="M131.818 94.0098C129.308 94.0098 127.273 91.9732 127.273 89.461C127.273 86.9487 129.308 84.9121 131.818 84.9121C134.329 84.9121 136.364 86.9487 136.364 89.461C136.364 91.9732 134.329 94.0098 131.818 94.0098Z" fill="#EAE8F4"/>
<path d="M110.606 94.0098C108.096 94.0098 106.061 91.9732 106.061 89.461C106.061 86.9487 108.096 84.9121 110.606 84.9121C113.116 84.9121 115.152 86.9487 115.152 89.461C115.152 91.9732 113.116 94.0098 110.606 94.0098Z" fill="#EAE8F4"/>
<path d="M89.394 94.0098C86.8836 94.0098 84.8485 91.9732 84.8485 89.461C84.8485 86.9487 86.8836 84.9121 89.394 84.9121C91.9043 84.9121 93.9394 86.9487 93.9394 89.461C93.9394 91.9732 91.9043 94.0098 89.394 94.0098Z" fill="#EAE8F4"/>
<path d="M68.1818 94.0098C65.6715 94.0098 63.6364 91.9732 63.6364 89.461C63.6364 86.9487 65.6715 84.9121 68.1818 84.9121C70.6922 84.9121 72.7273 86.9487 72.7273 89.461C72.7273 91.9732 70.6922 94.0098 68.1818 94.0098Z" fill="#EAE8F4"/>
<path d="M46.9697 94.0098C44.4593 94.0098 42.4243 91.9732 42.4243 89.461C42.4243 86.9487 44.4593 84.9121 46.9697 84.9121C49.4801 84.9121 51.5152 86.9487 51.5152 89.461C51.5152 91.9732 49.4801 94.0098 46.9697 94.0098Z" fill="#EAE8F4"/>
<path d="M25.7576 94.0098C23.2472 94.0098 21.2121 91.9732 21.2121 89.461C21.2121 86.9487 23.2472 84.9121 25.7576 84.9121C28.268 84.9121 30.303 86.9487 30.303 89.461C30.303 91.9732 28.268 94.0098 25.7576 94.0098Z" fill="#EAE8F4"/>
<path d="M4.54547 94.0098C2.03508 94.0098 1.87361e-05 91.9732 1.89558e-05 89.461C1.91754e-05 86.9487 2.03508 84.9121 4.54548 84.9121C7.05585 84.9121 9.09092 86.9487 9.09092 89.461C9.09092 91.9732 7.05585 94.0098 4.54547 94.0098Z" fill="#EAE8F4"/>
<path d="M195.455 115.238C192.944 115.238 190.909 113.201 190.909 110.689C190.909 108.177 192.944 106.14 195.455 106.14C197.965 106.14 200 108.177 200 110.689C200 113.201 197.965 115.238 195.455 115.238Z" fill="#EAE8F4"/>
<path d="M174.242 115.238C171.732 115.238 169.697 113.201 169.697 110.689C169.697 108.177 171.732 106.14 174.242 106.14C176.753 106.14 178.788 108.177 178.788 110.689C178.788 113.201 176.753 115.238 174.242 115.238Z" fill="#EAE8F4"/>
<path d="M153.03 115.238C150.52 115.238 148.485 113.201 148.485 110.689C148.485 108.177 150.52 106.14 153.03 106.14C155.541 106.14 157.576 108.177 157.576 110.689C157.576 113.201 155.541 115.238 153.03 115.238Z" fill="#EAE8F4"/>
<path d="M131.818 115.238C129.308 115.238 127.273 113.201 127.273 110.689C127.273 108.177 129.308 106.14 131.818 106.14C134.329 106.14 136.364 108.177 136.364 110.689C136.364 113.201 134.329 115.238 131.818 115.238Z" fill="#EAE8F4"/>
<path d="M110.606 115.238C108.096 115.238 106.061 113.201 106.061 110.689C106.061 108.177 108.096 106.14 110.606 106.14C113.116 106.14 115.152 108.177 115.152 110.689C115.152 113.201 113.116 115.238 110.606 115.238Z" fill="#EAE8F4"/>
<path d="M89.394 115.238C86.8836 115.238 84.8485 113.201 84.8485 110.689C84.8485 108.177 86.8836 106.14 89.394 106.14C91.9043 106.14 93.9394 108.177 93.9394 110.689C93.9394 113.201 91.9043 115.238 89.394 115.238Z" fill="#EAE8F4"/>
<path d="M68.1818 115.238C65.6714 115.238 63.6364 113.201 63.6364 110.689C63.6364 108.177 65.6714 106.14 68.1818 106.14C70.6922 106.14 72.7273 108.177 72.7273 110.689C72.7273 113.201 70.6922 115.238 68.1818 115.238Z" fill="#EAE8F4"/>
<path d="M46.9697 115.238C44.4593 115.238 42.4243 113.201 42.4243 110.689C42.4243 108.177 44.4593 106.14 46.9697 106.14C49.4801 106.14 51.5152 108.177 51.5152 110.689C51.5152 113.201 49.4801 115.238 46.9697 115.238Z" fill="#EAE8F4"/>
<path d="M25.7576 115.238C23.2472 115.238 21.2121 113.201 21.2121 110.689C21.2121 108.177 23.2472 106.14 25.7576 106.14C28.268 106.14 30.303 108.177 30.303 110.689C30.303 113.201 28.268 115.238 25.7576 115.238Z" fill="#EAE8F4"/>
<path d="M4.54547 115.238C2.03508 115.238 1.68803e-05 113.201 1.70999e-05 110.689C1.73196e-05 108.177 2.03508 106.14 4.54547 106.14C7.05585 106.14 9.09091 108.177 9.09091 110.689C9.09091 113.201 7.05585 115.238 4.54547 115.238Z" fill="#EAE8F4"/>
<path d="M195.455 136.466C192.944 136.466 190.909 134.429 190.909 131.917C190.909 129.405 192.944 127.368 195.455 127.368C197.965 127.368 200 129.405 200 131.917C200 134.429 197.965 136.466 195.455 136.466Z" fill="#EAE8F4"/>
<path d="M174.242 136.466C171.732 136.466 169.697 134.429 169.697 131.917C169.697 129.405 171.732 127.368 174.242 127.368C176.753 127.368 178.788 129.405 178.788 131.917C178.788 134.429 176.753 136.466 174.242 136.466Z" fill="#EAE8F4"/>
<path d="M153.03 136.466C150.52 136.466 148.485 134.429 148.485 131.917C148.485 129.405 150.52 127.368 153.03 127.368C155.541 127.368 157.576 129.405 157.576 131.917C157.576 134.429 155.541 136.466 153.03 136.466Z" fill="#EAE8F4"/>
<path d="M131.818 136.466C129.308 136.466 127.273 134.429 127.273 131.917C127.273 129.405 129.308 127.368 131.818 127.368C134.329 127.368 136.364 129.405 136.364 131.917C136.364 134.429 134.329 136.466 131.818 136.466Z" fill="#EAE8F4"/>
<path d="M110.606 136.466C108.096 136.466 106.061 134.429 106.061 131.917C106.061 129.405 108.096 127.368 110.606 127.368C113.116 127.368 115.152 129.405 115.152 131.917C115.152 134.429 113.116 136.466 110.606 136.466Z" fill="#EAE8F4"/>
<path d="M89.394 136.466C86.8836 136.466 84.8485 134.429 84.8485 131.917C84.8485 129.405 86.8836 127.368 89.394 127.368C91.9043 127.368 93.9394 129.405 93.9394 131.917C93.9394 134.429 91.9043 136.466 89.394 136.466Z" fill="#EAE8F4"/>
<path d="M68.1818 136.466C65.6714 136.466 63.6364 134.429 63.6364 131.917C63.6364 129.405 65.6714 127.368 68.1818 127.368C70.6922 127.368 72.7273 129.405 72.7273 131.917C72.7273 134.429 70.6922 136.466 68.1818 136.466Z" fill="#EAE8F4"/>
<path d="M46.9697 136.466C44.4593 136.466 42.4243 134.429 42.4243 131.917C42.4243 129.405 44.4593 127.368 46.9697 127.368C49.4801 127.368 51.5152 129.405 51.5152 131.917C51.5152 134.429 49.4801 136.466 46.9697 136.466Z" fill="#EAE8F4"/>
<path d="M25.7576 136.466C23.2472 136.466 21.2121 134.429 21.2121 131.917C21.2121 129.405 23.2472 127.368 25.7576 127.368C28.268 127.368 30.303 129.405 30.303 131.917C30.303 134.429 28.268 136.466 25.7576 136.466Z" fill="#EAE8F4"/>
<path d="M4.54547 136.466C2.03508 136.466 1.50245e-05 134.429 1.52441e-05 131.917C1.54638e-05 129.405 2.03508 127.368 4.54547 127.368C7.05585 127.368 9.09091 129.405 9.09091 131.917C9.09091 134.429 7.05585 136.466 4.54547 136.466Z" fill="#EAE8F4"/>
<path d="M195.455 157.694C192.944 157.694 190.909 155.657 190.909 153.145C190.909 150.633 192.944 148.596 195.455 148.596C197.965 148.596 200 150.633 200 153.145C200 155.657 197.965 157.694 195.455 157.694Z" fill="#EAE8F4"/>
<path d="M174.242 157.694C171.732 157.694 169.697 155.657 169.697 153.145C169.697 150.633 171.732 148.596 174.242 148.596C176.753 148.596 178.788 150.633 178.788 153.145C178.788 155.657 176.753 157.694 174.242 157.694Z" fill="#EAE8F4"/>
<path d="M153.03 157.694C150.52 157.694 148.485 155.657 148.485 153.145C148.485 150.633 150.52 148.596 153.03 148.596C155.541 148.596 157.576 150.633 157.576 153.145C157.576 155.657 155.541 157.694 153.03 157.694Z" fill="#EAE8F4"/>
<path d="M131.818 157.694C129.308 157.694 127.273 155.657 127.273 153.145C127.273 150.633 129.308 148.596 131.818 148.596C134.329 148.596 136.364 150.633 136.364 153.145C136.364 155.657 134.329 157.694 131.818 157.694Z" fill="#EAE8F4"/>
<path d="M110.606 157.694C108.096 157.694 106.061 155.657 106.061 153.145C106.061 150.633 108.096 148.596 110.606 148.596C113.116 148.596 115.152 150.633 115.152 153.145C115.152 155.657 113.116 157.694 110.606 157.694Z" fill="#EAE8F4"/>
<path d="M89.3939 157.694C86.8836 157.694 84.8485 155.657 84.8485 153.145C84.8485 150.633 86.8836 148.596 89.3939 148.596C91.9043 148.596 93.9394 150.633 93.9394 153.145C93.9394 155.657 91.9043 157.694 89.3939 157.694Z" fill="#EAE8F4"/>
<path d="M68.1818 157.694C65.6714 157.694 63.6364 155.657 63.6364 153.145C63.6364 150.633 65.6714 148.596 68.1818 148.596C70.6922 148.596 72.7273 150.633 72.7273 153.145C72.7273 155.657 70.6922 157.694 68.1818 157.694Z" fill="#EAE8F4"/>
<path d="M46.9697 157.694C44.4593 157.694 42.4243 155.657 42.4243 153.145C42.4243 150.633 44.4593 148.596 46.9697 148.596C49.4801 148.596 51.5152 150.633 51.5152 153.145C51.5152 155.657 49.4801 157.694 46.9697 157.694Z" fill="#EAE8F4"/>
<path d="M25.7576 157.694C23.2472 157.694 21.2121 155.657 21.2121 153.145C21.2121 150.633 23.2472 148.596 25.7576 148.596C28.268 148.596 30.303 150.633 30.303 153.145C30.303 155.657 28.268 157.694 25.7576 157.694Z" fill="#EAE8F4"/>
<path d="M4.54547 157.694C2.03508 157.694 1.31687e-05 155.657 1.33883e-05 153.145C1.3608e-05 150.633 2.03508 148.596 4.54547 148.596C7.05585 148.596 9.09091 150.633 9.09091 153.145C9.09091 155.657 7.05584 157.694 4.54547 157.694Z" fill="#EAE8F4"/>
<path d="M195.455 178.922C192.944 178.922 190.909 176.885 190.909 174.373C190.909 171.861 192.944 169.824 195.455 169.824C197.965 169.824 200 171.861 200 174.373C200 176.885 197.965 178.922 195.455 178.922Z" fill="#EAE8F4"/>
<path d="M174.242 178.922C171.732 178.922 169.697 176.885 169.697 174.373C169.697 171.861 171.732 169.824 174.242 169.824C176.753 169.824 178.788 171.861 178.788 174.373C178.788 176.885 176.753 178.922 174.242 178.922Z" fill="#EAE8F4"/>
<path d="M153.03 178.922C150.52 178.922 148.485 176.885 148.485 174.373C148.485 171.861 150.52 169.824 153.03 169.824C155.541 169.824 157.576 171.861 157.576 174.373C157.576 176.885 155.541 178.922 153.03 178.922Z" fill="#EAE8F4"/>
<path d="M131.818 178.922C129.308 178.922 127.273 176.885 127.273 174.373C127.273 171.861 129.308 169.824 131.818 169.824C134.329 169.824 136.364 171.861 136.364 174.373C136.364 176.885 134.329 178.922 131.818 178.922Z" fill="#EAE8F4"/>
<path d="M110.606 178.922C108.096 178.922 106.061 176.885 106.061 174.373C106.061 171.861 108.096 169.824 110.606 169.824C113.116 169.824 115.152 171.861 115.152 174.373C115.152 176.885 113.116 178.922 110.606 178.922Z" fill="#EAE8F4"/>
<path d="M89.3939 178.922C86.8836 178.922 84.8485 176.885 84.8485 174.373C84.8485 171.861 86.8836 169.824 89.3939 169.824C91.9043 169.824 93.9394 171.861 93.9394 174.373C93.9394 176.885 91.9043 178.922 89.3939 178.922Z" fill="#EAE8F4"/>
<path d="M68.1818 178.922C65.6714 178.922 63.6364 176.885 63.6364 174.373C63.6364 171.861 65.6714 169.824 68.1818 169.824C70.6922 169.824 72.7273 171.861 72.7273 174.373C72.7273 176.885 70.6922 178.922 68.1818 178.922Z" fill="#EAE8F4"/>
<path d="M46.9697 178.922C44.4593 178.922 42.4243 176.885 42.4243 174.373C42.4243 171.861 44.4593 169.824 46.9697 169.824C49.4801 169.824 51.5152 171.861 51.5152 174.373C51.5152 176.885 49.4801 178.922 46.9697 178.922Z" fill="#EAE8F4"/>
<path d="M25.7576 178.922C23.2472 178.922 21.2121 176.885 21.2121 174.373C21.2121 171.861 23.2472 169.824 25.7576 169.824C28.268 169.824 30.303 171.861 30.303 174.373C30.303 176.885 28.268 178.922 25.7576 178.922Z" fill="#EAE8F4"/>
<path d="M4.54547 178.922C2.03508 178.922 1.13129e-05 176.885 1.15325e-05 174.373C1.17522e-05 171.861 2.03508 169.824 4.54547 169.824C7.05584 169.824 9.09091 171.861 9.09091 174.373C9.09091 176.885 7.05584 178.922 4.54547 178.922Z" fill="#EAE8F4"/>
<path d="M195.455 200.15C192.944 200.15 190.909 198.113 190.909 195.601C190.909 193.089 192.944 191.052 195.455 191.052C197.965 191.052 200 193.089 200 195.601C200 198.113 197.965 200.15 195.455 200.15Z" fill="#EAE8F4"/>
<path d="M174.242 200.15C171.732 200.15 169.697 198.113 169.697 195.601C169.697 193.089 171.732 191.052 174.242 191.052C176.753 191.052 178.788 193.089 178.788 195.601C178.788 198.113 176.753 200.15 174.242 200.15Z" fill="#EAE8F4"/>
<path d="M153.03 200.15C150.52 200.15 148.485 198.113 148.485 195.601C148.485 193.089 150.52 191.052 153.03 191.052C155.541 191.052 157.576 193.089 157.576 195.601C157.576 198.113 155.541 200.15 153.03 200.15Z" fill="#EAE8F4"/>
<path d="M131.818 200.15C129.308 200.15 127.273 198.113 127.273 195.601C127.273 193.089 129.308 191.052 131.818 191.052C134.329 191.052 136.364 193.089 136.364 195.601C136.364 198.113 134.329 200.15 131.818 200.15Z" fill="#EAE8F4"/>
<path d="M110.606 200.15C108.096 200.15 106.061 198.113 106.061 195.601C106.061 193.089 108.096 191.052 110.606 191.052C113.116 191.052 115.152 193.089 115.152 195.601C115.152 198.113 113.116 200.15 110.606 200.15Z" fill="#EAE8F4"/>
<path d="M89.3939 200.15C86.8836 200.15 84.8485 198.113 84.8485 195.601C84.8485 193.089 86.8836 191.052 89.3939 191.052C91.9043 191.052 93.9394 193.089 93.9394 195.601C93.9394 198.113 91.9043 200.15 89.3939 200.15Z" fill="#EAE8F4"/>
<path d="M68.1818 200.15C65.6714 200.15 63.6364 198.113 63.6364 195.601C63.6364 193.089 65.6714 191.052 68.1818 191.052C70.6922 191.052 72.7273 193.089 72.7273 195.601C72.7273 198.113 70.6922 200.15 68.1818 200.15Z" fill="#EAE8F4"/>
<path d="M46.9697 200.15C44.4593 200.15 42.4242 198.113 42.4242 195.601C42.4243 193.089 44.4593 191.052 46.9697 191.052C49.4801 191.052 51.5152 193.089 51.5152 195.601C51.5152 198.113 49.4801 200.15 46.9697 200.15Z" fill="#EAE8F4"/>
<path d="M25.7576 200.15C23.2472 200.15 21.2121 198.113 21.2121 195.601C21.2121 193.089 23.2472 191.052 25.7576 191.052C28.268 191.052 30.303 193.089 30.303 195.601C30.303 198.113 28.268 200.15 25.7576 200.15Z" fill="#EAE8F4"/>
<path d="M4.54547 200.15C2.03507 200.15 9.45709e-06 198.113 9.67671e-06 195.601C9.89634e-06 193.089 2.03507 191.052 4.54547 191.052C7.05584 191.052 9.09091 193.089 9.09091 195.601C9.09091 198.113 7.05584 200.15 4.54547 200.15Z" fill="#EAE8F4"/>
<path d="M195.455 221.378C192.944 221.378 190.909 219.341 190.909 216.829C190.909 214.317 192.944 212.28 195.455 212.28C197.965 212.28 200 214.317 200 216.829C200 219.341 197.965 221.378 195.455 221.378Z" fill="#EAE8F4"/>
<path d="M174.242 221.378C171.732 221.378 169.697 219.341 169.697 216.829C169.697 214.317 171.732 212.28 174.242 212.28C176.753 212.28 178.788 214.317 178.788 216.829C178.788 219.341 176.753 221.378 174.242 221.378Z" fill="#EAE8F4"/>
<path d="M153.03 221.378C150.52 221.378 148.485 219.341 148.485 216.829C148.485 214.317 150.52 212.28 153.03 212.28C155.541 212.28 157.576 214.317 157.576 216.829C157.576 219.341 155.541 221.378 153.03 221.378Z" fill="#EAE8F4"/>
<path d="M131.818 221.378C129.308 221.378 127.273 219.341 127.273 216.829C127.273 214.317 129.308 212.28 131.818 212.28C134.329 212.28 136.364 214.317 136.364 216.829C136.364 219.341 134.329 221.378 131.818 221.378Z" fill="#EAE8F4"/>
<path d="M110.606 221.378C108.096 221.378 106.061 219.341 106.061 216.829C106.061 214.317 108.096 212.28 110.606 212.28C113.116 212.28 115.152 214.317 115.152 216.829C115.152 219.341 113.116 221.378 110.606 221.378Z" fill="#EAE8F4"/>
<path d="M89.3939 221.378C86.8836 221.378 84.8485 219.341 84.8485 216.829C84.8485 214.317 86.8836 212.28 89.3939 212.28C91.9043 212.28 93.9394 214.317 93.9394 216.829C93.9394 219.341 91.9043 221.378 89.3939 221.378Z" fill="#EAE8F4"/>
<path d="M68.1818 221.378C65.6714 221.378 63.6364 219.341 63.6364 216.829C63.6364 214.317 65.6714 212.28 68.1818 212.28C70.6922 212.28 72.7273 214.317 72.7273 216.829C72.7273 219.341 70.6922 221.378 68.1818 221.378Z" fill="#EAE8F4"/>
<path d="M46.9697 221.378C44.4593 221.378 42.4242 219.341 42.4242 216.829C42.4242 214.317 44.4593 212.28 46.9697 212.28C49.4801 212.28 51.5152 214.317 51.5152 216.829C51.5152 219.341 49.4801 221.378 46.9697 221.378Z" fill="#EAE8F4"/>
<path d="M25.7576 221.378C23.2472 221.378 21.2121 219.341 21.2121 216.829C21.2121 214.317 23.2472 212.28 25.7576 212.28C28.268 212.28 30.303 214.317 30.303 216.829C30.303 219.341 28.268 221.378 25.7576 221.378Z" fill="#EAE8F4"/>
<path d="M4.54546 221.378C2.03507 221.378 7.60128e-06 219.341 7.82091e-06 216.829C8.04053e-06 214.317 2.03507 212.28 4.54546 212.28C7.05584 212.28 9.0909 214.317 9.0909 216.829C9.0909 219.341 7.05584 221.378 4.54546 221.378Z" fill="#EAE8F4"/>
<path d="M195.455 242.606C192.944 242.606 190.909 240.569 190.909 238.057C190.909 235.545 192.944 233.508 195.455 233.508C197.965 233.508 200 235.545 200 238.057C200 240.569 197.965 242.606 195.455 242.606Z" fill="#EAE8F4"/>
<path d="M174.242 242.606C171.732 242.606 169.697 240.569 169.697 238.057C169.697 235.545 171.732 233.508 174.242 233.508C176.753 233.508 178.788 235.545 178.788 238.057C178.788 240.569 176.753 242.606 174.242 242.606Z" fill="#EAE8F4"/>
<path d="M153.03 242.606C150.52 242.606 148.485 240.569 148.485 238.057C148.485 235.545 150.52 233.508 153.03 233.508C155.541 233.508 157.576 235.545 157.576 238.057C157.576 240.569 155.541 242.606 153.03 242.606Z" fill="#EAE8F4"/>
<path d="M131.818 242.606C129.308 242.606 127.273 240.569 127.273 238.057C127.273 235.545 129.308 233.508 131.818 233.508C134.329 233.508 136.364 235.545 136.364 238.057C136.364 240.569 134.329 242.606 131.818 242.606Z" fill="#EAE8F4"/>
<path d="M110.606 242.606C108.096 242.606 106.061 240.569 106.061 238.057C106.061 235.545 108.096 233.508 110.606 233.508C113.116 233.508 115.152 235.545 115.152 238.057C115.152 240.569 113.116 242.606 110.606 242.606Z" fill="#EAE8F4"/>
<path d="M89.3939 242.606C86.8836 242.606 84.8485 240.569 84.8485 238.057C84.8485 235.545 86.8836 233.508 89.3939 233.508C91.9043 233.508 93.9394 235.545 93.9394 238.057C93.9394 240.569 91.9043 242.606 89.3939 242.606Z" fill="#EAE8F4"/>
<path d="M68.1818 242.606C65.6714 242.606 63.6364 240.569 63.6364 238.057C63.6364 235.545 65.6714 233.508 68.1818 233.508C70.6922 233.508 72.7273 235.545 72.7273 238.057C72.7273 240.569 70.6922 242.606 68.1818 242.606Z" fill="#EAE8F4"/>
<path d="M46.9697 242.606C44.4593 242.606 42.4242 240.569 42.4242 238.057C42.4242 235.545 44.4593 233.508 46.9697 233.508C49.4801 233.508 51.5152 235.545 51.5152 238.057C51.5152 240.569 49.4801 242.606 46.9697 242.606Z" fill="#EAE8F4"/>
<path d="M25.7576 242.606C23.2472 242.606 21.2121 240.569 21.2121 238.057C21.2121 235.545 23.2472 233.508 25.7576 233.508C28.268 233.508 30.303 235.545 30.303 238.057C30.303 240.569 28.268 242.606 25.7576 242.606Z" fill="#EAE8F4"/>
<path d="M4.54546 242.606C2.03507 242.606 5.74547e-06 240.569 5.9651e-06 238.057C6.18473e-06 235.545 2.03507 233.508 4.54546 233.508C7.05584 233.508 9.0909 235.545 9.0909 238.057C9.0909 240.569 7.05584 242.606 4.54546 242.606Z" fill="#EAE8F4"/>
<path d="M195.455 263.834C192.944 263.834 190.909 261.797 190.909 259.285C190.909 256.772 192.944 254.736 195.455 254.736C197.965 254.736 200 256.772 200 259.285C200 261.797 197.965 263.834 195.455 263.834Z" fill="#EAE8F4"/>
<path d="M174.242 263.834C171.732 263.834 169.697 261.797 169.697 259.285C169.697 256.772 171.732 254.736 174.242 254.736C176.753 254.736 178.788 256.772 178.788 259.285C178.788 261.797 176.753 263.834 174.242 263.834Z" fill="#EAE8F4"/>
<path d="M153.03 263.834C150.52 263.834 148.485 261.797 148.485 259.285C148.485 256.772 150.52 254.736 153.03 254.736C155.541 254.736 157.576 256.772 157.576 259.285C157.576 261.797 155.541 263.834 153.03 263.834Z" fill="#EAE8F4"/>
<path d="M131.818 263.834C129.308 263.834 127.273 261.797 127.273 259.285C127.273 256.772 129.308 254.736 131.818 254.736C134.329 254.736 136.364 256.772 136.364 259.285C136.364 261.797 134.329 263.834 131.818 263.834Z" fill="#EAE8F4"/>
<path d="M110.606 263.834C108.096 263.834 106.061 261.797 106.061 259.285C106.061 256.772 108.096 254.736 110.606 254.736C113.116 254.736 115.152 256.772 115.152 259.285C115.152 261.797 113.116 263.834 110.606 263.834Z" fill="#EAE8F4"/>
<path d="M89.3939 263.834C86.8836 263.834 84.8485 261.797 84.8485 259.285C84.8485 256.772 86.8836 254.736 89.3939 254.736C91.9043 254.736 93.9394 256.772 93.9394 259.285C93.9394 261.797 91.9043 263.834 89.3939 263.834Z" fill="#EAE8F4"/>
<path d="M68.1818 263.834C65.6714 263.834 63.6364 261.797 63.6364 259.285C63.6364 256.772 65.6714 254.736 68.1818 254.736C70.6922 254.736 72.7273 256.772 72.7273 259.285C72.7273 261.797 70.6922 263.834 68.1818 263.834Z" fill="#EAE8F4"/>
<path d="M46.9697 263.834C44.4593 263.834 42.4242 261.797 42.4242 259.285C42.4242 256.772 44.4593 254.736 46.9697 254.736C49.4801 254.736 51.5152 256.772 51.5152 259.285C51.5152 261.797 49.4801 263.834 46.9697 263.834Z" fill="#EAE8F4"/>
<path d="M25.7576 263.834C23.2472 263.834 21.2121 261.797 21.2121 259.285C21.2121 256.772 23.2472 254.736 25.7576 254.736C28.268 254.736 30.303 256.772 30.303 259.285C30.303 261.797 28.268 263.834 25.7576 263.834Z" fill="#EAE8F4"/>
<path d="M4.54546 263.834C2.03507 263.834 3.88966e-06 261.797 4.10929e-06 259.285C4.32892e-06 256.772 2.03507 254.736 4.54546 254.736C7.05584 254.736 9.0909 256.772 9.0909 259.285C9.0909 261.797 7.05584 263.834 4.54546 263.834Z" fill="#EAE8F4"/>
<path d="M195.455 285.062C192.944 285.062 190.909 283.025 190.909 280.513C190.909 278 192.944 275.964 195.455 275.964C197.965 275.964 200 278 200 280.513C200 283.025 197.965 285.062 195.455 285.062Z" fill="#EAE8F4"/>
<path d="M174.242 285.062C171.732 285.062 169.697 283.025 169.697 280.513C169.697 278 171.732 275.964 174.242 275.964C176.753 275.964 178.788 278 178.788 280.513C178.788 283.025 176.753 285.062 174.242 285.062Z" fill="#EAE8F4"/>
<path d="M153.03 285.062C150.52 285.062 148.485 283.025 148.485 280.513C148.485 278 150.52 275.964 153.03 275.964C155.541 275.964 157.576 278 157.576 280.513C157.576 283.025 155.541 285.062 153.03 285.062Z" fill="#EAE8F4"/>
<path d="M131.818 285.062C129.308 285.062 127.273 283.025 127.273 280.513C127.273 278 129.308 275.964 131.818 275.964C134.329 275.964 136.364 278 136.364 280.513C136.364 283.025 134.329 285.062 131.818 285.062Z" fill="#EAE8F4"/>
<path d="M110.606 285.062C108.096 285.062 106.061 283.025 106.061 280.513C106.061 278 108.096 275.964 110.606 275.964C113.116 275.964 115.152 278 115.152 280.513C115.152 283.025 113.116 285.062 110.606 285.062Z" fill="#EAE8F4"/>
<path d="M89.3939 285.062C86.8836 285.062 84.8485 283.025 84.8485 280.513C84.8485 278 86.8836 275.964 89.3939 275.964C91.9043 275.964 93.9394 278 93.9394 280.513C93.9394 283.025 91.9043 285.062 89.3939 285.062Z" fill="#EAE8F4"/>
<path d="M68.1818 285.062C65.6714 285.062 63.6364 283.025 63.6364 280.513C63.6364 278 65.6714 275.964 68.1818 275.964C70.6922 275.964 72.7273 278 72.7273 280.513C72.7273 283.025 70.6922 285.062 68.1818 285.062Z" fill="#EAE8F4"/>
<path d="M46.9697 285.062C44.4593 285.062 42.4242 283.025 42.4242 280.513C42.4242 278 44.4593 275.964 46.9697 275.964C49.4801 275.964 51.5152 278 51.5152 280.513C51.5152 283.025 49.4801 285.062 46.9697 285.062Z" fill="#EAE8F4"/>
<path d="M25.7576 285.062C23.2472 285.062 21.2121 283.025 21.2121 280.513C21.2121 278 23.2472 275.964 25.7576 275.964C28.268 275.964 30.303 278 30.303 280.513C30.303 283.025 28.268 285.062 25.7576 285.062Z" fill="#EAE8F4"/>
<path d="M4.54546 285.062C2.03507 285.062 2.03385e-06 283.025 2.25348e-06 280.513C2.47311e-06 278 2.03507 275.964 4.54546 275.964C7.05583 275.964 9.0909 278 9.0909 280.513C9.0909 283.025 7.05583 285.062 4.54546 285.062Z" fill="#EAE8F4"/>
<path d="M195.455 306.29C192.944 306.29 190.909 304.253 190.909 301.741C190.909 299.228 192.944 297.192 195.455 297.192C197.965 297.192 200 299.228 200 301.741C200 304.253 197.965 306.29 195.455 306.29Z" fill="#EAE8F4"/>
<path d="M174.242 306.29C171.732 306.29 169.697 304.253 169.697 301.741C169.697 299.228 171.732 297.192 174.242 297.192C176.753 297.192 178.788 299.228 178.788 301.741C178.788 304.253 176.753 306.29 174.242 306.29Z" fill="#EAE8F4"/>
<path d="M153.03 306.29C150.52 306.29 148.485 304.253 148.485 301.741C148.485 299.228 150.52 297.192 153.03 297.192C155.541 297.192 157.576 299.228 157.576 301.741C157.576 304.253 155.541 306.29 153.03 306.29Z" fill="#EAE8F4"/>
<path d="M131.818 306.29C129.308 306.29 127.273 304.253 127.273 301.741C127.273 299.228 129.308 297.192 131.818 297.192C134.329 297.192 136.364 299.228 136.364 301.741C136.364 304.253 134.329 306.29 131.818 306.29Z" fill="#EAE8F4"/>
<path d="M110.606 306.29C108.096 306.29 106.061 304.253 106.061 301.741C106.061 299.228 108.096 297.192 110.606 297.192C113.116 297.192 115.152 299.228 115.152 301.741C115.152 304.253 113.116 306.29 110.606 306.29Z" fill="#EAE8F4"/>
<path d="M89.3939 306.29C86.8836 306.29 84.8485 304.253 84.8485 301.741C84.8485 299.228 86.8836 297.192 89.3939 297.192C91.9043 297.192 93.9394 299.228 93.9394 301.741C93.9394 304.253 91.9043 306.29 89.3939 306.29Z" fill="#EAE8F4"/>
<path d="M68.1818 306.29C65.6714 306.29 63.6364 304.253 63.6364 301.741C63.6364 299.228 65.6714 297.192 68.1818 297.192C70.6922 297.192 72.7273 299.228 72.7273 301.741C72.7273 304.253 70.6922 306.29 68.1818 306.29Z" fill="#EAE8F4"/>
<path d="M46.9697 306.29C44.4593 306.29 42.4242 304.253 42.4242 301.741C42.4242 299.228 44.4593 297.192 46.9697 297.192C49.4801 297.192 51.5152 299.228 51.5152 301.741C51.5152 304.253 49.4801 306.29 46.9697 306.29Z" fill="#EAE8F4"/>
<path d="M25.7576 306.29C23.2472 306.29 21.2121 304.253 21.2121 301.741C21.2121 299.228 23.2472 297.192 25.7576 297.192C28.268 297.192 30.303 299.228 30.303 301.741C30.303 304.253 28.268 306.29 25.7576 306.29Z" fill="#EAE8F4"/>
<path d="M4.54546 306.29C2.03506 306.29 1.78044e-07 304.253 3.97673e-07 301.741C6.17302e-07 299.228 2.03507 297.192 4.54546 297.192C7.05583 297.192 9.0909 299.228 9.0909 301.741C9.0909 304.253 7.05583 306.29 4.54546 306.29Z" fill="#EAE8F4"/>
</svg>
