<svg width="307" height="200" viewBox="0 0 307 200" fill="none" xmlns="http://www.w3.org/2000/svg">
<path d="M9.09744 4.54544C9.09744 7.05583 7.06085 9.0909 4.54858 9.0909C2.03635 9.0909 -0.000244449 7.05583 -0.000244339 4.54544C-0.00024423 2.03506 2.03635 -1.32993e-05 4.54858 -1.31895e-05C7.06085 -1.30797e-05 9.09744 2.03506 9.09744 4.54544Z" fill="#EAE8F4"/>
<path d="M9.09744 25.7576C9.09744 28.2679 7.06085 30.303 4.54858 30.303C2.03635 30.303 -0.000245376 28.2679 -0.000245267 25.7576C-0.000245157 23.2472 2.03635 21.2121 4.54858 21.2121C7.06085 21.2121 9.09744 23.2472 9.09744 25.7576Z" fill="#EAE8F4"/>
<path d="M9.09744 46.9697C9.09744 49.4801 7.06085 51.5151 4.54858 51.5151C2.03634 51.5151 -0.000246303 49.4801 -0.000246194 46.9697C-0.000246084 44.4593 2.03634 42.4242 4.54858 42.4242C7.06085 42.4242 9.09744 44.4593 9.09744 46.9697Z" fill="#EAE8F4"/>
<path d="M9.09744 68.1818C9.09744 70.6922 7.06085 72.7273 4.54858 72.7273C2.03634 72.7273 -0.000247231 70.6922 -0.000247121 68.1818C-0.000247011 65.6714 2.03634 63.6364 4.54858 63.6364C7.06085 63.6364 9.09744 65.6714 9.09744 68.1818Z" fill="#EAE8F4"/>
<path d="M9.09744 89.3939C9.09744 91.9043 7.06085 93.9394 4.54858 93.9394C2.03634 93.9394 -0.000248158 91.9043 -0.000248048 89.3939C-0.000247938 86.8835 2.03634 84.8485 4.54858 84.8485C7.06085 84.8485 9.09744 86.8835 9.09744 89.3939Z" fill="#EAE8F4"/>
<path d="M9.09744 110.606C9.09744 113.116 7.06085 115.152 4.54858 115.152C2.03634 115.152 -0.000249085 113.116 -0.000248975 110.606C-0.000248866 108.096 2.03634 106.061 4.54858 106.061C7.06085 106.061 9.09744 108.096 9.09744 110.606Z" fill="#EAE8F4"/>
<path d="M9.09744 131.818C9.09744 134.329 7.06085 136.364 4.54858 136.364C2.03634 136.364 -0.000250012 134.329 -0.000249903 131.818C-0.000249793 129.308 2.03634 127.273 4.54858 127.273C7.06085 127.273 9.09744 129.308 9.09744 131.818Z" fill="#EAE8F4"/>
<path d="M9.09744 153.03C9.09744 155.541 7.06085 157.576 4.54858 157.576C2.03634 157.576 -0.00025094 155.541 -0.00025083 153.03C-0.00025072 150.52 2.03634 148.485 4.54858 148.485C7.06085 148.485 9.09744 150.52 9.09744 153.03Z" fill="#EAE8F4"/>
<path d="M9.09744 174.242C9.09743 176.753 7.06084 178.788 4.54858 178.788C2.03634 178.788 -0.000251867 176.753 -0.000251757 174.242C-0.000251647 171.732 2.03634 169.697 4.54858 169.697C7.06084 169.697 9.09744 171.732 9.09744 174.242Z" fill="#EAE8F4"/>
<path d="M9.09743 195.455C9.09743 197.965 7.06084 200 4.54858 200C2.03634 200 -0.000252794 197.965 -0.000252684 195.455C-0.000252574 192.944 2.03634 190.909 4.54858 190.909C7.06084 190.909 9.09743 192.944 9.09743 195.455Z" fill="#EAE8F4"/>
<path d="M30.3254 4.54544C30.3254 7.05583 28.2888 9.0909 25.7766 9.0909C23.2643 9.0909 21.2277 7.05583 21.2277 4.54544C21.2277 2.03506 23.2643 -1.23714e-05 25.7766 -1.22616e-05C28.2888 -1.21518e-05 30.3254 2.03506 30.3254 4.54544Z" fill="#EAE8F4"/>
<path d="M30.3254 25.7576C30.3254 28.2679 28.2888 30.303 25.7766 30.303C23.2643 30.303 21.2277 28.2679 21.2277 25.7576C21.2277 23.2472 23.2643 21.2121 25.7766 21.2121C28.2888 21.2121 30.3254 23.2472 30.3254 25.7576Z" fill="#EAE8F4"/>
<path d="M30.3254 46.9697C30.3254 49.4801 28.2888 51.5151 25.7766 51.5151C23.2643 51.5151 21.2277 49.4801 21.2277 46.9697C21.2277 44.4593 23.2643 42.4242 25.7766 42.4242C28.2888 42.4242 30.3254 44.4593 30.3254 46.9697Z" fill="#EAE8F4"/>
<path d="M30.3254 68.1818C30.3254 70.6922 28.2888 72.7273 25.7766 72.7273C23.2643 72.7273 21.2277 70.6922 21.2277 68.1818C21.2277 65.6714 23.2643 63.6364 25.7766 63.6364C28.2888 63.6364 30.3254 65.6714 30.3254 68.1818Z" fill="#EAE8F4"/>
<path d="M30.3254 89.3939C30.3254 91.9043 28.2888 93.9394 25.7766 93.9394C23.2643 93.9394 21.2277 91.9043 21.2277 89.3939C21.2277 86.8835 23.2643 84.8485 25.7766 84.8485C28.2888 84.8485 30.3254 86.8835 30.3254 89.3939Z" fill="#EAE8F4"/>
<path d="M30.3254 110.606C30.3254 113.116 28.2888 115.152 25.7766 115.152C23.2643 115.152 21.2277 113.116 21.2277 110.606C21.2277 108.096 23.2643 106.061 25.7766 106.061C28.2888 106.061 30.3254 108.096 30.3254 110.606Z" fill="#EAE8F4"/>
<path d="M30.3254 131.818C30.3254 134.329 28.2888 136.364 25.7766 136.364C23.2643 136.364 21.2277 134.329 21.2277 131.818C21.2277 129.308 23.2643 127.273 25.7766 127.273C28.2888 127.273 30.3254 129.308 30.3254 131.818Z" fill="#EAE8F4"/>
<path d="M30.3254 153.03C30.3254 155.541 28.2888 157.576 25.7766 157.576C23.2643 157.576 21.2277 155.541 21.2277 153.03C21.2277 150.52 23.2643 148.485 25.7766 148.485C28.2888 148.485 30.3254 150.52 30.3254 153.03Z" fill="#EAE8F4"/>
<path d="M30.3254 174.242C30.3254 176.753 28.2888 178.788 25.7766 178.788C23.2643 178.788 21.2277 176.753 21.2277 174.242C21.2277 171.732 23.2643 169.697 25.7766 169.697C28.2888 169.697 30.3254 171.732 30.3254 174.242Z" fill="#EAE8F4"/>
<path d="M30.3254 195.455C30.3254 197.965 28.2888 200 25.7766 200C23.2643 200 21.2277 197.965 21.2277 195.455C21.2277 192.944 23.2643 190.909 25.7766 190.909C28.2888 190.909 30.3254 192.944 30.3254 195.455Z" fill="#EAE8F4"/>
<path d="M51.5534 4.54544C51.5534 7.05583 49.5168 9.0909 47.0045 9.0909C44.4923 9.0909 42.4557 7.05583 42.4557 4.54544C42.4557 2.03506 44.4923 -1.14435e-05 47.0045 -1.13337e-05C49.5168 -1.12239e-05 51.5534 2.03506 51.5534 4.54544Z" fill="#EAE8F4"/>
<path d="M51.5534 25.7576C51.5534 28.268 49.5168 30.303 47.0045 30.303C44.4923 30.303 42.4557 28.2679 42.4557 25.7576C42.4557 23.2472 44.4923 21.2121 47.0045 21.2121C49.5168 21.2121 51.5534 23.2472 51.5534 25.7576Z" fill="#EAE8F4"/>
<path d="M51.5534 46.9697C51.5534 49.4801 49.5168 51.5151 47.0045 51.5151C44.4923 51.5151 42.4557 49.4801 42.4557 46.9697C42.4557 44.4593 44.4923 42.4242 47.0045 42.4242C49.5168 42.4242 51.5534 44.4593 51.5534 46.9697Z" fill="#EAE8F4"/>
<path d="M51.5534 68.1818C51.5534 70.6922 49.5168 72.7273 47.0045 72.7273C44.4923 72.7273 42.4557 70.6922 42.4557 68.1818C42.4557 65.6714 44.4923 63.6364 47.0045 63.6364C49.5168 63.6364 51.5534 65.6714 51.5534 68.1818Z" fill="#EAE8F4"/>
<path d="M51.5534 89.3939C51.5534 91.9043 49.5168 93.9394 47.0045 93.9394C44.4923 93.9394 42.4557 91.9043 42.4557 89.3939C42.4557 86.8835 44.4923 84.8485 47.0045 84.8485C49.5168 84.8485 51.5534 86.8835 51.5534 89.3939Z" fill="#EAE8F4"/>
<path d="M51.5534 110.606C51.5534 113.116 49.5168 115.152 47.0045 115.152C44.4923 115.152 42.4557 113.116 42.4557 110.606C42.4557 108.096 44.4923 106.061 47.0045 106.061C49.5168 106.061 51.5534 108.096 51.5534 110.606Z" fill="#EAE8F4"/>
<path d="M51.5534 131.818C51.5534 134.329 49.5168 136.364 47.0045 136.364C44.4923 136.364 42.4557 134.329 42.4557 131.818C42.4557 129.308 44.4923 127.273 47.0045 127.273C49.5168 127.273 51.5534 129.308 51.5534 131.818Z" fill="#EAE8F4"/>
<path d="M51.5534 153.03C51.5534 155.541 49.5168 157.576 47.0045 157.576C44.4923 157.576 42.4557 155.541 42.4557 153.03C42.4557 150.52 44.4923 148.485 47.0045 148.485C49.5168 148.485 51.5534 150.52 51.5534 153.03Z" fill="#EAE8F4"/>
<path d="M51.5534 174.242C51.5534 176.753 49.5168 178.788 47.0045 178.788C44.4923 178.788 42.4557 176.753 42.4557 174.242C42.4557 171.732 44.4923 169.697 47.0045 169.697C49.5168 169.697 51.5534 171.732 51.5534 174.242Z" fill="#EAE8F4"/>
<path d="M51.5534 195.455C51.5534 197.965 49.5168 200 47.0045 200C44.4923 200 42.4557 197.965 42.4557 195.455C42.4557 192.944 44.4923 190.909 47.0045 190.909C49.5168 190.909 51.5534 192.944 51.5534 195.455Z" fill="#EAE8F4"/>
<path d="M72.7814 4.54544C72.7814 7.05583 70.7448 9.0909 68.2325 9.0909C65.7202 9.0909 63.6837 7.05583 63.6837 4.54544C63.6837 2.03506 65.7202 -1.05156e-05 68.2325 -1.04058e-05C70.7448 -1.0296e-05 72.7814 2.03506 72.7814 4.54544Z" fill="#EAE8F4"/>
<path d="M72.7814 25.7576C72.7814 28.268 70.7448 30.303 68.2325 30.303C65.7202 30.303 63.6837 28.268 63.6837 25.7576C63.6837 23.2472 65.7202 21.2121 68.2325 21.2121C70.7448 21.2121 72.7814 23.2472 72.7814 25.7576Z" fill="#EAE8F4"/>
<path d="M72.7814 46.9697C72.7814 49.4801 70.7448 51.5151 68.2325 51.5151C65.7202 51.5151 63.6837 49.4801 63.6837 46.9697C63.6837 44.4593 65.7202 42.4242 68.2325 42.4242C70.7448 42.4242 72.7814 44.4593 72.7814 46.9697Z" fill="#EAE8F4"/>
<path d="M72.7814 68.1818C72.7814 70.6922 70.7448 72.7273 68.2325 72.7273C65.7202 72.7273 63.6837 70.6922 63.6837 68.1818C63.6837 65.6714 65.7202 63.6364 68.2325 63.6364C70.7448 63.6364 72.7814 65.6714 72.7814 68.1818Z" fill="#EAE8F4"/>
<path d="M72.7814 89.3939C72.7814 91.9043 70.7448 93.9394 68.2325 93.9394C65.7202 93.9394 63.6837 91.9043 63.6837 89.3939C63.6837 86.8835 65.7202 84.8485 68.2325 84.8485C70.7448 84.8485 72.7814 86.8835 72.7814 89.3939Z" fill="#EAE8F4"/>
<path d="M72.7814 110.606C72.7814 113.116 70.7448 115.152 68.2325 115.152C65.7202 115.152 63.6836 113.116 63.6836 110.606C63.6837 108.096 65.7202 106.061 68.2325 106.061C70.7448 106.061 72.7814 108.096 72.7814 110.606Z" fill="#EAE8F4"/>
<path d="M72.7814 131.818C72.7814 134.329 70.7448 136.364 68.2325 136.364C65.7202 136.364 63.6836 134.329 63.6836 131.818C63.6836 129.308 65.7202 127.273 68.2325 127.273C70.7448 127.273 72.7814 129.308 72.7814 131.818Z" fill="#EAE8F4"/>
<path d="M72.7814 153.03C72.7814 155.541 70.7448 157.576 68.2325 157.576C65.7202 157.576 63.6836 155.541 63.6836 153.03C63.6836 150.52 65.7202 148.485 68.2325 148.485C70.7448 148.485 72.7814 150.52 72.7814 153.03Z" fill="#EAE8F4"/>
<path d="M72.7814 174.242C72.7814 176.753 70.7448 178.788 68.2325 178.788C65.7202 178.788 63.6836 176.753 63.6836 174.242C63.6836 171.732 65.7202 169.697 68.2325 169.697C70.7448 169.697 72.7814 171.732 72.7814 174.242Z" fill="#EAE8F4"/>
<path d="M72.7814 195.455C72.7814 197.965 70.7448 200 68.2325 200C65.7202 200 63.6836 197.965 63.6836 195.455C63.6836 192.944 65.7202 190.909 68.2325 190.909C70.7448 190.909 72.7814 192.944 72.7814 195.455Z" fill="#EAE8F4"/>
<path d="M94.0093 4.54545C94.0093 7.05583 91.9727 9.0909 89.4605 9.0909C86.9482 9.0909 84.9116 7.05583 84.9116 4.54544C84.9116 2.03506 86.9482 -9.58769e-06 89.4605 -9.47788e-06C91.9727 -9.36806e-06 94.0093 2.03506 94.0093 4.54545Z" fill="#EAE8F4"/>
<path d="M94.0093 25.7576C94.0093 28.268 91.9727 30.303 89.4605 30.303C86.9482 30.303 84.9116 28.268 84.9116 25.7576C84.9116 23.2472 86.9482 21.2121 89.4605 21.2121C91.9727 21.2121 94.0093 23.2472 94.0093 25.7576Z" fill="#EAE8F4"/>
<path d="M94.0093 46.9697C94.0093 49.4801 91.9727 51.5151 89.4605 51.5151C86.9482 51.5151 84.9116 49.4801 84.9116 46.9697C84.9116 44.4593 86.9482 42.4242 89.4605 42.4242C91.9727 42.4242 94.0093 44.4593 94.0093 46.9697Z" fill="#EAE8F4"/>
<path d="M94.0093 68.1818C94.0093 70.6922 91.9727 72.7273 89.4605 72.7273C86.9482 72.7273 84.9116 70.6922 84.9116 68.1818C84.9116 65.6714 86.9482 63.6364 89.4605 63.6364C91.9727 63.6364 94.0093 65.6714 94.0093 68.1818Z" fill="#EAE8F4"/>
<path d="M94.0093 89.3939C94.0093 91.9043 91.9727 93.9394 89.4605 93.9394C86.9482 93.9394 84.9116 91.9043 84.9116 89.3939C84.9116 86.8836 86.9482 84.8485 89.4605 84.8485C91.9727 84.8485 94.0093 86.8836 94.0093 89.3939Z" fill="#EAE8F4"/>
<path d="M94.0093 110.606C94.0093 113.116 91.9727 115.152 89.4605 115.152C86.9482 115.152 84.9116 113.116 84.9116 110.606C84.9116 108.096 86.9482 106.061 89.4605 106.061C91.9727 106.061 94.0093 108.096 94.0093 110.606Z" fill="#EAE8F4"/>
<path d="M94.0093 131.818C94.0093 134.329 91.9727 136.364 89.4605 136.364C86.9482 136.364 84.9116 134.329 84.9116 131.818C84.9116 129.308 86.9482 127.273 89.4605 127.273C91.9727 127.273 94.0093 129.308 94.0093 131.818Z" fill="#EAE8F4"/>
<path d="M94.0093 153.03C94.0093 155.541 91.9727 157.576 89.4605 157.576C86.9482 157.576 84.9116 155.541 84.9116 153.03C84.9116 150.52 86.9482 148.485 89.4605 148.485C91.9727 148.485 94.0093 150.52 94.0093 153.03Z" fill="#EAE8F4"/>
<path d="M94.0093 174.242C94.0093 176.753 91.9727 178.788 89.4605 178.788C86.9482 178.788 84.9116 176.753 84.9116 174.242C84.9116 171.732 86.9482 169.697 89.4605 169.697C91.9727 169.697 94.0093 171.732 94.0093 174.242Z" fill="#EAE8F4"/>
<path d="M94.0093 195.455C94.0093 197.965 91.9727 200 89.4605 200C86.9482 200 84.9116 197.965 84.9116 195.455C84.9116 192.944 86.9482 190.909 89.4605 190.909C91.9727 190.909 94.0093 192.944 94.0093 195.455Z" fill="#EAE8F4"/>
<path d="M115.237 4.54545C115.237 7.05583 113.201 9.0909 110.688 9.0909C108.176 9.0909 106.14 7.05583 106.14 4.54545C106.14 2.03506 108.176 -8.65979e-06 110.688 -8.54997e-06C113.201 -8.44016e-06 115.237 2.03506 115.237 4.54545Z" fill="#EAE8F4"/>
<path d="M115.237 25.7576C115.237 28.268 113.201 30.303 110.688 30.303C108.176 30.303 106.14 28.268 106.14 25.7576C106.14 23.2472 108.176 21.2121 110.688 21.2121C113.201 21.2121 115.237 23.2472 115.237 25.7576Z" fill="#EAE8F4"/>
<path d="M115.237 46.9697C115.237 49.4801 113.201 51.5151 110.688 51.5151C108.176 51.5151 106.14 49.4801 106.14 46.9697C106.14 44.4593 108.176 42.4242 110.688 42.4242C113.201 42.4242 115.237 44.4593 115.237 46.9697Z" fill="#EAE8F4"/>
<path d="M115.237 68.1818C115.237 70.6922 113.201 72.7273 110.688 72.7273C108.176 72.7273 106.14 70.6922 106.14 68.1818C106.14 65.6714 108.176 63.6364 110.688 63.6364C113.201 63.6364 115.237 65.6714 115.237 68.1818Z" fill="#EAE8F4"/>
<path d="M115.237 89.3939C115.237 91.9043 113.201 93.9394 110.688 93.9394C108.176 93.9394 106.14 91.9043 106.14 89.3939C106.14 86.8836 108.176 84.8485 110.688 84.8485C113.201 84.8485 115.237 86.8836 115.237 89.3939Z" fill="#EAE8F4"/>
<path d="M115.237 110.606C115.237 113.116 113.201 115.152 110.688 115.152C108.176 115.152 106.14 113.116 106.14 110.606C106.14 108.096 108.176 106.061 110.688 106.061C113.201 106.061 115.237 108.096 115.237 110.606Z" fill="#EAE8F4"/>
<path d="M115.237 131.818C115.237 134.329 113.201 136.364 110.688 136.364C108.176 136.364 106.14 134.329 106.14 131.818C106.14 129.308 108.176 127.273 110.688 127.273C113.201 127.273 115.237 129.308 115.237 131.818Z" fill="#EAE8F4"/>
<path d="M115.237 153.03C115.237 155.541 113.201 157.576 110.688 157.576C108.176 157.576 106.14 155.541 106.14 153.03C106.14 150.52 108.176 148.485 110.688 148.485C113.201 148.485 115.237 150.52 115.237 153.03Z" fill="#EAE8F4"/>
<path d="M115.237 174.242C115.237 176.753 113.201 178.788 110.688 178.788C108.176 178.788 106.14 176.753 106.14 174.242C106.14 171.732 108.176 169.697 110.688 169.697C113.201 169.697 115.237 171.732 115.237 174.242Z" fill="#EAE8F4"/>
<path d="M115.237 195.455C115.237 197.965 113.201 200 110.688 200C108.176 200 106.14 197.965 106.14 195.455C106.14 192.944 108.176 190.909 110.688 190.909C113.201 190.909 115.237 192.944 115.237 195.455Z" fill="#EAE8F4"/>
<path d="M136.465 4.54545C136.465 7.05583 134.429 9.0909 131.916 9.0909C129.404 9.0909 127.368 7.05583 127.368 4.54545C127.368 2.03506 129.404 -7.73188e-06 131.916 -7.62207e-06C134.429 -7.51226e-06 136.465 2.03506 136.465 4.54545Z" fill="#EAE8F4"/>
<path d="M136.465 25.7576C136.465 28.268 134.429 30.303 131.916 30.303C129.404 30.303 127.368 28.268 127.368 25.7576C127.368 23.2472 129.404 21.2121 131.916 21.2121C134.429 21.2121 136.465 23.2472 136.465 25.7576Z" fill="#EAE8F4"/>
<path d="M136.465 46.9697C136.465 49.4801 134.429 51.5151 131.916 51.5151C129.404 51.5151 127.368 49.4801 127.368 46.9697C127.368 44.4593 129.404 42.4242 131.916 42.4242C134.429 42.4242 136.465 44.4593 136.465 46.9697Z" fill="#EAE8F4"/>
<path d="M136.465 68.1818C136.465 70.6922 134.429 72.7273 131.916 72.7273C129.404 72.7273 127.368 70.6922 127.368 68.1818C127.368 65.6714 129.404 63.6364 131.916 63.6364C134.429 63.6364 136.465 65.6714 136.465 68.1818Z" fill="#EAE8F4"/>
<path d="M136.465 89.3939C136.465 91.9043 134.429 93.9394 131.916 93.9394C129.404 93.9394 127.368 91.9043 127.368 89.3939C127.368 86.8836 129.404 84.8485 131.916 84.8485C134.429 84.8485 136.465 86.8836 136.465 89.3939Z" fill="#EAE8F4"/>
<path d="M136.465 110.606C136.465 113.116 134.429 115.152 131.916 115.152C129.404 115.152 127.368 113.116 127.368 110.606C127.368 108.096 129.404 106.061 131.916 106.061C134.429 106.061 136.465 108.096 136.465 110.606Z" fill="#EAE8F4"/>
<path d="M136.465 131.818C136.465 134.329 134.429 136.364 131.916 136.364C129.404 136.364 127.368 134.329 127.368 131.818C127.368 129.308 129.404 127.273 131.916 127.273C134.429 127.273 136.465 129.308 136.465 131.818Z" fill="#EAE8F4"/>
<path d="M136.465 153.03C136.465 155.541 134.429 157.576 131.916 157.576C129.404 157.576 127.368 155.541 127.368 153.03C127.368 150.52 129.404 148.485 131.916 148.485C134.429 148.485 136.465 150.52 136.465 153.03Z" fill="#EAE8F4"/>
<path d="M136.465 174.242C136.465 176.753 134.429 178.788 131.916 178.788C129.404 178.788 127.368 176.753 127.368 174.242C127.368 171.732 129.404 169.697 131.916 169.697C134.429 169.697 136.465 171.732 136.465 174.242Z" fill="#EAE8F4"/>
<path d="M136.465 195.455C136.465 197.965 134.429 200 131.916 200C129.404 200 127.368 197.965 127.368 195.455C127.368 192.944 129.404 190.909 131.916 190.909C134.429 190.909 136.465 192.944 136.465 195.455Z" fill="#EAE8F4"/>
<path d="M157.693 4.54545C157.693 7.05583 155.657 9.0909 153.144 9.0909C150.632 9.0909 148.596 7.05583 148.596 4.54545C148.596 2.03506 150.632 -6.80398e-06 153.144 -6.69417e-06C155.657 -6.58435e-06 157.693 2.03506 157.693 4.54545Z" fill="#EAE8F4"/>
<path d="M157.693 25.7576C157.693 28.268 155.657 30.303 153.144 30.303C150.632 30.303 148.596 28.268 148.596 25.7576C148.596 23.2472 150.632 21.2121 153.144 21.2121C155.657 21.2121 157.693 23.2472 157.693 25.7576Z" fill="#EAE8F4"/>
<path d="M157.693 46.9697C157.693 49.4801 155.657 51.5151 153.144 51.5151C150.632 51.5151 148.596 49.4801 148.596 46.9697C148.596 44.4593 150.632 42.4242 153.144 42.4242C155.657 42.4242 157.693 44.4593 157.693 46.9697Z" fill="#EAE8F4"/>
<path d="M157.693 68.1818C157.693 70.6922 155.657 72.7273 153.144 72.7273C150.632 72.7273 148.596 70.6922 148.596 68.1818C148.596 65.6714 150.632 63.6364 153.144 63.6364C155.657 63.6364 157.693 65.6714 157.693 68.1818Z" fill="#EAE8F4"/>
<path d="M157.693 89.3939C157.693 91.9043 155.657 93.9394 153.144 93.9394C150.632 93.9394 148.596 91.9043 148.596 89.3939C148.596 86.8836 150.632 84.8485 153.144 84.8485C155.657 84.8485 157.693 86.8836 157.693 89.3939Z" fill="#EAE8F4"/>
<path d="M157.693 110.606C157.693 113.116 155.657 115.152 153.144 115.152C150.632 115.152 148.596 113.116 148.596 110.606C148.596 108.096 150.632 106.061 153.144 106.061C155.657 106.061 157.693 108.096 157.693 110.606Z" fill="#EAE8F4"/>
<path d="M157.693 131.818C157.693 134.329 155.657 136.364 153.144 136.364C150.632 136.364 148.596 134.329 148.596 131.818C148.596 129.308 150.632 127.273 153.144 127.273C155.657 127.273 157.693 129.308 157.693 131.818Z" fill="#EAE8F4"/>
<path d="M157.693 153.03C157.693 155.541 155.657 157.576 153.144 157.576C150.632 157.576 148.596 155.541 148.596 153.03C148.596 150.52 150.632 148.485 153.144 148.485C155.657 148.485 157.693 150.52 157.693 153.03Z" fill="#EAE8F4"/>
<path d="M157.693 174.242C157.693 176.753 155.657 178.788 153.144 178.788C150.632 178.788 148.596 176.753 148.596 174.242C148.596 171.732 150.632 169.697 153.144 169.697C155.657 169.697 157.693 171.732 157.693 174.242Z" fill="#EAE8F4"/>
<path d="M157.693 195.455C157.693 197.965 155.657 200 153.144 200C150.632 200 148.596 197.965 148.596 195.455C148.596 192.944 150.632 190.909 153.144 190.909C155.657 190.909 157.693 192.944 157.693 195.455Z" fill="#EAE8F4"/>
<path d="M178.921 4.54545C178.921 7.05583 176.885 9.0909 174.372 9.0909C171.86 9.0909 169.824 7.05583 169.824 4.54545C169.824 2.03506 171.86 -5.87608e-06 174.372 -5.76626e-06C176.885 -5.65645e-06 178.921 2.03506 178.921 4.54545Z" fill="#EAE8F4"/>
<path d="M178.921 25.7576C178.921 28.268 176.885 30.303 174.372 30.303C171.86 30.303 169.824 28.268 169.824 25.7576C169.824 23.2472 171.86 21.2121 174.372 21.2121C176.885 21.2121 178.921 23.2472 178.921 25.7576Z" fill="#EAE8F4"/>
<path d="M178.921 46.9697C178.921 49.4801 176.885 51.5151 174.372 51.5151C171.86 51.5151 169.824 49.4801 169.824 46.9697C169.824 44.4593 171.86 42.4242 174.372 42.4242C176.885 42.4242 178.921 44.4593 178.921 46.9697Z" fill="#EAE8F4"/>
<path d="M178.921 68.1818C178.921 70.6922 176.885 72.7273 174.372 72.7273C171.86 72.7273 169.824 70.6922 169.824 68.1818C169.824 65.6714 171.86 63.6364 174.372 63.6364C176.885 63.6364 178.921 65.6714 178.921 68.1818Z" fill="#EAE8F4"/>
<path d="M178.921 89.3939C178.921 91.9043 176.885 93.9394 174.372 93.9394C171.86 93.9394 169.824 91.9043 169.824 89.3939C169.824 86.8836 171.86 84.8485 174.372 84.8485C176.885 84.8485 178.921 86.8836 178.921 89.3939Z" fill="#EAE8F4"/>
<path d="M178.921 110.606C178.921 113.116 176.885 115.152 174.372 115.152C171.86 115.152 169.824 113.116 169.824 110.606C169.824 108.096 171.86 106.061 174.372 106.061C176.885 106.061 178.921 108.096 178.921 110.606Z" fill="#EAE8F4"/>
<path d="M178.921 131.818C178.921 134.329 176.885 136.364 174.372 136.364C171.86 136.364 169.824 134.329 169.824 131.818C169.824 129.308 171.86 127.273 174.372 127.273C176.885 127.273 178.921 129.308 178.921 131.818Z" fill="#EAE8F4"/>
<path d="M178.921 153.03C178.921 155.541 176.885 157.576 174.372 157.576C171.86 157.576 169.824 155.541 169.824 153.03C169.824 150.52 171.86 148.485 174.372 148.485C176.885 148.485 178.921 150.52 178.921 153.03Z" fill="#EAE8F4"/>
<path d="M178.921 174.242C178.921 176.753 176.885 178.788 174.372 178.788C171.86 178.788 169.824 176.753 169.824 174.242C169.824 171.732 171.86 169.697 174.372 169.697C176.885 169.697 178.921 171.732 178.921 174.242Z" fill="#EAE8F4"/>
<path d="M178.921 195.455C178.921 197.965 176.885 200 174.372 200C171.86 200 169.824 197.965 169.824 195.455C169.824 192.944 171.86 190.909 174.372 190.909C176.885 190.909 178.921 192.944 178.921 195.455Z" fill="#EAE8F4"/>
<path d="M200.149 4.54545C200.149 7.05584 198.113 9.0909 195.6 9.0909C193.088 9.0909 191.051 7.05583 191.051 4.54545C191.051 2.03506 193.088 -4.94817e-06 195.6 -4.83836e-06C198.113 -4.72854e-06 200.149 2.03506 200.149 4.54545Z" fill="#EAE8F4"/>
<path d="M200.149 25.7576C200.149 28.268 198.113 30.303 195.6 30.303C193.088 30.303 191.051 28.268 191.051 25.7576C191.051 23.2472 193.088 21.2121 195.6 21.2121C198.113 21.2121 200.149 23.2472 200.149 25.7576Z" fill="#EAE8F4"/>
<path d="M200.149 46.9697C200.149 49.4801 198.113 51.5151 195.6 51.5151C193.088 51.5151 191.051 49.4801 191.051 46.9697C191.051 44.4593 193.088 42.4242 195.6 42.4242C198.113 42.4242 200.149 44.4593 200.149 46.9697Z" fill="#EAE8F4"/>
<path d="M200.149 68.1818C200.149 70.6922 198.113 72.7273 195.6 72.7273C193.088 72.7273 191.051 70.6922 191.051 68.1818C191.051 65.6714 193.088 63.6364 195.6 63.6364C198.113 63.6364 200.149 65.6714 200.149 68.1818Z" fill="#EAE8F4"/>
<path d="M200.149 89.3939C200.149 91.9043 198.113 93.9394 195.6 93.9394C193.088 93.9394 191.051 91.9043 191.051 89.3939C191.051 86.8836 193.088 84.8485 195.6 84.8485C198.113 84.8485 200.149 86.8836 200.149 89.3939Z" fill="#EAE8F4"/>
<path d="M200.149 110.606C200.149 113.116 198.113 115.152 195.6 115.152C193.088 115.152 191.051 113.116 191.051 110.606C191.051 108.096 193.088 106.061 195.6 106.061C198.113 106.061 200.149 108.096 200.149 110.606Z" fill="#EAE8F4"/>
<path d="M200.149 131.818C200.149 134.329 198.113 136.364 195.6 136.364C193.088 136.364 191.051 134.329 191.051 131.818C191.051 129.308 193.088 127.273 195.6 127.273C198.113 127.273 200.149 129.308 200.149 131.818Z" fill="#EAE8F4"/>
<path d="M200.149 153.03C200.149 155.541 198.113 157.576 195.6 157.576C193.088 157.576 191.051 155.541 191.051 153.03C191.051 150.52 193.088 148.485 195.6 148.485C198.113 148.485 200.149 150.52 200.149 153.03Z" fill="#EAE8F4"/>
<path d="M200.149 174.242C200.149 176.753 198.113 178.788 195.6 178.788C193.088 178.788 191.051 176.753 191.051 174.242C191.051 171.732 193.088 169.697 195.6 169.697C198.113 169.697 200.149 171.732 200.149 174.242Z" fill="#EAE8F4"/>
<path d="M200.149 195.455C200.149 197.965 198.113 200 195.6 200C193.088 200 191.051 197.965 191.051 195.455C191.051 192.944 193.088 190.909 195.6 190.909C198.113 190.909 200.149 192.944 200.149 195.455Z" fill="#EAE8F4"/>
<path d="M221.377 4.54545C221.377 7.05584 219.341 9.09091 216.828 9.09091C214.316 9.0909 212.279 7.05584 212.279 4.54545C212.279 2.03507 214.316 -4.02027e-06 216.828 -3.91045e-06C219.341 -3.80064e-06 221.377 2.03507 221.377 4.54545Z" fill="#EAE8F4"/>
<path d="M221.377 25.7576C221.377 28.268 219.341 30.303 216.828 30.303C214.316 30.303 212.279 28.268 212.279 25.7576C212.279 23.2472 214.316 21.2121 216.828 21.2121C219.341 21.2121 221.377 23.2472 221.377 25.7576Z" fill="#EAE8F4"/>
<path d="M221.377 46.9697C221.377 49.4801 219.341 51.5151 216.828 51.5151C214.316 51.5151 212.279 49.4801 212.279 46.9697C212.279 44.4593 214.316 42.4242 216.828 42.4242C219.341 42.4242 221.377 44.4593 221.377 46.9697Z" fill="#EAE8F4"/>
<path d="M221.377 68.1818C221.377 70.6922 219.341 72.7273 216.828 72.7273C214.316 72.7273 212.279 70.6922 212.279 68.1818C212.279 65.6714 214.316 63.6364 216.828 63.6364C219.341 63.6364 221.377 65.6714 221.377 68.1818Z" fill="#EAE8F4"/>
<path d="M221.377 89.3939C221.377 91.9043 219.341 93.9394 216.828 93.9394C214.316 93.9394 212.279 91.9043 212.279 89.3939C212.279 86.8836 214.316 84.8485 216.828 84.8485C219.341 84.8485 221.377 86.8836 221.377 89.3939Z" fill="#EAE8F4"/>
<path d="M221.377 110.606C221.377 113.116 219.341 115.152 216.828 115.152C214.316 115.152 212.279 113.116 212.279 110.606C212.279 108.096 214.316 106.061 216.828 106.061C219.341 106.061 221.377 108.096 221.377 110.606Z" fill="#EAE8F4"/>
<path d="M221.377 131.818C221.377 134.329 219.341 136.364 216.828 136.364C214.316 136.364 212.279 134.329 212.279 131.818C212.279 129.308 214.316 127.273 216.828 127.273C219.341 127.273 221.377 129.308 221.377 131.818Z" fill="#EAE8F4"/>
<path d="M221.377 153.03C221.377 155.541 219.341 157.576 216.828 157.576C214.316 157.576 212.279 155.541 212.279 153.03C212.279 150.52 214.316 148.485 216.828 148.485C219.341 148.485 221.377 150.52 221.377 153.03Z" fill="#EAE8F4"/>
<path d="M221.377 174.242C221.377 176.753 219.341 178.788 216.828 178.788C214.316 178.788 212.279 176.753 212.279 174.242C212.279 171.732 214.316 169.697 216.828 169.697C219.341 169.697 221.377 171.732 221.377 174.242Z" fill="#EAE8F4"/>
<path d="M221.377 195.455C221.377 197.965 219.341 200 216.828 200C214.316 200 212.279 197.965 212.279 195.455C212.279 192.944 214.316 190.909 216.828 190.909C219.341 190.909 221.377 192.944 221.377 195.455Z" fill="#EAE8F4"/>
<path d="M242.605 4.54545C242.605 7.05584 240.569 9.09091 238.056 9.09091C235.544 9.09091 233.507 7.05584 233.507 4.54545C233.507 2.03507 235.544 -3.09236e-06 238.056 -2.98255e-06C240.569 -2.87273e-06 242.605 2.03507 242.605 4.54545Z" fill="#EAE8F4"/>
<path d="M242.605 25.7576C242.605 28.268 240.569 30.303 238.056 30.303C235.544 30.303 233.507 28.268 233.507 25.7576C233.507 23.2472 235.544 21.2121 238.056 21.2121C240.569 21.2121 242.605 23.2472 242.605 25.7576Z" fill="#EAE8F4"/>
<path d="M242.605 46.9697C242.605 49.4801 240.569 51.5151 238.056 51.5151C235.544 51.5151 233.507 49.4801 233.507 46.9697C233.507 44.4593 235.544 42.4242 238.056 42.4242C240.569 42.4242 242.605 44.4593 242.605 46.9697Z" fill="#EAE8F4"/>
<path d="M242.605 68.1818C242.605 70.6922 240.569 72.7273 238.056 72.7273C235.544 72.7273 233.507 70.6922 233.507 68.1818C233.507 65.6714 235.544 63.6364 238.056 63.6364C240.569 63.6364 242.605 65.6714 242.605 68.1818Z" fill="#EAE8F4"/>
<path d="M242.605 89.3939C242.605 91.9043 240.569 93.9394 238.056 93.9394C235.544 93.9394 233.507 91.9043 233.507 89.3939C233.507 86.8836 235.544 84.8485 238.056 84.8485C240.569 84.8485 242.605 86.8836 242.605 89.3939Z" fill="#EAE8F4"/>
<path d="M242.605 110.606C242.605 113.116 240.569 115.152 238.056 115.152C235.544 115.152 233.507 113.116 233.507 110.606C233.507 108.096 235.544 106.061 238.056 106.061C240.569 106.061 242.605 108.096 242.605 110.606Z" fill="#EAE8F4"/>
<path d="M242.605 131.818C242.605 134.329 240.569 136.364 238.056 136.364C235.544 136.364 233.507 134.329 233.507 131.818C233.507 129.308 235.544 127.273 238.056 127.273C240.569 127.273 242.605 129.308 242.605 131.818Z" fill="#EAE8F4"/>
<path d="M242.605 153.03C242.605 155.541 240.569 157.576 238.056 157.576C235.544 157.576 233.507 155.541 233.507 153.03C233.507 150.52 235.544 148.485 238.056 148.485C240.569 148.485 242.605 150.52 242.605 153.03Z" fill="#EAE8F4"/>
<path d="M242.605 174.242C242.605 176.753 240.569 178.788 238.056 178.788C235.544 178.788 233.507 176.753 233.507 174.242C233.507 171.732 235.544 169.697 238.056 169.697C240.569 169.697 242.605 171.732 242.605 174.242Z" fill="#EAE8F4"/>
<path d="M242.605 195.455C242.605 197.965 240.569 200 238.056 200C235.544 200 233.507 197.965 233.507 195.455C233.507 192.944 235.544 190.909 238.056 190.909C240.569 190.909 242.605 192.944 242.605 195.455Z" fill="#EAE8F4"/>
<path d="M263.833 4.54545C263.833 7.05584 261.797 9.09091 259.284 9.09091C256.772 9.09091 254.735 7.05584 254.735 4.54545C254.735 2.03507 256.772 -2.16446e-06 259.284 -2.05464e-06C261.797 -1.94483e-06 263.833 2.03507 263.833 4.54545Z" fill="#EAE8F4"/>
<path d="M263.833 25.7576C263.833 28.268 261.797 30.303 259.284 30.303C256.772 30.303 254.735 28.268 254.735 25.7576C254.735 23.2472 256.772 21.2121 259.284 21.2121C261.797 21.2121 263.833 23.2472 263.833 25.7576Z" fill="#EAE8F4"/>
<path d="M263.833 46.9697C263.833 49.4801 261.797 51.5152 259.284 51.5151C256.772 51.5151 254.735 49.4801 254.735 46.9697C254.735 44.4593 256.772 42.4242 259.284 42.4242C261.797 42.4242 263.833 44.4593 263.833 46.9697Z" fill="#EAE8F4"/>
<path d="M263.833 68.1818C263.833 70.6922 261.797 72.7273 259.284 72.7273C256.772 72.7273 254.735 70.6922 254.735 68.1818C254.735 65.6714 256.772 63.6364 259.284 63.6364C261.797 63.6364 263.833 65.6714 263.833 68.1818Z" fill="#EAE8F4"/>
<path d="M263.833 89.3939C263.833 91.9043 261.797 93.9394 259.284 93.9394C256.772 93.9394 254.735 91.9043 254.735 89.3939C254.735 86.8836 256.772 84.8485 259.284 84.8485C261.797 84.8485 263.833 86.8836 263.833 89.3939Z" fill="#EAE8F4"/>
<path d="M263.833 110.606C263.833 113.116 261.797 115.152 259.284 115.152C256.772 115.152 254.735 113.116 254.735 110.606C254.735 108.096 256.772 106.061 259.284 106.061C261.797 106.061 263.833 108.096 263.833 110.606Z" fill="#EAE8F4"/>
<path d="M263.833 131.818C263.833 134.329 261.797 136.364 259.284 136.364C256.772 136.364 254.735 134.329 254.735 131.818C254.735 129.308 256.772 127.273 259.284 127.273C261.797 127.273 263.833 129.308 263.833 131.818Z" fill="#EAE8F4"/>
<path d="M263.833 153.03C263.833 155.541 261.797 157.576 259.284 157.576C256.772 157.576 254.735 155.541 254.735 153.03C254.735 150.52 256.772 148.485 259.284 148.485C261.797 148.485 263.833 150.52 263.833 153.03Z" fill="#EAE8F4"/>
<path d="M263.833 174.242C263.833 176.753 261.797 178.788 259.284 178.788C256.772 178.788 254.735 176.753 254.735 174.242C254.735 171.732 256.772 169.697 259.284 169.697C261.797 169.697 263.833 171.732 263.833 174.242Z" fill="#EAE8F4"/>
<path d="M263.833 195.455C263.833 197.965 261.797 200 259.284 200C256.772 200 254.735 197.965 254.735 195.455C254.735 192.944 256.772 190.909 259.284 190.909C261.797 190.909 263.833 192.944 263.833 195.455Z" fill="#EAE8F4"/>
<path d="M285.061 4.54545C285.061 7.05584 283.024 9.09091 280.512 9.09091C278 9.09091 275.963 7.05584 275.963 4.54545C275.963 2.03507 278 -1.23656e-06 280.512 -1.12674e-06C283.024 -1.01693e-06 285.061 2.03507 285.061 4.54545Z" fill="#EAE8F4"/>
<path d="M285.061 25.7576C285.061 28.268 283.024 30.303 280.512 30.303C278 30.303 275.963 28.268 275.963 25.7576C275.963 23.2472 278 21.2121 280.512 21.2121C283.024 21.2121 285.061 23.2472 285.061 25.7576Z" fill="#EAE8F4"/>
<path d="M285.061 46.9697C285.061 49.4801 283.024 51.5152 280.512 51.5152C278 51.5152 275.963 49.4801 275.963 46.9697C275.963 44.4593 278 42.4242 280.512 42.4242C283.024 42.4242 285.061 44.4593 285.061 46.9697Z" fill="#EAE8F4"/>
<path d="M285.061 68.1818C285.061 70.6922 283.024 72.7273 280.512 72.7273C278 72.7273 275.963 70.6922 275.963 68.1818C275.963 65.6714 278 63.6364 280.512 63.6364C283.024 63.6364 285.061 65.6714 285.061 68.1818Z" fill="#EAE8F4"/>
<path d="M285.061 89.3939C285.061 91.9043 283.024 93.9394 280.512 93.9394C278 93.9394 275.963 91.9043 275.963 89.3939C275.963 86.8836 278 84.8485 280.512 84.8485C283.024 84.8485 285.061 86.8836 285.061 89.3939Z" fill="#EAE8F4"/>
<path d="M285.061 110.606C285.061 113.116 283.024 115.152 280.512 115.152C278 115.152 275.963 113.116 275.963 110.606C275.963 108.096 278 106.061 280.512 106.061C283.024 106.061 285.061 108.096 285.061 110.606Z" fill="#EAE8F4"/>
<path d="M285.061 131.818C285.061 134.329 283.024 136.364 280.512 136.364C278 136.364 275.963 134.329 275.963 131.818C275.963 129.308 278 127.273 280.512 127.273C283.024 127.273 285.061 129.308 285.061 131.818Z" fill="#EAE8F4"/>
<path d="M285.061 153.03C285.061 155.541 283.024 157.576 280.512 157.576C278 157.576 275.963 155.541 275.963 153.03C275.963 150.52 278 148.485 280.512 148.485C283.024 148.485 285.061 150.52 285.061 153.03Z" fill="#EAE8F4"/>
<path d="M285.061 174.242C285.061 176.753 283.024 178.788 280.512 178.788C278 178.788 275.963 176.753 275.963 174.242C275.963 171.732 278 169.697 280.512 169.697C283.024 169.697 285.061 171.732 285.061 174.242Z" fill="#EAE8F4"/>
<path d="M285.061 195.455C285.061 197.965 283.024 200 280.512 200C278 200 275.963 197.965 275.963 195.455C275.963 192.944 278 190.909 280.512 190.909C283.024 190.909 285.061 192.944 285.061 195.455Z" fill="#EAE8F4"/>
<path d="M306.289 4.54545C306.289 7.05584 304.252 9.09091 301.74 9.09091C299.228 9.09091 297.191 7.05584 297.191 4.54545C297.191 2.03507 299.228 -3.08651e-07 301.74 -1.98837e-07C304.252 -8.90222e-08 306.289 2.03507 306.289 4.54545Z" fill="#EAE8F4"/>
<path d="M306.289 25.7576C306.289 28.268 304.252 30.303 301.74 30.303C299.228 30.303 297.191 28.268 297.191 25.7576C297.191 23.2472 299.228 21.2121 301.74 21.2121C304.252 21.2121 306.289 23.2472 306.289 25.7576Z" fill="#EAE8F4"/>
<path d="M306.289 46.9697C306.289 49.4801 304.252 51.5152 301.74 51.5152C299.228 51.5152 297.191 49.4801 297.191 46.9697C297.191 44.4593 299.228 42.4242 301.74 42.4242C304.252 42.4242 306.289 44.4593 306.289 46.9697Z" fill="#EAE8F4"/>
<path d="M306.289 68.1818C306.289 70.6922 304.252 72.7273 301.74 72.7273C299.228 72.7273 297.191 70.6922 297.191 68.1818C297.191 65.6714 299.228 63.6364 301.74 63.6364C304.252 63.6364 306.289 65.6714 306.289 68.1818Z" fill="#EAE8F4"/>
<path d="M306.289 89.3939C306.289 91.9043 304.252 93.9394 301.74 93.9394C299.228 93.9394 297.191 91.9043 297.191 89.3939C297.191 86.8836 299.228 84.8485 301.74 84.8485C304.252 84.8485 306.289 86.8836 306.289 89.3939Z" fill="#EAE8F4"/>
<path d="M306.289 110.606C306.289 113.116 304.252 115.152 301.74 115.152C299.228 115.152 297.191 113.116 297.191 110.606C297.191 108.096 299.228 106.061 301.74 106.061C304.252 106.061 306.289 108.096 306.289 110.606Z" fill="#EAE8F4"/>
<path d="M306.289 131.818C306.289 134.329 304.252 136.364 301.74 136.364C299.228 136.364 297.191 134.329 297.191 131.818C297.191 129.308 299.228 127.273 301.74 127.273C304.252 127.273 306.289 129.308 306.289 131.818Z" fill="#EAE8F4"/>
<path d="M306.289 153.03C306.289 155.541 304.252 157.576 301.74 157.576C299.228 157.576 297.191 155.541 297.191 153.03C297.191 150.52 299.228 148.485 301.74 148.485C304.252 148.485 306.289 150.52 306.289 153.03Z" fill="#EAE8F4"/>
<path d="M306.289 174.242C306.289 176.753 304.252 178.788 301.74 178.788C299.228 178.788 297.191 176.753 297.191 174.242C297.191 171.732 299.228 169.697 301.74 169.697C304.252 169.697 306.289 171.732 306.289 174.242Z" fill="#EAE8F4"/>
<path d="M306.289 195.455C306.289 197.965 304.252 200 301.74 200C299.228 200 297.191 197.965 297.191 195.455C297.191 192.944 299.228 190.909 301.74 190.909C304.252 190.909 306.289 192.944 306.289 195.455Z" fill="#EAE8F4"/>
</svg>
