<svg width="24" height="24" viewBox="0 0 24 24" fill="none" xmlns="http://www.w3.org/2000/svg">
<path d="M2 6.75C2 5.784 2.784 5 3.75 5H17.25C18.216 5 19 5.784 19 6.75V15.25C19 15.7141 18.8156 16.1592 18.4874 16.4874C18.1592 16.8156 17.7141 17 17.25 17H3.75C3.28587 17 2.84075 16.8156 2.51256 16.4874C2.18437 16.1592 2 15.7141 2 15.25V6.75ZM5 6.25V7.25C5 7.44891 4.92098 7.63968 4.78033 7.78033C4.63968 7.92098 4.44891 8 4.25 8H3.25V9.5H4.25C4.54547 9.5 4.83806 9.4418 5.11104 9.32873C5.38402 9.21566 5.63206 9.04992 5.84099 8.84099C6.04992 8.63206 6.21566 8.38402 6.32873 8.11104C6.4418 7.83805 6.5 7.54547 6.5 7.25V6.25H5ZM10.5 13.5C11.0967 13.5 11.669 13.2629 12.091 12.841C12.5129 12.419 12.75 11.8467 12.75 11.25C12.75 10.6533 12.5129 10.081 12.091 9.65901C11.669 9.23705 11.0967 9 10.5 9C9.90326 9 9.33097 9.23705 8.90901 9.65901C8.48705 10.081 8.25 10.6533 8.25 11.25C8.25 11.8467 8.48705 12.419 8.90901 12.841C9.33097 13.2629 9.90326 13.5 10.5 13.5ZM3.25 14H4.25C4.44891 14 4.63968 14.079 4.78033 14.2197C4.92098 14.3603 5 14.5511 5 14.75V15.75H6.5V14.75C6.5 14.1533 6.26295 13.581 5.84099 13.159C5.41903 12.7371 4.84674 12.5 4.25 12.5H3.25V14ZM16 14.75C16 14.5511 16.079 14.3603 16.2197 14.2197C16.3603 14.079 16.5511 14 16.75 14H17.75V12.5H16.75C16.1533 12.5 15.581 12.7371 15.159 13.159C14.7371 13.581 14.5 14.1533 14.5 14.75V15.75H16V14.75ZM16 7.25V6.25H14.5V7.25C14.5 7.54547 14.5582 7.83805 14.6713 8.11104C14.7843 8.38402 14.9501 8.63206 15.159 8.84099C15.581 9.26295 16.1533 9.5 16.75 9.5H17.75V8H16.75C16.5511 8 16.3603 7.92098 16.2197 7.78033C16.079 7.63968 16 7.44891 16 7.25ZM4.401 18.5C4.66438 18.9562 5.04324 19.335 5.49948 19.5983C5.95571 19.8616 6.47323 20.0002 7 20H17.25C17.8738 20 18.4915 19.8771 19.0677 19.6384C19.644 19.3997 20.1677 19.0498 20.6088 18.6088C21.0498 18.1677 21.3997 17.644 21.6384 17.0677C21.8771 16.4915 22 15.8738 22 15.25V10C22.0002 9.47323 21.8616 8.95571 21.5983 8.49948C21.335 8.04324 20.9562 7.66438 20.5 7.401V15.25C20.5 16.112 20.1576 16.9386 19.5481 17.5481C18.9386 18.1576 18.112 18.5 17.25 18.5H4.401Z" fill="#2B277F"/>
</svg>
