<svg width="11" height="11" viewBox="0 0 11 11" fill="none" xmlns="http://www.w3.org/2000/svg">
<path d="M9.30032 0.157011C9.09096 -0.0523371 8.75741 -0.0523371 8.54806 0.157011L4.50645 4.19828C4.44258 4.25861 4.4 4.33666 4.37161 4.42181L3.71161 6.62519C3.65483 6.81325 3.70806 7.01547 3.84645 7.15385C3.9458 7.25676 4.08419 7.30997 4.22258 7.30997C4.27224 7.30997 4.32548 7.30286 4.37516 7.28868L6.57869 6.62873C6.66387 6.60034 6.74192 6.55777 6.80224 6.49391L10.8439 2.45262C10.9432 2.35328 11 2.21846 11 2.07652C11 1.93462 10.9432 1.79978 10.8439 1.70043L9.30032 0.157011Z" fill="#6E6996"/>
<path d="M10.4677 4.96824C10.1737 4.96824 9.93548 5.20662 9.93548 5.50045V9.04855C9.93548 9.5378 9.5375 9.93557 9.04839 9.93557H1.95161C1.4625 9.93557 1.06452 9.5378 1.06452 9.04855V1.95235C1.06452 1.4631 1.4625 1.06533 1.95161 1.06533H5.5C5.79402 1.06533 6.03226 0.826938 6.03226 0.533113C6.03226 0.239288 5.79402 0.000898713 5.5 0.000898713H1.95161C0.87549 0.000898713 0 0.876488 0 1.95235V9.04855C0 10.1244 0.87549 11 1.95161 11H9.04839C10.1245 11 11 10.1244 11 9.04855V5.50045C11 5.20662 10.7618 4.96824 10.4677 4.96824Z" fill="#6E6996"/>
</svg>
