<svg width="14" height="14" viewBox="0 0 14 14" fill="none" xmlns="http://www.w3.org/2000/svg">
<path fill-rule="evenodd" clip-rule="evenodd" d="M13.6663 6.99999C13.6663 3.31799 10.6817 0.333328 6.99967 0.333328C3.31767 0.333328 0.333008 3.31799 0.333008 6.99999C0.333008 10.682 3.31767 13.6667 6.99967 13.6667C10.6817 13.6667 13.6663 10.682 13.6663 6.99999ZM6.99967 3.66666C7.17649 3.66666 7.34605 3.7369 7.47108 3.86192C7.5961 3.98695 7.66634 4.15652 7.66634 4.33333V7.66666C7.66634 7.84347 7.5961 8.01304 7.47108 8.13807C7.34605 8.26309 7.17649 8.33333 6.99967 8.33333C6.82286 8.33333 6.65329 8.26309 6.52827 8.13807C6.40325 8.01304 6.33301 7.84347 6.33301 7.66666V4.33333C6.33301 4.15652 6.40325 3.98695 6.52827 3.86192C6.65329 3.7369 6.82286 3.66666 6.99967 3.66666ZM6.33301 9.66666C6.33301 9.48985 6.40325 9.32028 6.52827 9.19526C6.65329 9.07023 6.82286 8.99999 6.99967 8.99999H7.00501C7.18182 8.99999 7.35139 9.07023 7.47641 9.19526C7.60144 9.32028 7.67167 9.48985 7.67167 9.66666C7.67167 9.84347 7.60144 10.013 7.47641 10.1381C7.35139 10.2631 7.18182 10.3333 7.00501 10.3333H6.99967C6.82286 10.3333 6.65329 10.2631 6.52827 10.1381C6.40325 10.013 6.33301 9.84347 6.33301 9.66666Z" fill="#2B277F"/>
</svg>
