<svg width="14" height="14" viewBox="0 0 14 14" fill="none" xmlns="http://www.w3.org/2000/svg">
<path d="M7 14C10.866 14 14 10.866 14 7C14 3.13401 10.866 0 7 0C3.13401 0 0 3.13401 0 7C0 10.866 3.13401 14 7 14Z" fill="#6DCEA0"/>
<path fill-rule="evenodd" clip-rule="evenodd" d="M10.0157 4.37512C9.78996 4.3716 9.56969 4.44458 9.39069 4.58215L5.81171 7.25415L4.77668 6.01617C4.69386 5.9114 4.59092 5.82428 4.47388 5.75995C4.35684 5.69562 4.22806 5.65536 4.09522 5.6416C3.96238 5.62784 3.82813 5.64084 3.70038 5.67981C3.57264 5.71878 3.45405 5.78296 3.35151 5.86853C3.24897 5.9541 3.1646 6.05933 3.1034 6.17804C3.0422 6.29675 3.00535 6.42653 2.99512 6.55969C2.98489 6.69285 3.00148 6.82671 3.04383 6.95337C3.08617 7.08003 3.15344 7.19689 3.2417 7.29712L4.88471 9.26416C5.04869 9.46022 5.28149 9.58603 5.53534 9.61578C5.7892 9.64554 6.04483 9.57696 6.2497 9.42413L10.5877 6.18616C10.7579 6.06297 10.885 5.88927 10.9509 5.68976C11.0169 5.49025 11.0183 5.27506 10.955 5.07471C10.8916 4.87436 10.7668 4.69907 10.5982 4.57367C10.4296 4.44827 10.2258 4.37916 10.0157 4.37616V4.37512Z" fill="white"/>
</svg>
