<svg width="28" height="26" viewBox="0 0 28 26" fill="none" xmlns="http://www.w3.org/2000/svg">
<path d="M9.81111 12.2167C6.62364 8.12865 3.49541 4.11172 0.367188 0.0947948C0.379037 0.0592468 0.402736 0.035548 0.414585 0C4.51446 0.497672 8.60248 0.983496 12.7616 1.48117C11.7781 5.07152 10.8183 8.59078 9.81111 12.2167Z" fill="#D41D54"/>
<path d="M10.3125 12.3114C11.3078 8.721 12.2795 5.1662 13.2867 1.5166C16.332 5.77052 19.318 9.92964 22.2922 14.1006C22.2803 14.1362 22.2566 14.1599 22.2448 14.1954C18.299 13.5674 14.3413 12.9512 10.3125 12.3114Z" fill="#E1136E"/>
<path d="M10.3359 12.833C14.1988 13.4492 17.9788 14.0535 21.7587 14.6578C21.7706 14.6934 21.7706 14.7289 21.7824 14.7763C18.512 16.4115 15.2416 18.0586 11.9119 19.7293C11.3905 17.4306 10.881 15.1792 10.3359 12.833Z" fill="#D41D54"/>
<path d="M6.07031 25.902C7.30264 21.577 8.52313 17.2401 9.77916 12.8203C9.85025 12.9744 9.89765 13.0455 9.9095 13.1165C10.502 15.7589 11.0826 18.4014 11.6751 21.0438C11.7343 21.3044 11.6751 21.4585 11.4618 21.6362C9.76731 22.9989 8.0847 24.3853 6.40209 25.7598C6.31915 25.819 6.2362 25.8783 6.15326 25.9375C6.11771 25.9257 6.09401 25.9138 6.07031 25.902Z" fill="#9E1C3B"/>
<path d="M19.2344 9.07621C21.2251 8.72073 23.1447 8.36525 25.159 8.00977C24.4007 10.0834 23.666 12.0741 22.8958 14.1714C21.6635 12.4533 20.4786 10.8062 19.2344 9.07621Z" fill="#D41D54"/>
<path d="M13.4844 19.4687C16.4349 17.9638 19.3853 16.459 22.3358 14.9541C22.3595 14.9778 22.3832 14.9896 22.4069 15.0133C22.3003 15.3451 22.1936 15.6888 22.0633 16.0205C22.0396 16.0916 21.933 16.1509 21.85 16.1864C19.101 17.3003 16.3401 18.4023 13.591 19.5161C13.5673 19.5279 13.5436 19.5279 13.5199 19.5279C13.5081 19.5043 13.4962 19.4924 13.4844 19.4687Z" fill="#E1136E"/>
<path d="M27.962 10.5928C26.8837 10.5928 25.8054 10.5928 24.6797 10.5928C24.9878 9.75148 25.284 8.93388 25.5565 8.19922C26.3741 8.96943 27.1799 9.72778 27.9975 10.498C27.9857 10.5217 27.9738 10.5572 27.962 10.5928Z" fill="#E1136E"/>
<path d="M5.03597 6.99108C3.35336 5.40326 1.68261 3.81545 0 2.22764C0.0118493 2.19209 0.0236987 2.16839 0.035548 2.13285C0.462124 2.13285 0.888701 2.121 1.31528 2.14469C1.38637 2.14469 1.45747 2.22764 1.50487 2.28689C2.6898 3.8036 3.86289 5.32032 5.04782 6.83704C5.07152 6.87258 5.08337 6.91998 5.10707 6.95553C5.07152 6.95553 5.04782 6.96738 5.03597 6.99108Z" fill="#9E1C3B"/>
</svg>
