<svg width="28" height="28" viewBox="0 0 28 28" fill="none" xmlns="http://www.w3.org/2000/svg">
<path d="M25.4274 14.5399C25.4274 14.9189 25.4274 15.2405 25.37 15.562C25.2666 17.0666 24.8876 18.4677 24.2904 19.7655C24.0722 20.3053 23.808 20.7876 23.4865 21.27C21.2239 24.8303 17.2387 27.1962 12.7137 27.1962C10.7728 27.1962 8.94668 26.7597 7.32732 26.0132C3.02051 24.0149 0 19.6047 0 14.5399C0 9.53251 2.90566 5.2257 7.05168 3.16992C6.7301 3.60635 6.40853 4.03128 6.13289 4.51365C6.13289 4.57107 6.07546 4.57107 6.07546 4.61701C5.91468 4.7778 5.75389 4.88116 5.5931 5.05343C5.37489 5.21422 5.21412 5.43243 4.9959 5.59322C4.93848 5.65064 4.89253 5.69658 4.89253 5.69658C4.8351 5.75401 4.78917 5.79995 4.78917 5.79995C4.73174 5.85737 4.6858 5.96073 4.57095 6.01816C4.46759 6.17894 4.3068 6.33973 4.19195 6.50052C3.65217 7.20109 3.22724 7.95909 2.89418 8.76303C2.83676 8.82045 2.83674 8.92382 2.7908 8.98124C2.73338 9.08461 2.73338 9.19945 2.68744 9.24539C2.68744 9.30282 2.63002 9.34875 2.63002 9.40618C2.57259 9.56697 2.52665 9.67033 2.46923 9.8426C2.41181 9.94597 2.41181 10.0608 2.36587 10.1068C2.36587 10.1642 2.30844 10.2101 2.30844 10.2675C2.30844 10.3709 2.25102 10.4858 2.25102 10.5891C2.19359 10.9107 2.14765 11.2323 2.09023 11.5538C2.09023 11.6572 2.09024 11.7146 2.03282 11.818C2.03282 11.8754 2.03282 11.9214 2.03282 12.0362C2.03282 12.1396 2.03282 12.2544 2.03282 12.3004C2.03282 12.4037 2.03282 12.5186 2.03282 12.6219C2.03282 12.7827 2.03282 12.9435 2.03282 13.1043C2.03282 16.5497 3.59475 19.6736 6.12141 21.672C8.06235 23.2339 10.4856 24.1986 13.1271 24.1986C15.5504 24.1986 17.7555 23.4406 19.5931 22.0969C20.9368 21.1322 22.0164 19.8918 22.8203 18.4332C22.9237 18.215 23.0385 18.0542 23.1419 17.836C23.7851 16.4923 24.1641 15.0337 24.1641 13.4718C24.1641 13.3684 24.1641 13.2536 24.1641 13.0928C24.1641 12.7138 24.1641 12.3922 24.1066 12.0132L24.1641 12.0707C24.3248 12.2314 24.4856 12.3348 24.6464 12.5071C24.8072 12.2429 24.968 12.0247 25.1288 11.7491C25.2322 12.2314 25.2896 12.7138 25.347 13.2536C25.4274 13.7934 25.4274 14.1724 25.4274 14.5399Z" fill="#B4B4CD"/>
<path d="M14.2307 4.36423L11.8533 0C7.92548 1.78015 5.22656 5.70796 5.22656 10.2904C5.22656 12.6103 5.92714 14.758 7.11007 16.5381C7.00671 15.9409 7.00671 15.3552 7.00671 14.7121C7.06414 10.0148 10.0272 6.02953 14.2307 4.36423Z" fill="#B4B4CD"/>
<path d="M16.1149 6.52329C17.0796 6.25913 18.1592 6.14429 19.1813 6.14429C19.8245 6.14429 20.5251 6.20171 21.1223 6.30507L21.0649 4.36414L20.9615 0.48227C20.5251 0.424846 20.0427 0.378906 19.5604 0.378906C17.4012 0.378906 15.4143 1.07948 13.795 2.20499L15.0928 4.57087C12.7728 5.3748 10.8893 6.99416 9.70637 9.09589C9.10916 10.118 8.68422 11.301 8.52344 12.5413C8.84501 11.8982 9.22401 11.301 9.64895 10.7612C11.2109 8.72837 13.4734 7.16644 16.1149 6.52329Z" fill="#B4B4CD"/>
<path d="M21.7635 4.30664L21.8669 7.05151C20.9481 6.78736 20.0408 6.61509 19.0072 6.61509C17.1237 6.61509 15.3435 7.15488 13.7816 8.07366C11.8406 9.2566 10.3361 11.1401 9.57812 13.3567C10.3361 12.3345 11.2434 11.4157 12.323 10.7152C13.8849 9.69302 15.7684 9.09581 17.7668 9.09581C19.2713 9.09581 20.6725 9.41739 21.9703 10.0146C22.935 10.451 23.7963 11.0367 24.5543 11.7947L26.0588 9.53223L27.9998 6.56915C26.2885 5.168 24.1409 4.30664 21.7635 4.30664Z" fill="#B4B4CD"/>
<path d="M24.1859 13.2531C24.1859 13.3565 24.1859 13.4714 24.1859 13.6321C24.1859 15.8947 23.2672 17.7782 23.1638 17.9964C23.0604 18.2146 22.9456 18.3754 22.8422 18.5936C22.0383 20.0522 20.9587 21.2925 19.615 22.2572C17.7889 23.555 15.5723 24.359 13.149 24.359C10.5075 24.359 8.02681 23.4402 6.1433 21.8323C3.66258 19.788 2.05469 16.7101 2.05469 13.2646C2.05469 13.1038 2.05469 12.9431 2.05469 12.7823C2.05469 12.6789 2.05469 12.5641 2.05469 12.4607C2.05469 12.3573 2.05469 12.2425 2.05469 12.1965C2.05469 12.1391 2.05469 12.0932 2.05469 11.9783C2.05469 11.875 2.05469 11.8175 2.11212 11.7142C2.16954 11.3926 2.21548 11.071 2.2729 10.7495C2.2729 10.6461 2.33033 10.5312 2.33033 10.4279C2.33033 10.3705 2.38776 10.3245 2.38776 10.2671C2.44518 10.1637 2.44518 10.0489 2.49112 10.0029C2.54854 9.84215 2.59448 9.68136 2.6519 9.56651C2.6519 9.50909 2.70933 9.46315 2.70933 9.40573C2.76675 9.30236 2.76675 9.18752 2.81269 9.14158C2.87011 9.08415 2.87011 8.98079 2.91605 8.92336C3.23762 8.11943 3.71999 7.36143 4.21384 6.66085C4.3172 6.50007 4.47799 6.33928 4.59284 6.17849C4.65026 6.12107 4.69621 6.0177 4.81106 5.96028C4.86848 5.90286 4.86848 5.85692 4.91441 5.85692C4.97184 5.79949 4.97183 5.75355 5.01777 5.75355C5.17856 5.53534 5.39678 5.37455 5.61499 5.21377C5.77578 5.05298 5.93656 4.94962 6.09735 4.77734C6.09735 4.83477 6.03992 4.83477 6.03992 4.88071C6.03992 4.92665 5.98249 4.98407 5.98249 4.98407C5.33934 6.28186 4.90294 7.84379 4.74215 9.45167C4.68473 9.88809 4.68472 10.313 4.68472 10.7954C4.68472 16.6182 8.07274 21.304 12.2762 21.304H12.3336C12.437 21.304 12.5978 21.304 12.7126 21.304C13.3098 21.304 13.8955 21.2006 14.4928 21.0858C17.3525 20.3278 19.4542 17.6978 19.4542 14.6198C19.4542 14.5624 19.4542 14.5165 19.4542 14.459C19.3968 12.633 18.6503 10.9562 17.4099 9.83067C18.2713 9.83067 19.1326 9.99145 19.9366 10.2097C21.4985 10.5887 22.8997 11.3352 24.14 12.3114L24.1974 12.3688C24.14 12.5526 24.1859 12.9316 24.1859 13.2531Z" fill="#B4B4CD"/>
<path d="M24.1854 13.2546C24.1854 13.3579 24.1854 13.5187 24.1854 13.6336C24.1854 15.9994 23.1058 18.0552 23.1058 18.0552C23.0025 18.2734 22.8876 18.4342 22.7842 18.6524C21.9803 20.111 20.8433 21.3514 19.4996 22.3161C17.6161 23.7172 15.3536 24.4178 12.9762 24.4178C10.3921 24.4178 7.91141 23.499 5.92453 21.8911C3.34045 19.7894 1.83594 16.6081 1.83594 13.2775C1.83594 9.94693 3.34045 6.75415 5.92453 4.66391L6.02789 4.56055C6.02789 4.61797 5.97046 4.61797 5.97046 4.66391C5.97046 4.72133 5.91304 4.72133 5.91304 4.76727C3.38637 6.869 1.9278 9.93544 1.9278 13.2775C1.9278 16.6196 3.38638 19.6861 5.97046 21.8452C7.9114 23.4646 10.4381 24.3259 12.9762 24.3259C15.2961 24.3259 17.5586 23.6253 19.4422 22.2242C20.7859 21.2595 21.8655 20.0191 22.6694 18.5605C22.7728 18.3423 22.8876 18.1815 22.9335 17.9633C22.9335 17.9633 24.0131 15.965 24.0131 13.5991C24.0131 13.4957 24.0131 13.3349 24.0131 13.2201C24.0131 12.8411 24.0131 12.5195 23.9557 12.1405V12.0831L24.0131 12.1405L24.0705 12.198C24.1854 12.6114 24.1854 12.933 24.1854 13.2546Z" fill="#B4B4CD"/>
</svg>
