<svg width="30" height="19" viewBox="0 0 30 19" fill="none" xmlns="http://www.w3.org/2000/svg">
<path fill-rule="evenodd" clip-rule="evenodd" d="M22.309 2.44524L17.8725 6.88175L18.182 9.36826L19.0074 7.65556L21.5352 10.8849L25.0741 0L13.2812 4.9008L16.4693 6.57223L22.309 2.44524Z" fill="#B4B4CD"/>
<path d="M18.4563 10.2246C18.4563 10.2246 14.7007 10.2246 13.7928 10.2246C10.2333 10.7714 9.86183 15.9405 13.7515 16.6421H18.4563V11.9786C20.0245 12.0302 20.3444 13.9905 19.1991 14.7024C19.4364 14.9706 20.365 15.9818 20.365 15.9818C22.8103 13.8667 21.4071 10.3897 18.4563 10.2246ZM16.7436 14.8984C16.7436 14.8984 14.3293 14.8984 14.1333 14.8984C12.5237 14.9913 11.9976 12.3294 13.9785 11.9786C14.5666 11.9786 16.7436 11.9786 16.7436 11.9786V14.8984Z" fill="#B4B4CD"/>
<path fill-rule="evenodd" clip-rule="evenodd" d="M28.2206 12.5564C27.4468 12.5564 26.5079 12.5564 26.5079 12.5564L25.765 14.2691C25.765 14.2691 27.746 14.2691 27.942 14.2691C28.3754 14.2485 28.396 14.8881 27.942 14.9294C27.3746 14.9294 24.1658 14.9294 24.1658 14.9294V11.9683H29.9642V10.2143C29.9642 10.2143 29.1595 10.2143 29.1079 10.2143C28.85 6.5929 24.5269 6.48972 23.392 8.46036C23.619 8.64607 24.6714 9.58496 24.6714 9.58496C25.3214 8.56353 27.1269 8.61512 27.3952 10.204H22.4531V16.6215H28.0143C29.2833 16.6008 29.8611 15.6723 29.9952 14.8675C30.0881 13.6088 29.3142 12.7524 28.2206 12.5564Z" fill="#B4B4CD"/>
<path fill-rule="evenodd" clip-rule="evenodd" d="M11.5689 10.2246H9.30939C8.58716 11.1016 7.34906 14.6405 9.81493 17.3024C9.81493 17.3024 10.8879 16.3841 11.0943 16.2087C10.3514 15.4762 9.0824 12.4635 11.5689 10.2246Z" fill="#B4B4CD"/>
<path fill-rule="evenodd" clip-rule="evenodd" d="M5.82701 17.3647C5.82701 18.1488 5.19765 18.7782 4.41352 18.7782C3.62939 18.7782 3 18.1488 3 17.3647C3 16.5805 3.62939 15.9512 4.41352 15.9512C5.18733 15.9512 5.82701 16.5909 5.82701 17.3647Z" fill="#B4B4CD"/>
<path fill-rule="evenodd" clip-rule="evenodd" d="M2.81624 10.2246C-0.743292 10.7714 -1.11473 15.9405 2.77496 16.6421H2.80591C3.08448 16.0333 3.69324 15.6 4.41546 15.6C5.12737 15.6 5.74641 16.023 6.02498 16.6421H7.49005C7.49005 16.4254 7.49005 10.2246 7.49005 10.2246C7.49005 10.2246 3.73449 10.2246 2.81624 10.2246ZM5.77734 14.8984C5.77734 14.8984 3.36306 14.8984 3.16703 14.8984C1.5575 14.9913 1.03132 12.3294 3.01227 11.9786C3.60037 11.9786 5.77734 11.9786 5.77734 11.9786V14.8984Z" fill="#B4B4CD"/>
<path fill-rule="evenodd" clip-rule="evenodd" d="M4.48982 8.70722C5.0676 8.61437 5.34618 7.43818 4.40729 7.16992C4.30412 7.16992 2.89062 7.16992 2.89062 7.16992V9.40881H3.50968V8.70722L4.21126 9.40881H5.1811L4.48982 8.70722ZM4.41762 7.91278C4.41762 7.99532 4.3557 8.05722 4.27316 8.05722H3.5303V7.75802H4.27316C4.3557 7.75802 4.41762 7.81992 4.41762 7.90246V7.91278Z" fill="#B4B4CD"/>
<path fill-rule="evenodd" clip-rule="evenodd" d="M6.27555 7.14062C5.64619 7.14062 5.14062 7.64618 5.14062 8.27555C5.14062 8.90491 5.64619 9.41047 6.27555 9.41047C6.90492 9.41047 7.41048 8.90491 7.41048 8.27555C7.41048 7.64618 6.90492 7.14062 6.27555 7.14062ZM6.27555 8.77079C5.99698 8.77079 5.7803 8.5438 5.7803 8.27555C5.7803 8.00729 6.0073 7.78031 6.27555 7.78031C6.54381 7.78031 6.7708 8.00729 6.7708 8.27555C6.7708 8.5438 6.55412 8.77079 6.27555 8.77079Z" fill="#B4B4CD"/>
<path fill-rule="evenodd" clip-rule="evenodd" d="M12.7058 7.77946H13.7273V7.11914H12.8606C12.1796 7.11914 11.6328 7.63501 11.6328 8.25406C11.6328 8.88343 12.19 9.38898 12.8606 9.38898H13.7273V8.72867H12.7058C12.5614 8.72867 12.4273 8.65644 12.3344 8.54295H13.7169V7.96517H12.3344C12.4273 7.85168 12.5614 7.77946 12.7058 7.77946Z" fill="#B4B4CD"/>
<path fill-rule="evenodd" clip-rule="evenodd" d="M8.65585 8.73898C8.39791 8.73898 8.19155 8.53263 8.19155 8.2747V8.24374C8.19155 7.98581 8.39791 7.77946 8.65585 7.77946H9.62569V7.11914H8.75903C8.07808 7.11914 7.53125 7.63501 7.53125 8.25406C7.53125 8.88343 8.0884 9.38898 8.75903 9.38898H9.62569V8.72867H8.65585V8.73898Z" fill="#B4B4CD"/>
<path fill-rule="evenodd" clip-rule="evenodd" d="M16.0858 7.16992H13.8984V7.75802H14.7032V9.35723H15.2913V7.75802H16.0858V7.16992Z" fill="#B4B4CD"/>
<path d="M10.8655 8.25326L11.9488 7.16992H11.0718L10.4631 7.77865V7.16992H9.875V9.35723H10.4631V8.72786L11.0925 9.35723H11.9591L10.8655 8.25326Z" fill="#B4B4CD"/>
<path d="M19.7059 17.7373C19.613 17.758 19.5201 17.8199 19.4479 17.9231C19.3757 18.0159 19.3447 18.1191 19.3447 18.2223C19.3447 18.2842 19.3551 18.3461 19.386 18.3977C19.417 18.4699 19.4582 18.5008 19.5098 18.5008C19.5408 18.5008 19.5717 18.4905 19.613 18.4596L19.6749 18.6246C19.6233 18.6556 19.5614 18.6762 19.5098 18.6762C19.4376 18.6762 19.3757 18.6453 19.3035 18.5937C19.2622 18.5627 19.2313 18.5008 19.2003 18.4183C19.1797 18.377 19.1797 18.3151 19.1797 18.2326V18.1707C19.1797 18.0366 19.2519 17.8921 19.3963 17.7167C19.4273 17.6858 19.4789 17.6342 19.5511 17.5723H19.7678V17.7373C19.7368 17.727 19.7162 17.7373 19.7059 17.7373Z" fill="#B4B4CD"/>
<path d="M20.6877 17.7256V18.6542H20.502V18.5304C20.502 18.4891 20.471 18.4375 20.4091 18.3756C20.3576 18.324 20.3163 18.2828 20.2647 18.2518C20.2028 18.2105 20.1409 18.1899 20.079 18.1899C20.0067 18.1899 19.9552 18.2209 19.9242 18.2828C19.9242 18.2931 19.9139 18.2931 19.9139 18.3034C19.9139 18.324 19.9242 18.355 19.9448 18.3653C19.9655 18.3859 19.9964 18.3963 20.0171 18.3963C20.0377 18.3963 20.079 18.3859 20.1615 18.355L20.2131 18.5201C20.1306 18.5613 20.0583 18.582 20.0067 18.582C19.9448 18.582 19.8932 18.5613 19.8417 18.5304C19.7901 18.4994 19.7488 18.4478 19.7282 18.3963C19.7179 18.3756 19.7075 18.3447 19.7075 18.3034C19.7075 18.2002 19.7488 18.1177 19.8417 18.0661C19.9036 18.0248 19.9655 18.0042 20.0377 18.0042C20.048 18.0042 20.048 18.0042 20.0583 18.0042C20.0583 17.9732 20.0377 17.932 20.0067 17.8907C19.9758 17.8494 19.9448 17.8288 19.9139 17.8288H19.7075V17.7153H19.625V17.5605H20.8115V17.7256H20.6877ZM20.502 17.7256H20.0686C20.1925 17.8082 20.2544 17.9113 20.2647 18.0351C20.3472 18.0661 20.4194 18.128 20.5123 18.2209V17.7256H20.502Z" fill="#B4B4CD"/>
<path d="M21.0464 17.7256V18.6542H20.8607V17.7256H20.7266V17.5605H21.1702V17.7256H21.0464Z" fill="#B4B4CD"/>
<path d="M21.9373 17.7256H21.1016V17.5605H22.2571V17.7256H22.1333V18.6542H21.9682C21.9476 18.6026 21.8754 18.5304 21.7309 18.4375C21.669 18.3963 21.5865 18.355 21.4833 18.3137C21.3698 18.2725 21.2873 18.2518 21.2151 18.2518L21.1635 18.0661C21.2047 18.0352 21.3286 17.9732 21.5246 17.8907C21.6071 17.8494 21.7516 17.7978 21.9373 17.7256ZM21.9476 17.932C21.9167 17.9423 21.8754 17.9526 21.8341 17.9732C21.7722 17.9939 21.669 18.0455 21.5143 18.1074L21.4833 18.1177C21.6277 18.1693 21.7722 18.2415 21.9063 18.3447C21.927 18.355 21.9373 18.3653 21.9476 18.3756V17.932Z" fill="#B4B4CD"/>
<path d="M22.4917 17.7256V18.6542H22.306V17.7256H22.1719V17.5605H22.6155V17.7256H22.4917Z" fill="#B4B4CD"/>
<path d="M22.5391 17.7263V17.5612H23.0859C23.0859 17.5509 23.0859 17.5509 23.0859 17.5509C23.0859 17.4683 23.0446 17.4064 22.9621 17.3858C22.9518 17.3858 22.9414 17.3858 22.9311 17.3858C22.9105 17.3858 22.8899 17.3858 22.8589 17.3961C22.8176 17.4064 22.797 17.4167 22.7867 17.4167C22.7558 17.4271 22.7248 17.4271 22.7041 17.4477C22.6732 17.4683 22.6422 17.489 22.601 17.4993L22.5391 17.3651C22.6113 17.3136 22.7042 17.2723 22.8177 17.2413C22.8692 17.231 22.9105 17.2207 22.9518 17.2207C22.993 17.2207 23.0446 17.2413 23.1065 17.2723C23.2097 17.3342 23.251 17.4374 23.2613 17.5715H23.3645V17.7366H22.5391V17.7263ZM23.1891 18.8096C23.1168 18.7374 23.0343 18.6755 22.9518 18.6239C22.9105 18.5929 22.8486 18.562 22.7454 18.531C22.6732 18.5001 22.6319 18.4898 22.6113 18.4898V18.2731C22.6319 18.2731 22.6526 18.2731 22.6835 18.2731C22.7145 18.2731 22.7351 18.2731 22.7558 18.2731C22.8383 18.2731 22.9105 18.2628 22.9621 18.2421C23.0653 18.2009 23.1065 18.1493 23.1065 18.0977C23.1065 18.0564 23.0859 18.0255 23.0446 17.9945C23.0034 17.9739 22.9724 17.9532 22.9311 17.9326C22.9208 17.9326 22.9105 17.9223 22.9002 17.9223C22.8795 17.9223 22.8486 17.9326 22.828 17.9429C22.797 17.9532 22.7764 17.9739 22.7867 17.9945C22.797 18.0461 22.8486 18.0667 22.9415 18.0564L22.8383 18.2112C22.797 18.2112 22.7557 18.2009 22.7145 18.1699C22.6423 18.1183 22.601 18.0564 22.601 17.9842C22.601 17.912 22.6423 17.8501 22.7145 17.8088C22.7764 17.7778 22.8486 17.7572 22.9311 17.7572C22.9621 17.7572 22.993 17.7675 23.024 17.7778C23.0446 17.7882 23.0756 17.7985 23.1065 17.8191C23.2304 17.881 23.2922 17.9842 23.2922 18.108C23.2922 18.2009 23.251 18.2731 23.1787 18.335C23.1168 18.3763 23.0343 18.4072 22.9208 18.4278C22.9518 18.4382 23.0034 18.4691 23.0653 18.5104C23.1684 18.5929 23.251 18.6651 23.3232 18.7271L23.1891 18.8096Z" fill="#B4B4CD"/>
<path d="M24.4859 17.7256V18.6542H24.3002V18.2828C24.3002 18.2518 24.2899 18.2209 24.2589 18.1796C24.228 18.1486 24.197 18.128 24.1661 18.128C24.1351 18.128 24.1145 18.1486 24.0835 18.1796C24.0526 18.2105 24.0422 18.2518 24.0422 18.3034H23.8462C23.8462 18.2518 23.8359 18.2105 23.8049 18.1693C23.774 18.128 23.7534 18.1177 23.7121 18.1177C23.6811 18.1177 23.6605 18.128 23.6296 18.1486C23.5986 18.1693 23.5883 18.1899 23.5883 18.2209L23.578 18.2725V18.2931C23.578 18.3859 23.6399 18.4375 23.7534 18.4375C23.774 18.4375 23.8049 18.4375 23.8462 18.4272L23.7843 18.6129C23.743 18.6129 23.7224 18.6232 23.7121 18.6232C23.6295 18.6232 23.547 18.5923 23.4748 18.5304C23.4438 18.5098 23.4232 18.4685 23.4026 18.4169C23.3819 18.3756 23.3819 18.324 23.3819 18.2828C23.3819 18.1796 23.4129 18.0971 23.4748 18.0351C23.5367 17.9732 23.6192 17.9423 23.7121 17.9423C23.8049 17.9423 23.8875 17.9836 23.9494 18.0764C24.0216 17.9836 24.0938 17.9423 24.1661 17.9423C24.2073 17.9423 24.2486 17.9629 24.2899 18.0042V17.7359H23.2891V17.5605H24.5787V17.7256H24.4859Z" fill="#B4B4CD"/>
<path d="M25.8748 17.7256H25.0391V17.5605H26.1946V17.7256H26.0708V18.6542H25.9057C25.8851 18.6026 25.8129 18.5304 25.6684 18.4375C25.6065 18.3963 25.524 18.355 25.4208 18.3137C25.3073 18.2725 25.2248 18.2518 25.1525 18.2518L25.101 18.0661C25.1422 18.0352 25.2661 17.9732 25.4621 17.8907C25.5446 17.8494 25.6787 17.7978 25.8748 17.7256ZM25.8851 17.932C25.8542 17.9423 25.8129 17.9526 25.7716 17.9732C25.7097 17.9939 25.6065 18.0455 25.4518 18.1074L25.4208 18.1177C25.5652 18.1693 25.7097 18.2415 25.8438 18.3447C25.8645 18.355 25.8748 18.3653 25.8851 18.3756V17.932Z" fill="#B4B4CD"/>
<path d="M26.5014 17.7256C26.4395 17.8082 26.4189 17.8701 26.4189 17.9217C26.4189 17.9423 26.4498 18.0455 26.5117 18.2105C26.5427 18.2931 26.5633 18.3653 26.5633 18.4272C26.5633 18.5304 26.5014 18.6129 26.3776 18.6542C26.3363 18.6645 26.2744 18.6748 26.1816 18.6852L26.2022 18.5304C26.3157 18.5098 26.3673 18.4685 26.3673 18.4169C26.3673 18.3653 26.3467 18.2931 26.2951 18.1899C26.2538 18.0867 26.2229 18.0145 26.2229 17.9629C26.2229 17.901 26.2538 17.8185 26.3054 17.7359H26.1094V17.5605H26.6252V17.7256H26.5014Z" fill="#B4B4CD"/>
<path d="M26.898 17.7256V18.6542H26.7123V17.7256H26.5781V17.5605H27.0218V17.7256H26.898Z" fill="#B4B4CD"/>
<path d="M27.3201 18.169C27.2376 18.169 27.1654 18.1381 27.1138 18.0865C27.0622 18.0349 27.0312 17.9627 27.0312 17.8801C27.0312 17.7976 27.0622 17.7357 27.1138 17.6841C27.1654 17.6325 27.2376 17.6016 27.3098 17.6016C27.4233 17.6016 27.4955 17.6531 27.5471 17.7666C27.5678 17.8079 27.5781 17.8595 27.5781 17.9008C27.5781 17.9833 27.5574 18.0452 27.5058 18.0968C27.4749 18.1381 27.413 18.169 27.3201 18.169ZM27.5265 18.7571C27.2892 18.5611 27.1344 18.4373 27.0519 18.4063V18.1484C27.3717 18.3754 27.5884 18.5611 27.6813 18.6952V18.8809L27.5265 18.7571ZM27.3614 17.7873C27.3408 17.777 27.3201 17.7666 27.3098 17.777C27.2376 17.7873 27.2067 17.8182 27.2067 17.8801C27.2067 17.9111 27.217 17.9317 27.2376 17.9627C27.2582 17.9833 27.2892 18.0039 27.3201 18.0039H27.3408C27.3923 17.9833 27.4233 17.9524 27.4233 17.9111C27.4233 17.8492 27.4027 17.8182 27.3614 17.7873Z" fill="#B4B4CD"/>
<path d="M28.8475 17.4579C28.6308 17.3238 28.4554 17.2516 28.3213 17.2516C28.1562 17.2516 28.0427 17.3032 27.9602 17.4063C27.9292 17.4373 27.9189 17.4992 27.9189 17.5611H28.053V17.7262H27.9189V18.6547H27.7332V17.7262H27.6094V17.5611H27.7332C27.7332 17.427 27.7848 17.3238 27.8673 17.2413C27.9499 17.1587 28.0634 17.1071 28.2078 17.0865C28.2181 17.0865 28.2491 17.0865 28.2903 17.0762H28.3316C28.4451 17.0762 28.5586 17.0968 28.6721 17.1484C28.734 17.1793 28.8268 17.2309 28.9713 17.3135L28.8475 17.4579Z" fill="#B4B4CD"/>
<path d="M28.6904 17.7256C28.7626 17.7359 28.8451 17.7566 28.9277 17.8082C29.0412 17.8701 29.1031 17.9629 29.1031 18.0661C29.1031 18.128 29.0824 18.1899 29.0412 18.2312C28.9999 18.2828 28.9483 18.3137 28.8864 18.324C28.8245 18.3344 28.7729 18.3447 28.7213 18.3344V18.159C28.742 18.159 28.7626 18.159 28.7832 18.159C28.8761 18.159 28.9174 18.128 28.9174 18.0558C28.9174 17.9732 28.8348 17.9217 28.6801 17.901V18.6336H28.515C28.484 18.582 28.4634 18.5407 28.4325 18.5098C28.4221 18.4994 28.4015 18.4685 28.3602 18.4169C28.3499 18.3963 28.3293 18.3756 28.2983 18.355C28.2674 18.3344 28.2467 18.3034 28.2364 18.2931C28.2261 18.2828 28.2158 18.2725 28.1951 18.2725C28.1126 18.2415 28.0507 18.2312 27.9991 18.2312L27.9475 18.0455C27.9888 18.0145 28.0816 17.9629 28.2261 17.8804C28.2364 17.8701 28.2777 17.8494 28.3602 17.8082C28.3912 17.7875 28.4324 17.7669 28.4944 17.7256V17.7153H27.9062V17.5605H29.1753V17.7256H28.6904ZM28.5046 17.9423C28.4737 17.9629 28.4324 17.9939 28.3705 18.0351C28.3499 18.0455 28.3396 18.0558 28.3189 18.0764C28.2983 18.0971 28.2777 18.1177 28.257 18.128C28.2777 18.1486 28.3086 18.1693 28.3499 18.2002C28.3912 18.2415 28.4427 18.3034 28.5046 18.3756V17.9423Z" fill="#B4B4CD"/>
<path d="M29.4686 18.169C29.386 18.169 29.3138 18.1381 29.2622 18.0865C29.2106 18.0349 29.1797 17.9627 29.1797 17.8801C29.1797 17.7976 29.2106 17.7357 29.2622 17.6841C29.3138 17.6325 29.386 17.6016 29.4582 17.6016C29.5717 17.6016 29.644 17.6531 29.6956 17.7666C29.7162 17.8079 29.7265 17.8595 29.7265 17.9008C29.7265 17.9833 29.7059 18.0452 29.6543 18.0968C29.6233 18.1381 29.5511 18.169 29.4686 18.169ZM29.6749 18.7571C29.4376 18.5611 29.2829 18.4373 29.2003 18.4063V18.1484C29.5202 18.3754 29.7368 18.5611 29.8297 18.6952V18.8809L29.6749 18.7571ZM29.5098 17.7873C29.4892 17.777 29.4686 17.7666 29.4582 17.777C29.386 17.7873 29.3551 17.8182 29.3551 17.8801C29.3551 17.9111 29.3654 17.9317 29.386 17.9627C29.4067 17.9833 29.4376 18.0039 29.4686 18.0039H29.4892C29.5408 17.9833 29.5717 17.9524 29.5717 17.9111C29.5614 17.8492 29.5511 17.8182 29.5098 17.7873Z" fill="#B4B4CD"/>
<path d="M9.04688 18.7248L9.38734 18.8486L9.52147 18.7248L9.18101 18.6113L9.04688 18.7248Z" fill="#B4B4CD"/>
<path d="M9.15881 17.7767V17.5703H6.45564V17.7767H6.90961V18.2409C6.90961 18.2409 7.26041 18.2409 7.30168 18.2409C7.30168 18.2409 7.41518 18.21 7.43581 18.1481C7.43581 18.21 7.43581 18.3029 7.43581 18.3338C7.43581 18.4163 7.3739 18.4886 7.30168 18.4886C7.22946 18.4886 6.76517 18.4886 6.7239 18.4886C6.69295 18.4886 6.65167 18.4782 6.65167 18.3338C6.65167 18.1997 6.65167 17.9005 6.65167 17.9005H6.44531C6.44531 17.9005 6.44531 18.406 6.44531 18.4576C6.44531 18.4989 6.47628 18.664 6.62072 18.664C6.76517 18.664 7.36358 18.664 7.39453 18.664C7.51834 18.664 7.60087 18.5402 7.61119 18.437C7.61119 18.21 7.61119 17.9005 7.61119 17.9005H7.42548C7.40485 17.983 7.41517 18.0346 7.33263 18.0552C7.25009 18.0552 7.10565 18.0552 7.10565 18.0552V17.7767H7.76598V18.664H7.99293V17.7767H8.15802V18.664C8.15802 18.664 8.85962 18.664 8.9112 18.664C8.96279 18.664 9.13819 18.6227 9.13819 18.4267C9.13819 18.2306 9.13819 17.9005 9.13819 17.9005H8.95248C8.95248 17.9521 8.94217 18.0243 8.85963 18.0243C8.77709 18.0243 8.35405 18.0243 8.35405 18.0243V17.7767H9.15881ZM8.85963 18.21C8.89058 18.2203 8.94215 18.1687 8.97311 18.1171C8.97311 18.1687 8.97311 18.2513 8.97311 18.3338C8.97311 18.4163 8.91122 18.4886 8.85963 18.4886C8.80804 18.4886 8.37471 18.4886 8.37471 18.4886V18.21C8.37471 18.21 8.81836 18.21 8.85963 18.21Z" fill="#B4B4CD"/>
<path d="M9.86022 18.0234H9.40625V18.2711H9.86022V18.0234Z" fill="#B4B4CD"/>
<path d="M10.1172 17.5703V17.7767H10.8703V17.9005H10.1172C10.1172 17.9005 10.1172 18.3648 10.1172 18.3957C10.1378 18.5608 10.2204 18.664 10.3751 18.664C10.5608 18.664 11.056 18.664 11.056 18.664V17.7767H11.2211V18.664H11.4275V17.5703H10.1172ZM10.8703 18.5195C10.8703 18.5195 10.4267 18.5195 10.4164 18.5195C10.3441 18.5092 10.3029 18.4267 10.3029 18.3338C10.3029 18.2409 10.3029 18.0862 10.3029 18.0862H10.8807V18.5195H10.8703Z" fill="#B4B4CD"/>
<path d="M12.4191 17.7767H13.358V17.9005C13.3167 17.9005 13.1103 17.9005 13.0794 17.9005C13.0691 17.983 12.9246 18.0346 12.8937 17.9005C12.7389 17.9005 12.4191 17.9005 12.4191 17.9005C12.4191 17.9005 12.4191 18.3751 12.4191 18.4267C12.4191 18.4782 12.4294 18.6433 12.5635 18.664C12.6976 18.664 12.9349 18.664 12.9349 18.664V18.4886C12.9349 18.4886 12.7286 18.4886 12.6873 18.4886C12.6357 18.4782 12.5945 18.4473 12.5945 18.3648C12.5945 18.2719 12.5945 18.0862 12.5945 18.0862H12.8421V18.2409H13.0691V18.1171C13.0587 18.0656 13.3064 18.0656 13.3167 18.1171C13.3167 18.1894 13.3167 18.664 13.3167 18.664H13.523V17.7767H13.6572V18.664H13.8635V17.5703H12.3984V17.7767H12.4191Z" fill="#B4B4CD"/>
<path d="M12.0865 17.6328C12.0039 17.6328 11.6016 17.6328 11.6016 17.6328C11.6016 17.6328 11.6016 17.8701 11.6016 17.9217C11.6222 18.0146 11.6738 18.1281 11.8389 18.1384C12.004 18.1384 12.2309 18.1384 12.2309 18.1384V17.7876C12.2206 17.7154 12.169 17.6431 12.0865 17.6328ZM11.9421 17.932C11.8492 17.932 11.7873 17.9011 11.7873 17.8598C11.7873 17.8185 11.8595 17.7876 11.9421 17.7876C12.0349 17.7876 12.0968 17.8185 12.0968 17.8598C12.0968 17.9011 12.0246 17.932 11.9421 17.932Z" fill="#B4B4CD"/>
<path d="M11.6328 18.2402V18.4156L12.2209 18.6633V18.4672L11.6328 18.2402Z" fill="#B4B4CD"/>
<path d="M17.0396 17.6328C16.9571 17.6328 16.5547 17.6328 16.5547 17.6328C16.5547 17.6328 16.5547 17.8701 16.5547 17.9217C16.5753 18.0146 16.6269 18.1281 16.792 18.1384C16.9571 18.1384 17.184 18.1384 17.184 18.1384V17.7876C17.1634 17.7154 17.1221 17.6431 17.0396 17.6328ZM16.8849 17.932C16.792 17.932 16.7301 17.9011 16.7301 17.8598C16.7301 17.8185 16.8023 17.7876 16.8849 17.7876C16.9777 17.7876 17.0396 17.8185 17.0396 17.8598C17.0499 17.9011 16.9777 17.932 16.8849 17.932Z" fill="#B4B4CD"/>
<path d="M16.5781 18.2402V18.4156L17.1766 18.6633V18.4672L16.5781 18.2402Z" fill="#B4B4CD"/>
<path d="M18.2905 17.9005V17.7767H18.6722V17.5703H17.3516V17.7767H18.1047V17.9005H17.3516C17.3516 17.9005 17.3516 18.3648 17.3516 18.3957C17.3722 18.5608 17.4547 18.664 17.6095 18.664C17.7952 18.664 18.2905 18.664 18.2905 18.664V18.1171H18.4762C18.5071 18.1171 18.5174 18.1068 18.5174 18.1481C18.5174 18.1997 18.5174 18.2409 18.5174 18.2409C18.5071 18.2822 18.5071 18.3132 18.4762 18.3338C18.4452 18.3338 18.404 18.3338 18.404 18.3338V18.5195H18.5381C18.5793 18.5195 18.6722 18.4679 18.6722 18.3957C18.6722 18.2925 18.6722 17.9005 18.6722 17.9005H18.2905ZM18.1047 18.5195C18.1047 18.5195 17.6611 18.5195 17.6508 18.5195C17.5786 18.5092 17.5373 18.4267 17.5373 18.3338C17.5373 18.2409 17.5373 18.0862 17.5373 18.0862H18.1047V18.1171V18.5195Z" fill="#B4B4CD"/>
<path d="M14.5 17.5703V17.7767H15.2532V17.9005H14.5C14.5 17.9005 14.5 18.3648 14.5 18.3957C14.5206 18.5608 14.6032 18.664 14.7579 18.664C14.9437 18.664 15.4389 18.664 15.4389 18.664V17.7767H15.6762L15.5936 17.9521V18.0759C15.5936 18.0759 15.7278 18.0759 15.7587 18.0759C15.8413 18.0862 15.8722 18.1378 15.8722 18.2925C15.8722 18.3957 15.8516 18.4679 15.769 18.4782C15.7174 18.4782 15.6143 18.4782 15.6143 18.4782V18.664C15.6143 18.664 15.7278 18.664 15.7794 18.664C15.8206 18.664 16.0373 18.6846 16.0579 18.4782C16.0786 18.0656 16.0992 17.9624 15.8103 17.9314L15.8516 17.787H16.1714V18.6743H16.3778V17.5806H14.5V17.5703ZM15.2532 18.5195C15.2532 18.5195 14.8095 18.5195 14.7992 18.5195C14.727 18.5092 14.6857 18.4267 14.6857 18.3338C14.6857 18.2409 14.6857 18.0862 14.6857 18.0862H15.2635V18.5195H15.2532Z" fill="#B4B4CD"/>
</svg>
