<svg width="16" height="16" viewBox="0 0 16 16" fill="none" xmlns="http://www.w3.org/2000/svg">
<path d="M15.001 0.5C15.1562 0.499634 15.2646 0.546861 15.3594 0.641602C15.4541 0.736292 15.5007 0.844252 15.5 0.998047V6C15.5 6.15714 15.4522 6.26559 15.3584 6.35938C15.2647 6.4531 15.1567 6.50037 15.001 6.5H10C9.84307 6.5 9.73538 6.45234 9.64258 6.35938C9.54874 6.26521 9.50041 6.15597 9.5 5.99902C9.49963 5.84403 9.54669 5.73634 9.64062 5.64258C9.7358 5.54773 9.84488 5.5 10 5.5H14.0615L13.6338 4.75195C13.0568 3.74234 12.2646 2.94509 11.2627 2.36719C10.2608 1.78933 9.17027 1.5 8 1.5C6.20224 1.5 4.65798 2.13499 3.39648 3.39648C2.13499 4.65798 1.5 6.20224 1.5 8C1.5 9.79776 2.13499 11.342 3.39648 12.6035C4.65798 13.865 6.20224 14.5 8 14.5C9.22256 14.5 10.3504 14.1883 11.373 13.5645C12.3866 12.9461 13.1764 12.114 13.7344 11.0732C13.8124 10.9367 13.9106 10.8543 14.0391 10.8057C14.172 10.7555 14.3001 10.7527 14.4424 10.7998L14.4512 10.8018C14.5731 10.8399 14.6554 10.9105 14.7168 11.0508C14.776 11.1863 14.7633 11.2684 14.7158 11.3516L14.71 11.3623L14.7051 11.3721C14.0626 12.6257 13.1489 13.6248 11.958 14.377C10.7741 15.1247 9.45893 15.5 8 15.5C5.89647 15.5 4.13298 14.7756 2.67871 13.3213C1.22444 11.867 0.5 10.1035 0.5 8C0.500001 5.89647 1.22444 4.13298 2.67871 2.67871C4.13298 1.22444 5.89647 0.5 8 0.5C9.07879 0.5 10.1084 0.722531 11.0938 1.16797C12.0758 1.61193 12.9168 2.24537 13.6191 3.07324L14.5 4.1123V1C14.5 0.843071 14.5477 0.735379 14.6406 0.642578C14.7348 0.548737 14.844 0.500411 15.001 0.5Z" fill="#4B5563"/>
<path d="M15.001 0.5C15.1562 0.499634 15.2646 0.546861 15.3594 0.641602C15.4541 0.736292 15.5007 0.844252 15.5 0.998047V6C15.5 6.15714 15.4522 6.26559 15.3584 6.35938C15.2647 6.4531 15.1567 6.50037 15.001 6.5H10C9.84307 6.5 9.73538 6.45234 9.64258 6.35938C9.54874 6.26521 9.50041 6.15597 9.5 5.99902C9.49963 5.84403 9.54669 5.73634 9.64062 5.64258C9.7358 5.54773 9.84488 5.5 10 5.5H14.0615L13.6338 4.75195C13.0568 3.74234 12.2646 2.94509 11.2627 2.36719C10.2608 1.78933 9.17027 1.5 8 1.5C6.20224 1.5 4.65798 2.13499 3.39648 3.39648C2.13499 4.65798 1.5 6.20224 1.5 8C1.5 9.79776 2.13499 11.342 3.39648 12.6035C4.65798 13.865 6.20224 14.5 8 14.5C9.22256 14.5 10.3504 14.1883 11.373 13.5645C12.3866 12.9461 13.1764 12.114 13.7344 11.0732C13.8124 10.9367 13.9106 10.8543 14.0391 10.8057C14.172 10.7555 14.3001 10.7527 14.4424 10.7998L14.4512 10.8018C14.5731 10.8399 14.6554 10.9105 14.7168 11.0508C14.776 11.1863 14.7633 11.2684 14.7158 11.3516L14.71 11.3623L14.7051 11.3721C14.0626 12.6257 13.1489 13.6248 11.958 14.377C10.7741 15.1247 9.45893 15.5 8 15.5C5.89647 15.5 4.13298 14.7756 2.67871 13.3213C1.22444 11.867 0.5 10.1035 0.5 8C0.500001 5.89647 1.22444 4.13298 2.67871 2.67871C4.13298 1.22444 5.89647 0.5 8 0.5C9.07879 0.5 10.1084 0.722531 11.0938 1.16797C12.0758 1.61193 12.9168 2.24537 13.6191 3.07324L14.5 4.1123V1C14.5 0.843071 14.5477 0.735379 14.6406 0.642578C14.7348 0.548737 14.844 0.500411 15.001 0.5Z" stroke="black"/>
<path d="M15.001 0.5C15.1562 0.499634 15.2646 0.546861 15.3594 0.641602C15.4541 0.736292 15.5007 0.844252 15.5 0.998047V6C15.5 6.15714 15.4522 6.26559 15.3584 6.35938C15.2647 6.4531 15.1567 6.50037 15.001 6.5H10C9.84307 6.5 9.73538 6.45234 9.64258 6.35938C9.54874 6.26521 9.50041 6.15597 9.5 5.99902C9.49963 5.84403 9.54669 5.73634 9.64062 5.64258C9.7358 5.54773 9.84488 5.5 10 5.5H14.0615L13.6338 4.75195C13.0568 3.74234 12.2646 2.94509 11.2627 2.36719C10.2608 1.78933 9.17027 1.5 8 1.5C6.20224 1.5 4.65798 2.13499 3.39648 3.39648C2.13499 4.65798 1.5 6.20224 1.5 8C1.5 9.79776 2.13499 11.342 3.39648 12.6035C4.65798 13.865 6.20224 14.5 8 14.5C9.22256 14.5 10.3504 14.1883 11.373 13.5645C12.3866 12.9461 13.1764 12.114 13.7344 11.0732C13.8124 10.9367 13.9106 10.8543 14.0391 10.8057C14.172 10.7555 14.3001 10.7527 14.4424 10.7998L14.4512 10.8018C14.5731 10.8399 14.6554 10.9105 14.7168 11.0508C14.776 11.1863 14.7633 11.2684 14.7158 11.3516L14.71 11.3623L14.7051 11.3721C14.0626 12.6257 13.1489 13.6248 11.958 14.377C10.7741 15.1247 9.45893 15.5 8 15.5C5.89647 15.5 4.13298 14.7756 2.67871 13.3213C1.22444 11.867 0.5 10.1035 0.5 8C0.500001 5.89647 1.22444 4.13298 2.67871 2.67871C4.13298 1.22444 5.89647 0.5 8 0.5C9.07879 0.5 10.1084 0.722531 11.0938 1.16797C12.0758 1.61193 12.9168 2.24537 13.6191 3.07324L14.5 4.1123V1C14.5 0.843071 14.5477 0.735379 14.6406 0.642578C14.7348 0.548737 14.844 0.500411 15.001 0.5Z" stroke="black" stroke-opacity="0.2"/>
</svg>
