<svg width="23" height="26" viewBox="0 0 23 26" fill="none" xmlns="http://www.w3.org/2000/svg">
<path d="M20.23 5.94948L11.54 0.449482C11.32 0.309482 11.04 0.309482 10.82 0.449482L2.13002 5.94948C1.88002 6.10948 1.76002 6.40948 1.85002 6.69948C1.93002 6.98948 2.20002 7.17948 2.49002 7.17948H19.87C20.17 7.17948 20.43 6.97948 20.51 6.69948C20.6 6.40948 20.48 6.10948 20.23 5.94948Z" fill="#A56EB4"/>
<path d="M18.73 12.9695H16.4C16.03 12.9695 15.73 13.2695 15.73 13.6395V19.9195C15.73 20.2895 16.03 20.5895 16.4 20.5895H18.73C19.1 20.5895 19.4 20.2895 19.4 19.9195V13.6395C19.4 13.2695 19.1 12.9695 18.73 12.9695Z" fill="#A56EB4"/>
<path d="M12.35 12.9695H10.02C9.64998 12.9695 9.34998 13.2695 9.34998 13.6395V19.9195C9.34998 20.2895 9.64998 20.5895 10.02 20.5895H12.35C12.72 20.5895 13.02 20.2895 13.02 19.9195V13.6395C13.02 13.2695 12.72 12.9695 12.35 12.9695Z" fill="#C3A0CD"/>
<path d="M5.91998 12.9695H3.58998C3.21998 12.9695 2.91998 13.2695 2.91998 13.6395V19.9195C2.91998 20.2895 3.21998 20.5895 3.58998 20.5895H5.91998C6.28998 20.5895 6.58998 20.2895 6.58998 19.9195V13.6395C6.58998 13.2695 6.28998 12.9695 5.91998 12.9695Z" fill="#A56EB4"/>
<path d="M21.11 8.22949H1.25C0.56 8.22949 0 8.78949 0 9.47949V10.7595C0 11.4495 0.56 12.0095 1.25 12.0095H21.12C21.81 12.0095 22.37 11.4495 22.37 10.7595V9.47949C22.36 8.78949 21.8 8.22949 21.11 8.22949Z" fill="#C3A0CD"/>
<path d="M21.69 21.5695H0.67C0.3 21.5695 0 21.8695 0 22.2395V24.6795C0 25.0495 0.3 25.3495 0.67 25.3495H21.69C22.06 25.3495 22.36 25.0495 22.36 24.6795V22.2395C22.36 21.8695 22.06 21.5695 21.69 21.5695Z" fill="#C3A0CD"/>
</svg>
