<svg width="22" height="19" viewBox="0 0 22 19" fill="none" xmlns="http://www.w3.org/2000/svg">
<path d="M3 5C3.53043 5 4.03914 4.78929 4.41421 4.41421C4.78929 4.03914 5 3.53043 5 3C5 2.46957 4.78929 1.96086 4.41421 1.58579C4.03914 1.21071 3.53043 1 3 1C2.46957 1 1.96086 1.21071 1.58579 1.58579C1.21071 1.96086 1 2.46957 1 3C1 3.53043 1.21071 4.03914 1.58579 4.41421C1.96086 4.78929 2.46957 5 3 5ZM3 11C3.26522 11 3.51957 10.8946 3.70711 10.7071C3.89464 10.5196 4 10.2652 4 10C4 9.73478 3.89464 9.48043 3.70711 9.29289C3.51957 9.10536 3.26522 9 3 9C2.73478 9 2.48043 9.10536 2.29289 9.29289C2.10536 9.48043 2 9.73478 2 10C2 10.2652 2.10536 10.5196 2.29289 10.7071C2.48043 10.8946 2.73478 11 3 11ZM3 18C3.26522 18 3.51957 17.8946 3.70711 17.7071C3.89464 17.5196 4 17.2652 4 17C4 16.7348 3.89464 16.4804 3.70711 16.2929C3.51957 16.1054 3.26522 16 3 16C2.73478 16 2.48043 16.1054 2.29289 16.2929C2.10536 16.4804 2 16.7348 2 17C2 17.2652 2.10536 17.5196 2.29289 17.7071C2.48043 17.8946 2.73478 18 3 18Z" stroke="white" stroke-opacity="0.980392" stroke-width="2" stroke-linejoin="round"/>
<path d="M9 10H21M9 17H21M9 3H21" stroke="white" stroke-opacity="0.980392" stroke-width="2" stroke-linecap="round" stroke-linejoin="round"/>
</svg>
