<svg width="39" height="39" viewBox="0 0 39 39" fill="none" xmlns="http://www.w3.org/2000/svg">
<circle cx="19.5" cy="19.5" r="19.5" fill="#FFC6CE"/>
<path d="M9.02321 16.6221C13.9137 16.6221 18.7753 16.6221 23.6647 16.6221C20.2208 18.2169 19.1148 22.7703 21.6495 25.7805C21.5755 25.7843 21.5157 25.7903 21.456 25.7903C18.267 25.7908 15.0778 25.793 11.8889 25.7895C10.4286 25.7878 9.28916 24.8342 9.04514 23.4184C9.01827 23.2623 9.01306 23.101 9.01306 22.9422C9.01114 20.9018 9.01142 18.8617 9.01197 16.8216C9.01197 16.7596 9.01882 16.6972 9.02321 16.6221ZM14.371 22.7298C14.8585 22.7298 15.346 22.7312 15.8332 22.7296C16.3344 22.7277 16.6905 22.4021 16.6837 21.9555C16.6768 21.5155 16.3281 21.2011 15.8384 21.2003C14.8634 21.1987 13.8887 21.1984 12.9138 21.2003C12.4191 21.2014 12.0841 21.5114 12.0827 21.9615C12.0814 22.4106 12.4191 22.7268 12.9085 22.7293C13.3963 22.7318 13.8835 22.7298 14.371 22.7298Z" fill="#FF5A7D"/>
<path d="M28.9379 15.0666C22.3061 15.0666 15.6766 15.0666 9.03084 15.0666C8.96559 13.8186 8.90034 12.579 10.0033 11.6661C10.4925 11.2616 11.0507 11.0314 11.6881 11.0096C11.9755 10.9997 12.2634 11.0027 12.551 11.0025C17.0346 11.0022 21.5179 11.0055 26.0012 11C27.1253 10.9986 28.0098 11.4327 28.5699 12.4098C28.7583 12.7386 28.8792 13.133 28.9233 13.5102C28.9826 14.0186 28.9379 14.539 28.9379 15.0666Z" fill="#FF5A7D"/>
<path d="M26.1416 26.8057C23.4509 26.8032 21.2851 24.6377 21.2904 21.955C21.2956 19.272 23.472 17.113 26.1608 17.1236C28.8455 17.1343 30.9984 19.2865 31 21.9618C31.0016 24.645 28.8318 26.8084 26.1416 26.8057ZM25.378 21.2C24.9341 21.2 24.5199 21.1957 24.1059 21.2014C23.7494 21.2063 23.4615 21.4214 23.3664 21.7399C23.2181 22.2365 23.5729 22.717 24.105 22.7277C24.5251 22.7361 24.9451 22.7293 25.3789 22.7293C25.3789 23.1844 25.3706 23.6061 25.3813 24.0271C25.3917 24.4406 25.7345 24.7675 26.1391 24.7716C26.5433 24.7754 26.8868 24.4518 26.9101 24.0399C26.9178 23.9049 26.9126 23.769 26.9126 23.6335C26.9129 23.3347 26.9126 23.0357 26.9126 22.7298C27.3343 22.7298 27.7176 22.7309 28.1009 22.7296C28.6062 22.7277 28.9604 22.4114 28.9601 21.9643C28.9601 21.5168 28.6062 21.2017 28.0998 21.2C27.7107 21.1987 27.3217 21.1998 26.9425 21.1998C26.9271 21.1599 26.917 21.1456 26.917 21.1314C26.9151 20.757 26.9145 20.3825 26.9126 20.0081C26.9099 19.5062 26.5869 19.1523 26.1383 19.1577C25.6944 19.1632 25.3811 19.5079 25.3786 19.9971C25.3764 20.3866 25.378 20.7764 25.378 21.2Z" fill="white"/>
</svg>
