<svg width="25" height="22" viewBox="0 0 25 22" fill="none" xmlns="http://www.w3.org/2000/svg">
<path d="M5.55 21.3445H1.19C0.53 21.3445 0 20.8145 0 20.1645V1.89447C0 1.23447 0.53 0.704468 1.19 0.704468H5.55C6.2 0.704468 6.74 1.23447 6.74 1.89447V20.1645C6.74 20.8145 6.2 21.3445 5.55 21.3445Z" fill="#C3A0CD"/>
<path d="M8.90002 2.88447V1.89447C8.90002 1.23447 9.43003 0.704468 10.09 0.704468H23.82C24.47 0.704468 25 1.23447 25 1.89447V2.88447C25 3.54447 24.47 4.07447 23.81 4.07447H10.09C9.43003 4.07447 8.90002 3.54447 8.90002 2.88447Z" fill="#C3A0CD"/>
<path d="M14.11 11.3345C14.19 11.1745 14.23 11.0145 14.23 10.8445C14.23 10.6545 14.19 10.4845 14.11 10.3245C14.03 10.1745 13.92 10.0545 13.77 9.96449C13.62 9.87449 13.45 9.82449 13.25 9.82449C13.07 9.82449 12.9 9.87449 12.76 9.96449C12.61 10.0545 12.5 10.1745 12.41 10.3245C12.32 10.4745 12.28 10.6445 12.28 10.8245C12.28 11.0045 12.32 11.1745 12.41 11.3345C12.5 11.4945 12.61 11.6145 12.76 11.7045C12.91 11.7945 13.07 11.8445 13.25 11.8445C13.45 11.8445 13.63 11.7945 13.77 11.7045C13.92 11.6145 14.03 11.4945 14.11 11.3345Z" fill="#A56EB4"/>
<path d="M23.81 5.7345H10.09C9.43003 5.7345 8.90002 6.2645 8.90002 6.9245V20.1545C8.90002 20.8145 9.43003 21.3445 10.09 21.3445H23.8C24.46 21.3445 24.99 20.8145 24.99 20.1545V6.9245C25 6.2645 24.47 5.7345 23.81 5.7345ZM10.77 12.2445C10.52 11.8145 10.4 11.3445 10.4 10.8445C10.4 10.3145 10.52 9.8445 10.77 9.4245C11.02 9.0045 11.36 8.6645 11.79 8.4145C12.23 8.1645 12.72 8.0345 13.26 8.0345C13.81 8.0345 14.29 8.1645 14.73 8.4145C15.16 8.6645 15.5 9.0045 15.75 9.4245C16 9.8445 16.13 10.3145 16.13 10.8445C16.13 11.3545 16 11.8145 15.75 12.2445C15.5 12.6745 15.16 13.0145 14.73 13.2645C14.3 13.5145 13.81 13.6345 13.26 13.6345C12.71 13.6345 12.22 13.5145 11.79 13.2645C11.36 13.0145 11.01 12.6745 10.77 12.2445ZM13.7 18.9445H13.53C12.81 18.9445 12.4 18.1145 12.84 17.5445L19.66 8.6545C19.82 8.4445 20.08 8.3145 20.35 8.3145H20.52C21.24 8.3145 21.65 9.1445 21.21 9.7145L14.39 18.6045C14.23 18.8245 13.97 18.9445 13.7 18.9445ZM23.28 17.8345C23.03 18.2645 22.69 18.5945 22.26 18.8545C21.82 19.1045 21.33 19.2345 20.79 19.2345C20.25 19.2345 19.77 19.1045 19.33 18.8545C18.89 18.6045 18.55 18.2645 18.3 17.8345C18.05 17.4045 17.92 16.9345 17.92 16.4245C17.92 15.9045 18.05 15.4345 18.3 15.0145C18.55 14.5845 18.9 14.2545 19.33 13.9945C19.77 13.7445 20.25 13.6145 20.79 13.6145C21.34 13.6145 21.83 13.7445 22.26 13.9945C22.7 14.2445 23.04 14.5845 23.28 15.0145C23.53 15.4445 23.65 15.9145 23.65 16.4245C23.65 16.9445 23.52 17.4145 23.28 17.8345Z" fill="#A56EB4"/>
<path d="M21.29 15.5445C21.14 15.4545 20.97 15.4045 20.78 15.4045C20.59 15.4045 20.42 15.4545 20.27 15.5445C20.12 15.6345 20.01 15.7545 19.93 15.9045C19.85 16.0545 19.81 16.2245 19.81 16.4245C19.81 16.5945 19.85 16.7645 19.93 16.9145C20.01 17.0745 20.12 17.1945 20.27 17.2845C20.42 17.3745 20.59 17.4245 20.78 17.4245C20.97 17.4245 21.14 17.3745 21.29 17.2845C21.44 17.1945 21.55 17.0745 21.64 16.9145C21.73 16.7545 21.77 16.5945 21.77 16.4245C21.77 16.2445 21.73 16.0745 21.64 15.9145C21.55 15.7645 21.43 15.6345 21.29 15.5445Z" fill="#A56EB4"/>
</svg>
