<svg width="21" height="18" viewBox="0 0 21 18" fill="none" xmlns="http://www.w3.org/2000/svg">
<path fill-rule="evenodd" clip-rule="evenodd" d="M19.1016 5.00401C19.0449 5.00068 18.9846 4.99935 18.9206 5.00001H16.3956C14.3276 5.00001 12.5586 6.62801 12.5586 8.75001C12.5586 10.872 14.3286 12.5 16.3956 12.5H18.9206C18.9846 12.5007 19.0453 12.4993 19.1026 12.496C19.5276 12.4704 19.9288 12.2911 20.2315 11.9916C20.5341 11.6921 20.7176 11.2928 20.7476 10.868C20.7516 10.808 20.7516 10.743 20.7516 10.683V6.81701C20.7516 6.75701 20.7516 6.69201 20.7476 6.63201C20.7176 6.20728 20.5341 5.80795 20.2315 5.50843C19.9288 5.20891 19.5266 5.02964 19.1016 5.00401ZM16.1746 9.75001C16.7066 9.75001 17.1376 9.30201 17.1376 8.75001C17.1376 8.19801 16.7066 7.75001 16.1746 7.75001C15.6416 7.75001 15.2106 8.19801 15.2106 8.75001C15.2106 9.30201 15.6416 9.75001 16.1746 9.75001Z" fill="white" fill-opacity="0.980392"/>
<path fill-rule="evenodd" clip-rule="evenodd" d="M18.918 14C18.9526 13.9986 18.987 14.0054 19.0184 14.0198C19.0499 14.0342 19.0775 14.0558 19.099 14.0829C19.1206 14.11 19.1354 14.1418 19.1424 14.1757C19.1493 14.2096 19.1481 14.2446 19.139 14.278C18.939 14.99 18.62 15.598 18.109 16.108C17.36 16.858 16.411 17.189 15.239 17.347C14.099 17.5 12.644 17.5 10.806 17.5H8.694C6.856 17.5 5.4 17.5 4.261 17.347C3.089 17.189 2.14 16.857 1.391 16.109C0.643 15.36 0.311 14.411 0.153 13.239C1.19209e-07 12.099 0 10.644 0 8.806V8.694C0 6.856 1.19209e-07 5.4 0.153 4.26C0.311 3.088 0.643 2.139 1.391 1.39C2.14 0.642 3.089 0.31 4.261 0.152C5.401 -4.47035e-08 6.856 0 8.694 0H10.806C12.644 0 14.1 1.19209e-07 15.239 0.153C16.411 0.311 17.36 0.643 18.109 1.391C18.62 1.903 18.939 2.51 19.139 3.222C19.1481 3.25537 19.1493 3.29042 19.1424 3.32432C19.1354 3.35822 19.1206 3.39 19.099 3.41708C19.0775 3.44417 19.0499 3.46579 19.0184 3.4802C18.987 3.4946 18.9526 3.50139 18.918 3.5H16.394C13.557 3.5 11.057 5.74 11.057 8.75C11.057 11.76 13.557 14 16.394 14H18.918ZM3.75 4C3.55109 4 3.36032 4.07902 3.21967 4.21967C3.07902 4.36032 3 4.55109 3 4.75C3 4.94891 3.07902 5.13968 3.21967 5.28033C3.36032 5.42098 3.55109 5.5 3.75 5.5H7.75C7.94891 5.5 8.13968 5.42098 8.28033 5.28033C8.42098 5.13968 8.5 4.94891 8.5 4.75C8.5 4.55109 8.42098 4.36032 8.28033 4.21967C8.13968 4.07902 7.94891 4 7.75 4H3.75Z" fill="white" fill-opacity="0.980392"/>
</svg>
