<svg width="25" height="26" viewBox="0 0 25 26" fill="none" xmlns="http://www.w3.org/2000/svg">
<path d="M17.97 10.9702C14.09 10.9702 10.94 14.1202 10.94 18.0002C10.94 21.8802 14.09 25.0302 17.97 25.0302C21.85 25.0302 25 21.8802 25 18.0002C25 14.1202 21.85 10.9702 17.97 10.9702ZM20.83 19.0402H19.01V20.8602C19.01 21.4302 18.54 21.9002 17.97 21.9002C17.4 21.9002 16.93 21.4302 16.93 20.8602V19.0402H15.1C14.52 19.0402 14.06 18.5702 14.06 18.0002C14.06 17.4202 14.53 16.9602 15.1 16.9602H16.92V15.1302C16.92 14.5502 17.39 14.0902 17.96 14.0902C18.53 14.0902 19 14.5602 19 15.1302V16.9502H20.82C21.4 16.9502 21.86 17.4202 21.86 17.9902C21.88 18.5702 21.41 19.0402 20.83 19.0402Z" fill="#A56EB4"/>
<path d="M14.84 0.0301514H2.86C1.28 0.0301514 0 1.31015 0 2.89015V19.0402C0 20.6202 1.28 21.9002 2.86 21.9002H9.72C9.16 20.7102 8.84 19.3902 8.84 17.9902C8.84 16.7901 9.07 15.6502 9.51 14.5902L9.36 14.6002H4.17C3.6 14.6002 3.13 14.1302 3.13 13.5602C3.13 12.9902 3.6 12.5202 4.17 12.5202H9.38C9.78 12.5202 10.13 12.7502 10.3 13.0802C10.98 12.0302 11.85 11.1302 12.88 10.4302H4.17C3.6 10.4302 3.13 9.96015 3.13 9.39015C3.13 8.82015 3.6 8.35015 4.17 8.35015H13.55C14.12 8.35015 14.59 8.82015 14.59 9.39015L14.58 9.54015C15.55 9.13015 16.61 8.90015 17.72 8.88015V2.88015C17.71 1.31015 16.43 0.0301514 14.84 0.0301514ZM8.33 6.28015H4.17C3.59 6.28015 3.13 5.81015 3.13 5.24015C3.13 4.67015 3.6 4.20015 4.17 4.20015H8.34C8.92 4.20015 9.38 4.67015 9.38 5.24015C9.38 5.81015 8.91 6.28015 8.33 6.28015Z" fill="#C3A0CD"/>
</svg>
