<svg width="56" height="56" viewBox="0 0 56 56" fill="none" xmlns="http://www.w3.org/2000/svg">
<circle cx="28" cy="28" r="28" fill="#F2F0F9"/>
<path d="M28 48.7408C39.4548 48.7408 48.7408 39.4548 48.7408 28C48.7408 16.5452 39.4548 7.25928 28 7.25928C16.5452 7.25928 7.25928 16.5452 7.25928 28C7.25928 39.4548 16.5452 48.7408 28 48.7408Z" fill="#6E0A82"/>
<path d="M46.7589 24.0164L24.4425 32.499C24.4425 32.499 13.5122 36.8988 9.57814 33.6188L17.1689 30.6855C17.1689 30.6855 18.9724 30.2495 21.0832 30.527C21.0832 30.527 16.7229 29.5658 13.5122 28.2181C13.5122 28.2181 9.97452 26.3055 9.24121 23.7885C9.24121 23.7885 19.6165 26.7118 29.3477 26.1866C29.3477 26.1866 30.3585 26.1767 31.5378 25.6118L37.9492 23.1245C37.9492 23.1047 44.0635 21.0931 46.7589 24.0164Z" fill="#FF7D91"/>
<path d="M25.3844 43.8714C26.5659 42.8281 26.863 41.2341 26.0479 40.311C25.2329 39.3879 23.6143 39.4854 22.4328 40.5287C21.2513 41.572 20.9542 43.166 21.7693 44.0891C22.5843 45.0121 24.2029 44.9147 25.3844 43.8714Z" fill="#FF7D91"/>
<path d="M35.8087 29.4171C35.5411 31.0126 34.8078 32.4098 33.6286 33.6188C32.0926 35.1845 30.2197 35.9674 28.0297 35.9674C26.1369 35.9674 24.492 35.3827 23.0848 34.2134C21.2119 34.8377 18.13 35.7295 15.1968 35.9376C15.7715 36.7601 16.4454 37.5529 17.2282 38.2961C18.3084 39.3267 19.4678 40.1591 20.6966 40.823C21.4794 39.4654 22.9956 38.5042 24.5316 38.5042C25.5424 38.5042 26.4541 38.9303 27.0288 39.6636C27.6234 40.4168 27.8117 41.4473 27.554 42.468C27.5441 42.4978 27.5342 42.5275 27.5243 42.5572C27.6928 42.5572 27.8612 42.5671 28.0297 42.5671C28.1585 42.5671 28.2774 42.5572 28.4062 42.5572C28.4162 42.3392 28.4459 42.1212 28.5053 41.9032C28.981 39.9906 30.8638 38.5042 32.7863 38.5042C33.7971 38.5042 34.7087 38.9303 35.2835 39.6636C35.5015 39.9411 35.66 40.2582 35.7691 40.5951C36.8492 39.9708 37.86 39.2078 38.8113 38.2961C41.7842 35.4421 43.2706 31.9936 43.2706 27.9406C43.2706 27.4848 43.2508 27.0388 43.2111 26.5929L35.8087 29.4171Z" fill="#C3A0CD"/>
<path d="M20.7758 24.72C21.1622 23.8281 21.7073 23.0155 22.4406 22.2723C23.9765 20.7066 25.8495 19.9238 28.0395 19.9238C30.2295 19.9238 32.0925 20.7066 33.6384 22.2723C33.9357 22.5795 34.2032 22.8966 34.4411 23.2236L37.5725 22.0147L37.6022 22.0048C37.6815 21.975 39.5148 21.3805 41.675 21.2814C40.9616 19.9535 40.0202 18.7049 38.831 17.5653C35.8581 14.7014 32.261 13.2645 28.0494 13.2645C23.8378 13.2645 20.2307 14.7014 17.2479 17.5653C15.4048 19.3391 14.1264 21.3309 13.4229 23.5507C15.375 23.9669 17.9416 24.4227 20.7758 24.72Z" fill="#C3A0CD"/>
<path d="M13.0565 29.2784L13.0069 29.2586L12.9574 29.2288C12.9277 29.209 12.8682 29.1793 12.7988 29.1396C12.8484 29.7838 12.9376 30.4081 13.0664 31.0225L15.3555 30.1405C14.5826 29.873 13.7898 29.5856 13.0565 29.2784Z" fill="#C3A0CD"/>
<path d="M33.6393 43.8722C34.8208 42.829 35.1179 41.2349 34.3028 40.3119C33.4877 39.3888 31.8692 39.4863 30.6877 40.5295C29.5061 41.5728 29.2091 43.1669 30.0241 44.0899C30.8392 45.013 32.4578 44.9155 33.6393 43.8722Z" fill="#FF7D91"/>
</svg>
