<svg width="25" height="25" viewBox="0 0 25 25" fill="none" xmlns="http://www.w3.org/2000/svg">
<path d="M13.2441 13.7501L10.3677 16.6125C10.2504 16.7287 10.1574 16.867 10.0939 17.0193C10.0304 17.1716 9.99772 17.335 9.99772 17.5C9.99772 17.6651 10.0304 17.8284 10.0939 17.9808C10.1574 18.1331 10.2504 18.2713 10.3677 18.3875C10.4839 18.5047 10.6222 18.5977 10.7746 18.6611C10.927 18.7246 11.0905 18.7573 11.2556 18.7573C11.4207 18.7573 11.5842 18.7246 11.7366 18.6611C11.889 18.5977 12.0273 18.5047 12.1435 18.3875L17.146 13.3876C17.2599 13.2687 17.3491 13.1285 17.4087 12.9751C17.5337 12.6707 17.5337 12.3294 17.4087 12.0251C17.3491 11.8716 17.2599 11.7314 17.146 11.6126L12.1435 6.61259C12.0269 6.49604 11.8885 6.40359 11.7361 6.34052C11.5838 6.27744 11.4205 6.24498 11.2556 6.24498C11.0907 6.24498 10.9274 6.27744 10.775 6.34052C10.6227 6.40359 10.4843 6.49604 10.3677 6.61259C10.251 6.72914 10.1586 6.8675 10.0954 7.01978C10.0323 7.17205 9.99986 7.33526 9.99986 7.50009C9.99986 7.66491 10.0323 7.82812 10.0954 7.9804C10.1586 8.13267 10.251 8.27103 10.3677 8.38758L13.2441 11.2501H1.25062C0.918936 11.2501 0.600836 11.3818 0.366299 11.6162C0.131761 11.8506 0 12.1685 0 12.5001C0 12.8316 0.131761 13.1495 0.366299 13.3839C0.600836 13.6184 0.918936 13.7501 1.25062 13.7501H13.2441ZM12.5062 0.000124616C10.1689 -0.0103051 7.87547 0.634137 5.88601 1.86035C3.89655 3.08657 2.29071 4.84549 1.25062 6.93759C1.10136 7.23596 1.0768 7.58137 1.18235 7.89783C1.28789 8.2143 1.51488 8.4759 1.8134 8.62508C2.11192 8.77426 2.4575 8.79881 2.77413 8.69332C3.09075 8.58784 3.35248 8.36095 3.50174 8.06258C4.29237 6.46674 5.49502 5.11087 6.98541 4.13509C8.4758 3.1593 10.1998 2.59901 11.9794 2.5121C13.759 2.4252 15.5294 2.81483 17.1079 3.64074C18.6864 4.46666 20.0155 5.69888 20.9581 7.21008C21.9006 8.72128 22.4223 10.4566 22.4692 12.2368C22.5161 14.017 22.0866 15.7773 21.2249 17.3361C20.3633 18.8948 19.1009 20.1952 17.5682 21.103C16.0354 22.0109 14.2879 22.4931 12.5062 22.5C10.6414 22.5081 8.81207 21.9905 7.22821 21.0066C5.64434 20.0227 4.37012 18.6124 3.55177 16.9375C3.40251 16.6392 3.14078 16.4123 2.82415 16.3068C2.50753 16.2013 2.16194 16.2259 1.86343 16.375C1.56491 16.5242 1.33791 16.7858 1.23237 17.1023C1.12683 17.4188 1.15139 17.7642 1.30065 18.0625C2.29217 20.0569 3.79879 21.7503 5.66465 22.9676C7.53052 24.1848 9.68788 24.8817 11.9136 24.9862C14.1393 25.0907 16.3525 24.599 18.3243 23.5619C20.2961 22.5248 21.9549 20.98 23.1291 19.0873C24.3033 17.1946 24.9502 15.0227 25.003 12.7963C25.0559 10.5699 24.5126 8.36982 23.4295 6.42363C22.3463 4.47744 20.7626 2.85582 18.8422 1.7265C16.9218 0.597178 14.7344 0.00117018 12.5062 0.000124616Z" fill="white"/>
</svg>
