<svg width="34" height="27" viewBox="0 0 34 27" fill="none" xmlns="http://www.w3.org/2000/svg">
<path d="M17.54 0H2C0.89543 0 0 0.89543 0 2C0 3.10457 0.89543 4 2 4H17.54C18.6446 4 19.54 3.10457 19.54 2C19.54 0.89543 18.6446 0 17.54 0Z" fill="#C3A0CD"/>
<path d="M17.54 11.36H2C0.89543 11.36 0 12.2554 0 13.36C0 14.4646 0.89543 15.36 2 15.36H17.54C18.6446 15.36 19.54 14.4646 19.54 13.36C19.54 12.2554 18.6446 11.36 17.54 11.36Z" fill="#A56EB4"/>
<path d="M17.54 22.72H2C0.89543 22.72 0 23.6154 0 24.72C0 25.8246 0.89543 26.72 2 26.72H17.54C18.6446 26.72 19.54 25.8246 19.54 24.72C19.54 23.6154 18.6446 22.72 17.54 22.72Z" fill="#C3A0CD"/>
<path d="M24.74 0C25.167 0 25.5765 0.169625 25.8784 0.471558C26.1804 0.773492 26.35 1.183 26.35 1.61V15.86H33.7C33.7495 15.8607 33.7978 15.8761 33.8385 15.9042C33.8793 15.9324 33.9108 15.972 33.929 16.0181C33.9472 16.0641 33.9514 16.1146 33.9408 16.163C33.9303 16.2114 33.9057 16.2556 33.87 16.29C31.6223 18.7143 29.544 21.2904 27.65 24C27.149 24.7435 26.5977 25.4518 26 26.12C25.7816 26.3815 25.4885 26.5699 25.16 26.66H24.68C24.2652 26.642 23.8735 26.4644 23.5865 26.1644C23.2996 25.8644 23.1396 25.4651 23.14 25.05V1.61C23.14 1.18473 23.3082 0.776727 23.608 0.475079C23.9078 0.173431 24.3147 0.00264144 24.74 0Z" fill="#C3A0CD"/>
</svg>
