<svg width="25" height="26" viewBox="0 0 25 26" fill="none" xmlns="http://www.w3.org/2000/svg">
<path d="M5.09001 16.7944C4.64001 16.8344 4.18001 16.8844 3.71001 16.9144C3.23001 16.9444 2.75001 16.9544 2.25001 16.9544C1.84001 16.9544 1.51001 17.2844 1.51001 17.6844V22.1044C1.51001 22.6444 1.95001 23.0844 2.49001 23.0844H4.92001C5.46001 23.0844 5.90001 22.6444 5.90001 22.1044V17.5244C5.91001 17.0744 5.50001 16.7444 5.09001 16.7944Z" fill="#A56EB4"/>
<path d="M22.2 7.35446C21.88 7.72446 21.58 8.07446 21.29 8.39446C20.73 9.03446 20.15 9.64446 19.34 10.3845C19.18 10.5145 19.09 10.7245 19.09 10.9245V22.1145C19.09 22.6545 19.53 23.0945 20.07 23.0945H22.5C23.04 23.0945 23.48 22.6545 23.48 22.1145V7.81446C23.49 7.14446 22.64 6.83446 22.2 7.35446Z" fill="#C3A0CD"/>
<path d="M16.48 12.5944C16.14 12.8244 15.79 13.0444 15.43 13.2544C14.84 13.6244 14.26 13.9544 13.64 14.2644C13.39 14.3844 13.23 14.6344 13.23 14.9044V22.1044C13.23 22.6444 13.67 23.0844 14.21 23.0844H16.64C17.18 23.0844 17.62 22.6444 17.62 22.1044V13.2044C17.63 12.6044 16.97 12.2744 16.48 12.5944Z" fill="#A56EB4"/>
<path d="M25 1.43447V4.36447C25 4.77447 24.68 5.09447 24.27 5.09447C23.86 5.09447 23.54 4.77447 23.54 4.36447V3.83447L20.65 7.07447C18.36 9.65447 15.6 11.6845 12.51 13.0645C9.41999 14.4545 6.04999 15.1845 2.61999 15.1845C1.94999 15.1845 1.35999 15.1545 0.669989 15.0945C0.269989 15.0645 -0.0300115 14.7145 0.00998854 14.3045C0.0399885 13.9045 0.389989 13.5845 0.799989 13.6445C4.89999 13.9945 8.88999 13.2045 12.5 11.4445C15.15 10.1545 17.55 8.35447 19.55 6.09447L23.06 2.14447H21.35C20.94 2.14447 20.62 1.82447 20.62 1.41447C20.62 1.00447 20.93 0.704468 21.34 0.704468H24.27C24.68 0.704468 25 1.02447 25 1.43447Z" fill="#C3A0CD"/>
<path d="M10.79 15.4645C10.39 15.6145 9.97999 15.7445 9.56999 15.8645C9.02999 16.0445 8.49 16.1745 7.94 16.3045C7.6 16.3945 7.37 16.6845 7.37 17.0245V22.1145C7.37 22.6545 7.81 23.0945 8.35 23.0945H10.78C11.32 23.0945 11.76 22.6545 11.76 22.1145V16.1545C11.77 15.6545 11.27 15.3045 10.79 15.4645Z" fill="#C3A0CD"/>
<path d="M25 24.9744C25 25.3844 24.68 25.7044 24.27 25.7044H0.73C0.32 25.7044 0 25.3844 0 24.9744C0 24.5644 0.32 24.2444 0.73 24.2444H24.27C24.68 24.2444 25 24.5644 25 24.9744Z" fill="#A56EB4"/>
</svg>
