<svg width="25" height="21" viewBox="0 0 25 21" fill="none" xmlns="http://www.w3.org/2000/svg">
<path d="M0 7.10484V5.66484C0 4.86484 0.65 4.21484 1.45 4.21484H12.49C12.69 4.21484 12.85 4.05484 12.85 3.85484V1.43484C12.85 0.464838 14.03 -0.0151619 14.71 0.674838L20.66 6.71484C21.34 7.40484 20.85 8.56484 19.89 8.56484H1.45C0.65 8.55484 0 7.90484 0 7.10484Z" fill="#C3A0CD"/>
<path d="M4.34 13.6648C3.66 12.9748 4.15 11.8148 5.11 11.8148H23.55C24.35 11.8148 25 12.4648 25 13.2648V14.7148C25 15.5148 24.35 16.1648 23.55 16.1648H12.51C12.31 16.1648 12.15 16.3249 12.15 16.5249V18.9449C12.15 19.9149 10.97 20.3949 10.29 19.7049L4.34 13.6648Z" fill="#A56EB4"/>
</svg>
