<svg width="24" height="25" viewBox="0 0 24 25" fill="none" xmlns="http://www.w3.org/2000/svg">
<path d="M21.89 11.5145C21.14 12.3545 20.4 13.2645 19.89 14.5145C19.66 15.0945 19.1 15.4645 18.48 15.4645C17.85 15.4645 17.3 15.0845 17.06 14.5045C16.47 13.0445 15.57 12.0545 14.69 11.0945C14.47 10.8545 14.25 10.6145 14.04 10.3645C14.03 10.3645 14.02 10.3745 14.01 10.3745C13.16 10.6345 12.5 11.7545 12.9 12.6745C13.17 13.3045 15.05 13.1845 14.89 14.5345C14.76 15.6445 16.2 15.9345 16.72 15.8745C17.23 15.8145 18.02 16.7145 17.62 17.1145C17.23 17.5145 16.48 17.5245 16.59 18.5545C16.62 18.8545 17.53 18.8145 17.53 19.2645C17.53 19.7245 17.06 20.2345 17.42 20.7645C17.5 20.8745 17.58 20.9645 17.66 21.0345C15.93 22.6245 13.62 23.6045 11.08 23.6045C5.73 23.6045 1.37 19.2545 1.37 13.8945C1.37 12.2745 1.77 10.7345 2.48 9.38446C2.48 11.1245 3.41 12.5745 3.84 13.0145C5.27 14.4345 7.33 13.9845 7.6 15.1745C7.87 16.3645 6.18 16.3645 6.29 17.2745C6.4 18.1845 8.6 18.4245 8.11 19.2645C7.46 20.3745 8.55 20.4645 8.23 21.8345C8.06 22.5845 9.15 22.7345 9.55 22.1645C9.86 21.7245 9.8 21.1945 10.41 20.5345C11.16 19.7345 12.92 19.5945 12.72 18.2745C12.39 16.0645 10.24 15.7245 9.31 15.2045C8.25 14.6245 8.51 13.2245 8.28 12.5545C7.96 11.6045 6.87 12.8145 6.28 12.2645C5.32 11.3645 6.45 10.0845 7.26 10.1045C8.96 10.1545 9.48 11.8145 10.1 11.7545C10.71 11.7045 11.1 10.8545 11.21 10.3945C11.44 9.41446 10.83 9.85446 10.58 9.33446C10.25 8.64446 11.74 7.99446 12.31 7.48446C12.4 7.40446 12.46 7.33446 12.5 7.26446C12.67 6.92446 12.45 6.67446 12.06 6.43446C11.29 5.97446 9.89 5.60446 9.83 4.87446C9.79 4.43446 10.64 4.21446 11.61 4.17446C11.77 4.18446 11.93 4.19446 12.09 4.21446C12.17 3.75446 12.3 3.31446 12.48 2.88446C12.02 2.82446 11.54 2.79446 11.07 2.79446C4.97 2.84446 0 7.81446 0 13.9245C0 20.0345 4.97 25.0045 11.08 25.0045C17.19 25.0045 22.16 20.0345 22.16 13.9245C22.16 13.0945 22.06 12.2945 21.89 11.5145Z" fill="#C3A0CD"/>
<path d="M17.9501 0.0244549C14.8201 0.324455 12.68 3.35446 13.23 6.44446C13.78 9.58446 16.68 10.5545 18.1201 14.0845C18.25 14.4045 18.7001 14.4045 18.83 14.0845C20.42 10.1745 23.81 9.40446 23.81 5.33446C23.81 2.22446 21.1301 -0.275545 17.9501 0.0244549ZM18.47 7.69446C16.91 7.69446 15.65 6.53446 15.65 5.11446C15.65 3.68446 16.91 2.53445 18.47 2.53445C20.03 2.53445 21.2901 3.69446 21.2901 5.11446C21.2901 6.53446 20.03 7.69446 18.47 7.69446Z" fill="#A56EB4"/>
</svg>
