<svg width="39" height="39" viewBox="0 0 39 39" fill="none" xmlns="http://www.w3.org/2000/svg">
<circle cx="19.5" cy="19.5" r="19.5" fill="#C3A0CD"/>
<path d="M24.5138 10C27.96 10 29.9964 11.9786 29.9964 15.3379V15.3751H25.7618C23.7911 15.3786 22.1947 16.9351 22.1911 18.8566C22.1884 20.7823 23.7867 22.3458 25.7618 22.3484H30V22.6543C30 26.0136 27.9636 28 24.5173 28H15.4836C12.0364 28 10 26.0136 10 22.6543V15.3379C10 11.9786 12.0364 10 15.4836 10H24.5138ZM20.3831 13.8749H14.7396C14.32 13.8766 13.9796 14.2086 13.9778 14.6185C13.976 15.0302 14.3173 15.3656 14.7396 15.3673H20.3902C20.8124 15.3656 21.1538 15.0302 21.152 14.6177C21.1502 14.206 20.8053 13.8732 20.3831 13.8749Z" fill="#6E0A82"/>
<path d="M24.0374 19.2967C24.2465 20.2479 25.0805 20.9171 26.0326 20.8997H29.2825C29.6787 20.8997 30 20.5716 30 20.166V17.6345C29.9991 17.2298 29.6787 16.9009 29.2825 16.9H25.9561C24.8731 16.9035 23.9983 17.8024 24 18.9103C24 19.0399 24.0128 19.1696 24.0374 19.2967Z" fill="white"/>
<path d="M26 19.9C26.5523 19.9 27 19.4523 27 18.9C27 18.3477 26.5523 17.9 26 17.9C25.4477 17.9 25 18.3477 25 18.9C25 19.4523 25.4477 19.9 26 19.9Z" fill="#6E0A82"/>
</svg>
