<svg width="20" height="15" viewBox="0 0 20 15" fill="none" xmlns="http://www.w3.org/2000/svg">
<g clip-path="url(#clip0_269_1642)">
<path d="M15 11.8334C13.3459 11.8334 12 10.4875 12 8.83344C12 7.17938 13.3459 5.83344 15 5.83344H16.6666V4.5C16.6666 3.76469 16.0684 3.16656 15.3331 3.16656H14.6666V1.83344C14.6666 1.09812 14.0687 0.5 13.3334 0.5H4C3.01125 0.5 2.19406 1.22281 2.03406 2.16594C2.01938 2.22063 2 2.27406 2 2.33344V12.5C2 13.6028 2.89719 14.5 4 14.5H15.3334C16.0687 14.5 16.6669 13.9019 16.6669 13.1666V11.8331H15V11.8334ZM3.33344 2.5C3.33344 2.13281 3.63219 1.83344 4 1.83344H13.3334V3.16687H4C3.63187 3.16656 3.33344 2.86719 3.33344 2.5Z" fill="#6DCEA0"/>
<path d="M17.5 6.8335H15C13.8972 6.8335 13 7.73068 13 8.8335C13 9.93631 13.8972 10.8335 15 10.8335H17.5C17.7759 10.8335 18 10.6094 18 10.3335V7.3335C18 7.05725 17.7759 6.8335 17.5 6.8335ZM15 9.50006C14.6319 9.50006 14.3334 9.20131 14.3334 8.8335C14.3334 8.46537 14.6322 8.16693 15 8.16693C15.3678 8.16693 15.6666 8.46568 15.6666 8.8335C15.6666 9.20131 15.3681 9.50006 15 9.50006Z" fill="#6DCEA0"/>
</g>
<defs>
<clipPath id="clip0_269_1642">
<rect width="20" height="14" fill="white" transform="translate(0 0.5)"/>
</clipPath>
</defs>
</svg>
