<svg width="20" height="14" viewBox="0 0 20 14" fill="none" xmlns="http://www.w3.org/2000/svg">
<path d="M15 11.3334C13.3459 11.3334 12 9.9875 12 8.33344C12 6.67938 13.3459 5.33344 15 5.33344H16.6666V4C16.6666 3.26469 16.0684 2.66656 15.3331 2.66656H14.6666V1.33344C14.6666 0.598125 14.0687 0 13.3334 0H4C3.01125 0 2.19406 0.722813 2.03406 1.66594C2.01938 1.72063 2 1.77406 2 1.83344V12C2 13.1028 2.89719 14 4 14H15.3334C16.0687 14 16.6669 13.4019 16.6669 12.6666V11.3331H15V11.3334ZM3.33344 2C3.33344 1.63281 3.63219 1.33344 4 1.33344H13.3334V2.66687H4C3.63187 2.66656 3.33344 2.36719 3.33344 2Z" fill="#FF5A7D"/>
<path d="M17.5 6.33398H15C13.8972 6.33398 13 7.23117 13 8.33398C13 9.4368 13.8972 10.334 15 10.334H17.5C17.7759 10.334 18 10.1099 18 9.83398V6.83398C18 6.55773 17.7759 6.33398 17.5 6.33398ZM15 9.00055C14.6319 9.00055 14.3334 8.7018 14.3334 8.33398C14.3334 7.96586 14.6322 7.66742 15 7.66742C15.3678 7.66742 15.6666 7.96617 15.6666 8.33398C15.6666 8.7018 15.3681 9.00055 15 9.00055Z" fill="#FF5A7D"/>
</svg>
