<svg width="15" height="15" viewBox="0 0 15 15" fill="none" xmlns="http://www.w3.org/2000/svg">
<path d="M7.5 15C11.6421 15 15 11.6421 15 7.5C15 3.35786 11.6421 0 7.5 0C3.35786 0 0 3.35786 0 7.5C0 11.6421 3.35786 15 7.5 15Z" fill="#32BA7C"/>
<path d="M5.5836 10.8833L9.44006 14.7397C12.6341 13.888 15 10.9779 15 7.5C15 7.42902 15 7.35804 15 7.28707L11.9716 4.49527L5.5836 10.8833Z" fill="#0AA06E"/>
<path d="M7.68927 9.17981C8.0205 9.51104 8.0205 10.0789 7.68927 10.4101L7.00315 11.0962C6.67192 11.4274 6.1041 11.4274 5.77287 11.0962L2.76814 8.06782C2.43691 7.73659 2.43691 7.16877 2.76814 6.83754L3.45426 6.15142C3.78549 5.82019 4.35331 5.82019 4.68454 6.15142L7.68927 9.17981Z" fill="white"/>
<path d="M10.3155 3.9511C10.6467 3.61987 11.2145 3.61987 11.5457 3.9511L12.2319 4.63722C12.5631 4.96845 12.5631 5.53628 12.2319 5.86751L7.02681 11.0489C6.69558 11.3801 6.12776 11.3801 5.79653 11.0489L5.11041 10.3628C4.77918 10.0315 4.77918 9.46372 5.11041 9.13249L10.3155 3.9511Z" fill="white"/>
</svg>
