<svg width="8" height="12" viewBox="0 0 8 12" fill="none" xmlns="http://www.w3.org/2000/svg">
<path d="M0.666667 7.33333C0.866667 7.33333 1 7.4 1.13333 7.53333L4.46667 10.8667C4.73333 11.1333 4.73333 11.5333 4.46667 11.8C4.2 12.0667 3.8 12.0667 3.53333 11.8L0.2 8.46667C-0.0666672 8.2 -0.0666672 7.8 0.2 7.53333C0.333333 7.4 0.466667 7.33333 0.666667 7.33333Z" fill="#6E6996"/>
<path d="M7.33333 7.33333C7.53333 7.33333 7.66667 7.4 7.8 7.53333C8.06667 7.8 8.06667 8.2 7.8 8.46667L4.46667 11.8C4.2 12.0667 3.8 12.0667 3.53333 11.8C3.26667 11.5333 3.26667 11.1333 3.53333 10.8667L6.86667 7.53333C7 7.4 7.13333 7.33333 7.33333 7.33333Z" fill="#6E6996"/>
<path d="M4 -3.49691e-07C4.4 -3.14722e-07 4.66667 0.266666 4.66667 0.666666L4.66667 11.3333C4.66667 11.7333 4.4 12 4 12C3.6 12 3.33333 11.7333 3.33333 11.3333L3.33333 0.666666C3.33333 0.266666 3.6 -3.8466e-07 4 -3.49691e-07Z" fill="#6E6996"/>
</svg>
