<svg width="11" height="10" viewBox="0 0 11 10" fill="none" xmlns="http://www.w3.org/2000/svg">
<path fill-rule="evenodd" clip-rule="evenodd" d="M0.476593 7.41583H1.39734C1.65985 7.41583 1.87394 7.62994 1.87394 7.89242V8.81317C1.87394 9.07568 1.65985 9.28979 1.39734 9.28979H0.476593C0.214084 9.28979 0 9.0757 0 8.81317V7.89242C0 7.62991 0.214084 7.41583 0.476593 7.41583ZM3.82905 0.710938H10.5234C10.7859 0.710938 11 0.925046 11 1.18753V2.10828C11 2.37076 10.7859 2.58487 10.5234 2.58487C5.60883 2.58487 8.74363 2.58487 3.82905 2.58487C3.56657 2.58487 3.35246 2.37079 3.35246 2.10828V1.18753C3.35246 0.925022 3.56657 0.710938 3.82905 0.710938ZM0.476593 0.710938H1.39734C1.65985 0.710938 1.87394 0.925046 1.87394 1.18753V2.10828C1.87394 2.37079 1.65985 2.58487 1.39734 2.58487H0.476593C0.214084 2.58487 0 2.37079 0 2.10828V1.18753C0 0.925022 0.214084 0.710938 0.476593 0.710938ZM3.82905 4.06337H10.5234C10.7859 4.06337 11 4.27748 11 4.53996V5.46071C11 5.7232 10.7859 5.93731 10.5234 5.93731C5.60883 5.93731 8.74363 5.93731 3.82905 5.93731C3.56657 5.93731 3.35246 5.72322 3.35246 5.46071V4.53996C3.35246 4.27746 3.56657 4.06337 3.82905 4.06337ZM0.476593 4.06337H1.39734C1.65985 4.06337 1.87394 4.27748 1.87394 4.53996V5.46071C1.87394 5.72322 1.65985 5.93731 1.39734 5.93731H0.476593C0.214084 5.93731 0 5.72322 0 5.46071V4.53996C0 4.27746 0.214084 4.06337 0.476593 4.06337ZM3.82905 7.41583H10.5234C10.7859 7.41583 11 7.62994 11 7.89242V8.81317C11 9.07566 10.7859 9.28976 10.5234 9.28976C5.60883 9.28976 8.74363 9.28976 3.82905 9.28976C3.56657 9.28976 3.35246 9.07568 3.35246 8.81317V7.89242C3.35246 7.62991 3.56657 7.41583 3.82905 7.41583Z" fill="#B4B4CD"/>
</svg>
