<svg width="15" height="15" viewBox="0 0 15 15" fill="none" xmlns="http://www.w3.org/2000/svg">
<path d="M7.5 15C11.6421 15 15 11.6421 15 7.5C15 3.35786 11.6421 0 7.5 0C3.35786 0 0 3.35786 0 7.5C0 11.6421 3.35786 15 7.5 15Z" fill="#FF5A7D"/>
<path d="M4.35331 10.8833L8.39905 14.929C11.806 14.5268 14.5032 11.8533 14.929 8.44637L10.8596 4.37697L4.35331 10.8833Z" fill="#E22854"/>
<path d="M11.0489 9.15615C11.3801 9.48738 11.3801 10.0552 11.0489 10.3864L10.3864 11.0489C10.0552 11.3801 9.48738 11.3801 9.15615 11.0489L3.9511 5.84385C3.61987 5.51262 3.61987 4.94479 3.9511 4.61356L4.63722 3.92744C4.96845 3.59621 5.53628 3.59621 5.86751 3.92744L11.0489 9.15615Z" fill="white"/>
<path d="M8.30442 6.38801L6.38801 8.30442L9.15615 11.0489C9.48738 11.3801 10.0552 11.3801 10.3864 11.0489L11.0726 10.3628C11.4038 10.0315 11.4038 9.46372 11.0726 9.13249L8.30442 6.38801Z" fill="white"/>
<path d="M9.15615 3.9511C9.48738 3.61987 10.0552 3.61987 10.3864 3.9511L11.0726 4.63722C11.4038 4.96845 11.4038 5.53628 11.0726 5.86751L5.84385 11.0489C5.51262 11.3801 4.94479 11.3801 4.61356 11.0489L3.9511 10.3864C3.61987 10.0552 3.61987 9.48738 3.9511 9.15615L9.15615 3.9511Z" fill="white"/>
</svg>
