<svg width="83" height="29" viewBox="0 0 83 29" fill="none" xmlns="http://www.w3.org/2000/svg">
<path fill-rule="evenodd" clip-rule="evenodd" d="M78.7278 8.55745C80.9698 8.55745 82.7984 6.72531 82.7984 4.47892C82.7984 2.23253 80.9698 0.400391 78.7278 0.400391C76.4857 0.400391 74.6571 2.23253 74.6571 4.47892C74.6571 6.72531 76.4857 8.55745 78.7278 8.55745Z" fill="#F25E3A"/>
<path fill-rule="evenodd" clip-rule="evenodd" d="M10.1189 3.22429C9.48761 3.1386 8.88491 3.08968 8.31082 3.08968C7.03175 3.08968 5.90783 3.31808 4.98731 3.80383C3.32166 4.68936 2.33209 6.42337 2.31966 9.21457H0.898438V12.7075H2.31966V21.4519H7.03608V12.7075H10.1189V9.21457H7.03608C7.03984 7.89221 7.25566 7.19455 7.88697 6.87236C8.21287 6.70504 8.64453 6.63961 9.21891 6.63961C9.48761 6.63961 9.78492 6.65206 10.1189 6.68043V3.22429Z" fill="#22188A"/>
<path fill-rule="evenodd" clip-rule="evenodd" d="M16.4719 3.92743H11.7561V17.1771C11.7561 19.3395 12.5827 20.7149 13.9227 21.5063C14.953 22.1267 16.2928 22.3753 17.7914 22.3753C18.1664 22.3753 18.5533 22.3591 18.9442 22.3307V18.8254C18.1991 18.8459 17.5594 18.7886 17.1197 18.5319C16.7082 18.287 16.4719 17.8707 16.4719 17.1771V3.92743Z" fill="#22188A"/>
<path fill-rule="evenodd" clip-rule="evenodd" d="M31.9725 9.91357H27.187L24.6866 17.0383L22.2308 9.91357H17.4413L22.6587 22.821C22.4397 23.4492 22.1247 24.0412 21.5301 24.3831C21.0049 24.6772 20.2227 24.7994 18.944 24.7994V28.3004C20.4756 28.3004 21.913 28.2025 23.151 27.6638C24.3769 27.1254 25.4075 26.1214 26.1362 24.3588L31.9725 9.91357Z" fill="#22188A"/>
<path fill-rule="evenodd" clip-rule="evenodd" d="M37.6578 3.92743H32.942L32.9417 22.155H37.6578V14.704C38.4928 13.4106 39.079 13.3657 39.5147 13.3657C40.3295 13.3657 40.9322 13.8185 40.9322 15.406V22.155H45.6483V14.3899C45.6483 10.9662 43.1925 9.59522 40.9565 9.59522C39.5191 9.59522 38.4928 10.2726 37.6578 11.1049V3.92743Z" fill="#22188A"/>
<path fill-rule="evenodd" clip-rule="evenodd" d="M60.2439 22.1512V9.91354H55.5278V17.5767C54.6439 18.6418 54.0086 18.6826 53.5281 18.6826C52.5709 18.6826 51.8622 18.2255 51.8622 16.6423V9.91354H47.1463V17.6584C47.1463 21.0861 49.8013 22.4693 52.2167 22.4693C53.8375 22.4693 54.9739 21.7349 55.9025 20.8494L56.1019 22.1512H60.2439Z" fill="#22188A"/>
<path fill-rule="evenodd" clip-rule="evenodd" d="M66.5968 14.696C66.9797 13.8186 67.7739 13.3861 68.7433 13.3861C70.1359 13.3861 71.146 14.1981 71.146 16.0345C71.146 17.8542 70.1685 18.6825 68.7433 18.6825C67.7739 18.6825 66.9797 18.25 66.5968 17.3728V14.696ZM66.5968 3.92748H61.8807V22.1551H66.0227L66.2342 20.7879C67.0611 21.7918 68.5884 22.3959 70.189 22.3959C72.9177 22.3959 75.854 20.633 75.854 16.014C75.854 11.6804 72.8362 9.64825 70.0056 9.64825C68.747 9.64825 67.509 10.0524 66.5968 10.8482V3.92748Z" fill="#22188A"/>
<path fill-rule="evenodd" clip-rule="evenodd" d="M77.6995 21.0842H77.2132V22.3907H76.931V21.0842H76.4424V20.8694H77.6995V21.0842Z" fill="#22188A"/>
<path fill-rule="evenodd" clip-rule="evenodd" d="M79.5414 20.8694V22.3906H79.2758V21.3013L78.7514 22.0905H78.7153L78.1869 21.3013V22.3906H77.9214V20.8694H78.1869L78.7301 21.6716L79.2758 20.8694H79.5414Z" fill="#22188A"/>
</svg>
