<svg width="15" height="15" viewBox="0 0 15 15" fill="none" xmlns="http://www.w3.org/2000/svg">
<g clip-path="url(#clip0_18_123)">
<path d="M0.775694 0.766994C-0.261494 1.79547 -0.261494 5.15979 0.775694 6.16211C1.55141 6.72864 2.51015 7.00755 3.47761 6.93783C4.44507 7.00755 5.3951 6.72864 6.17953 6.16211C7.21672 5.13364 7.21672 1.76932 6.17953 0.766994C5.14234 -0.23533 1.81288 -0.270194 0.775694 0.766994Z" fill="#B3B2CC"/>
<path d="M0.775694 8.81173C-0.261494 9.8402 -0.261494 13.2045 0.775694 14.2069C1.55141 14.7734 2.51015 15.0523 3.47761 14.9826C4.44507 15.0523 5.3951 14.7734 6.17953 14.2069C7.21672 13.1784 7.21672 9.81406 6.17953 8.81173C5.14234 7.80941 1.81288 7.77454 0.775694 8.81173Z" fill="#B3B2CC"/>
<path d="M11.5223 6.94654C12.4897 7.01627 13.4398 6.73736 14.2242 6.17083C15.2614 5.14236 15.2614 1.77803 14.2242 0.775708C13.187 -0.235332 9.83141 -0.26148 8.82908 0.775708C7.82676 1.8129 7.79189 5.1685 8.82908 6.17083C9.60479 6.73736 10.5635 7.00755 11.5223 6.94654Z" fill="#B3B2CC"/>
<path d="M8.82916 8.81173C7.79197 9.8402 7.79197 13.2045 8.82916 14.2069C9.60487 14.7734 10.5636 15.0523 11.5311 14.9826C12.4985 15.0523 13.4486 14.7734 14.233 14.2069C15.2702 13.1784 15.2702 9.81406 14.233 8.81173C13.1871 7.80941 9.85763 7.77454 8.82916 8.81173Z" fill="#B3B2CC"/>
</g>
<defs>
<clipPath id="clip0_18_123">
<rect width="15" height="15" fill="white"/>
</clipPath>
</defs>
</svg>
