<svg width="120" height="18" viewBox="0 0 120 18" fill="none" xmlns="http://www.w3.org/2000/svg">
<path d="M41.1268 0.599188L32.7808 3.80884C32.7808 3.80884 28.6959 5.47538 27.2259 4.23405L30.0644 3.12301C30.0644 3.12301 30.7418 2.95842 31.5276 3.06129C31.5276 3.06129 29.895 2.6978 28.6959 2.18344C28.6959 2.18344 27.375 1.45647 27.0972 0.503173C27.0972 0.503173 30.9789 1.60735 34.6167 1.40846C34.6167 1.40846 34.996 1.40846 35.4364 1.18899L37.8345 0.249419C37.8345 0.256277 40.1174 -0.504986 41.1268 0.599188Z" fill="#FF7D95"/>
<path d="M12.3225 4.9473H7.95981V16.3525H4.34233V4.9473H0V1.86796H12.3225V4.9473Z" fill="white"/>
<path d="M26.0607 3.85684C24.5704 2.4029 22.7752 1.67593 20.6616 1.67593C18.548 1.67593 16.7461 2.4029 15.2557 3.85684C13.7586 5.31079 13.0134 7.05963 13.0134 9.1171C13.0134 9.72748 13.0812 10.3173 13.2167 10.8728C14.2328 10.5025 15.4319 10.0567 16.7325 9.5766C16.719 9.42572 16.7122 9.27484 16.7122 9.1171C16.7122 7.99235 17.0983 7.0322 17.8706 6.2435C18.6429 5.44795 19.5777 5.05017 20.6752 5.05017C21.7726 5.05017 22.7007 5.44795 23.473 6.2435C23.6694 6.44925 23.8388 6.66186 23.9878 6.88132C25.1665 6.44239 26.3249 6.01032 27.4224 5.59883C27.0633 4.97473 26.6162 4.39864 26.0607 3.85684Z" fill="white"/>
<path d="M39.86 1.86796V9.5766C39.86 10.8797 39.6093 11.8192 39.1081 12.3885C38.6068 12.9646 37.848 13.2526 36.8319 13.2526C35.8157 13.2526 35.0638 12.9646 34.5693 12.3885C34.0747 11.8124 33.8309 10.8728 33.8309 9.5766V4.03516L32.9909 4.36435C32.9299 4.39178 31.7037 4.88558 30.3218 5.13933V10.5367C30.3218 12.2925 30.8908 13.7258 32.0289 14.8506C33.167 15.9753 34.7657 16.5377 36.8387 16.5377C38.9116 16.5377 40.5171 15.9753 41.662 14.8506C42.8068 13.7258 43.3759 12.2856 43.3759 10.5367V1.86796H39.86Z" fill="white"/>
<path d="M51.9386 13.0057C51.8844 13.0194 51.7828 13.0263 51.6337 13.0263H49.4592V16.3525H45.8688V1.86796H52.4467C54.4654 1.86796 55.9354 2.37547 56.8635 3.39734C57.7916 4.41922 58.2522 5.70856 58.2522 7.27224C58.2522 9.72748 57.3377 11.4009 55.5154 12.3062L58.6993 16.3525H54.3977L51.9386 13.0057ZM49.466 10.0635H51.4983C52.5144 10.0635 53.2664 9.82349 53.7541 9.34342C54.2419 8.86334 54.4857 8.25982 54.4857 7.53285C54.4857 6.79216 54.2757 6.17492 53.8557 5.68113C53.4357 5.18734 52.7651 4.94044 51.8437 4.94044H49.466V10.0635Z" fill="white"/>
<path d="M75.3235 1.86796V16.3525H71.7128V9.75491L67.8379 14.8506L63.963 9.75491V16.3525H60.3726V1.86796H62.0797L67.8447 9.47373L73.6096 1.86796H75.3235Z" fill="#FF7D95"/>
<path d="M87.5375 13.8013H81.7116L80.5939 16.3525H76.8206L83.7643 1.86796H85.4917L92.4557 16.3525H88.6824L87.5375 13.8013ZM82.992 10.8042H86.2572L84.611 7.18994L82.992 10.8042Z" fill="#FF7D95"/>
<path d="M100.023 13.0057C99.9684 13.0194 99.8668 13.0263 99.7177 13.0263H97.5432V16.3525H93.9528V1.86796H100.531C102.549 1.86796 104.019 2.37547 104.948 3.39734C105.876 4.41922 106.336 5.70856 106.336 7.27224C106.336 9.72748 105.422 11.4009 103.599 12.3062L106.783 16.3525H102.482L100.023 13.0057ZM97.5432 10.0635H99.5755C100.592 10.0635 101.344 9.82349 101.831 9.34342C102.319 8.86334 102.563 8.25982 102.563 7.53285C102.563 6.79216 102.353 6.17492 101.933 5.68113C101.513 5.18734 100.842 4.94044 99.921 4.94044H97.5432V10.0635Z" fill="#FF7D95"/>
<path d="M115.631 4.9473V16.3525H112.02V4.9473H107.678V1.86796H120V4.9473H115.631Z" fill="#FF7D95"/>
<path d="M19.3471 17.3456C19.9389 16.8166 20.0873 16.008 19.6787 15.5395C19.2701 15.0711 18.4592 15.1201 17.8674 15.6491C17.2757 16.1781 17.1272 16.9867 17.5358 17.4552C17.9444 17.9237 18.7553 17.8746 19.3471 17.3456Z" fill="#FF7D95"/>
<path d="M24.5569 8.35583C24.5975 8.60273 24.6246 8.85648 24.6246 9.1171C24.6246 10.2418 24.2385 11.202 23.4662 11.9976C22.6939 12.7931 21.7591 13.1909 20.6684 13.1909C19.571 13.1909 18.6361 12.7931 17.8638 11.9976C17.7622 11.8878 17.6674 11.7849 17.5793 11.6752C17.4506 11.5175 17.3422 11.3529 17.2406 11.1814L24.4146 7.77974L27.7137 6.20921L28.6011 5.784C28.5672 5.79772 28.2285 5.92117 27.6798 6.12691C26.9075 6.41496 25.6949 6.8676 24.2656 7.40254C22.0504 8.23239 19.3135 9.2474 16.8274 10.1664C15.5741 10.6328 14.3886 11.0648 13.3725 11.442C13.5215 11.8947 13.718 12.3199 13.9551 12.7382C14.0567 12.9097 14.1651 13.0743 14.2735 13.2389C14.5512 13.6367 14.8764 14.0139 15.249 14.3705C15.8112 14.9123 16.4141 15.3581 17.0645 15.6941C17.4709 15.0632 18.189 14.6311 18.9139 14.6311C19.4219 14.6311 19.8758 14.8437 20.1603 15.2209C20.4381 15.5775 20.5329 16.0508 20.4448 16.5377C20.5126 16.5377 20.5803 16.5446 20.6481 16.5446C20.7226 16.5446 20.7903 16.5446 20.8649 16.5377C20.8716 16.476 20.8852 16.4211 20.8987 16.3594C21.1358 15.3924 22.0775 14.6311 23.0394 14.6311C23.5475 14.6311 24.0014 14.8437 24.2859 15.2209C24.3672 15.3238 24.4281 15.4335 24.4823 15.557C25.0378 15.2415 25.5594 14.8437 26.0404 14.3705C27.5308 12.9234 28.2759 11.1746 28.2759 9.1171C28.2759 8.28039 28.154 7.4917 27.9034 6.75101L24.5569 8.35583Z" fill="white"/>
<path d="M23.4798 17.3466C24.0716 16.8176 24.22 16.009 23.8114 15.5405C23.4028 15.072 22.5919 15.1211 22.0001 15.6501C21.4084 16.1791 21.2599 16.9877 21.6685 17.4562C22.0771 17.9246 22.8881 17.8756 23.4798 17.3466Z" fill="#FF7D95"/>
</svg>
