<svg width="8" height="8" viewBox="0 0 8 8" fill="none" xmlns="http://www.w3.org/2000/svg">
<path d="M6.81854 1.18146C5.26949 -0.382899 2.74581 -0.395355 1.18146 1.1537C-0.382899 2.70275 -0.395355 5.22643 1.1537 6.79078C1.16295 6.80004 1.1722 6.80929 1.18146 6.81854C2.73051 8.3829 5.25419 8.39536 6.81854 6.8463C8.3829 5.29725 8.39536 2.77357 6.8463 1.20922C6.83705 1.19996 6.8278 1.19071 6.81854 1.18146ZM0.583367 4C0.58319 3.69766 0.623406 3.39657 0.702594 3.10474C0.833209 3.3859 1.0229 3.6288 1.15192 3.91725C1.31866 4.2881 1.76638 4.18525 1.96408 4.51018C2.13954 4.79864 1.95216 5.16343 2.08348 5.46524C2.17886 5.68429 2.40379 5.73216 2.55896 5.89232C2.71752 6.05389 2.71414 6.27526 2.73834 6.48596C2.76556 6.73348 2.80987 6.97888 2.87091 7.22035C2.87091 7.22213 2.87091 7.22409 2.87233 7.22587C1.54074 6.75822 0.583367 5.4889 0.583367 4ZM4 7.41663C3.80924 7.41663 3.61865 7.40062 3.43056 7.36894C3.43252 7.32072 3.43341 7.2757 3.43821 7.24438C3.48145 6.96144 3.6231 6.68473 3.81422 6.47297C4.00302 6.26405 4.26176 6.12276 4.42121 5.88573C4.57745 5.6544 4.62425 5.34299 4.55983 5.07268C4.46498 4.67336 3.92241 4.54008 3.62986 4.32351C3.4617 4.19895 3.31205 4.00641 3.09121 3.99075C2.98942 3.98363 2.90419 4.00552 2.80329 3.97954C2.71075 3.95551 2.63815 3.90569 2.53957 3.91868C2.35539 3.94288 2.23919 4.13969 2.04131 4.113C1.85357 4.08791 1.66014 3.86814 1.61743 3.6893C1.56262 3.45939 1.74449 3.38483 1.93934 3.36436C2.02067 3.35582 2.11195 3.34657 2.19007 3.37646C2.29293 3.41455 2.34151 3.51526 2.43387 3.56616C2.60701 3.66118 2.64207 3.50939 2.61555 3.35564C2.57587 3.12538 2.5296 3.0316 2.73496 2.87304C2.87732 2.76378 2.99903 2.68477 2.97626 2.4885C2.96273 2.37318 2.89956 2.32105 2.95846 2.20627C3.00313 2.11889 3.12573 2.04006 3.20563 1.98792C3.41188 1.85339 4.08915 1.86336 3.81244 1.48682C3.73112 1.37631 3.58111 1.17879 3.43875 1.15174C3.2608 1.11811 3.18179 1.3167 3.05776 1.40425C2.92963 1.49483 2.68015 1.59768 2.55185 1.45763C2.37923 1.26919 2.66627 1.20744 2.7298 1.07575C2.75916 1.01436 2.7298 0.929124 2.68033 0.848868C2.74457 0.82182 2.80969 0.796729 2.87607 0.773596C2.91771 0.804203 2.967 0.82271 3.01843 0.826981C3.13748 0.83481 3.24976 0.770392 3.35369 0.851538C3.469 0.940512 3.5521 1.05298 3.70514 1.08074C3.85319 1.10761 4.00996 1.0213 4.04662 0.869688C4.06887 0.77751 4.04662 0.680172 4.02527 0.584969C4.6908 0.588884 5.34049 0.788188 5.89374 1.15814C5.85815 1.14462 5.81562 1.14622 5.76312 1.1706C5.65511 1.22078 5.50207 1.34855 5.48944 1.47525C5.47502 1.61903 5.68714 1.63932 5.78786 1.63932C5.93912 1.63932 6.09233 1.5717 6.04357 1.39695C6.0224 1.32115 5.99357 1.24231 5.94712 1.19462C6.0587 1.27203 6.16565 1.3562 6.26743 1.44625C6.26583 1.44785 6.26423 1.44927 6.26263 1.45105C6.16013 1.55782 6.04108 1.64235 5.97097 1.77225C5.9215 1.86371 5.8658 1.90713 5.76562 1.9308C5.71045 1.94379 5.64746 1.9486 5.60119 1.98561C5.47235 2.08704 5.54567 2.33083 5.66774 2.40397C5.82203 2.49633 6.05087 2.45291 6.16725 2.32104C6.25818 2.21783 6.31174 2.03864 6.47528 2.03882C6.54735 2.03864 6.61639 2.06693 6.66782 2.11729C6.73544 2.18741 6.72209 2.25289 6.73651 2.34044C6.76196 2.49597 6.89915 2.41162 6.98261 2.33315C7.04347 2.44134 7.09828 2.55291 7.14704 2.66716C7.05522 2.79937 6.98226 2.94351 6.76142 2.78941C6.6292 2.69705 6.54788 2.56306 6.38186 2.52142C6.23683 2.48583 6.08824 2.52284 5.94499 2.54757C5.78216 2.57587 5.58909 2.58833 5.46559 2.71164C5.34619 2.83051 5.28302 2.9896 5.15596 3.10901C4.91021 3.34034 4.80647 3.59285 4.96555 3.91992C5.11859 4.23436 5.43872 4.40501 5.78412 4.38259C6.12347 4.35999 6.47599 4.16318 6.4662 4.65628C6.46264 4.83085 6.49912 4.95167 6.55269 5.11379C6.60233 5.26326 6.59895 5.40811 6.61034 5.5624C6.6212 5.74302 6.64949 5.92221 6.69469 6.09749C6.04838 6.92976 5.05382 7.41663 4 7.41663Z" fill="white"/>
</svg>
