<svg width="14" height="14" viewBox="0 0 14 14" fill="none" xmlns="http://www.w3.org/2000/svg">
<path d="M7 14C8.38447 14 9.73784 13.5895 10.889 12.8203C12.0401 12.0511 12.9373 10.9579 13.4672 9.67878C13.997 8.3997 14.1356 6.99224 13.8655 5.63437C13.5954 4.2765 12.9287 3.02922 11.9497 2.05025C10.9708 1.07129 9.7235 0.404602 8.36563 0.134505C7.00776 -0.135592 5.6003 0.00303195 4.32121 0.532845C3.04213 1.06266 1.94888 1.95986 1.17971 3.11101C0.410542 4.26215 -2.20681e-07 5.61553 -3.41715e-07 7C0.00200603 8.8559 0.740148 10.6352 2.05247 11.9475C3.36479 13.2598 5.1441 13.998 7 14ZM7 1.16667C8.15372 1.16667 9.28154 1.50879 10.2408 2.14976C11.2001 2.79074 11.9478 3.70178 12.3893 4.76768C12.8308 5.83358 12.9463 7.00647 12.7212 8.13803C12.4962 9.26958 11.9406 10.309 11.1248 11.1248C10.309 11.9406 9.26958 12.4962 8.13802 12.7212C7.00647 12.9463 5.83358 12.8308 4.76768 12.3893C3.70178 11.9478 2.79073 11.2001 2.14976 10.2408C1.50878 9.28154 1.16667 8.15372 1.16667 7C1.16836 5.45343 1.78349 3.97068 2.87709 2.87709C3.97068 1.78349 5.45342 1.16837 7 1.16667Z" fill="white"/>
<path d="M7.79254 10.3646C7.85138 10.4137 7.9193 10.4507 7.99245 10.4736C8.06559 10.4964 8.14252 10.5047 8.21885 10.4978C8.29517 10.4909 8.36939 10.4691 8.43727 10.4335C8.50515 10.3979 8.56536 10.3494 8.61446 10.2905C8.66356 10.2317 8.7006 10.1638 8.72345 10.0906C8.7463 10.0175 8.75452 9.94054 8.74764 9.86422C8.74076 9.7879 8.71892 9.71368 8.68336 9.6458C8.64779 9.57792 8.59921 9.51771 8.54038 9.4686L5.57821 6.99994L8.54038 4.53127C8.65919 4.4321 8.73375 4.28979 8.74764 4.13565C8.76154 3.98152 8.71363 3.82817 8.61446 3.70935C8.51529 3.59054 8.37299 3.51598 8.21885 3.50209C8.06471 3.48819 7.91136 3.5361 7.79254 3.63527L4.29255 6.55194C4.2269 6.60668 4.17408 6.67519 4.13784 6.7526C4.10159 6.83002 4.08281 6.91446 4.08281 6.99994C4.08281 7.08542 4.10159 7.16985 4.13784 7.24727C4.17408 7.32469 4.2269 7.39319 4.29254 7.44794L7.79254 10.3646Z" fill="white"/>
</svg>
