<svg width="36" height="30" viewBox="0 0 36 30" fill="none" xmlns="http://www.w3.org/2000/svg">
<rect width="36" height="30" rx="4" fill="#B4B4CD"/>
<path d="M12.8387 19.8671H13.7006V22.2258C13.7006 22.4311 13.7822 22.6281 13.9274 22.7732C14.0726 22.9184 14.2695 23 14.4748 23H21.5252C21.7305 23 21.9274 22.9184 22.0726 22.7732C22.2178 22.6281 22.2994 22.4311 22.2994 22.2258V19.8671H23.1613C24.7267 19.8671 26 18.5938 26 17.0284V12.9716C26 11.4062 24.7267 10.1329 23.1613 10.1329H22.2994V7.77419C22.2994 7.56886 22.2178 7.37195 22.0726 7.22676C21.9274 7.08157 21.7305 7 21.5252 7H14.4748C14.2695 7 14.0726 7.08157 13.9274 7.22676C13.7822 7.37195 13.7006 7.56886 13.7006 7.77419V10.1329H12.8387C12.0861 10.1337 11.3645 10.4331 10.8323 10.9652C10.3002 11.4974 10.0008 12.219 10 12.9716V17.0284C10 18.5938 11.2733 19.8671 12.8387 19.8671ZM20.751 21.4516H15.249V15.7742H20.751V21.4516ZM15.249 8.54839H20.751V10.1329H15.249V8.54839ZM11.5484 12.9716C11.5484 12.2599 12.1275 11.6813 12.8387 11.6813H23.1613C23.8725 11.6813 24.4516 12.2599 24.4516 12.9716V17.0284C24.4516 17.7401 23.8725 18.3187 23.1613 18.3187H22.2994V15.769C22.504 15.7623 22.6976 15.6746 22.8376 15.5251C22.9775 15.3757 23.0524 15.1768 23.0457 14.9721C23.039 14.7675 22.9512 14.5739 22.8018 14.4339C22.6523 14.294 22.4534 14.2191 22.2488 14.2258H13.7512C13.5466 14.219 13.3476 14.2938 13.1981 14.4337C13.0486 14.5737 12.9608 14.7672 12.9541 14.9719C12.9473 15.1765 13.0221 15.3755 13.162 15.525C13.3019 15.6745 13.4955 15.7623 13.7001 15.769V18.3187H12.8387C12.4966 18.3183 12.1687 18.1822 11.9268 17.9403C11.6849 17.6984 11.5488 17.3705 11.5484 17.0284V12.9716Z" fill="white"/>
</svg>
