<svg width="19" height="14" viewBox="0 0 19 14" fill="none" xmlns="http://www.w3.org/2000/svg">
<path d="M3.51693 0.388766C3.97583 -0.0706231 4.72025 -0.0706232 5.17915 0.388277L8.37529 3.59029C8.8337 4.05017 8.83272 4.7946 8.37333 5.25301C7.91345 5.71142 7.16902 5.71044 6.71012 5.25105L5.42109 3.95957C5.16887 7.85409 8.12209 11.2158 12.0166 11.468C13.4472 11.5606 14.8724 11.2158 16.1026 10.4792C16.2569 10.3866 16.4102 10.2867 16.5571 10.1824C17.0831 9.80233 17.8182 9.92085 18.1983 10.4469C18.5783 10.9728 18.4598 11.708 17.9338 12.088C17.9279 12.0924 17.9221 12.0963 17.9157 12.1008C17.7198 12.2394 17.5166 12.3721 17.3113 12.4955C12.8482 15.1671 7.06471 13.715 4.3931 9.25185C3.47481 7.71745 3.01199 5.95335 3.0595 4.16575L1.97665 5.2486C1.50159 5.69085 0.75765 5.6644 0.315402 5.18934C-0.105297 4.73778 -0.104808 4.03793 0.315891 3.58686L3.51693 0.388766Z" fill="#C3A0CD"/>
</svg>
