<svg width="15" height="11" viewBox="0 0 15 11" fill="none" xmlns="http://www.w3.org/2000/svg">
<path d="M9.96007 5.01513C10.2354 4.74712 10.6821 4.74712 10.9574 5.01513L11.7312 5.7697C11.8825 3.49513 10.1108 1.53177 7.77404 1.38417C6.91538 1.33011 6.06025 1.53148 5.32207 1.96168C5.23039 2.01517 5.13958 2.07266 5.05231 2.1333C4.73376 2.35241 4.29297 2.2789 4.06787 1.96883C3.84278 1.65877 3.9183 1.22971 4.23684 1.01061C4.35439 0.930515 4.47399 0.854143 4.59565 0.781776C7.2733 -0.77856 10.7435 0.0698275 12.3465 2.6762C12.8975 3.57236 13.1752 4.60238 13.1467 5.64642L13.7964 5.01513C14.0724 4.7474 14.519 4.74797 14.7941 5.01628C15.0691 5.28487 15.0685 5.71965 14.7929 5.98766L12.8725 7.85549C12.5972 8.12351 12.1505 8.12351 11.8752 7.85549L9.95772 5.9848C9.68384 5.71621 9.68472 5.28258 9.96007 5.01513Z" fill="#B4B4CD"/>
<path d="M2.11014 3.14731C2.38549 2.879 2.83215 2.879 3.1075 3.14702L5.02524 5.01714C5.30029 5.28572 5.2997 5.7205 5.02406 5.98823C4.74813 6.25596 4.30146 6.25539 4.02611 5.98709L3.25267 5.23281C3.10133 7.50738 4.87331 9.47074 7.21009 9.61805C8.06846 9.67211 8.92359 9.47074 9.66177 9.04054C9.75433 8.98648 9.84631 8.92813 9.93447 8.8672C10.2501 8.64524 10.6912 8.71446 10.9192 9.02166C11.1472 9.32887 11.0761 9.75821 10.7605 9.98018C10.757 9.98275 10.7535 9.98504 10.7496 9.98761C10.6321 10.0686 10.5101 10.1461 10.387 10.2182C7.70906 11.7785 4.23886 10.9304 2.63586 8.32373C2.08487 7.42758 1.80717 6.39727 1.83567 5.35323L1.18595 5.98566C0.900903 6.24395 0.454529 6.22851 0.189173 5.95105C-0.0632534 5.68732 -0.0629596 5.27857 0.189467 5.01513L2.11014 3.14731Z" fill="#B4B4CD"/>
</svg>
