<svg width="21" height="20" viewBox="0 0 21 20" fill="none" xmlns="http://www.w3.org/2000/svg">
<g clip-path="url(#clip0_34_2)">
<path d="M20.5 9.99431C20.5 15.5037 16.0151 19.9886 10.5057 19.9886C4.98492 20 0.5 15.5151 0.5 9.99431C0.5 4.48492 4.98492 0 10.4943 0C16.0151 0 20.5 4.48492 20.5 9.99431Z" fill="#A56EB4"/>
<path d="M15.3434 8.78771C15.3434 9.06091 15.1158 9.28857 14.8426 9.28857H10.0276V13.2271C10.0276 13.4775 10.1186 13.671 10.3121 13.8076C10.5056 13.9442 10.7219 14.0125 10.9837 14.0125H11.4163C11.8261 14.0125 12.1676 13.9101 12.4635 13.6938C12.7595 13.4775 12.8961 13.2157 12.8961 12.897C12.8961 12.6807 12.8278 12.4986 12.6912 12.3506C12.5318 12.1799 12.3042 12.1002 12.0765 12.1002C11.6781 12.1002 11.348 11.7701 11.348 11.3717V10.8025C11.348 10.3927 11.6781 10.0626 12.0879 10.0626H12.1106C12.9985 10.0626 13.7498 10.3358 14.3759 10.8822C15.0019 11.4286 15.3093 12.1002 15.3093 12.897C15.3093 13.7849 14.9223 14.5361 14.1596 15.1395C13.3969 15.7541 12.4749 16.0501 11.4049 16.0501H10.9837C10.0731 16.0501 9.27627 15.7541 8.61605 15.1622C7.94445 14.5703 7.61435 13.8645 7.61435 13.045V9.28857H6.49881C6.22562 9.28857 5.99796 9.06091 5.99796 8.78771V7.94537C5.99796 7.67218 6.22562 7.44451 6.49881 7.44451H7.61435V7.08026C7.61435 6.8526 7.53467 6.65908 7.36392 6.48834C7.19317 6.32898 6.98828 6.24929 6.74924 6.24929C6.32806 6.24929 5.98657 5.9078 5.98657 5.48663V4.97439C5.98657 4.55322 6.32806 4.21173 6.74924 4.21173C7.6485 4.21173 8.42254 4.53046 9.05999 5.16791C9.69744 5.80536 10.0162 6.56802 10.0162 7.44451H14.8198C15.093 7.44451 15.3207 7.67218 15.3207 7.94537V8.78771H15.3434Z" fill="white"/>
</g>
<defs>
<clipPath id="clip0_34_2">
<rect width="20" height="20" fill="white" transform="translate(0.5)"/>
</clipPath>
</defs>
</svg>
