<svg width="11" height="10" viewBox="0 0 11 10" fill="none" xmlns="http://www.w3.org/2000/svg">
<path d="M10.9267 3.51419C10.9969 3.34726 11.016 3.16327 10.9818 2.98545C10.9475 2.80762 10.8614 2.64393 10.7342 2.51503L8.90083 0.681693C8.81536 0.596225 8.7139 0.528427 8.60223 0.482172C8.49056 0.435917 8.37087 0.412109 8.25 0.412109C8.00589 0.412109 7.77178 0.509081 7.59917 0.681693C7.5137 0.767162 7.4459 0.868628 7.39965 0.980298C7.35339 1.09197 7.32958 1.21166 7.32958 1.33253C7.32958 1.57664 7.42656 1.81075 7.59917 1.98336L7.87417 2.24919H0.916667C0.673552 2.24919 0.440394 2.34577 0.268486 2.51768C0.0965772 2.68959 0 2.92274 0 3.16586C0 3.40897 0.0965772 3.64213 0.268486 3.81404C0.440394 3.98595 0.673552 4.08253 0.916667 4.08253H10.0833C10.2643 4.08162 10.441 4.02717 10.591 3.92603C10.7411 3.82489 10.8579 3.68159 10.9267 3.51419ZM3.40083 9.31669C3.48675 9.23148 3.55495 9.13009 3.60148 9.01839C3.64802 8.90668 3.67198 8.78687 3.67198 8.66586C3.67198 8.54485 3.64802 8.42504 3.60148 8.31333C3.55495 8.20163 3.48675 8.10024 3.40083 8.01503L3.12583 7.74919H10.0833C10.3264 7.74919 10.5596 7.65262 10.7315 7.48071C10.9034 7.3088 11 7.07564 11 6.83253C11 6.58941 10.9034 6.35625 10.7315 6.18435C10.5596 6.01244 10.3264 5.91586 10.0833 5.91586H0.916667C0.735693 5.91676 0.559037 5.97122 0.40896 6.07235C0.258883 6.17349 0.142102 6.31679 0.0733333 6.48419C0.00313547 6.65113 -0.0160438 6.83512 0.0182159 7.01294C0.0524755 7.19076 0.138639 7.35445 0.265833 7.48336L2.09917 9.31669C2.18438 9.40261 2.28577 9.47081 2.39747 9.51735C2.50918 9.56388 2.62899 9.58784 2.75 9.58784C2.87101 9.58784 2.99082 9.56388 3.10253 9.51735C3.21423 9.47081 3.31562 9.40261 3.40083 9.31669Z" fill="#B4B4CD"/>
</svg>
