<?xml version="1.0" encoding="utf-8"?>
<!-- Generator: Adobe Illustrator 25.2.0, SVG Export Plug-In . SVG Version: 6.00 Build 0)  -->
<svg version="1.1" id="Layer_1" xmlns="http://www.w3.org/2000/svg" xmlns:xlink="http://www.w3.org/1999/xlink" x="0px" y="0px"
	 viewBox="0 0 566.61 209.74" style="enable-background:new 0 0 566.61 209.74;" xml:space="preserve">
<style type="text/css">
	.st0{fill:#01783B;}
	.st1{fill:#39B449;}
	.st2{fill:#8DC43E;}
	.st3{fill:#D00202;}
	.st4{fill:#C2C8CC;}
	.st5{fill:#EB5F72;}
	.st6{fill:#43165C;}
</style>
<g>
	<path class="st0" d="M107.02,77.51c0,0.55,0,0.9,0,1.25c0,9.26,0.01,18.53,0,27.79c-0.01,5.88-2.55,10.36-7.65,13.31
		c-15.74,9.12-31.51,18.18-47.23,27.32c-7.54,4.39-15,4.41-22.53,0c-6.87-4.03-13.79-7.97-20.69-11.95
		c-0.31-0.18-0.61-0.36-1.01-0.6C40.94,115.6,73.88,96.61,107.02,77.51z"/>
	<path class="st1" d="M8.12,19.96c4.28-2.49,8.56-4.98,12.84-7.46c3.23-1.87,6.43-3.78,9.71-5.57c6.8-3.72,13.7-3.82,20.43,0.02
		c16.23,9.27,32.4,18.64,48.56,28.04c4.85,2.82,7.32,7.2,7.35,12.81c0.06,9.4,0.02,18.81,0.02,28.22c0,0.31,0,0.62,0,1.12
		c-22.38-12.89-44.6-25.68-66.81-38.47c-0.2-0.14-0.39-0.31-0.6-0.43c-2.6-1.5-5.21-2.98-7.81-4.48
		c-5.79-3.34-11.57-6.68-17.35-10.04C12.34,22.49,10.15,21.35,8.12,19.96z"/>
	<path class="st2" d="M8.12,19.96c2.04,1.39,4.22,2.53,6.35,3.77c5.78,3.36,11.56,6.7,17.35,10.04c2.6,1.5,5.21,2.99,7.81,4.48
		c0.21,0.12,0.4,0.28,0.6,0.43c-0.02,0.47-0.06,0.93-0.06,1.4c0,20.61-0.01,41.22,0.02,61.83c0,0.86-0.26,1.34-1.01,1.77
		c-10.15,5.89-20.28,11.81-30.42,17.72c-0.21,0.12-0.43,0.23-0.65,0.35c-0.3-0.26-0.17-0.56-0.17-0.82
		c-0.01-33.32-0.01-66.64,0-99.96C7.93,20.62,7.76,20.23,8.12,19.96z"/>
	<path class="st3" d="M51.89,57.1c11.74,6.79,23.3,13.47,34.98,20.22c-3.8,2.19-7.46,4.3-11.12,6.4
		c-7.61,4.38-15.22,8.76-22.83,13.14c-1.02,0.59-1.03,0.59-1.03-0.6c0-12.7,0-25.4,0-38.1C51.89,57.89,51.89,57.6,51.89,57.1z"/>
	<path class="st3" d="M397.87,58.88v52.21h-10.66V82.21l-16.14,22.66l-16.22-22.66v28.88h-10.59V58.88h5.18l21.63,29.92l21.63-29.92
		H397.87z"/>
	<path class="st3" d="M443.35,100.51h-23.33l-4.67,10.59h-11.18l24.88-52.21h5.26l24.96,52.21h-11.18L443.35,100.51z M423.79,91.69
		h15.78l-7.92-17.26L423.79,91.69z"/>
	<path class="st3" d="M487.86,97.62c-0.4,0.05-1.06,0.07-2,0.07h-9.7v13.4h-10.59V58.88h23.03c7.11,0,12.29,1.78,15.55,5.33
		c3.26,3.55,4.89,8.05,4.89,13.48c0,8.84-3.53,14.79-10.59,17.85l12.15,15.55h-12.66L487.86,97.62z M476.15,88.95h9.33
		c4.1,0,7.2-0.94,9.3-2.81c2.1-1.88,3.15-4.42,3.15-7.63c0-3.01-0.88-5.51-2.63-7.48s-4.55-2.96-8.41-2.96h-10.74V88.95z"/>
	<path class="st3" d="M558.73,68.07h-16.66v43.03h-10.66V68.07h-16.6v-9.18h43.92V68.07z"/>
	<path class="st0" d="M170.27,59.55c-1.92-0.75-4-1.16-6.19-1.16h-10.59c-9.45,0-17.12,7.67-17.12,17.12v18.47
		c0,9.45,7.67,17.12,17.12,17.12h1.24c5.8,0,11.17-1.87,15.53-5.05v5.05h10.93V40.07h-10.93v19.48H170.27z M170.27,88.12
		c0,6.47-5.24,11.71-11.71,11.71h-4.44c-3.77,0-6.82-3.05-6.82-6.81V76.46c0-3.76,3.05-6.81,6.82-6.81h9.34
		c3.77,0,6.81,3.05,6.81,6.81V88.12z"/>
	<path class="st0" d="M256.62,69.65h9.34c3.41,0,6.24,2.51,6.74,5.78h11c-0.04-9.42-7.7-17.05-17.12-17.05h-10.59
		c-9.46,0-17.12,7.66-17.12,17.12v2.85c0,6.34,5.14,11.49,11.49,11.49h19.25c1.75,0,3.17,1.42,3.17,3.17c0,3.77-3.05,6.82-6.82,6.82
		h-9.34c-3.33,0-6.11-2.4-6.69-5.56h-11.04c0.15,9.32,7.76,16.82,17.11,16.82h10.59c9.46,0,17.12-7.66,17.12-17.12v-2.85
		c0-6.34-5.14-11.49-11.49-11.49h-19.24c-1.75,0-3.17-1.42-3.17-3.17v-0.01C249.81,72.7,252.86,69.65,256.62,69.65z"/>
	<path class="st0" d="M215.44,58.39h-10.59c-9.45,0-17.12,7.67-17.12,17.12v18.47c0,9.45,7.67,17.12,17.12,17.12h10.59
		c9.35,0,16.96-7.51,17.11-16.82h-11.04c-0.59,3.16-3.36,5.56-6.69,5.56h-9.34c-3.77,0-6.82-3.05-6.82-6.81v-3.18h33.91V75.51
		C232.56,66.05,224.89,58.39,215.44,58.39z M221.63,79.64h-22.98v-3.18c0-3.76,3.05-6.81,6.82-6.81h9.34c3.77,0,6.81,3.05,6.81,6.81
		v3.18H221.63z"/>
	<path class="st0" d="M318.17,58.39h-10.59c-2.18,0-4.27,0.41-6.19,1.16V40.07h-10.93v35.44v5.72v29.87h10.92V76.38
		c0.05-3.72,3.08-6.73,6.82-6.73h9.34c3.77,0,6.82,3.05,6.81,6.81v34.64h10.93V75.51C335.29,66.05,327.62,58.39,318.17,58.39z"/>
	<path class="st4" d="M560.46,162.76H6.14v1.58h554.32V162.76z"/>
	<path class="st4" d="M560.46,204.06H6.14v1.58h554.32V204.06z"/>
	<path class="st4" d="M11.06,192.49H8.75l6.68-18.18h2.27l6.68,18.18h-2.31l-5.43-15.31h-0.14L11.06,192.49z M11.91,185.39h9.3v1.95
		h-9.3V185.39z M44.18,178.85c-0.11-0.9-0.54-1.6-1.3-2.1c-0.76-0.5-1.69-0.75-2.79-0.75c-0.81,0-1.51,0.13-2.11,0.39
		c-0.6,0.26-1.07,0.62-1.4,1.07c-0.33,0.46-0.5,0.97-0.5,1.55c0,0.49,0.12,0.9,0.35,1.25c0.24,0.34,0.54,0.63,0.91,0.86
		c0.37,0.23,0.75,0.41,1.15,0.56c0.4,0.14,0.77,0.26,1.11,0.35l1.85,0.5c0.47,0.12,1,0.3,1.58,0.51c0.59,0.22,1.15,0.52,1.68,0.9
		c0.54,0.37,0.98,0.85,1.33,1.44c0.35,0.59,0.52,1.31,0.52,2.16c0,0.98-0.26,1.87-0.77,2.66c-0.51,0.79-1.25,1.42-2.24,1.89
		c-0.98,0.47-2.16,0.7-3.56,0.7c-1.3,0-2.43-0.21-3.38-0.63c-0.95-0.42-1.69-1.01-2.24-1.76c-0.54-0.75-0.84-1.62-0.91-2.62h2.27
		c0.06,0.69,0.29,1.25,0.69,1.71c0.41,0.44,0.92,0.77,1.54,0.99c0.63,0.21,1.3,0.32,2.02,0.32c0.84,0,1.6-0.14,2.26-0.41
		c0.67-0.28,1.2-0.66,1.59-1.15c0.39-0.5,0.59-1.08,0.59-1.74c0-0.6-0.17-1.1-0.51-1.47c-0.34-0.38-0.78-0.69-1.33-0.92
		c-0.55-0.24-1.15-0.44-1.78-0.62l-2.24-0.64c-1.42-0.41-2.55-0.99-3.37-1.75c-0.83-0.76-1.24-1.75-1.24-2.97
		c0-1.02,0.28-1.9,0.83-2.66c0.56-0.76,1.3-1.35,2.24-1.78c0.94-0.43,1.99-0.64,3.15-0.64c1.17,0,2.21,0.21,3.12,0.63
		c0.91,0.41,1.63,0.98,2.17,1.7c0.54,0.72,0.82,1.54,0.85,2.46H44.18z M52.38,174.31v18.18h-2.2v-18.18H52.38z M66.74,178.85
		c-0.11-0.9-0.54-1.6-1.3-2.1c-0.76-0.5-1.69-0.75-2.79-0.75c-0.81,0-1.51,0.13-2.11,0.39c-0.6,0.26-1.07,0.62-1.4,1.07
		c-0.33,0.46-0.5,0.97-0.5,1.55c0,0.49,0.12,0.9,0.35,1.25c0.24,0.34,0.54,0.63,0.91,0.86c0.37,0.23,0.75,0.41,1.15,0.56
		c0.4,0.14,0.77,0.26,1.11,0.35l1.85,0.5c0.47,0.12,1,0.3,1.58,0.51c0.59,0.22,1.15,0.52,1.68,0.9c0.54,0.37,0.98,0.85,1.33,1.44
		c0.35,0.59,0.52,1.31,0.52,2.16c0,0.98-0.26,1.87-0.77,2.66c-0.51,0.79-1.25,1.42-2.24,1.89c-0.98,0.47-2.16,0.7-3.56,0.7
		c-1.3,0-2.43-0.21-3.38-0.63c-0.95-0.42-1.69-1.01-2.24-1.76c-0.54-0.75-0.84-1.62-0.91-2.62h2.27c0.06,0.69,0.29,1.25,0.69,1.71
		c0.41,0.44,0.92,0.77,1.54,0.99c0.63,0.21,1.3,0.32,2.02,0.32c0.84,0,1.6-0.14,2.26-0.41c0.67-0.28,1.2-0.66,1.59-1.15
		c0.39-0.5,0.59-1.08,0.59-1.74c0-0.6-0.17-1.1-0.51-1.47c-0.34-0.38-0.78-0.69-1.33-0.92c-0.55-0.24-1.15-0.44-1.78-0.62
		l-2.24-0.64c-1.42-0.41-2.54-0.99-3.37-1.75c-0.83-0.76-1.24-1.75-1.24-2.97c0-1.02,0.28-1.9,0.83-2.66
		c0.56-0.76,1.3-1.35,2.24-1.78c0.94-0.43,1.99-0.64,3.15-0.64c1.17,0,2.21,0.21,3.12,0.63c0.91,0.41,1.63,0.98,2.17,1.7
		c0.54,0.72,0.82,1.54,0.85,2.46H66.74z M71.75,176.26v-1.95h13.64v1.95h-5.72v16.23h-2.2v-16.23H71.75z M88.78,192.49v-18.18h10.97
		v1.95h-8.77v6.14h8.2v1.95h-8.2v6.18h8.91v1.95H88.78z M103.72,192.49v-18.18h6.14c1.42,0,2.59,0.24,3.5,0.73
		c0.91,0.48,1.59,1.14,2.02,1.98c0.44,0.84,0.66,1.8,0.66,2.87s-0.22,2.02-0.66,2.85c-0.44,0.83-1.11,1.48-2.01,1.95
		c-0.91,0.47-2.06,0.7-3.47,0.7h-4.97v-1.99h4.9c0.97,0,1.75-0.14,2.34-0.43c0.6-0.28,1.03-0.69,1.3-1.21
		c0.27-0.53,0.41-1.15,0.41-1.88s-0.14-1.36-0.41-1.91c-0.27-0.54-0.71-0.96-1.31-1.26c-0.6-0.3-1.39-0.45-2.37-0.45h-3.87v16.23
		H103.72z M112.28,184.32l4.47,8.17h-2.56l-4.4-8.17H112.28z M141.37,179.99h-2.2c-0.13-0.63-0.36-1.19-0.68-1.67
		c-0.32-0.48-0.71-0.88-1.17-1.21c-0.46-0.33-0.96-0.58-1.52-0.74c-0.56-0.17-1.14-0.25-1.74-0.25c-1.1,0-2.1,0.28-2.99,0.83
		c-0.89,0.56-1.59,1.38-2.12,2.46c-0.52,1.08-0.78,2.41-0.78,3.99c0,1.57,0.26,2.9,0.78,3.99c0.53,1.08,1.23,1.9,2.12,2.46
		c0.89,0.56,1.89,0.84,2.99,0.84c0.6,0,1.18-0.08,1.74-0.25c0.56-0.17,1.06-0.41,1.52-0.74c0.46-0.33,0.85-0.74,1.17-1.22
		c0.32-0.49,0.55-1.04,0.68-1.67h2.2c-0.17,0.93-0.47,1.76-0.91,2.49c-0.44,0.73-0.98,1.36-1.63,1.87c-0.65,0.51-1.38,0.9-2.19,1.16
		c-0.81,0.27-1.67,0.4-2.58,0.4c-1.55,0-2.93-0.38-4.14-1.14c-1.21-0.76-2.16-1.84-2.85-3.23c-0.69-1.4-1.04-3.05-1.04-4.97
		c0-1.92,0.35-3.57,1.04-4.97c0.69-1.4,1.64-2.47,2.85-3.23c1.21-0.76,2.59-1.14,4.14-1.14c0.92,0,1.78,0.13,2.58,0.4
		c0.81,0.27,1.54,0.66,2.19,1.17c0.65,0.51,1.2,1.13,1.63,1.86C140.91,178.22,141.21,179.06,141.37,179.99z M160.27,183.4
		c0,1.92-0.35,3.57-1.04,4.97c-0.69,1.4-1.64,2.47-2.85,3.23c-1.21,0.76-2.59,1.14-4.14,1.14c-1.55,0-2.93-0.38-4.14-1.14
		c-1.21-0.76-2.16-1.84-2.85-3.23c-0.69-1.4-1.04-3.05-1.04-4.97c0-1.92,0.35-3.57,1.04-4.97c0.69-1.4,1.64-2.47,2.85-3.23
		c1.21-0.76,2.59-1.14,4.14-1.14c1.55,0,2.93,0.38,4.14,1.14c1.21,0.76,2.16,1.83,2.85,3.23
		C159.93,179.83,160.27,181.48,160.27,183.4z M158.14,183.4c0-1.57-0.26-2.9-0.79-3.99c-0.52-1.08-1.23-1.9-2.12-2.46
		c-0.89-0.56-1.88-0.83-2.98-0.83s-2.1,0.28-2.99,0.83c-0.89,0.56-1.59,1.38-2.12,2.46c-0.52,1.08-0.78,2.41-0.78,3.99
		c0,1.57,0.26,2.9,0.78,3.99c0.53,1.08,1.23,1.9,2.12,2.46c0.89,0.56,1.89,0.84,2.99,0.84s2.1-0.28,2.98-0.84
		c0.89-0.56,1.6-1.38,2.12-2.46C157.88,186.3,158.14,184.97,158.14,183.4z M178.39,174.31v18.18h-2.13l-9.91-14.28h-0.18v14.28h-2.2
		v-18.18h2.13l9.94,14.31h0.18v-14.31H178.39z M197.43,179.99h-2.2c-0.13-0.63-0.36-1.19-0.68-1.67c-0.32-0.48-0.71-0.88-1.17-1.21
		c-0.46-0.33-0.96-0.58-1.52-0.74c-0.56-0.17-1.14-0.25-1.74-0.25c-1.1,0-2.1,0.28-2.99,0.83c-0.89,0.56-1.6,1.38-2.12,2.46
		c-0.52,1.08-0.78,2.41-0.78,3.99c0,1.57,0.26,2.9,0.78,3.99c0.53,1.08,1.23,1.9,2.12,2.46c0.89,0.56,1.89,0.84,2.99,0.84
		c0.6,0,1.18-0.08,1.74-0.25c0.56-0.17,1.06-0.41,1.52-0.74c0.46-0.33,0.85-0.74,1.17-1.22c0.33-0.49,0.55-1.04,0.68-1.67h2.2
		c-0.17,0.93-0.47,1.76-0.91,2.49c-0.44,0.73-0.98,1.36-1.63,1.87c-0.65,0.51-1.38,0.9-2.19,1.16c-0.8,0.27-1.67,0.4-2.58,0.4
		c-1.55,0-2.93-0.38-4.14-1.14c-1.21-0.76-2.16-1.84-2.85-3.23c-0.69-1.4-1.04-3.05-1.04-4.97c0-1.92,0.35-3.57,1.04-4.97
		c0.69-1.4,1.64-2.47,2.85-3.23c1.21-0.76,2.59-1.14,4.14-1.14c0.92,0,1.78,0.13,2.58,0.4c0.81,0.27,1.54,0.66,2.19,1.17
		c0.65,0.51,1.2,1.13,1.63,1.86C196.96,178.22,197.26,179.06,197.43,179.99z M200.99,192.49v-18.18h10.97v1.95h-8.77v6.14h8.2v1.95
		h-8.2v6.18h8.91v1.95H200.99z M215.93,192.49v-18.18h6.14c1.42,0,2.59,0.24,3.5,0.73c0.91,0.48,1.59,1.14,2.02,1.98
		c0.44,0.84,0.66,1.8,0.66,2.87s-0.22,2.02-0.66,2.85c-0.44,0.83-1.11,1.48-2.01,1.95c-0.91,0.47-2.06,0.7-3.47,0.7h-4.97v-1.99h4.9
		c0.97,0,1.75-0.14,2.34-0.43c0.6-0.28,1.03-0.69,1.3-1.21c0.27-0.53,0.41-1.15,0.41-1.88s-0.14-1.36-0.41-1.91
		c-0.27-0.54-0.71-0.96-1.3-1.26c-0.6-0.3-1.39-0.45-2.37-0.45h-3.87v16.23H215.93z M224.49,184.32l4.47,8.17h-2.56l-4.4-8.17
		H224.49z M246.34,174.31v18.18h-2.13l-9.91-14.28h-0.18v14.28h-2.2v-18.18h2.13l9.94,14.31h0.18v-14.31H246.34z M273.11,183.4
		c0,1.92-0.35,3.57-1.04,4.97c-0.69,1.4-1.64,2.47-2.85,3.23c-1.21,0.76-2.59,1.14-4.14,1.14c-1.55,0-2.93-0.38-4.14-1.14
		c-1.21-0.76-2.16-1.84-2.85-3.23c-0.69-1.4-1.04-3.05-1.04-4.97c0-1.92,0.35-3.57,1.04-4.97c0.69-1.4,1.64-2.47,2.85-3.23
		c1.21-0.76,2.59-1.14,4.14-1.14c1.55,0,2.93,0.38,4.14,1.14c1.21,0.76,2.16,1.83,2.85,3.23
		C272.77,179.83,273.11,181.48,273.11,183.4z M270.98,183.4c0-1.57-0.26-2.9-0.79-3.99c-0.52-1.08-1.23-1.9-2.12-2.46
		c-0.89-0.56-1.88-0.83-2.98-0.83c-1.1,0-2.1,0.28-2.99,0.83c-0.89,0.56-1.6,1.38-2.12,2.46c-0.52,1.08-0.78,2.41-0.78,3.99
		c0,1.57,0.26,2.9,0.78,3.99c0.53,1.08,1.23,1.9,2.12,2.46c0.89,0.56,1.89,0.84,2.99,0.84c1.1,0,2.1-0.28,2.98-0.84
		c0.89-0.56,1.6-1.38,2.12-2.46C270.72,186.3,270.98,184.97,270.98,183.4z M276.82,192.49v-18.18h10.9v1.95h-8.7v6.14h7.88v1.95
		h-7.88v8.13H276.82z"/>
	<path class="st5" d="M456.01,172.66l-10.86,4.13c0,0-5.32,2.14-7.24,0.54l3.69-1.43c0,0,0.88-0.21,1.9-0.08
		c0,0-2.13-0.47-3.69-1.13c0,0-1.72-0.93-2.08-2.16c0,0,5.05,1.42,9.79,1.17c0,0,0.49,0,1.07-0.28l3.12-1.21
		C451.72,172.22,454.69,171.24,456.01,172.66z"/>
	<path class="st6" d="M418.5,178.25h-5.68v14.67h-4.71v-14.67h-5.66v-3.97h16.05V178.25z"/>
	<path class="st6" d="M436.4,176.85c-1.94-1.87-4.28-2.8-7.03-2.8s-5.1,0.93-7.04,2.8c-1.95,1.87-2.92,4.12-2.92,6.77
		c0,0.79,0.09,1.54,0.26,2.26c1.32-0.48,2.88-1.05,4.58-1.67c-0.02-0.19-0.03-0.39-0.03-0.59c0-1.44,0.5-2.68,1.51-3.7
		c1-1.02,2.22-1.53,3.65-1.53s2.64,0.51,3.65,1.53c0.26,0.26,0.48,0.53,0.67,0.82c1.54-0.57,3.05-1.12,4.47-1.65
		C437.7,178.29,437.12,177.54,436.4,176.85z"/>
	<path class="st6" d="M454.37,174.29v9.91c0,1.67-0.33,2.88-0.98,3.62c-0.65,0.74-1.64,1.11-2.96,1.11s-2.3-0.37-2.95-1.11
		c-0.64-0.74-0.96-1.95-0.96-3.62v-7.12l-1.1,0.42c-0.08,0.03-1.68,0.67-3.47,1v6.95c0,2.26,0.74,4.11,2.22,5.55
		c1.48,1.45,3.57,2.17,6.26,2.17c2.7,0,4.79-0.72,6.28-2.17s2.23-3.3,2.23-5.55V174.3L454.37,174.29L454.37,174.29z"/>
	<path class="st6" d="M470.1,188.61c-0.07,0.02-0.2,0.03-0.4,0.03h-2.83v4.28h-4.68v-18.64h8.56c2.63,0,4.54,0.66,5.75,1.97
		c1.21,1.31,1.81,2.97,1.81,4.98c0,3.15-1.19,5.31-3.57,6.48l4.15,5.21h-5.6L470.1,188.61z M466.88,184.83h2.64
		c1.32,0,2.3-0.31,2.93-0.93c0.63-0.62,0.95-1.39,0.95-2.33c0-0.95-0.27-1.74-0.82-2.38s-1.42-0.95-2.62-0.95h-3.09L466.88,184.83
		L466.88,184.83z"/>
	<path class="st5" d="M500.54,174.29v18.64h-4.71v-8.49l-5.05,6.56l-5.05-6.56v8.49h-4.68v-18.64h2.22l7.51,9.78l7.51-9.78H500.54z"
		/>
	<path class="st5" d="M516.46,189.64h-7.59l-1.45,3.28h-4.92l9.04-18.64h2.25l9.07,18.64h-4.92L516.46,189.64z M510.54,185.78h4.26
		l-2.14-4.65L510.54,185.78z"/>
	<path class="st5" d="M532.71,188.61c-0.07,0.02-0.2,0.03-0.4,0.03h-2.83v4.28h-4.68v-18.64h8.56c2.63,0,4.54,0.66,5.75,1.97
		c1.21,1.31,1.81,2.97,1.81,4.98c0,3.15-1.19,5.31-3.57,6.48l4.15,5.21h-5.6L532.71,188.61z M529.49,184.83h2.64
		c1.32,0,2.3-0.31,2.93-0.93c0.63-0.62,0.95-1.39,0.95-2.33c0-0.95-0.27-1.74-0.82-2.38s-1.42-0.95-2.62-0.95h-3.09L529.49,184.83
		L529.49,184.83z"/>
	<path class="st5" d="M558.73,178.25h-5.68v14.67h-4.71v-14.67h-5.66v-3.97h16.05V178.25z"/>
	<path class="st5" d="M427.65,194.21c0.77-0.68,0.96-1.72,0.43-2.32c-0.53-0.6-1.58-0.54-2.35,0.14c-0.77,0.68-0.97,1.72-0.43,2.32
		C425.83,194.95,426.88,194.89,427.65,194.21z"/>
	<path class="st6" d="M434.44,182.63c0.06,0.32,0.08,0.64,0.08,0.98c0,1.45-0.5,2.68-1.51,3.7c-1,1.02-2.22,1.53-3.65,1.53
		s-2.64-0.51-3.65-1.53c-0.13-0.14-0.26-0.28-0.37-0.42c-0.16-0.2-0.31-0.41-0.44-0.63l9.34-4.38l4.3-2.02l1.16-0.54
		c-0.05,0.02-0.48,0.18-1.2,0.44c-1.01,0.37-2.58,0.95-4.44,1.64c-2.88,1.06-6.45,2.38-9.69,3.56c-1.63,0.6-3.18,1.16-4.5,1.64
		c0.19,0.58,0.45,1.13,0.76,1.66c0.13,0.22,0.27,0.43,0.42,0.64c0.36,0.51,0.79,1,1.27,1.46c0.73,0.7,1.52,1.27,2.37,1.7
		c0.53-0.81,1.46-1.37,2.41-1.37c0.66,0,1.25,0.28,1.63,0.76c0.36,0.46,0.49,1.07,0.37,1.69c0.09,0,0.18,0.01,0.27,0.01
		c0.1,0,0.19,0,0.28-0.01c0.01-0.08,0.03-0.15,0.04-0.23c0.31-1.24,1.54-2.22,2.79-2.22c0.66,0,1.25,0.28,1.63,0.76
		c0.1,0.13,0.19,0.28,0.25,0.43c0.72-0.41,1.4-0.92,2.03-1.52c1.94-1.86,2.91-4.11,2.91-6.75c0-1.08-0.16-2.09-0.48-3.04
		L434.44,182.63z"/>
	<path class="st5" d="M433.03,194.21c0.77-0.68,0.96-1.72,0.43-2.32c-0.53-0.6-1.58-0.54-2.35,0.14c-0.77,0.68-0.96,1.72-0.43,2.32
		C431.21,194.96,432.26,194.89,433.03,194.21z"/>
</g>
</svg>
