<svg width="10" height="9" viewBox="0 0 10 9" fill="none" xmlns="http://www.w3.org/2000/svg">
<path d="M1.41075 6.05621C1.36451 6.12648 1.28603 6.16879 1.20191 6.16879H0.372537C0.194973 6.16879 0.0740084 5.98886 0.14103 5.82443L0.642882 4.59319C0.66755 4.53267 0.667538 4.4649 0.642849 4.40439L0.140532 3.17322C0.0734402 3.00878 0.194406 2.82878 0.372007 2.82878H1.20073C1.28513 2.82878 1.36384 2.87136 1.41001 2.94202L1.70268 3.3899C1.74896 3.46073 1.82793 3.50334 1.91254 3.50314L4.25425 3.49771C4.43942 3.49728 4.55988 3.30271 4.47771 3.13677L3.18341 0.52305C3.10113 0.356883 3.22202 0.162109 3.40745 0.162109H4.2103C4.292 0.162109 4.36854 0.202032 4.4153 0.269031L6.59338 3.38986C6.64014 3.45686 6.71669 3.49678 6.79839 3.49678H8.998C9.55311 3.49678 10 3.94367 10 4.49878C10 5.05323 9.55311 5.49945 8.998 5.50079H6.82157C6.73998 5.50079 6.66352 5.5406 6.61674 5.60745L4.43069 8.73146C4.38391 8.79831 4.30745 8.83813 4.22586 8.83813H3.42159C3.23646 8.83813 3.11555 8.64393 3.19725 8.4778L4.48412 5.86112C4.56581 5.69499 4.4449 5.50079 4.25978 5.50079H1.91099C1.82686 5.50079 1.74838 5.54309 1.70214 5.61337L1.41075 6.05621Z" fill="#2D233C"/>
</svg>
