<svg width="20" height="18" viewBox="0 0 20 18" fill="none" xmlns="http://www.w3.org/2000/svg">
<path d="M3.15217 14.7826C1.89348 14.7826 0.869565 13.7218 0.869565 12.4026V3.24961C0.869565 1.93038 1.89348 0.869565 3.15217 0.869565H16.8478C18.1085 0.869565 19.1304 1.93514 19.1304 3.24961V12.4026C19.1304 13.717 18.1085 14.7826 16.8478 14.7826H3.15217Z" fill="white" fill-opacity="0.25"/>
<path d="M19.1304 4.34783H0.869565V6.95652H19.1304V4.34783Z" fill="#FF5A7D"/>
<path d="M16.087 17.3913C17.7678 17.3913 19.1304 15.834 19.1304 13.913C19.1304 11.9921 17.7678 10.4348 16.087 10.4348C14.4061 10.4348 13.0435 11.9921 13.0435 13.913C13.0435 15.834 14.4061 17.3913 16.087 17.3913Z" fill="#FF5A7D"/>
<path d="M17.047 0H2.95302C1.32483 0 0 1.31091 0 2.92199V11.8606C0 13.4717 1.32483 14.7826 2.95302 14.7826H10.5638C10.8973 14.7826 11.1678 14.515 11.1678 14.1849C11.1678 13.8549 10.8973 13.5872 10.5638 13.5872H2.95302C1.9906 13.5872 1.20805 12.8123 1.20805 11.8606V7.22528H18.7919V9.21091C18.7919 9.54096 19.0624 9.80859 19.396 9.80859C19.7295 9.80859 20 9.54096 20 9.21091V2.92199C20 1.31091 18.6752 0 17.047 0ZM2.95302 1.19536H17.047C18.0094 1.19536 18.7919 1.97035 18.7919 2.92199V3.31845H1.20805V2.92199C1.20805 1.97035 1.9906 1.19536 2.95302 1.19536ZM1.20805 6.02992V4.51381H18.7919V6.03059L1.20805 6.02992Z" fill="white"/>
<path d="M3.22277 9.84368H5.10387C5.44297 9.84368 5.71793 9.58665 5.71793 9.26966C5.71793 8.95268 5.44297 8.69565 5.10387 8.69565H3.22277C2.88366 8.69565 2.6087 8.95268 2.6087 9.26966C2.6087 9.58665 2.88366 9.84368 3.22277 9.84368ZM3.22277 12.0045H6.98496C7.32407 12.0045 7.59903 11.7475 7.59903 11.4305C7.59903 11.1135 7.32407 10.8565 6.98496 10.8565H3.22277C2.88366 10.8565 2.6087 11.1135 2.6087 11.4305C2.6087 11.7475 2.88366 12.0045 3.22277 12.0045ZM13.3099 11.1352C12.5696 11.8272 12.1616 12.7475 12.1616 13.7266C12.1616 14.7056 12.5696 15.6259 13.3099 16.3179C14.0509 17.0099 15.0347 17.3913 16.0821 17.3913C17.1294 17.3913 18.114 17.0099 18.8542 16.3179C20.3819 14.8892 20.3819 12.5645 18.8542 11.1358C17.3245 9.70591 14.8382 9.70655 13.3099 11.1352ZM17.9857 15.506C16.9691 16.4563 15.1951 16.4569 14.1784 15.506C13.6695 15.0308 13.3897 14.3988 13.3897 13.7266C13.3897 13.0543 13.6695 12.4223 14.1784 11.9465C14.7031 11.456 15.3923 11.2105 16.0821 11.2105C16.7719 11.2105 17.461 11.456 17.9857 11.9465C19.0351 12.928 19.0351 14.5251 17.9857 15.506Z" fill="white"/>
<path d="M18.2609 13.9124C18.2609 13.5747 17.987 13.301 17.6492 13.301H17.1334V12.7853C17.1334 12.4477 16.8595 12.1739 16.5217 12.1739C16.184 12.1739 15.9101 12.4477 15.9101 12.7853V13.301H15.3943C15.0565 13.301 14.7826 13.5747 14.7826 13.9124C14.7826 14.0815 14.8512 14.2344 14.962 14.3451C15.0728 14.4558 15.2257 14.5245 15.3949 14.5245H15.9108V15.0401C15.9108 15.2092 15.9794 15.3621 16.0902 15.4728C16.201 15.5836 16.3539 15.6522 16.5231 15.6522C16.8609 15.6522 17.1348 15.3784 17.1348 15.0408V14.5251H17.6506C17.987 14.5238 18.2609 14.25 18.2609 13.9124Z" fill="white"/>
</svg>
