<svg width="20" height="20" viewBox="0 0 20 20" fill="none" xmlns="http://www.w3.org/2000/svg">
<path fill-rule="evenodd" clip-rule="evenodd" d="M10.0407 17.426C5.96189 17.426 2.65539 14.1195 2.65539 10.0407C2.65539 5.96189 5.96189 2.65539 10.0407 2.65539C14.1195 2.65539 17.426 5.96189 17.426 10.0407C17.426 14.1195 14.1195 17.426 10.0407 17.426ZM10.0407 9.09411C9.5179 9.09411 9.09411 9.5179 9.09411 10.0407C9.09411 10.5635 9.5179 10.9873 10.0407 10.9873C10.5635 10.9873 10.9873 10.5635 10.9873 10.0407C10.9873 9.5179 10.5635 9.09411 10.0407 9.09411Z" fill="#C3A0CD" fill-opacity="0.5"/>
<path fill-rule="evenodd" clip-rule="evenodd" d="M2.07034 9.49465C1.79278 9.49465 1.56652 9.7209 1.56652 9.99968C1.56652 10.2784 1.79274 10.5047 2.07034 10.5047H2.60458C2.88215 10.5047 3.1084 10.2784 3.1084 9.99968C3.1084 9.7209 2.88215 9.49465 2.60458 9.49465H2.07034ZM9.49622 17.3961V17.9295C9.49622 18.2082 9.72248 18.4344 10 18.4344C10.2795 18.4344 10.5058 18.2082 10.5058 17.9295V17.3961C10.5058 17.1173 10.2795 16.8911 10 16.8911C9.72243 16.8911 9.49622 17.1173 9.49622 17.3961ZM16.8916 9.99968C16.8916 10.2784 17.1179 10.5047 17.3974 10.5047H17.9297C18.2092 10.5047 18.4354 10.2784 18.4354 9.99968C18.4354 9.7209 18.2092 9.49465 17.9297 9.49465H17.3974C17.1179 9.49465 16.8916 9.7209 16.8916 9.99968ZM10 3.1082C10.2795 3.1082 10.5057 2.88202 10.5057 2.60321V2.06986C10.5057 1.79116 10.2795 1.56487 10 1.56487C9.72243 1.56487 9.49618 1.79112 9.49618 2.06986V2.60321C9.49622 2.88198 9.72243 3.1082 10 3.1082ZM10.7129 9.99968C10.7129 9.60693 10.3936 9.28775 10 9.28775C9.60838 9.28775 9.28896 9.60693 9.28896 9.99968C9.28896 10.3919 9.60834 10.7116 10 10.7116C10.3936 10.7116 10.7129 10.3919 10.7129 9.99968ZM10.0627 11.72L9.34031 14.4173C9.27946 14.6427 9.07604 14.7918 8.85172 14.7918C8.80991 14.7918 8.76425 14.7861 8.72054 14.7744C8.45247 14.7022 8.2909 14.4254 8.36504 14.1559L9.08747 11.4582C8.60078 11.1532 8.27756 10.6138 8.27756 9.99972C8.27756 9.22597 8.79088 8.56988 9.49618 8.35332V4.71266C9.49618 4.43388 9.72243 4.20767 10 4.20767C10.2795 4.20767 10.5057 4.43388 10.5057 4.71266V8.35332C11.2091 8.56988 11.7224 9.22601 11.7224 9.99972C11.7224 10.9285 10.9829 11.6872 10.0627 11.72ZM16.3688 3.65448C16.4677 3.75346 16.597 3.80316 16.7262 3.80316C16.8555 3.80316 16.9848 3.75431 17.0817 3.65613C17.2795 3.45933 17.2814 3.13975 17.0836 2.94178L17.0589 2.91677C16.8612 2.71961 16.5418 2.71961 16.3441 2.91677C16.1482 3.11393 16.1482 3.43388 16.3441 3.63104L16.3688 3.65448ZM20 9.99968C20 12.6706 18.9601 15.1816 17.0703 17.0705C15.1825 18.9589 12.6711 19.9993 10 19.9993C7.32888 19.9993 4.81746 18.9589 2.92966 17.0705C1.04182 15.1816 0 12.6707 0 9.99968C0 7.32863 1.04182 4.81766 2.92966 2.92885C4.8175 1.04004 7.32888 0 10 0C11.8479 0 13.654 0.507979 15.2206 1.46911C15.4582 1.61496 15.5323 1.92606 15.3879 2.16363C15.2415 2.40156 14.9297 2.4759 14.6921 2.33005C13.2833 1.46669 11.6616 1.0101 10 1.0101C5.04372 1.0101 1.01139 5.04267 1.01139 9.99968C1.01139 14.9566 5.04372 18.9892 10 18.9892C14.9582 18.9892 18.9905 14.9566 18.9905 9.99968C18.9905 8.33829 18.5342 6.71613 17.6692 5.30774C17.5247 5.06982 17.5989 4.75864 17.8365 4.61323C18.0742 4.46737 18.386 4.54172 18.5304 4.77964C19.4924 6.34689 20 8.15211 20 9.99968Z" fill="#A56EB4"/>
</svg>
