<svg width="18" height="21" viewBox="0 0 18 21" fill="none" xmlns="http://www.w3.org/2000/svg">
<path d="M1.88372 2.09302C1.88372 1.28386 2.53968 0.627907 3.34884 0.627907H11.093C11.9022 0.627907 12.5581 1.28386 12.5581 2.09302V12.7674C12.5581 13.5766 11.9022 14.2326 11.093 14.2326H3.34884C2.53968 14.2326 1.88372 13.5766 1.88372 12.7674V2.09302Z" fill="#C3A0CD" fill-opacity="0.5"/>
<path d="M10.3605 10.2558C8.80216 10.2558 7.53488 9.03548 7.53488 7.53488C7.53488 6.03429 8.80216 4.81395 10.3605 4.81395C11.9188 4.81395 13.186 6.03429 13.186 7.53488C13.186 9.03548 11.9188 10.2558 10.3605 10.2558ZM10.3605 6.17442C9.58131 6.17442 8.94767 6.78459 8.94767 7.53488C8.94767 8.28518 9.58131 8.89535 10.3605 8.89535C11.1396 8.89535 11.7733 8.28518 11.7733 7.53488C11.7733 6.78459 11.1396 6.17442 10.3605 6.17442Z" fill="#A56EB4"/>
<path d="M13.7616 15.907C13.3855 15.907 13.0814 15.5989 13.0814 15.2193C13.0814 13.7022 11.8611 12.4684 10.3605 12.4684C8.85987 12.4684 7.63953 13.7022 7.63953 15.2193C7.63953 15.5989 7.33547 15.907 6.9593 15.907C6.58313 15.907 6.27907 15.5989 6.27907 15.2193C6.27907 12.9436 8.10958 11.093 10.3605 11.093C12.6114 11.093 14.4419 12.9436 14.4419 15.2193C14.4419 15.5989 14.1378 15.907 13.7616 15.907Z" fill="#A56EB4"/>
<path d="M15.9231 0H3.46154C2.31646 0 1.38462 0.929679 1.38462 2.07209V3.45349H0.692308C0.309462 3.45349 0 3.76292 0 4.14419C0 4.52545 0.309462 4.83488 0.692308 4.83488H1.38462V9.66977H0.692308C0.309462 9.66977 0 9.9792 0 10.3605C0 10.7417 0.309462 11.0512 0.692308 11.0512H1.38462V15.886H0.692308C0.309462 15.886 0 16.1955 0 16.5767C0 16.958 0.309462 17.2674 0.692308 17.2674H1.38462V18.6488C1.38462 19.7913 2.31646 20.7209 3.46154 20.7209H15.9231C17.0682 20.7209 18 19.7913 18 18.6488V2.07209C18 0.929679 17.0682 0 15.9231 0ZM16.6154 18.6488C16.6154 19.0294 16.3052 19.3395 15.9231 19.3395H3.46154C3.07938 19.3395 2.76923 19.0294 2.76923 18.6488V17.2674H3.46154C3.84438 17.2674 4.15385 16.958 4.15385 16.5767C4.15385 16.1955 3.84438 15.886 3.46154 15.886H2.76923V11.0512H3.46154C3.84438 11.0512 4.15385 10.7417 4.15385 10.3605C4.15385 9.9792 3.84438 9.66977 3.46154 9.66977H2.76923V4.83488H3.46154C3.84438 4.83488 4.15385 4.52545 4.15385 4.14419C4.15385 3.76292 3.84438 3.45349 3.46154 3.45349H2.76923V2.07209C2.76923 1.69152 3.07938 1.3814 3.46154 1.3814H15.9231C16.3052 1.3814 16.6154 1.69152 16.6154 2.07209V18.6488Z" fill="#A56EB4"/>
</svg>
