<svg width="24" height="24" viewBox="0 0 24 24" fill="none" xmlns="http://www.w3.org/2000/svg">
<path d="M3.89961 5.69999C3.89961 5.93868 3.80479 6.1676 3.63601 6.33638C3.46722 6.50517 3.2383 6.59999 2.99961 6.59999C2.76091 6.59999 2.532 6.50517 2.36321 6.33638C2.19443 6.1676 2.09961 5.93868 2.09961 5.69999C2.09961 5.46129 2.19443 5.23237 2.36321 5.06359C2.532 4.89481 2.76091 4.79999 2.99961 4.79999C3.2383 4.79999 3.46722 4.89481 3.63601 5.06359C3.80479 5.23237 3.89961 5.46129 3.89961 5.69999ZM20.9996 6.59999C21.2383 6.59999 21.4672 6.50517 21.636 6.33638C21.8048 6.1676 21.8996 5.93868 21.8996 5.69999C21.8996 5.46129 21.8048 5.23237 21.636 5.06359C21.4672 4.89481 21.2383 4.79999 20.9996 4.79999C20.7609 4.79999 20.532 4.89481 20.3632 5.06359C20.1944 5.23237 20.0996 5.46129 20.0996 5.69999C20.0996 5.93868 20.1944 6.1676 20.3632 6.33638C20.532 6.50517 20.7609 6.59999 20.9996 6.59999ZM12.2444 4.85279C12.1674 4.81837 12.084 4.80058 11.9996 4.80058C11.9152 4.80058 11.8318 4.81837 11.7548 4.85279H11.7524L11.7488 4.85519L11.7344 4.86119L11.6864 4.88519L11.5052 4.96919C10.6115 5.40416 9.7564 5.9144 8.94921 6.49439C8.24841 7.00199 7.52481 7.62119 6.97161 8.32799C6.41961 9.03239 5.99961 9.86999 5.99961 10.8C5.99961 11.6532 6.17721 12.4644 6.49881 13.2H3.59961V7.79999C3.59961 7.64086 3.5364 7.48825 3.42387 7.37572C3.31135 7.2632 3.15874 7.19999 2.99961 7.19999C2.84048 7.19999 2.68787 7.2632 2.57535 7.37572C2.46282 7.48825 2.39961 7.64086 2.39961 7.79999V20.4C2.39961 20.7182 2.52604 21.0235 2.75108 21.2485C2.97612 21.4736 3.28135 21.6 3.59961 21.6H8.39961C8.71787 21.6 9.02309 21.4736 9.24814 21.2485C9.47318 21.0235 9.59961 20.7182 9.59961 20.4V19.2C9.59961 18.5635 9.85247 17.953 10.3026 17.5029C10.7526 17.0528 11.3631 16.8 11.9996 16.8C12.6361 16.8 13.2466 17.0528 13.6967 17.5029C14.1468 17.953 14.3996 18.5635 14.3996 19.2V20.4C14.3996 20.7182 14.526 21.0235 14.7511 21.2485C14.9761 21.4736 15.2814 21.6 15.5996 21.6H20.3996C20.7179 21.6 21.0231 21.4736 21.2481 21.2485C21.4732 21.0235 21.5996 20.7182 21.5996 20.4V7.79999C21.5996 7.64086 21.5364 7.48825 21.4239 7.37572C21.3114 7.2632 21.1587 7.19999 20.9996 7.19999C20.8405 7.19999 20.6879 7.2632 20.5753 7.37572C20.4628 7.48825 20.3996 7.64086 20.3996 7.79999V13.2H17.5004C17.8302 12.4429 18.0001 11.6258 17.9996 10.8C17.9996 9.86999 17.5796 9.03239 17.0276 8.32799C16.4744 7.62119 15.7508 7.00199 15.0512 6.49559C14.1895 5.87662 13.2733 5.3372 12.314 4.88399L12.2648 4.86119L12.2504 4.85519L12.2468 4.85279H12.2444Z" fill="#EDEDFD"/>
</svg>
