<svg width="24" height="24" viewBox="0 0 24 24" fill="none" xmlns="http://www.w3.org/2000/svg">
<path d="M3.89961 5.70005C3.89961 5.93874 3.80479 6.16766 3.63601 6.33645C3.46722 6.50523 3.2383 6.60005 2.99961 6.60005C2.76091 6.60005 2.532 6.50523 2.36321 6.33645C2.19443 6.16766 2.09961 5.93874 2.09961 5.70005C2.09961 5.46135 2.19443 5.23244 2.36321 5.06365C2.532 4.89487 2.76091 4.80005 2.99961 4.80005C3.2383 4.80005 3.46722 4.89487 3.63601 5.06365C3.80479 5.23244 3.89961 5.46135 3.89961 5.70005ZM20.9996 6.60005C21.2383 6.60005 21.4672 6.50523 21.636 6.33645C21.8048 6.16766 21.8996 5.93874 21.8996 5.70005C21.8996 5.46135 21.8048 5.23244 21.636 5.06365C21.4672 4.89487 21.2383 4.80005 20.9996 4.80005C20.7609 4.80005 20.532 4.89487 20.3632 5.06365C20.1944 5.23244 20.0996 5.46135 20.0996 5.70005C20.0996 5.93874 20.1944 6.16766 20.3632 6.33645C20.532 6.50523 20.7609 6.60005 20.9996 6.60005ZM12.2444 4.85285C12.1674 4.81843 12.084 4.80064 11.9996 4.80064C11.9152 4.80064 11.8318 4.81843 11.7548 4.85285H11.7524L11.7488 4.85525L11.7344 4.86125L11.6864 4.88525L11.5052 4.96925C10.6115 5.40422 9.7564 5.91447 8.94921 6.49445C8.24841 7.00205 7.52481 7.62125 6.97161 8.32805C6.41961 9.03245 5.99961 9.87005 5.99961 10.8C5.99961 11.6532 6.17721 12.4644 6.49881 13.2H3.59961V7.80005C3.59961 7.64092 3.5364 7.48831 3.42387 7.37578C3.31135 7.26326 3.15874 7.20005 2.99961 7.20005C2.84048 7.20005 2.68787 7.26326 2.57535 7.37578C2.46282 7.48831 2.39961 7.64092 2.39961 7.80005V20.4C2.39961 20.7183 2.52604 21.0235 2.75108 21.2486C2.97612 21.4736 3.28135 21.6 3.59961 21.6H8.39961C8.71787 21.6 9.02309 21.4736 9.24814 21.2486C9.47318 21.0235 9.59961 20.7183 9.59961 20.4V19.2C9.59961 18.5635 9.85247 17.9531 10.3026 17.503C10.7526 17.0529 11.3631 16.8 11.9996 16.8C12.6361 16.8 13.2466 17.0529 13.6967 17.503C14.1468 17.9531 14.3996 18.5635 14.3996 19.2V20.4C14.3996 20.7183 14.526 21.0235 14.7511 21.2486C14.9761 21.4736 15.2814 21.6 15.5996 21.6H20.3996C20.7179 21.6 21.0231 21.4736 21.2481 21.2486C21.4732 21.0235 21.5996 20.7183 21.5996 20.4V7.80005C21.5996 7.64092 21.5364 7.48831 21.4239 7.37578C21.3114 7.26326 21.1587 7.20005 20.9996 7.20005C20.8405 7.20005 20.6879 7.26326 20.5753 7.37578C20.4628 7.48831 20.3996 7.64092 20.3996 7.80005V13.2H17.5004C17.8302 12.4429 18.0001 11.6259 17.9996 10.8C17.9996 9.87005 17.5796 9.03245 17.0276 8.32805C16.4744 7.62125 15.7508 7.00205 15.0512 6.49565C14.1895 5.87668 13.2733 5.33726 12.314 4.88405L12.2648 4.86125L12.2504 4.85525L12.2468 4.85285H12.2444Z" fill="#4B5563"/>
</svg>
