<svg width="20" height="25" viewBox="0 0 20 25" fill="none" xmlns="http://www.w3.org/2000/svg">
<path d="M19.993 4.4344V17.4878H6.25265V0H16.3581C18.3692 0 19.993 1.98611 19.993 4.4344Z" fill="#C3A0CD" fill-opacity="0.5"/>
<path d="M16.3581 0H3.64195C2.61438 0.0674668 1.65528 0.538884 0.974181 1.31126C0.293087 2.08363 -0.0546326 3.09418 0.00699034 4.12212V21.6099C0.00699034 24.1081 2.50524 25.5821 4.32897 24.1081L5.95283 22.7841C6.01 22.738 6.07641 22.7047 6.14755 22.6865C6.2187 22.6684 6.29293 22.6657 6.3652 22.6787C6.43747 22.6918 6.50609 22.7202 6.56641 22.7621C6.62673 22.8039 6.67734 22.8583 6.7148 22.9215C7.03731 23.5121 7.50771 24.0088 8.07992 24.3629C8.65212 24.7171 9.30651 24.9165 9.97898 24.9417C10.6514 24.9669 11.3189 24.817 11.916 24.5066C12.5131 24.1963 13.0193 23.7361 13.3851 23.1713L13.4976 23.0089C13.5479 22.9336 13.6138 22.8699 13.6908 22.822C13.7678 22.7742 13.8541 22.7433 13.9439 22.7315C14.0338 22.7197 14.1251 22.7272 14.2119 22.7535C14.2986 22.7798 14.3787 22.8243 14.4469 22.884L15.5711 23.9083C17.3449 25.5196 19.993 24.0832 19.993 21.4975V4.12212C20.0546 3.09418 19.7069 2.08363 19.0258 1.31126C18.3447 0.538884 17.3856 0.0674668 16.3581 0ZM18.1818 21.5349C18.2047 21.7148 18.1727 21.8974 18.09 22.0587C18.0073 22.2201 17.8778 22.3527 17.7184 22.4391C17.559 22.5256 17.3772 22.5618 17.1969 22.5431C17.0166 22.5244 16.8461 22.4517 16.7078 22.3344L15.5836 21.3226C15.3376 21.0936 15.0443 20.9214 14.7246 20.8181C14.4048 20.7147 14.0662 20.6828 13.7327 20.7245C13.3993 20.7662 13.079 20.8805 12.7945 21.0593C12.51 21.2382 12.2681 21.4773 12.086 21.7598L11.9611 21.9222C11.7519 22.2333 11.467 22.4861 11.1331 22.6568C10.7993 22.8275 10.4276 22.9105 10.0528 22.898C9.67809 22.8855 9.31269 22.778 8.99098 22.5854C8.66927 22.3928 8.40181 22.1216 8.21375 21.7973C8.05928 21.5146 7.84426 21.2696 7.58408 21.0798C7.3239 20.8899 7.02498 20.7599 6.7087 20.6991C6.39243 20.6382 6.06661 20.648 5.75455 20.7277C5.44249 20.8074 5.1519 20.9551 4.90356 21.1602L3.26721 22.4843C3.12437 22.5902 2.95368 22.652 2.77615 22.6622C2.59862 22.6723 2.42199 22.6304 2.26801 22.5414C2.11403 22.4525 1.98941 22.3205 1.9095 22.1616C1.82958 22.0028 1.79785 21.824 1.81822 21.6474V4.12212C1.78746 3.60713 1.96216 3.10096 2.30404 2.7146C2.64591 2.32824 3.12705 2.09321 3.64195 2.06106H16.3581C16.873 2.09321 17.3541 2.32824 17.696 2.7146C18.0378 3.10096 18.2125 3.60713 18.1818 4.12212V21.5349Z" fill="#A56EB4"/>
<path d="M9.43783 7.26992H4.44132C4.11003 7.26992 3.79231 7.40153 3.55805 7.63578C3.3238 7.87004 3.19219 8.18776 3.19219 8.51905C3.19219 8.85034 3.3238 9.16806 3.55805 9.40232C3.79231 9.63657 4.11003 9.76818 4.44132 9.76818H9.43783C9.76911 9.76818 10.0868 9.63657 10.3211 9.40232C10.5553 9.16806 10.687 8.85034 10.687 8.51905C10.687 8.18776 10.5553 7.87004 10.3211 7.63578C10.0868 7.40153 9.76911 7.26992 9.43783 7.26992ZM16.1456 7.26992H13.9097C13.5784 7.26992 13.2607 7.40153 13.0264 7.63578C12.7922 7.87004 12.6606 8.18776 12.6606 8.51905C12.6606 8.85034 12.7922 9.16806 13.0264 9.40232C13.2607 9.63657 13.5784 9.76818 13.9097 9.76818H16.1456C16.4769 9.76818 16.7946 9.63657 17.0289 9.40232C17.2632 9.16806 17.3948 8.85034 17.3948 8.51905C17.3948 8.18776 17.2632 7.87004 17.0289 7.63578C16.7946 7.40153 16.4769 7.26992 16.1456 7.26992ZM9.43783 12.3414H4.44132C4.11003 12.3414 3.79231 12.473 3.55805 12.7072C3.3238 12.9415 3.19219 13.2592 3.19219 13.5905C3.19219 13.9218 3.3238 14.2395 3.55805 14.4738C3.79231 14.708 4.11003 14.8396 4.44132 14.8396H9.43783C9.76911 14.8396 10.0868 14.708 10.3211 14.4738C10.5553 14.2395 10.687 13.9218 10.687 13.5905C10.687 13.2592 10.5553 12.9415 10.3211 12.7072C10.0868 12.473 9.76911 12.3414 9.43783 12.3414ZM16.1456 12.3414H13.9097C13.5784 12.3414 13.2607 12.473 13.0264 12.7072C12.7922 12.9415 12.6606 13.2592 12.6606 13.5905C12.6606 13.9218 12.7922 14.2395 13.0264 14.4738C13.2607 14.708 13.5784 14.8396 13.9097 14.8396H16.1456C16.4769 14.8396 16.7946 14.708 17.0289 14.4738C17.2632 14.2395 17.3948 13.9218 17.3948 13.5905C17.3948 13.2592 17.2632 12.9415 17.0289 12.7072C16.7946 12.473 16.4769 12.3414 16.1456 12.3414Z" fill="#A56EB4"/>
</svg>
