<svg width="24" height="24" viewBox="0 0 24 24" fill="none" xmlns="http://www.w3.org/2000/svg">
<path d="M12 9C11.2044 9 10.4413 9.31607 9.87868 9.87868C9.31607 10.4413 9 11.2044 9 12C9 12.7956 9.31607 13.5587 9.87868 14.1213C10.4413 14.6839 11.2044 15 12 15C12.7956 15 13.5587 14.6839 14.1213 14.1213C14.6839 13.5587 15 12.7956 15 12C15 11.2044 14.6839 10.4413 14.1213 9.87868C13.5587 9.31607 12.7956 9 12 9Z" fill="#EDEDFD"/>
<path d="M3 4.87798C2.99995 4.35094 3.18492 3.8406 3.52265 3.43598C3.86038 3.03136 4.32944 2.75815 4.848 2.66398L16.848 0.482981C17.1721 0.424126 17.5052 0.437156 17.8237 0.521151C18.1422 0.605146 18.4384 0.758056 18.6914 0.969081C18.9443 1.18011 19.1478 1.4441 19.2876 1.74241C19.4273 2.04072 19.4998 2.36607 19.5 2.69548V3.40048C19.9563 3.66391 20.3351 4.04284 20.5984 4.49917C20.8617 4.9555 21.0002 5.47313 21 5.99998V21C21 21.7956 20.6839 22.5587 20.1213 23.1213C19.5587 23.6839 18.7956 24 18 24H6C5.5706 24.0001 5.14618 23.908 4.75542 23.73C4.36467 23.5519 4.01669 23.2921 3.735 22.968C3.50328 22.757 3.31821 22.4998 3.19164 22.2131C3.06507 21.9264 2.99979 21.6164 3 21.303V4.87798ZM7.5 12C7.5 13.1935 7.97411 14.338 8.81802 15.182C9.66193 16.0259 10.8065 16.5 12 16.5C13.1935 16.5 14.3381 16.0259 15.182 15.182C16.0259 14.338 16.5 13.1935 16.5 12C16.5 10.8065 16.0259 9.66191 15.182 8.818C14.3381 7.97409 13.1935 7.49998 12 7.49998C10.8065 7.49998 9.66193 7.97409 8.81802 8.818C7.97411 9.66191 7.5 10.8065 7.5 12ZM7.5 18.75C7.5 18.9489 7.57902 19.1397 7.71967 19.2803C7.86032 19.421 8.05109 19.5 8.25 19.5H15.75C15.9489 19.5 16.1397 19.421 16.2803 19.2803C16.421 19.1397 16.5 18.9489 16.5 18.75C16.5 18.5511 16.421 18.3603 16.2803 18.2197C16.1397 18.079 15.9489 18 15.75 18H8.25C8.05109 18 7.86032 18.079 7.71967 18.2197C7.57902 18.3603 7.5 18.5511 7.5 18.75Z" fill="#EDEDFD"/>
</svg>
