<svg width="20" height="18" viewBox="0 0 20 18" fill="none" xmlns="http://www.w3.org/2000/svg">
<path d="M3.15217 15.0873C1.89348 15.0873 0.869565 14.0265 0.869565 12.7073V3.55429C0.869565 2.23507 1.89348 1.17425 3.15217 1.17425H16.8478C18.1085 1.17425 19.1304 2.23983 19.1304 3.55429V12.7073C19.1304 14.0217 18.1085 15.0873 16.8478 15.0873H3.15217Z" fill="#C3A0CD" fill-opacity="0.5"/>
<path d="M19.1304 4.65251H0.869565V7.26121H19.1304V4.65251Z" fill="white"/>
<path d="M16.087 17.696C17.7678 17.696 19.1304 16.1387 19.1304 14.2177C19.1304 12.2967 17.7678 10.7395 16.087 10.7395C14.4061 10.7395 13.0435 12.2967 13.0435 14.2177C13.0435 16.1387 14.4061 17.696 16.087 17.696Z" fill="white"/>
<path d="M17.047 0.304688H2.95302C1.32483 0.304688 0 1.6156 0 3.22668V12.1653C0 13.7764 1.32483 15.0873 2.95302 15.0873H10.5638C10.8973 15.0873 11.1678 14.8197 11.1678 14.4896C11.1678 14.1596 10.8973 13.8919 10.5638 13.8919H2.95302C1.9906 13.8919 1.20805 13.1169 1.20805 12.1653V7.52997H18.7919V9.51559C18.7919 9.84565 19.0624 10.1133 19.396 10.1133C19.7295 10.1133 20 9.84565 20 9.51559V3.22668C20 1.6156 18.6752 0.304688 17.047 0.304688ZM2.95302 1.50005H17.047C18.0094 1.50005 18.7919 2.27504 18.7919 3.22668V3.62314H1.20805V3.22668C1.20805 2.27504 1.9906 1.50005 2.95302 1.50005ZM1.20805 6.33461V4.8185H18.7919V6.33527L1.20805 6.33461Z" fill="#A56EB4"/>
<path d="M3.22277 10.1484H5.10387C5.44297 10.1484 5.71793 9.89133 5.71793 9.57435C5.71793 9.25737 5.44297 9.00034 5.10387 9.00034H3.22277C2.88366 9.00034 2.6087 9.25737 2.6087 9.57435C2.6087 9.89133 2.88366 10.1484 3.22277 10.1484ZM3.22277 12.3092H6.98496C7.32407 12.3092 7.59903 12.0522 7.59903 11.7352C7.59903 11.4182 7.32407 11.1612 6.98496 11.1612H3.22277C2.88366 11.1612 2.6087 11.4182 2.6087 11.7352C2.6087 12.0522 2.88366 12.3092 3.22277 12.3092ZM13.3099 11.4399C12.5696 12.1319 12.1616 13.0522 12.1616 14.0312C12.1616 15.0103 12.5696 15.9306 13.3099 16.6226C14.0509 17.3146 15.0347 17.696 16.0821 17.696C17.1294 17.696 18.114 17.3146 18.8542 16.6226C20.3819 15.1939 20.3819 12.8692 18.8542 11.4405C17.3245 10.0106 14.8382 10.0112 13.3099 11.4399ZM17.9857 15.8107C16.9691 16.761 15.1951 16.7616 14.1784 15.8107C13.6695 15.3355 13.3897 14.7035 13.3897 14.0312C13.3897 13.359 13.6695 12.727 14.1784 12.2512C14.7031 11.7607 15.3923 11.5152 16.0821 11.5152C16.7719 11.5152 17.461 11.7607 17.9857 12.2512C19.0351 13.2327 19.0351 14.8298 17.9857 15.8107Z" fill="#A56EB4"/>
<path d="M18.2609 14.2171C18.2609 13.8794 17.987 13.6056 17.6492 13.6056H17.1334V13.09C17.1334 12.7524 16.8595 12.4786 16.5217 12.4786C16.184 12.4786 15.9101 12.7524 15.9101 13.09V13.6056H15.3943C15.0565 13.6056 14.7826 13.8794 14.7826 14.2171C14.7826 14.3862 14.8512 14.5391 14.962 14.6498C15.0728 14.7605 15.2257 14.8291 15.3949 14.8291H15.9108V15.3448C15.9108 15.5139 15.9794 15.6668 16.0902 15.7775C16.201 15.8882 16.3539 15.9569 16.5231 15.9569C16.8609 15.9569 17.1348 15.6831 17.1348 15.3454V14.8298H17.6506C17.987 14.8285 18.2609 14.5547 18.2609 14.2171Z" fill="#A56EB4"/>
</svg>
