<svg width="34" height="34" viewBox="0 0 34 34" fill="none" xmlns="http://www.w3.org/2000/svg">
<path d="M23.8 8.5H10.2C9.26112 8.5 8.5 9.26112 8.5 10.2V23.8C8.5 24.7389 9.26112 25.5 10.2 25.5H23.8C24.7389 25.5 25.5 24.7389 25.5 23.8V10.2C25.5 9.26112 24.7389 8.5 23.8 8.5Z" fill="white"/>
<path d="M1.7 11.9C1.24913 11.9 0.81673 11.7209 0.497918 11.4021C0.179107 11.0833 0 10.6509 0 10.2V1.7C0 1.24913 0.179107 0.81673 0.497918 0.497918C0.81673 0.179107 1.24913 0 1.7 0H10.2C10.6509 0 11.0833 0.179107 11.4021 0.497918C11.7209 0.81673 11.9 1.24913 11.9 1.7C11.9 2.15087 11.7209 2.58327 11.4021 2.90208C11.0833 3.22089 10.6509 3.4 10.2 3.4H3.4V10.2C3.4 10.6509 3.22089 11.0833 2.90208 11.4021C2.58327 11.7209 2.15087 11.9 1.7 11.9ZM10.2 34H1.7C1.24913 34 0.81673 33.8209 0.497918 33.5021C0.179107 33.1833 0 32.7509 0 32.3V23.8C0 23.3491 0.179107 22.9167 0.497918 22.5979C0.81673 22.2791 1.24913 22.1 1.7 22.1C2.15087 22.1 2.58327 22.2791 2.90208 22.5979C3.22089 22.9167 3.4 23.3491 3.4 23.8V30.6H10.2C10.6509 30.6 11.0833 30.7791 11.4021 31.0979C11.7209 31.4167 11.9 31.8491 11.9 32.3C11.9 32.7509 11.7209 33.1833 11.4021 33.5021C11.0833 33.8209 10.6509 34 10.2 34ZM32.3 34H23.8C23.3491 34 22.9167 33.8209 22.5979 33.5021C22.2791 33.1833 22.1 32.7509 22.1 32.3C22.1 31.8491 22.2791 31.4167 22.5979 31.0979C22.9167 30.7791 23.3491 30.6 23.8 30.6H30.6V23.8C30.6 23.3491 30.7791 22.9167 31.0979 22.5979C31.4167 22.2791 31.8491 22.1 32.3 22.1C32.7509 22.1 33.1833 22.2791 33.5021 22.5979C33.8209 22.9167 34 23.3491 34 23.8V32.3C34 32.7509 33.8209 33.1833 33.5021 33.5021C33.1833 33.8209 32.7509 34 32.3 34ZM32.3 11.9C31.8491 11.9 31.4167 11.7209 31.0979 11.4021C30.7791 11.0833 30.6 10.6509 30.6 10.2V3.4H23.8C23.3491 3.4 22.9167 3.22089 22.5979 2.90208C22.2791 2.58327 22.1 2.15087 22.1 1.7C22.1 1.24913 22.2791 0.81673 22.5979 0.497918C22.9167 0.179107 23.3491 0 23.8 0H32.3C32.7509 0 33.1833 0.179107 33.5021 0.497918C33.8209 0.81673 34 1.24913 34 1.7V10.2C34 10.6509 33.8209 11.0833 33.5021 11.4021C33.1833 11.7209 32.7509 11.9 32.3 11.9ZM27.2 18.7H6.8C6.34913 18.7 5.91673 18.5209 5.59792 18.2021C5.27911 17.8833 5.1 17.4509 5.1 17C5.1 16.5491 5.27911 16.1167 5.59792 15.7979C5.91673 15.4791 6.34913 15.3 6.8 15.3H27.2C27.6509 15.3 28.0833 15.4791 28.4021 15.7979C28.7209 16.1167 28.9 16.5491 28.9 17C28.9 17.4509 28.7209 17.8833 28.4021 18.2021C28.0833 18.5209 27.6509 18.7 27.2 18.7Z" fill="#FF7D91"/>
</svg>
