<svg width="24" height="24" viewBox="0 0 24 24" fill="none" xmlns="http://www.w3.org/2000/svg">
<path d="M7.366 21C7.224 21 7.105 20.952 7.009 20.856C6.913 20.76 6.86533 20.641 6.866 20.499C6.86667 20.357 6.91433 20.2383 7.009 20.143C7.10367 20.0477 7.22267 20 7.366 20H11.5V17.673C11.5 17.5317 11.548 17.413 11.644 17.317C11.74 17.221 11.859 17.173 12.001 17.173C12.143 17.173 12.2617 17.221 12.357 17.317C12.4523 17.413 12.5 17.5317 12.5 17.673V20H16.654C16.7953 20 16.914 20.048 17.01 20.144C17.106 20.24 17.154 20.359 17.154 20.501C17.154 20.643 17.106 20.7617 17.01 20.857C16.914 20.9523 16.7953 21 16.654 21H7.366ZM8.23 3H15.768C16.6567 3 17.4173 3.31633 18.05 3.949C18.6827 4.58167 18.9993 5.34233 19 6.231V15.404C19 16.1847 18.724 16.851 18.172 17.403C17.62 17.955 16.9537 18.231 16.173 18.231H14.827C14.669 18.231 14.5367 18.1777 14.43 18.071C14.3233 17.9637 14.27 17.831 14.27 17.673C14.27 17.049 14.0473 16.515 13.602 16.071C13.1567 15.6263 12.6217 15.404 11.997 15.404C11.3723 15.404 10.8383 15.626 10.395 16.07C9.95167 16.514 9.73033 17.0483 9.731 17.673C9.731 17.831 9.67767 17.9637 9.571 18.071C9.46367 18.1777 9.331 18.231 9.173 18.231H7.827C7.04633 18.231 6.38 17.955 5.828 17.403C5.276 16.851 5 16.1843 5 15.403V6.232C5 5.34333 5.31633 4.58267 5.949 3.95C6.58167 3.31733 7.34233 3.00067 8.231 3M6 6.77V10.539H18V6.769L6 6.77Z" fill="#4B5563"/>
</svg>
