<svg width="22" height="22" viewBox="0 0 22 22" fill="none" xmlns="http://www.w3.org/2000/svg">
<circle cx="11" cy="11" r="11" fill="white"/>
<path d="M11 2C9.21997 2 7.47991 2.52784 5.99987 3.51677C4.51983 4.50571 3.36628 5.91131 2.68509 7.55585C2.0039 9.20038 1.82567 11.01 2.17294 12.7558C2.5202 14.5016 3.37737 16.1053 4.63604 17.364C5.89472 18.6226 7.49836 19.4798 9.24419 19.8271C10.99 20.1743 12.7996 19.9961 14.4442 19.3149C16.0887 18.6337 17.4943 17.4802 18.4832 16.0001C19.4722 14.5201 20 12.78 20 11C20 9.8181 19.7672 8.64778 19.3149 7.55585C18.8626 6.46392 18.1997 5.47176 17.364 4.63604C16.5282 3.80031 15.5361 3.13738 14.4442 2.68508C13.3522 2.23279 12.1819 2 11 2ZM11 18.2C9.57598 18.2 8.18393 17.7777 6.9999 16.9866C5.81586 16.1954 4.89302 15.0709 4.34807 13.7553C3.80312 12.4397 3.66054 10.992 3.93835 9.59535C4.21616 8.19868 4.9019 6.91577 5.90883 5.90883C6.91577 4.90189 8.19869 4.21616 9.59535 3.93835C10.992 3.66053 12.4397 3.80312 13.7553 4.34807C15.071 4.89302 16.1954 5.81586 16.9866 6.99989C17.7777 8.18393 18.2 9.57597 18.2 11C18.2 12.9096 17.4414 14.7409 16.0912 16.0912C14.7409 17.4414 12.9096 18.2 11 18.2Z" fill="#FF5A7D"/>
<path d="M11 8.3C11.4971 8.3 11.9 7.89706 11.9 7.4C11.9 6.90294 11.4971 6.5 11 6.5C10.5029 6.5 10.1 6.90294 10.1 7.4C10.1 7.89706 10.5029 8.3 11 8.3Z" fill="#FF5A7D"/>
<path d="M11 9.2C10.7613 9.2 10.5324 9.29482 10.3636 9.4636C10.1948 9.63239 10.1 9.8613 10.1 10.1V14.6C10.1 14.8387 10.1948 15.0676 10.3636 15.2364C10.5324 15.4052 10.7613 15.5 11 15.5C11.2387 15.5 11.4676 15.4052 11.6364 15.2364C11.8052 15.0676 11.9 14.8387 11.9 14.6V10.1C11.9 9.8613 11.8052 9.63239 11.6364 9.4636C11.4676 9.29482 11.2387 9.2 11 9.2Z" fill="#FF5A7D"/>
</svg>
