<svg width="18" height="23" viewBox="0 0 18 23" fill="none" xmlns="http://www.w3.org/2000/svg">
<path d="M12.3192 0.676471H1.52698C1.066 0.676471 0.692308 1.03354 0.692308 1.47401V16.1142C0.692308 16.5547 1.066 16.9118 1.52698 16.9118H12.3192C12.7802 16.9118 13.1538 16.5547 13.1538 16.1142V1.47401C13.1538 1.03354 12.7802 0.676471 12.3192 0.676471Z" fill="#C3A0CD" fill-opacity="0.5"/>
<path d="M16.7334 17.25C16.1037 17.2485 15.4823 17.391 14.9191 17.6661C14.3558 17.9412 13.8662 18.3412 13.4894 18.8343C13.1127 19.3273 12.8592 19.8997 12.7493 20.5055C12.6394 21.1114 12.6761 21.734 12.8565 22.3235H16.0273C16.3155 22.3235 16.592 22.2116 16.7958 22.0125C16.9997 21.8133 17.1142 21.5432 17.1142 21.2615V17.2703L16.7334 17.25Z" fill="#A56EB4"/>
<path d="M16.6154 4.73529V16.5803C15.3824 16.6102 14.21 17.1091 13.3476 17.9707C12.4852 18.8323 12.0009 19.9887 11.9977 21.1938C11.9895 21.3448 11.9895 21.4961 11.9977 21.6471H7.61538V23H15.9231C16.4739 23 17.0022 22.7862 17.3917 22.4056C17.7812 22.025 18 21.5088 18 20.9706V4.73529H16.6154ZM15.9231 21.6471H13.4308C13.4026 21.4974 13.3864 21.3459 13.3823 21.1938C13.3854 20.348 13.7241 19.5364 14.327 18.9296C14.93 18.3227 15.7503 17.968 16.6154 17.94V20.9706C16.6154 21.15 16.5424 21.3221 16.4126 21.4489C16.2828 21.5758 16.1067 21.6471 15.9231 21.6471Z" fill="#A56EB4"/>
<path d="M18 2.02941V3.38235H16.6154V2.02941C16.6154 1.85 16.5424 1.67794 16.4126 1.55107C16.2828 1.42421 16.1067 1.35294 15.9231 1.35294H2.07692C1.89331 1.35294 1.71722 1.42421 1.58739 1.55107C1.45755 1.67794 1.38462 1.85 1.38462 2.02941V20.9706C1.38462 21.15 1.45755 21.3221 1.58739 21.4489C1.71722 21.5758 1.89331 21.6471 2.07692 21.6471H3.46154V23H2.07692C1.52609 23 0.997815 22.7862 0.608316 22.4056C0.218818 22.025 0 21.5088 0 20.9706V2.02941C0 1.49118 0.218818 0.97499 0.608316 0.594401C0.997815 0.213812 1.52609 0 2.07692 0H15.9231C16.4739 0 17.0022 0.213812 17.3917 0.594401C17.7812 0.97499 18 1.49118 18 2.02941ZM4.84615 21.6471H6.23077V23H4.84615V21.6471Z" fill="#A56EB4"/>
<path d="M4.27148 6.76471H13.8461V8.11765H4.27148V6.76471ZM4.27148 12.1765H13.8461V13.5294H4.27148V12.1765Z" fill="#A56EB4"/>
</svg>
