<svg width="24" height="24" viewBox="0 0 24 24" fill="none" xmlns="http://www.w3.org/2000/svg">
<g clip-path="url(#clip0_972_11015)">
<path fill-rule="evenodd" clip-rule="evenodd" d="M14.7285 2.79505C15.6345 2.92755 16.4925 3.35155 17.217 4.01705C17.3105 3.16155 16.98 2.35455 16.3195 1.97355C16.1486 1.87339 16.0243 1.70971 15.9737 1.51824C15.9231 1.32677 15.9503 1.12305 16.0493 0.951532C16.1483 0.780016 16.3112 0.654632 16.5023 0.602741C16.6934 0.55085 16.8973 0.576665 17.0695 0.674552C18.602 1.55955 18.986 3.34005 18.5695 4.86305C20.8845 5.35555 22.7495 7.41105 22.7495 10.0001C22.7495 10.199 22.6705 10.3897 22.5298 10.5304C22.3892 10.671 22.1984 10.7501 21.9995 10.7501C21.8006 10.7501 21.6098 10.671 21.4692 10.5304C21.3285 10.3897 21.2495 10.199 21.2495 10.0001C21.2495 8.44155 20.2935 7.14405 18.9945 6.56905C19.5125 8.05905 19.252 9.78905 18.1195 11.0101C18.0531 11.0843 17.9725 11.1445 17.8825 11.1872C17.7926 11.2299 17.695 11.2543 17.5955 11.2589C17.496 11.2636 17.3966 11.2483 17.303 11.2141C17.2095 11.1798 17.1237 11.1273 17.0507 11.0596C16.9777 10.9918 16.9189 10.9102 16.8777 10.8195C16.8366 10.7288 16.8139 10.6308 16.8111 10.5313C16.8082 10.4317 16.8252 10.3326 16.8611 10.2396C16.897 10.1467 16.951 10.0619 17.02 9.99005C17.908 9.03255 17.981 7.52255 17.263 6.41255C16.639 6.68655 16.005 7.31255 15.456 8.34255C14.9125 9.36105 14.507 10.6876 14.324 12.1936C13.5561 12.0645 12.7787 11.9998 12 12.0001C10.93 12.0001 9.886 12.1201 8.897 12.3496C9.559 8.67455 12.391 5.75455 16.019 4.96305C15.5435 4.57955 15.023 4.35405 14.511 4.27905C13.676 4.15655 12.7885 4.42105 12.036 5.19005C11.8957 5.32635 11.7077 5.40245 11.5121 5.40213C11.3165 5.4018 11.1288 5.32507 10.989 5.1883C10.8491 5.05153 10.7683 4.86555 10.7636 4.67C10.7589 4.47446 10.8308 4.28483 10.964 4.14155C12.034 3.04705 13.394 2.59905 14.7285 2.79505ZM18.444 15.1451C16.7645 13.9591 14.484 13.2501 12 13.2501C9.516 13.2501 7.236 13.9596 5.557 15.1451C3.9015 16.3136 2.779 17.9901 2.7505 19.9246C2.81717 19.8876 2.88267 19.8472 2.947 19.8036C3.55394 19.3956 4.26868 19.1777 5 19.1777C5.73132 19.1777 6.44606 19.3956 7.053 19.8036C7.47959 20.0942 7.98382 20.2496 8.5 20.2496C9.01618 20.2496 9.52041 20.0942 9.947 19.8036C10.5539 19.3956 11.2687 19.1777 12 19.1777C12.7313 19.1777 13.4461 19.3956 14.053 19.8036C14.4796 20.0942 14.9838 20.2496 15.5 20.2496C16.0162 20.2496 16.5204 20.0942 16.947 19.8036C17.5539 19.3956 18.2687 19.1777 19 19.1777C19.7313 19.1777 20.4461 19.3956 21.053 19.8036C21.1173 19.8469 21.1828 19.8872 21.2495 19.9246C21.221 17.9906 20.0985 16.3136 18.443 15.1446M17.7885 21.0446C18.511 20.5546 19.4885 20.5546 20.2105 21.0446C20.8856 21.5041 21.6833 21.7499 22.5 21.7501C22.6989 21.7501 22.8897 21.8291 23.0303 21.9697C23.171 22.1104 23.25 22.3011 23.25 22.5001C23.25 22.699 23.171 22.8897 23.0303 23.0304C22.8897 23.171 22.6989 23.2501 22.5 23.2501H1.5C1.30109 23.2501 1.11032 23.171 0.96967 23.0304C0.829018 22.8897 0.75 22.699 0.75 22.5001C0.75 22.3011 0.829018 22.1104 0.96967 21.9697C1.11032 21.8291 1.30109 21.7501 1.5 21.7501C2.2975 21.7501 3.095 21.5151 3.789 21.0451C4.5115 20.5551 5.489 20.5551 6.211 21.0451C6.905 21.5151 7.7025 21.7501 8.5 21.7501C9.2975 21.7501 10.095 21.5151 10.789 21.0451C11.5115 20.5551 12.489 20.5551 13.211 21.0451C13.905 21.5151 14.7025 21.7501 15.5 21.7501C16.2975 21.7501 17.095 21.5151 17.789 21.0451" fill="#4B5563"/>
</g>
<defs>
<clipPath id="clip0_972_11015">
<rect width="24" height="24" fill="white"/>
</clipPath>
</defs>
</svg>
