<svg width="24" height="24" viewBox="0 0 24 24" fill="none" xmlns="http://www.w3.org/2000/svg">
<g clip-path="url(#clip0_967_11089)">
<path fill-rule="evenodd" clip-rule="evenodd" d="M14.7285 2.79499C15.6345 2.92749 16.4925 3.35149 17.217 4.01699C17.3105 3.16149 16.98 2.35449 16.3195 1.97349C16.1486 1.87333 16.0243 1.70965 15.9737 1.51818C15.9231 1.32671 15.9503 1.12299 16.0493 0.951471C16.1483 0.779955 16.3112 0.654571 16.5023 0.60268C16.6934 0.550789 16.8973 0.576604 17.0695 0.674491C18.602 1.55949 18.986 3.33999 18.5695 4.86299C20.8845 5.35549 22.7495 7.41099 22.7495 9.99999C22.7495 10.1989 22.6705 10.3897 22.5298 10.5303C22.3892 10.671 22.1984 10.75 21.9995 10.75C21.8006 10.75 21.6098 10.671 21.4692 10.5303C21.3285 10.3897 21.2495 10.1989 21.2495 9.99999C21.2495 8.44149 20.2935 7.14399 18.9945 6.56899C19.5125 8.05899 19.252 9.78899 18.1195 11.01C18.0531 11.0842 17.9725 11.1444 17.8825 11.1872C17.7926 11.2299 17.695 11.2543 17.5955 11.2589C17.496 11.2635 17.3966 11.2482 17.303 11.214C17.2095 11.1798 17.1237 11.1273 17.0507 11.0595C16.9777 10.9918 16.9189 10.9102 16.8777 10.8195C16.8366 10.7288 16.8139 10.6308 16.8111 10.5312C16.8082 10.4316 16.8252 10.3325 16.8611 10.2396C16.897 10.1467 16.951 10.0618 17.02 9.98999C17.908 9.03249 17.981 7.52249 17.263 6.41249C16.639 6.68649 16.005 7.31249 15.456 8.34249C14.9125 9.36099 14.507 10.6875 14.324 12.1935C13.5561 12.0645 12.7787 11.9997 12 12C10.93 12 9.886 12.12 8.897 12.3495C9.559 8.67449 12.391 5.75449 16.019 4.96299C15.5435 4.57949 15.023 4.35399 14.511 4.27899C13.676 4.15649 12.7885 4.42099 12.036 5.18999C11.8957 5.32629 11.7077 5.40239 11.5121 5.40206C11.3165 5.40174 11.1288 5.32501 10.989 5.18824C10.8491 5.05147 10.7683 4.86549 10.7636 4.66994C10.7589 4.4744 10.8308 4.28477 10.964 4.14149C12.034 3.04699 13.394 2.59899 14.7285 2.79499ZM18.444 15.145C16.7645 13.959 14.484 13.25 12 13.25C9.516 13.25 7.236 13.9595 5.557 15.145C3.9015 16.3135 2.779 17.99 2.7505 19.9245C2.81717 19.8875 2.88267 19.8472 2.947 19.8035C3.55394 19.3955 4.26868 19.1776 5 19.1776C5.73132 19.1776 6.44606 19.3955 7.053 19.8035C7.47959 20.0941 7.98382 20.2496 8.5 20.2496C9.01618 20.2496 9.52041 20.0941 9.947 19.8035C10.5539 19.3955 11.2687 19.1776 12 19.1776C12.7313 19.1776 13.4461 19.3955 14.053 19.8035C14.4796 20.0941 14.9838 20.2496 15.5 20.2496C16.0162 20.2496 16.5204 20.0941 16.947 19.8035C17.5539 19.3955 18.2687 19.1776 19 19.1776C19.7313 19.1776 20.4461 19.3955 21.053 19.8035C21.1173 19.8468 21.1828 19.8872 21.2495 19.9245C21.221 17.9905 20.0985 16.3135 18.443 15.1445M17.7885 21.0445C18.511 20.5545 19.4885 20.5545 20.2105 21.0445C20.8856 21.504 21.6833 21.7498 22.5 21.75C22.6989 21.75 22.8897 21.829 23.0303 21.9697C23.171 22.1103 23.25 22.3011 23.25 22.5C23.25 22.6989 23.171 22.8897 23.0303 23.0303C22.8897 23.171 22.6989 23.25 22.5 23.25H1.5C1.30109 23.25 1.11032 23.171 0.96967 23.0303C0.829018 22.8897 0.75 22.6989 0.75 22.5C0.75 22.3011 0.829018 22.1103 0.96967 21.9697C1.11032 21.829 1.30109 21.75 1.5 21.75C2.2975 21.75 3.095 21.515 3.789 21.045C4.5115 20.555 5.489 20.555 6.211 21.045C6.905 21.515 7.7025 21.75 8.5 21.75C9.2975 21.75 10.095 21.515 10.789 21.045C11.5115 20.555 12.489 20.555 13.211 21.045C13.905 21.515 14.7025 21.75 15.5 21.75C16.2975 21.75 17.095 21.515 17.789 21.045" fill="#EDEDFD"/>
</g>
<defs>
<clipPath id="clip0_967_11089">
<rect width="24" height="24" fill="white"/>
</clipPath>
</defs>
</svg>
