<svg width="16" height="20" viewBox="0 0 16 20" fill="none" xmlns="http://www.w3.org/2000/svg">
<path d="M2 0C1.46957 0 0.960859 0.210714 0.585786 0.585786C0.210714 0.960859 0 1.46957 0 2V18C0 18.5304 0.210714 19.0391 0.585786 19.4142C0.960859 19.7893 1.46957 20 2 20H14C14.5304 20 15.0391 19.7893 15.4142 19.4142C15.7893 19.0391 16 18.5304 16 18V2C16 1.46957 15.7893 0.960859 15.4142 0.585786C15.0391 0.210714 14.5304 0 14 0H2ZM8 3C9.32608 3 10.5979 3.52678 11.5355 4.46447C12.4732 5.40215 13 6.67392 13 8C13 9.32608 12.4732 10.5979 11.5355 11.5355C10.5979 12.4732 9.32608 13 8 13C6.67392 13 5.40215 12.4732 4.46447 11.5355C3.52678 10.5979 3 9.32608 3 8C3 6.67392 3.52678 5.40215 4.46447 4.46447C5.40215 3.52678 6.67392 3 8 3ZM8 4C7.59 4.62 7.25 5.29 7.04 6H8.96C8.74524 5.28774 8.4214 4.61307 8 4ZM6.7 4.22C5.78 4.53 5 5.17 4.54 6H6C6.18 5.38 6.4 4.78 6.7 4.22ZM9.29 4.22C9.59 4.78 9.82 5.38 10 6H11.46C11 5.17 10.21 4.54 9.29 4.22ZM4.13 7C4.05 7.32 4 7.65 4 8C4 8.35 4.05 8.68 4.13 9H5.82C5.78 8.67 5.75 8.34 5.75 8C5.75 7.66 5.78 7.33 5.82 7H4.13ZM6.83 7C6.78 7.32 6.75 7.66 6.75 8C6.75 8.34 6.78 8.67 6.83 9H9.17C9.21 8.67 9.25 8.34 9.25 8C9.25 7.66 9.21 7.32 9.17 7H6.83ZM10.18 7C10.22 7.33 10.25 7.66 10.25 8C10.25 8.34 10.22 8.67 10.18 9H11.87C11.95 8.68 12 8.35 12 8C12 7.65 11.95 7.32 11.87 7H10.18ZM4.54 10C5 10.83 5.78 11.46 6.7 11.78C6.4 11.22 6.18 10.63 6 10H4.54ZM7.04 10C7.25 10.72 7.59 11.38 8 12C8.42 11.38 8.75 10.72 8.96 10H7.04ZM10 10C9.82 10.63 9.59 11.22 9.29 11.78C10.21 11.46 11 10.83 11.46 10H10ZM3 15H13V17H3V15Z" fill="#EDEDFD"/>
</svg>
