<svg width="16" height="21" viewBox="0 0 16 21" fill="none" xmlns="http://www.w3.org/2000/svg">
<path d="M2 0.670044C1.46957 0.670044 0.960859 0.880758 0.585786 1.25583C0.210714 1.6309 0 2.13961 0 2.67004V18.67C0 19.2005 0.210714 19.7092 0.585786 20.0843C0.960859 20.4593 1.46957 20.67 2 20.67H14C14.5304 20.67 15.0391 20.4593 15.4142 20.0843C15.7893 19.7092 16 19.2005 16 18.67V2.67004C16 2.13961 15.7893 1.6309 15.4142 1.25583C15.0391 0.880758 14.5304 0.670044 14 0.670044H2ZM8 3.67004C9.32608 3.67004 10.5979 4.19683 11.5355 5.13451C12.4732 6.07219 13 7.34396 13 8.67004C13 9.99613 12.4732 11.2679 11.5355 12.2056C10.5979 13.1433 9.32608 13.67 8 13.67C6.67392 13.67 5.40215 13.1433 4.46447 12.2056C3.52678 11.2679 3 9.99613 3 8.67004C3 7.34396 3.52678 6.07219 4.46447 5.13451C5.40215 4.19683 6.67392 3.67004 8 3.67004ZM8 4.67004C7.59 5.29004 7.25 5.96004 7.04 6.67004H8.96C8.74524 5.95779 8.4214 5.28311 8 4.67004ZM6.7 4.89004C5.78 5.20004 5 5.84004 4.54 6.67004H6C6.18 6.05004 6.4 5.45004 6.7 4.89004ZM9.29 4.89004C9.59 5.45004 9.82 6.05004 10 6.67004H11.46C11 5.84004 10.21 5.21004 9.29 4.89004ZM4.13 7.67004C4.05 7.99004 4 8.32004 4 8.67004C4 9.02004 4.05 9.35004 4.13 9.67004H5.82C5.78 9.34004 5.75 9.01004 5.75 8.67004C5.75 8.33004 5.78 8.00004 5.82 7.67004H4.13ZM6.83 7.67004C6.78 7.99004 6.75 8.33004 6.75 8.67004C6.75 9.01004 6.78 9.34004 6.83 9.67004H9.17C9.21 9.34004 9.25 9.01004 9.25 8.67004C9.25 8.33004 9.21 7.99004 9.17 7.67004H6.83ZM10.18 7.67004C10.22 8.00004 10.25 8.33004 10.25 8.67004C10.25 9.01004 10.22 9.34004 10.18 9.67004H11.87C11.95 9.35004 12 9.02004 12 8.67004C12 8.32004 11.95 7.99004 11.87 7.67004H10.18ZM4.54 10.67C5 11.5 5.78 12.13 6.7 12.45C6.4 11.89 6.18 11.3 6 10.67H4.54ZM7.04 10.67C7.25 11.39 7.59 12.05 8 12.67C8.42 12.05 8.75 11.39 8.96 10.67H7.04ZM10 10.67C9.82 11.3 9.59 11.89 9.29 12.45C10.21 12.13 11 11.5 11.46 10.67H10ZM3 15.67H13V17.67H3V15.67Z" fill="#4B5563"/>
</svg>
